<?xml version="1.0" encoding="utf-8"?>
<!-- Generator: Adobe Illustrator 19.2.0, SVG Export Plug-In . SVG Version: 6.00 Build 0)  -->
<svg version="1.1" id="Layer_1" xmlns="http://www.w3.org/2000/svg" xmlns:xlink="http://www.w3.org/1999/xlink" x="0px" y="0px"
	 viewBox="0 0 136 154" style="enable-background:new 0 0 136 154;" xml:space="preserve">
<style type="text/css">
	.st0{fill:#E74C3C;}
	.st1{fill:#3498DB;}
	.st2{fill:#F1C40F;}
	.st3{fill:#2ECC71;}
	.st4{fill:#E67E22;}
	.st5{fill:#95A5A6;}
	.st6{fill:#ECF0F1;}
	.st7{fill:#1ABC9C;}
	.st8{fill:#C0392B;}
</style>
<g id="Layer_1_1_">
	<g>
		<g>
			<g>
				<g>
					<path class="st0" d="M21.6,16.3l0.6,0.1c0.8,0.2,1.6,0,2.2-0.4l0.4-0.3l0,0.1c0.1,0.9,0.6,1.7,1.5,2.1l0.2,0.1l-0.4,0.1
						c-0.8,0.3-1.5,0.9-1.7,1.6l-0.1,0.2L24,19.6c-0.6-0.6-1.4-0.8-2.2-0.8l-0.5,0l0-0.1C21.9,18.1,22,17.1,21.6,16.3L21.6,16.3z"/>
					<polygon class="st1" points="57.7,141.4 55.4,140.8 53.7,142.4 53.6,140 51.6,138.6 53.7,137.8 54.3,135.3 55.8,137.3 
						58.1,137.1 56.8,139.1 					"/>
					<polygon class="st2" points="24.1,109.6 23.5,107.9 21.3,107.3 23.2,106.3 23.2,104.5 25,105.6 27.2,105 26.4,106.7 
						27.8,108.3 25.4,108.2 					"/>
					<polygon class="st3" points="124,58 124.5,60 126.3,60.6 124.7,61.8 124.7,63.8 123.2,62.5 121.4,63.1 122,61.2 120.9,59.6 
						122.8,59.6 					"/>
					<ellipse class="st4" cx="49.3" cy="49.3" rx="2.3" ry="2"/>
					<path class="st5" d="M71.8,81.7c-1-1.1-2.6-1.1-3.6,0s-1,2.9,0,3.9c1,1.1,2.6,1.1,3.6,0S72.8,82.8,71.8,81.7z"/>
					<polygon class="st6" points="110.7,112.3 112.1,109.7 113.5,112.5 112,115 					"/>
					<polygon class="st7" points="72.6,32.9 75.7,30.5 78.5,33.1 75.4,35.5 					"/>
					<polygon class="st8" points="14.5,56.4 17.7,53.5 20.6,56.6 17.4,59.5 					"/>
				</g>
			</g>
		</g>
	</g>
</g>
</svg>
