<?xml version="1.0" encoding="utf-8"?>
<!-- Generator: Adobe Illustrator 19.2.0, SVG Export Plug-In . SVG Version: 6.00 Build 0)  -->
<svg version="1.1" id="Layer_1" xmlns="http://www.w3.org/2000/svg" xmlns:xlink="http://www.w3.org/1999/xlink" x="0px" y="0px"
	 viewBox="0 0 150 150" style="enable-background:new 0 0 150 150;" xml:space="preserve">
<style type="text/css">
	.st0{fill:#FFFFFF;}
	.st1{opacity:0.2;fill:#FFFFFF;}
</style>
<g>
	<path class="st0" d="M42.6,31.4h64.8c6.2,0,11.2,5,11.2,11.2v64.8c0,6.2-5,11.2-11.2,11.2H42.6c-6.2,0-11.2-5-11.2-11.2V42.6
		C31.4,36.4,36.4,31.4,42.6,31.4z M94.9,41.1c-2.2,0-3.9,1.8-3.9,3.9v9.4c0,2.2,1.8,3.9,3.9,3.9h9.9c2.2,0,3.9-1.8,3.9-3.9V45
		c0-2.2-1.8-3.9-3.9-3.9H94.9z M108.7,68.3h-7.7c0.7,2.4,1.1,4.9,1.1,7.5c0,14.5-12.1,26.3-27.1,26.3C60.1,102,48,90.3,48,75.8
		c0-2.6,0.4-5.1,1.1-7.5h-8v36.9c0,1.9,1.6,3.5,3.5,3.5h60.7c1.9,0,3.5-1.6,3.5-3.5V68.3z M75.1,57.8c-9.7,0-17.5,7.6-17.5,17
		c0,9.4,7.8,17,17.5,17c9.7,0,17.5-7.6,17.5-17C92.6,65.4,84.7,57.8,75.1,57.8z"/>
	<polygon class="st1" points="150,0 0,150 150,150 	"/>
</g>
</svg>
