<?xml version="1.0" encoding="utf-8"?>
<!-- Generator: Adobe Illustrator 19.2.0, SVG Export Plug-In . SVG Version: 6.00 Build 0)  -->
<svg version="1.1" id="Layer_1" xmlns="http://www.w3.org/2000/svg" xmlns:xlink="http://www.w3.org/1999/xlink" x="0px" y="0px"
	 viewBox="0 0 500 500" style="enable-background:new 0 0 500 500;" xml:space="preserve">
<style type="text/css">
	.st0{opacity:0.63;fill:url(#SVGID_1_);enable-background:new    ;}
	.st1{fill:#F2C194;}
	.st2{fill:#CE996E;}
	.st3{fill:#FFFFFF;}
	.st4{fill:#231F20;}
	.st5{fill:#E6E7E8;}
	.st6{fill:#333334;}
	.st7{fill:#E2B088;}
	.st8{fill:none;stroke:#231F20;stroke-width:2.0732;stroke-linecap:round;stroke-linejoin:round;stroke-miterlimit:10;}
	.st9{opacity:0.3;fill:#F2C194;enable-background:new    ;}
	.st10{opacity:0.2;fill:#FFFFFF;enable-background:new    ;}
	.st11{fill:#4F2600;}
	.st12{opacity:0.3;fill:#451905;enable-background:new    ;}
	.st13{fill:#663700;}
	.st14{fill:#F3F4F4;}
	.st15{fill:#F9D8B8;}
	.st16{fill:#F2CAAA;}
	.st17{fill:none;stroke:#F1645D;stroke-width:2.0732;stroke-linecap:round;stroke-linejoin:round;stroke-miterlimit:10;}
	.st18{fill:#F9E8D5;}
	.st19{fill:#FBBB9B;}
	.st20{opacity:0.7;}
	.st21{fill:#F1EDEC;}
	.st22{fill:#F7F5F5;}
	.st23{fill:#808080;}
	.st24{fill:#FF46A3;}
	.st25{fill:#FF295C;}
	.st26{fill:#FF435A;stroke:#666666;stroke-width:2;stroke-miterlimit:10;}
	.st27{fill:none;}
	.st28{font-family:'Tw Cen MT Condensed';}
	.st29{font-size:60px;}
</style>
<linearGradient id="SVGID_1_" gradientUnits="userSpaceOnUse" x1="250.9" y1="500" x2="250.9" y2="-3.4">
	<stop  offset="0" style="stop-color:#FF7BAC"/>
	<stop  offset="0.2002" style="stop-color:#FFA5C6"/>
	<stop  offset="0.5316" style="stop-color:#FFE6EF"/>
	<stop  offset="0.6882" style="stop-color:#FFFFFF"/>
</linearGradient>
<rect x="0.9" y="-3.4" class="st0" width="500" height="503.4"/>
<g>
	<g>
		<g>
			<g>
				<path class="st1" d="M152.9,310.6c0,0-4.7-2.2-7.2-3.1s-3.9,3.3-4.5,6.1c-0.4,1.6-0.9,6.6,0.9,7.8c1.8,1.2,4.2,1.6,4.9,0.8
					c1.4-0.7,1.6-3.4,1.6-3.4c-0.1,0.7,0.7,1.4,1.5,0.7C150.9,318.8,153.7,313.1,152.9,310.6z"/>
				<path class="st1" d="M241.7,296.2c0,0,3-3.9,4.7-5.8s4.7,1.1,6.5,3.1c1,1.2,3.7,5.1,2.7,7c-1,1.8-2.8,3.2-3.8,2.8
					c-1.5,0-2.9-2.2-2.9-2.2c0.4,0.5,0,1.5-1,1.2C247,302.2,242.1,298.6,241.7,296.2z"/>
				<path class="st2" d="M189.2,214.6l15.8-2.5c0,0,1,16.3,3.1,20.2l-14.7,3.5C193.4,235.8,193.4,216.1,189.2,214.6z"/>
				<polygon class="st3" points="182.2,222.8 192.3,220 198.9,227.3 205.1,218.5 215.8,224 221.1,291.7 222.9,315.8 210.5,314.7 
					194.2,321.3 				"/>
				<path class="st4" d="M168.2,278.8c-0.7,6.7-7.4,38.1-5.6,39.2c1.9,1.1,30.4,11.8,30.4,10.7c0-1.1,6.7-37.4,6.7-37.4l-14.1-68.5
					l-22.8,6.8l-6.8,37c0,0-15.2,43.6-14.1,43.2c1.1-0.4,10.9,5.4,10.9,5.4L168.2,278.8z"/>
				<polygon class="st5" points="211.5,230.7 209.3,289.2 222.9,315.8 220.2,280.7 				"/>
				<polygon class="st4" points="210.7,222.1 213,289.5 230,316.2 233.4,292.9 223.4,279.2 223.7,270.1 228.3,279.3 241.6,299.2 
					250.9,289.9 234.3,265.2 224.4,226.7 				"/>
				<g>
					<polygon class="st5" points="200.6,229.6 205.1,221.1 213.7,222.5 205.2,239.6 					"/>
					<polygon class="st3" points="198.9,227.3 205.1,218.5 213.7,222.5 205.2,237.1 					"/>
				</g>
				<g>
					<polygon class="st5" points="198.9,229.9 192.7,222.6 184.5,224 195.2,239.5 					"/>
					<polygon class="st3" points="198.9,227.3 192.7,220 183.6,222.5 193.8,239.2 					"/>
				</g>
				<path class="st6" d="M169.7,281.7l8.5,2.2l-7.8-4.7l9.3-8.2l-8.9,4.4l-1.9-22.4l-2.4,22.1l-13.8,40.2l15.4-36.5
					c-0.7,6.7-7.4,38.1-5.6,39.2c1.7,1,24.9,9.8,29.5,10.7h0.8l-28.7-12.4L169.7,281.7z"/>
				<path class="st6" d="M224.1,264.7l-3.7-17l0.4,19.6l0.4,5.9l0.7,6.3l-0.7,7l2.2-7.4l0.3-9.1l4.6,9.2l1.3,1.9l0,0
					C228.3,279.3,224.1,264.7,224.1,264.7z"/>
				<circle class="st6" cx="189.1" cy="287.5" r="2.4"/>
				<circle class="st6" cx="217.6" cy="287.3" r="2.4"/>
			</g>
			<g>
				<g>
					<path class="st4" d="M200.2,226l5.9-4.7c0,0,1.3,0.8,1.4,2.2c0.1,1.4,0.6,6.3,0.6,6.3l-7.6-0.2L200.2,226z"/>
					<path class="st6" d="M200.7,228.5l7.4,0.1l-6.1-0.4c0,0-0.2-0.4-0.2-0.7c0-0.4,2.9-1.5,2.9-1.5l-3,0.6l0.6-0.9l-2,1.1
						L200.7,228.5z"/>
				</g>
				<g>
					<path class="st4" d="M197.6,226.6l-6.4-4c0,0-1.2,0.9-1.2,2.3c0.1,1.4,0.1,6.3,0.1,6.3l7.5-1L197.6,226.6z"/>
					<path class="st6" d="M197.6,229.1l-7.5,1.7l6-1.8c0,0,0.1-0.4,0.1-0.8c0-0.4-3-1.2-3-1.2l3,0.3l-0.7-0.8l2.1,0.9L197.6,229.1z"
						/>
				</g>
				<g>
					<g>
						<polygon class="st4" points="198.8,226 200.7,224.8 201.6,230.8 197,231.8 196.6,224.7 						"/>
					</g>
					<path class="st6" d="M197.1,225.3l1.6,1.2l1.9-1.4c0,0,0.2,3.5,0.2,3.3c-0.1-0.2-0.8-2.3-0.8-2.3l-1.2,1.1l-1-1
						c0,0,0.2,2.2,0.2,2C197.9,228.2,197.1,225.3,197.1,225.3z"/>
				</g>
			</g>
		</g>
		<g>
			<ellipse class="st7" cx="239.4" cy="167.1" rx="7.5" ry="8.9"/>
			<path class="st7" d="M157.2,179.8c1.5,5.1-3.5,9.6-7.8,9.6s-7.8-4.3-7.8-9.6s3.5-9.6,7.8-9.6S155.7,174.7,157.2,179.8z"/>
			<path class="st1" d="M243,167.8c-0.6,29.1-22.6,52.3-48.8,52.3c-26,0-46.8-22.9-46.8-51.5c0-29,21.4-53.1,48-53.6
				C222.3,114.5,243.7,138.3,243,167.8z"/>
			<path class="st8" d="M194.1,195.2c0,0,4,7.1,12.8,5.5s7.2-10.4,7.2-10.4"/>
			<g>
				<path class="st4" d="M168.2,166.4c0,0,5.6-9.8,15.3-2.6C183.5,163.9,174.6,151.6,168.2,166.4z"/>
				<ellipse class="st4" cx="178.2" cy="177.1" rx="5.3" ry="6.3"/>
			</g>
			<ellipse class="st3" cx="179.8" cy="177.7" rx="1.5" ry="1.8"/>
			<g>
				<path class="st4" d="M210.2,158.5c0,0,5.6-9.8,15.3-2.6C225.5,156,216.6,143.7,210.2,158.5z"/>
				<g>
					<ellipse class="st4" cx="220.4" cy="170.5" rx="5.3" ry="6.3"/>
					<ellipse class="st3" cx="221.8" cy="171.1" rx="1.5" ry="1.8"/>
				</g>
			</g>
			<path class="st9" d="M158.2,185c-5.1-16.7,8.7-31.9,8.7-31.9c-5-4.3-10.3-5.8-15.3-5.9c-2.7,6.6-4.2,13.8-4.2,21.4
				c0,27.6,19.5,49.9,44.3,51.3C173.9,212.9,163.2,201.4,158.2,185z"/>
			<path class="st9" d="M176.4,151.1c0,0,23.6,0.9,34.7-7c11.2-7.9,12.9-13.3,12.9-13.3S196.5,139.1,176.4,151.1z"/>
			<path class="st10" d="M235.2,138.3c0,0,12.6,44.5-14.2,72.2C220.9,210.6,255.6,184.6,235.2,138.3z"/>
			<g>
				<path class="st11" d="M239.7,162.6c0,0,1.5-27.5-15.7-31.9c0,0-23.3,18.9-42.9,20s-33.4,8-32.3,31.8c0,0-11.7-20.1-9.4-42.3
					c2.2-22.2,31.3-49.5,71-41.3s21.5,20.4,21.5,20.4s18.4,4.1,11.7,40.3L239.7,162.6z"/>
				<path class="st12" d="M162.7,123.3c17-24.4,61.2-20.8,61.3-20.8c-3.5-1.3-7.9-2.5-13.5-3.7c-39.6-8.1-68.7,19.1-71,41.3
					c-2.2,22.2,9.4,42.3,9.4,42.3C147.7,149.8,145.6,147.7,162.7,123.3z"/>
				<path class="st12" d="M231,122.7c0,0,10.4,10.4,8.8,37.2c0,0.8,0,1.4,0,1.8l3.9-3.2c3.7-21.2-1.3-31.1-5.9-35.6l-5.9-3.6
					L231,122.7z"/>
				<path class="st13" d="M224.9,107.4c0,0-49.6-5.1-63.5,30.1c0,0,13.3-20.8,38.4-24.3c0,0-13.6,10.4-16.9,19.2
					C182.9,132.5,203.4,110.9,224.9,107.4z"/>
			</g>
		</g>
	</g>
	<g>
		<g>
			<path class="st14" d="M350.9,246.8c0,0-1.4,9.1-3.8,9.3c-2.4,0.2-30.8-10-47.8-11.8c-17-1.7-35.9,4.9-35.9,4.9s1.5-11.2,1.8-13.9
				c0-0.2-0.1-0.5-0.3-0.7c0.4-2.9,0.8-5.4,1.1-7c1.3-7,11.4-59.8,15.9-65.6c4.4-5.8,12.8-36.5,15-37c2.2-0.4,22.5-3.5,26.4-1.3
				c4,2.2,22.4,4.7,22.9,16.3s14.2,38.5,13.5,49.2s-18.3,52.1-17.9,53.4L350.9,246.8z"/>
		</g>
		<g>
			<path class="st3" d="M313.5,103.6c0,0,5.8,2.2,14.5,2.6s19.7-4.6,32.2,9.5s29.1,40,23.4,95.5s-2.3,44-2.3,44s-24.9-6.1-30.3-8.5
				c0,0-1.4,9.1-3.8,9.3c-2.4,0.2-30.8-10-47.8-11.8c-17-1.7-35.9,4.9-35.9,4.9s1.5-11.2,1.8-13.9s-14.8-3-21.2-2.4
				c0,0,15.9-73.8,24.5-96.1C277.2,114.6,290,99.6,313.5,103.6z"/>
			<path class="st5" d="M352.1,178.2c0,0-13.3,71.2-14.6,72.2c-1.3,1-21.8-3.2-21.8-3.2s0.5,0.2,1.5,0.6c14.2,3.6,28.3,8.5,30,8.3
				c2.4-0.2,3.8-9.3,3.8-9.3l-9-4.2c-0.3-0.9,2.9-19.4,8.2-34.6L352.1,178.2z"/>
			<path class="st5" d="M288.9,244.2l-2.9-1.8c0,0-16.7,5.4-18.3,2.1c-0.8-1.7,0.6-18.8,2.1-35c-1.8,8.8-3.1,15.9-3.6,18.2
				c-0.3,1.6-0.7,4.1-1.1,7c0.2,0.2,0.3,0.4,0.3,0.7c-0.3,2.7-1.8,13.9-1.8,13.9S275.5,245,288.9,244.2z"/>
		</g>
		<path class="st15" d="M265.5,297.5c20-15.7,22.4-22.1,22.4-22.1s14.4-35,9.4-43.2c0,0-8.2,1.1-10.1,7.7c-1.9,6.6-6.8,29-8.4,32.9
			s-17.4,15.1-17.4,15.1s-5.5,5.9-5,8.1c0.9,4.1,6.1,0.4,6.1,0.4S262.4,300,265.5,297.5z"/>
		<path class="st15" d="M284.6,239.8l0.5,5.4c25.7,3,25.2-17.3,25.2-17.3l-0.5-8.9l-13.6-1.1C296.2,217.9,297.3,232.2,284.6,239.8"
			/>
		<path class="st3" d="M310.3,227.9c0,0-8.4,10.9-10.4,13.8c-2,3-8.4-1-14.8,3.5l-0.5-5.4c0,0-4.4,5.4-6.4,9.4c-2,3.9-3,8.9,0,11.8
			c3,3,4.4,10.4,7.4,16.3s1.5,16.3,1.5,16.3l-11,19l44.5-0.3c0,0-1-34.5-0.5-43.9s3.5-17.8,4-20.2c0.5-2.5-1-14.8-4.9-16.8
			C315.2,229.4,310.3,227.9,310.3,227.9z"/>
		<path class="st9" d="M296,222.2c0,0,4.8,6,14.1,2.1C310.1,224.3,301,222.4,296,222.2z"/>
		<path class="st16" d="M274.6,169.9c-0.7,4.9-4.7,8.4-8.9,7.8c-4.2-0.6-7.1-5-6.4-9.9s4.7-8.4,8.9-7.8
			C272.4,160.6,275.2,165.1,274.6,169.9z"/>
		<path class="st16" d="M360,186c-1.7,4.6-6.4,7.2-10.5,5.6c-4.1-1.5-6-6.5-4.3-11.1s6.4-7.2,10.5-5.6
			C359.7,176.4,361.7,181.4,360,186z"/>
		<path class="st15" d="M354.2,180.5c-3.9,27.4-27,46.7-51.8,43.2c-24.7-3.5-41.7-28.5-37.8-55.8c3.8-27.4,27-46.7,51.7-43.2
			C341.1,128.2,358,153.2,354.2,180.5z"/>
		<g>
			<g>
				<path class="st4" d="M318.8,165.1c0,0,8.1-7.9,15.4,1.8C334.2,166.8,329.1,152.6,318.8,165.1z"/>
				<g>
					<g>
						
							<ellipse transform="matrix(0.2768 -0.9609 0.9609 0.2768 62.908 442.4712)" class="st4" cx="325.4" cy="179.4" rx="6.3" ry="5.3"/>
						
							<ellipse transform="matrix(0.2769 -0.9609 0.9609 0.2769 60.9792 440.967)" class="st3" cx="323.5" cy="180" rx="1.8" ry="1.5"/>
					</g>
					<path class="st4" d="M329,174.4c0,0,4.9,2.3,5.8-0.3c0,0-1.5,3.6-5.3,2C329.4,176.1,328.4,174.8,329,174.4z"/>
				</g>
			</g>
			<g>
				<path class="st4" d="M297.9,163c0,0-4.7-10.2-15.1-3.9C282.8,159.1,292.8,147.6,297.9,163z"/>
				<g>
					<g>
						
							<ellipse transform="matrix(8.504232e-002 -0.9964 0.9964 8.504232e-002 89.7632 447.9715)" class="st4" cx="288.8" cy="175.1" rx="6.3" ry="5.3"/>
						<path class="st3" d="M285.7,175.5c-0.1,1,0.5,1.8,1.3,1.9c0.8,0.1,1.5-0.7,1.6-1.6c0.1-1-0.5-1.8-1.3-1.9
							C286.6,173.8,285.8,174.5,285.7,175.5z"/>
					</g>
					<path class="st4" d="M287,169.1c0,0-5.4,0.4-5.3-2.3c0,0,0.1,3.9,4.3,3.7C286,170.5,287.4,169.7,287,169.1z"/>
				</g>
			</g>
			<path class="st17" d="M294.8,199c0,0,0.2,7.3,8.9,9.5c8.7,2.2,11.3-6.4,11.3-6.4"/>
		</g>
		<g>
			<path class="st18" d="M369.8,199.8c1.5-0.9,2.6-3.9,0-4.8c-2.6-1-2.9,4-2.9,4c-0.6-2.9-2.6-5.5-4.8-3.1c-2.2,2.4,2.1,4.6,2.1,4.6
				c-2.2,0.1-3.6,1.2-3,2.9c0.8,2.4,4.6,0.2,4.6,0.2c-0.2,1.8,0,4.5,2.9,4.7c2.9,0.1,0.7-4.6,0.7-4.6c1.7,0.7,4.1,1.2,4.3-1.8
				C373.7,198.9,369.8,199.8,369.8,199.8z M367.4,202.5c-0.6,0-1.1-0.5-1.1-1.1s0.5-1.1,1.1-1.1s1.1,0.5,1.1,1.1
				C368.4,202,368,202.5,367.4,202.5z"/>
			<path class="st18" d="M368.8,229.4c1.3,0.7,3.9,0.2,3.5-2.1s-4.1-0.4-4.1-0.4c1.8-1.7,2.8-4.2,0.1-4.8c-2.7-0.5-2.3,3.5-2.3,3.5
				c-1-1.5-2.4-2.1-3.3-0.9c-1.4,1.6,1.8,3.3,1.8,3.3c-1.4,0.6-3.2,1.9-2.1,4.1c1.1,2.2,3.6-1.5,3.6-1.5c0.2,1.5,0.9,3.4,3.1,2.3
				C371.1,231.8,368.8,229.4,368.8,229.4z M365.9,228.8c-0.3-0.4-0.1-1,0.3-1.2c0.4-0.3,1-0.1,1.2,0.3c0.2,0.4,0.1,1-0.3,1.2
				S366.1,229.2,365.9,228.8z"/>
			<path class="st15" d="M359,216.3c1,0.1,2.7-0.9,1.7-2.3c-0.9-1.4-2.9,0.9-2.9,0.9c0.8-1.6,0.7-3.6-1.2-3.2c-1.9,0.4-0.6,3-0.6,3
				c-1.1-0.7-2.2-0.7-2.5,0.3c-0.5,1.5,2.1,1.8,2.1,1.8c-0.8,0.8-1.6,2.2-0.3,3.3c1.4,1.1,2-2,2-2c0.5,1,1.6,2,2.7,0.7
				C361.2,217.2,359,216.3,359,216.3z M356.9,216.6c-0.3-0.2-0.3-0.6-0.1-0.9c0.2-0.3,0.6-0.3,0.9-0.1s0.3,0.6,0.1,0.9
				C357.6,216.8,357.2,216.9,356.9,216.6z"/>
		</g>
		<g>
			<path class="st18" d="M260.7,216.6c1.3,0.7,3.9,0.2,3.5-2.1s-4.1-0.4-4.1-0.4c1.8-1.7,2.8-4.2,0.1-4.8c-2.7-0.5-2.3,3.5-2.3,3.5
				c-1-1.5-2.4-2.1-3.3-0.9c-1.4,1.6,1.8,3.3,1.8,3.3c-1.4,0.6-3.2,1.9-2.1,4.1c1.1,2.2,3.6-1.5,3.6-1.5c0.2,1.5,0.9,3.4,3.1,2.3
				C263,219,260.7,216.6,260.7,216.6z M257.8,215.9c-0.3-0.4-0.1-1,0.3-1.2c0.4-0.3,1-0.1,1.2,0.3c0.2,0.4,0.1,1-0.3,1.2
				C258.6,216.5,258,216.3,257.8,215.9z"/>
			<path class="st15" d="M266.2,201.6c1-0.3,2.1-1.9,0.7-2.8c-1.4-1-2.3,1.9-2.3,1.9c0.1-1.8-0.7-3.6-2.4-2.5c-1.6,1.1,0.6,3,0.6,3
				c-1.3-0.2-2.3,0.2-2.2,1.2c0.1,1.5,2.6,0.8,2.6,0.8c-0.4,1-0.7,2.6,1,3.2c1.7,0.5,1.1-2.6,1.1-2.6c0.9,0.7,2.2,1.3,2.7-0.4
				C268.6,201.7,266.2,201.6,266.2,201.6z M264.3,202.8c-0.3-0.1-0.5-0.4-0.5-0.8c0.1-0.3,0.4-0.5,0.8-0.5c0.3,0.1,0.5,0.4,0.5,0.8
				C265,202.6,264.7,202.8,264.3,202.8z"/>
		</g>
		<g>
			<path class="st11" d="M265.8,161.2c0,0,5.2-16.8,13.9-20.9c32.5-15.4,75.5,0.7,73,31.7c-0.9,11.4-4.2,29.7-4.2,29.7l4.7-20.6
				c0,0,14.1-8.6,15.6-13.7c5.6-19-7.6-45.1-37.9-53.3C302.3,106.5,265.2,115.4,265.8,161.2z"/>
			<path class="st12" d="M368.8,167.4c4.5-15.6-3.4-35.8-23.1-47.2c0.2,0.3,15.6,20.2,13.7,37.3c-2,17.3-6.8,17.2-6.8,17.2
				c-1.2,11.4-4,26.9-4,26.9l4.7-20.6C353.2,181.1,367.3,172.5,368.8,167.4z"/>
			<path class="st13" d="M316.6,114.6c0,0-36.1,1.7-42.3,25c0,0,6.6-13.7,23-18c0,0-8.8,8.2-10.5,14.1
				C286.8,135.7,299.8,119.5,316.6,114.6z"/>
		</g>
		<g>
			<path class="st18" d="M340.2,114.2c1.3-2.6,0.3-8-4.3-7c-4.7,1-0.6,8.5-0.6,8.5c-3.5-3.7-8.8-5.6-9.8-0.1s7.2,4.7,7.2,4.7
				c-3,2.2-4.1,4.9-1.8,6.8c3.4,2.8,6.8-3.8,6.8-3.8c1.3,2.8,4.1,6.6,8.5,4.1c4.4-2.4-3.2-7.3-3.2-7.3c3.1-0.5,7-2,4.6-6.4
				C345,109.5,340.2,114.2,340.2,114.2z M339,120.3c-0.9,0.5-2,0.3-2.5-0.6c-0.5-0.8-0.3-2,0.6-2.5s2-0.3,2.5,0.6
				C340.1,118.6,339.8,119.7,339,120.3z"/>
			<path class="st19" d="M354.5,126.7c0.9,1.3,3.7,2.1,4.4-0.3c0.7-2.4-3.9-2.4-3.9-2.4c2.6-0.7,4.8-2.7,2.5-4.5
				c-2.4-1.8-4,2.2-4,2.2c-0.3-2-1.3-3.2-2.8-2.5c-2.2,0.9,0.1,4.1,0.1,4.1c-1.7-0.1-4.1,0.3-4.1,2.9c0.1,2.7,4.3,0.3,4.3,0.3
				c-0.5,1.6-0.8,3.8,1.9,3.7C355.6,130.2,354.5,126.7,354.5,126.7z M351.9,124.7c0-0.5,0.4-1,0.9-1s1,0.4,1,0.9s-0.4,1-0.9,1
				S351.9,125.2,351.9,124.7z"/>
			<path class="st18" d="M309.2,113.1c0.7,0.6,2.6,0.7,2.6-0.9s-2.7-0.8-2.7-0.8c1.5-0.8,2.5-2.4,0.8-3.1s-2.1,2-2.1,2
				c-0.5-1.2-1.3-1.7-2.1-1.1c-1.2,0.9,0.7,2.5,0.7,2.5c-1,0.2-2.5,0.8-2,2.4s2.6-0.5,2.6-0.5c-0.1,1,0.1,2.4,1.7,2
				C310.4,115,309.2,113.1,309.2,113.1z M307.3,112.3c-0.1-0.3,0.1-0.7,0.4-0.8c0.3-0.1,0.7,0.1,0.8,0.4c0.1,0.3-0.1,0.7-0.4,0.8
				C307.7,112.8,307.4,112.6,307.3,112.3z"/>
			<path class="st18" d="M361.4,135c0.9,0.4,2.7,0.1,2.4-1.5c-0.3-1.5-2.9-0.2-2.9-0.2c1.2-1.2,1.9-2.9,0-3.2
				c-1.8-0.3-1.6,2.4-1.6,2.4c-0.7-1-1.7-1.4-2.3-0.6c-0.9,1.1,1.3,2.2,1.3,2.2c-1,0.5-2.2,1.4-1.4,2.8c0.8,1.4,2.4-1.1,2.4-1.1
				c0.2,1,0.7,2.3,2.2,1.5C363,136.6,361.4,135,361.4,135z M359.4,134.7c-0.2-0.3-0.1-0.6,0.2-0.8c0.3-0.2,0.7-0.1,0.8,0.2
				c0.2,0.3,0.1,0.7-0.2,0.8C359.9,135,359.6,135,359.4,134.7z"/>
			<path class="st19" d="M321.5,113.2c1.6,0.1,4-1.5,2.6-3.6c-1.5-2.1-4.3,1.5-4.3,1.5c1.1-2.5,1-5.5-2-4.8
				c-2.9,0.7-0.8,4.5-0.8,4.5c-1.7-1-3.3-1-3.8,0.6c-0.7,2.2,3.3,2.5,3.3,2.5c-1.1,1.2-2.4,3.4-0.3,5s2.9-3.1,2.9-3.1
				c0.9,1.4,2.4,3,4.1,0.9C324.9,114.6,321.5,113.2,321.5,113.2z M318.3,113.9c-0.4-0.3-0.5-0.9-0.2-1.3s0.9-0.5,1.4-0.2
				c0.4,0.3,0.5,0.9,0.2,1.3C319.3,114.1,318.7,114.2,318.3,113.9z"/>
		</g>
		<g class="st20">
			<path class="st21" d="M310.7,292.5c1.5,0.3,4.1-1.1,2.9-3.3c-1.2-2.2-4.4,1-4.4,1c1.4-2.4,1.5-5.4-1.5-5c-3,0.3-1.3,4.4-1.3,4.4
				c-1.6-1.2-3.2-1.3-3.8,0.2c-0.9,2.2,3,2.9,3,2.9c-1.3,1.1-2.7,3.1-0.8,5c1.9,1.9,3.2-2.8,3.2-2.8c0.7,1.5,2.1,3.3,4,1.3
				C313.9,294.2,310.7,292.5,310.7,292.5z M307.4,292.9c-0.4-0.4-0.4-1-0.1-1.4c0.4-0.4,1-0.4,1.4-0.1c0.4,0.4,0.4,1,0.1,1.4
				C308.4,293.2,307.8,293.2,307.4,292.9z"/>
			<path class="st22" d="M306.5,301.8c-0.5,0.7-0.5,2.3,0.8,2.2c1.4,0,0.6-2.4,0.6-2.4c0.8,1.2,2.1,2.1,2.7,0.6s-1.7-1.7-1.7-1.7
				c1-0.5,1.4-1.2,0.9-1.8c-0.8-1-2.1,0.7-2.1,0.7c-0.2-0.9-0.8-2.1-2.1-1.6c-1.4,0.5,0.5,2.2,0.5,2.2c-0.9,0-2.1,0.2-1.6,1.6
				C304.9,302.9,306.5,301.8,306.5,301.8z M307.2,300.2c0.3-0.1,0.6,0,0.7,0.3s0,0.6-0.3,0.7s-0.6,0-0.7-0.3
				C306.8,300.6,306.9,300.3,307.2,300.2z"/>
			<path class="st21" d="M306.3,276.4c-0.2,0.5,0,1.4,0.9,1.2c0.8-0.2,0-1.5,0-1.5c0.7,0.6,1.6,0.9,1.7-0.1s-1.3-0.8-1.3-0.8
				c0.5-0.4,0.7-0.9,0.2-1.3c-0.6-0.5-1.2,0.8-1.2,0.8c-0.3-0.5-0.8-1.1-1.5-0.6c-0.8,0.5,0.7,1.3,0.7,1.3c-0.5,0.1-1.2,0.4-0.7,1.2
				C305.5,277.4,306.3,276.4,306.3,276.4z M306.5,275.3c0.1-0.1,0.3-0.1,0.5,0.1c0.1,0.2,0.1,0.4-0.1,0.5c-0.1,0.1-0.3,0.1-0.4-0.1
				C306.3,275.6,306.3,275.4,306.5,275.3z"/>
			<path class="st21" d="M303.3,306.7c-0.1,0.5,0.4,1.4,1.1,1s-0.4-1.5-0.4-1.5c0.8,0.5,1.8,0.5,1.7-0.5c-0.1-1-1.5-0.4-1.5-0.4
				c0.4-0.5,0.4-1.1-0.1-1.3c-0.7-0.3-0.9,1-0.9,1c-0.4-0.4-1.1-0.9-1.7-0.3s0.9,1.1,0.9,1.1c-0.5,0.2-1.1,0.7-0.4,1.3
				C302.8,307.8,303.3,306.7,303.3,306.7z M303.2,305.6c0.1-0.1,0.3-0.2,0.5,0c0.1,0.1,0.2,0.3,0,0.5c-0.1,0.1-0.3,0.2-0.5,0
				C303.1,305.9,303.1,305.7,303.2,305.6z"/>
			<path class="st22" d="M308.2,282.8c0.2,0.8,1.4,1.8,2.3,0.7c0.8-1.1-1.5-2-1.5-2c1.5,0.2,2.9-0.4,2.1-1.8s-2.4,0.3-2.4,0.3
				c0.3-1,0-1.8-0.9-1.8c-1.3,0-0.8,2.1-0.8,2.1c-0.8-0.4-2.1-0.7-2.6,0.6c-0.5,1.3,2,1,2,1c-0.6,0.7-1.2,1.7,0.2,2.2
				C308,284.7,308.2,282.8,308.2,282.8z M307.3,281.2c0.1-0.3,0.4-0.4,0.7-0.3c0.3,0.1,0.4,0.4,0.3,0.7c-0.1,0.3-0.4,0.4-0.7,0.3
				C307.4,281.8,307.3,281.5,307.3,281.2z"/>
		</g>
		<path class="st9" d="M299.9,241.8c2-3,10.4-13.8,10.4-13.8s-10.8,12-11.8,13s-9.8-2.9-13.4,4.3C291.5,240.8,298,244.7,299.9,241.8
			z"/>
		<path class="st21" d="M320.2,268.4c0.1-2.6,0.5-5.1,0.9-7.5l-0.3-28.1c-13.1,7.7-3.1,16.1-2.3,28.5c2.8,42.3-7.1,50.4-7.2,50.4
			l9.4,0.6C320.7,312.4,319.7,277.8,320.2,268.4z"/>
		<g>
			<path class="st15" d="M332,312.7c11.6-14.4,7.9-30.5,7.9-30.5s-8.8-44.5-19.2-49.4c0,0-7.5,6.5-5,14.4s12.3,33.6,13.3,38.5
				s-2.8,15.6-2.8,15.6s-8.4,13.9-3.8,15.5c3,1.1,5.4-2.1,5.4-2.1S329.7,315.5,332,312.7z"/>
			<path class="st9" d="M322.2,233.8L322.2,233.8c-0.5-0.4-1-0.8-1.5-1c0,0-7.5,6.5-5,14.4c0.4,1.3,1,3.1,1.7,5.1
				C317.3,239,322.2,233.8,322.2,233.8z"/>
		</g>
	</g>
</g>
<g>
	<path class="st23" d="M422.4,82.2c-2.4-1.8-7.3-1.9-10.3-0.8c-2.1,0.8-3.4,2.1-3.6,3.7c-0.4,2.8,1.1,4.5,2.7,5
		c1.7,0.5,3.6-0.2,4.7-1.9c0.4-0.6,0.2-1.5-0.5-1.8c-0.7-0.4-1.6-0.2-2,0.5c-0.4,0.6-0.8,0.8-1.2,0.7c-0.4-0.1-0.9-0.8-0.8-2.1
		c0.1-0.8,1-1.3,1.8-1.5c2.5-0.9,6.1-0.6,7.3,0.4c1.5,1.2,2.1,3.6,1.2,5.6c-0.6,1.5-2.5,3.9-8,3.7c-5.6-0.2-15.9-2.4-24.4-4.4
		c3.5,0.5,7.3-0.3,11-3.5c0,0,2.5-2.6,1.4-6.9c0,0-4.8,10.6-12.9,6.6c-7.7-3.7-12.6-13.6-22-11.8c0.9-2.1,0.8-4.3,0-6.2
		c-1.8-4.3-7.1-8-11.6-6.5c-4,1.4-6.7,4.3-7.1,7.7c-0.3,2.7,1,5.2,3.4,6.6c2.1,1.2,3.7,1,4.7,0.6c2.9-1.2,3.6-5.1,3.7-5.6
		c0.1-0.7-0.4-1.4-1.2-1.5c-0.8-0.1-1.6,0.4-1.7,1.1c-0.2,0.9-0.9,3.1-2,3.5c-0.5,0.2-1.1,0-1.9-0.4c-1.6-0.9-2.3-2.4-2.1-4.1
		c0.3-2.3,2.3-4.5,5.2-5.5c2.5-0.9,6.5,1.6,7.9,4.9c1.5,3.7-0.7,6.9-6,8.8c-16.1,5.8-24.6-6.8-28.2-14.8c-0.4-0.9-0.8-1.7-1.2-2.4
		c2.4,3.1,5.8,4.9,12.1,2.5c0,0,5.4-2.2,6.3-6.5c0,0-10.1,10-15.5,1.6c-9.7-15.1-15.2-15.2-25.9-14.9c-0.4-0.1-0.8-0.2-1.2-0.3
		c-4.9-0.8-11.5,0.2-17.5,4.2c0.6-2.3,0.9-5.1,0.1-8c-1.3-4.7-5-8.5-11.1-11.5c-9-4.3-15.6-0.7-18.8,1.8c-2.7,2.1-4.7,5.1-5.9,8
		c-1.2-2.9-3.2-5.8-5.9-8c-3.2-2.5-9.8-6.2-18.8-1.8c-6,2.9-9.8,6.8-11.1,11.5c-0.8,2.9-0.5,5.7,0.1,8c-6-4.1-12.5-5-17.5-4.2
		c-0.4,0.1-0.8,0.2-1.2,0.3c-10.7-0.3-16.2-0.2-25.9,14.9c-5.4,8.4-15.5-1.6-15.5-1.6c0.9,4.3,6.3,6.5,6.3,6.5
		c6.3,2.3,9.7,0.5,12.1-2.5c-0.4,0.8-0.8,1.6-1.2,2.4c-3.6,8-12.1,20.6-28.2,14.8c-5.3-1.9-7.5-5.1-6-8.8c1.4-3.3,5.3-5.8,7.9-4.9
		c2.9,1,5,3.1,5.2,5.5c0.2,1.7-0.5,3.1-2.1,4.1c-0.8,0.5-1.4,0.6-1.9,0.4c-1.1-0.5-1.8-2.6-2-3.5c-0.1-0.7-0.9-1.2-1.7-1.1
		s-1.3,0.8-1.2,1.5c0.1,0.4,0.9,4.4,3.7,5.6c1,0.4,2.6,0.6,4.7-0.6c2.5-1.5,3.8-4,3.4-6.6c-0.4-3.4-3.1-6.3-7.1-7.7
		c-4.5-1.5-9.8,2.2-11.6,6.5c-0.8,1.9-0.9,4.1,0,6.2c-9.3-1.8-14.3,8.1-22,11.8c-8.2,4-12.9-6.6-12.9-6.6c-1.1,4.2,1.4,6.9,1.4,6.9
		c3.7,3.2,7.4,4,11,3.5c-8.5,2-18.8,4.2-24.4,4.4c-5.5,0.2-7.4-2.2-8-3.7c-0.9-2-0.3-4.4,1.2-5.6c1.2-0.9,4.8-1.3,7.3-0.4
		c0.7,0.3,1.7,0.8,1.8,1.5c0.2,1.3-0.3,2-0.8,2.1c-0.4,0.1-0.8-0.2-1.2-0.7c-0.4-0.6-1.3-0.9-2-0.5s-0.9,1.2-0.5,1.8
		c1.1,1.7,2.9,2.5,4.7,1.9c1.6-0.5,3.1-2.3,2.7-5c-0.2-1.6-1.5-2.9-3.6-3.7c-3-1.1-7.9-1-10.3,0.8c-2.5,1.9-3.4,5.6-2.1,8.7
		c0.7,1.7,3.1,5.4,10.1,5.4c0.3,0,0.6,0,0.9,0c10.8-0.5,37.4-7.6,38.5-7.9C183.3,74,248.9,71.1,251.2,71
		c2.2,0.1,68.1,2.9,123.9,17.4c1.1,0.3,27.7,7.5,38.5,7.9c0.3,0,0.6,0,0.9,0c7,0,9.4-3.8,10.1-5.4C425.8,87.8,424.9,84.1,422.4,82.2
		z M338.6,77.9c-11.2-1.9-22.2-3.5-32.4-4.8c3.8-0.7,6.3-2.3,7.9-3.9c3.7-3.8,4.9-9.9,3.1-16.4c2.5,0.9,6.7,3.4,10,10.6
		C330.1,70.1,334,74.9,338.6,77.9z M282.4,54.7c4.9-6.3,11-9.1,16.3-9.7c-1.6,1.1-3.1,2.6-4.1,4.5c-1.3,2.6-1.2,5.5,0.2,8.6
		c2.1,4.8,5.6,6.4,8.5,6.4c0.8,0,1.6-0.1,2.3-0.3c4-1.2,6.2-5.1,5.2-9c-1.3-4.9-4.1-5.8-5.6-5.8c-2.2-0.1-4.3,1.4-5.1,3.6
		c-0.3,0.7,0.2,1.5,0.9,1.7c0.8,0.2,1.6-0.1,1.9-0.9c0.4-1,1.4-1.8,2.2-1.8c1.1,0,2.2,1.4,2.8,3.8c0.8,2.9-1.1,5.1-3.2,5.8
		c-2.2,0.7-5.2-0.2-7.1-4.5c-1.1-2.4-1.1-4.6-0.2-6.5c1.6-3.3,5.8-5,7-5.5c4.9,0.9,8.5,3.7,9.8,7.6c1.9,5.9,1.1,11.4-2.2,14.7
		c-2.9,3-7.7,4-13.8,3c-6.9-1.2-11.1-3.6-12-6.8c-0.6-2.4,0.8-5.2,3.8-7.2c0.7-0.4,0.8-1.3,0.3-1.9c-0.5-0.6-1.4-0.7-2.1-0.3
		c-3.9,2.7-5.8,6.5-4.9,10c0.5,2,2.3,5.1,8.2,7.3c-10.9-1.1-20.3-1.9-27.3-2.4C269.3,67,276.1,62.9,282.4,54.7z M321.7,49.1
		c2,1.8,3.3,4.9,4.9,7.8c-4.2-5.6-8.8-6.9-10.7-7.2c-1.8-3.3-5.2-5.8-9.5-6.9C309.6,43.3,316.6,44.6,321.7,49.1z M218.4,39.3
		c1.1-3.9,4.3-7.2,9.6-9.7c7.4-3.6,12.9-0.6,15.5,1.5c4.6,3.7,6.7,9.6,5.6,12.4c-1.2,3.1-7.1,5.9-12.5,6c-2.1,0-5.8-0.3-7.1-3
		c-1.7-3.7,0.4-8.1,3.3-10c1.1-0.7,3.1-1.7,5.1-0.1c1.2,0.9,1.8,1.9,1.7,2.8c-0.1,1.4-1.9,2.7-2.6,3.1c-0.7,0.4-0.9,1.2-0.5,1.9
		c0.4,0.6,1.3,0.9,2,0.5c0.4-0.2,3.7-2.1,4-5.2c0.2-1.8-0.7-3.5-2.7-5c-2.5-2-5.8-2-8.7,0c-3.9,2.6-6.5,8.3-4.2,13.3
		c1.4,3.1,5,4.8,9.9,4.7c5.4-0.1,12.2-2.7,14.7-6.7c2.5,4,9.3,6.6,14.7,6.7c4.9,0.1,8.5-1.6,9.9-4.7c2.3-5-0.3-10.7-4.2-13.3
		c-3-2-6.2-2-8.7,0c-1.9,1.6-2.8,3.2-2.7,5c0.3,3,3.6,5,4,5.2c0.7,0.4,1.6,0.2,2-0.5c0.4-0.6,0.2-1.5-0.5-1.9
		c-0.6-0.3-2.4-1.6-2.6-3.1c-0.1-0.9,0.5-1.8,1.7-2.8c1.9-1.5,4-0.6,5.1,0.1c2.9,2,5,6.3,3.3,10c-1.3,2.7-5,3.1-7.1,3
		c-5.5-0.1-11.3-2.9-12.5-6c-1.1-2.8,1-8.7,5.6-12.4c2.6-2.1,8.1-5.1,15.5-1.5c5.3,2.5,8.5,5.8,9.6,9.7c1.6,5.8-1.9,11.2-2.4,11.8
		c-0.6,0.6-1.2,1.3-1.7,2c-10.9,14.1-23.5,15.3-23.7,15.3c-0.1,0-0.3,0.1-0.4,0.1c-3-0.2-4.7-0.2-4.8-0.2c0,0,0,0-0.1,0
		c0,0,0,0-0.1,0s-1.7,0.1-4.6,0.2c-0.1,0-0.2-0.1-0.4-0.1c-0.1,0-12.7-1.2-23.7-15.3c-0.6-0.7-1.1-1.4-1.7-2
		C220.4,50.5,216.8,45.1,218.4,39.3z M214.4,54.2c-0.7-0.4-1.6-0.3-2.1,0.3s-0.4,1.4,0.3,1.9c3,2,4.4,4.8,3.8,7.2
		c-0.8,3.2-5.1,5.7-12,6.8c-6.1,1-10.9,0-13.8-3c-3.2-3.3-4-8.8-2.2-14.7c1.2-3.9,4.9-6.7,9.8-7.6c1.2,0.4,5.4,2.2,7,5.5
		c0.9,1.9,0.9,4.1-0.2,6.5c-2,4.4-5,5.2-7.1,4.5c-2.2-0.7-4-2.9-3.2-5.8c0.6-2.3,1.7-3.7,2.8-3.8c0.9,0,1.9,0.8,2.2,1.8
		c0.3,0.7,1.1,1.1,1.9,0.9c0.8-0.2,1.2-1,0.9-1.7c-0.8-2.2-2.9-3.7-5.1-3.6c-1.5,0.1-4.2,0.9-5.6,5.8c-1.1,3.9,1.2,7.8,5.2,9
		c0.7,0.2,1.5,0.3,2.3,0.3c2.9,0,6.4-1.6,8.5-6.4c1.4-3.1,1.5-6,0.2-8.6c-1-1.9-2.5-3.4-4.1-4.5c5.3,0.6,11.4,3.4,16.3,9.7
		c6.3,8.2,13.2,12.3,18.2,14.4c-6.9,0.5-16.3,1.2-27.2,2.4c5.9-2.2,7.6-5.3,8.1-7.3C220.1,60.7,218.3,56.9,214.4,54.2z M180.8,49.1
		c5.2-4.5,12.2-5.9,15.3-6.3c-4.3,1.1-7.6,3.6-9.5,6.9c-2,0.3-6.6,1.6-10.7,7.2C177.5,54,178.8,50.9,180.8,49.1z M175.4,63.4
		c3.3-7.2,7.4-9.7,10-10.6c-1.8,6.5-0.7,12.5,3.1,16.4c1.6,1.6,4.1,3.2,7.9,3.9c-10.2,1.3-21.1,2.8-32.3,4.8
		C168.6,74.9,172.4,70.1,175.4,63.4z M126.7,85.8c-0.1,0-4.7,1.3-10.7,2.7c5.2-1.7,9.5-6,11.2-8.4c2.9-4.2,6.8-5.5,9-5.8
		c1.2,2.1,3.4,4,7.3,5.4c1.5,0.5,3,0.9,4.4,1.2C140.7,82.4,133.6,84,126.7,85.8z M354.7,80.9c1.5-0.3,2.9-0.7,4.4-1.2
		c3.9-1.4,6.2-3.4,7.3-5.4c2.1,0.4,6,1.6,9,5.8c1.7,2.5,6,6.7,11.2,8.4c-6.1-1.5-10.6-2.7-10.7-2.7C368.9,84,361.8,82.4,354.7,80.9z
		"/>
	<path class="st23" d="M251.3,31c0.6-4.1,12.4-8.3,12.4-8.3c-4.8-1.6-6.8,2.1-8.4,1.3c-1.7-0.8,0.6-2.6,1.7-8s-5.6-6.5-5.6-6.5
		s-6.8,1-5.6,6.5c1.1,5.4,3.4,7.2,1.7,8s-3.7-2.8-8.5-1.3C238.9,22.7,250.7,26.9,251.3,31z"/>
</g>
<g>
	<path class="st23" d="M431.8,405c-0.7-1.7-3.1-5.4-10.1-5.4c-0.3,0-0.6,0-0.9,0c-10.8,0.5-37.4,7.6-38.5,7.9
		c-55.8,14.4-121.7,17.3-123.9,17.4c-2.2-0.1-67.8-2.9-123.7-17.4c-1.1-0.3-27.7-7.5-38.5-7.9c-0.3,0-0.6,0-0.9,0
		c-7,0-9.4,3.8-10.1,5.4c-1.3,3.1-0.4,6.7,2.1,8.7c2.4,1.8,7.3,1.9,10.3,0.8c2.1-0.8,3.4-2.1,3.6-3.7c0.4-2.8-1.1-4.5-2.7-5
		c-1.7-0.5-3.6,0.2-4.7,1.9c-0.4,0.6-0.2,1.5,0.5,1.8c0.7,0.4,1.6,0.2,2-0.5c0.4-0.6,0.8-0.8,1.2-0.7c0.4,0.1,0.9,0.8,0.8,2.1
		c-0.1,0.8-1,1.3-1.8,1.5c-2.5,0.9-6.1,0.6-7.3-0.4c-1.5-1.2-2.1-3.6-1.2-5.6c0.6-1.5,2.5-3.9,8-3.7c5.6,0.2,15.9,2.4,24.4,4.4
		c-3.5-0.5-7.3,0.3-11,3.5c0,0-2.5,2.6-1.4,6.9c0,0,4.8-10.6,12.9-6.6c7.7,3.7,12.6,13.6,22,11.8c-0.9,2.1-0.8,4.3,0,6.2
		c1.8,4.3,7.1,8,11.6,6.5c4-1.4,6.7-4.3,7.1-7.7c0.3-2.7-1-5.2-3.4-6.6c-2.1-1.2-3.7-1-4.7-0.6c-2.9,1.2-3.6,5.1-3.7,5.6
		c-0.1,0.7,0.4,1.4,1.2,1.5s1.6-0.4,1.7-1.1c0.2-1,0.9-3.1,2-3.5c0.5-0.2,1.1,0,1.9,0.4c1.6,0.9,2.3,2.4,2.1,4.1
		c-0.3,2.3-2.3,4.5-5.2,5.5c-2.5,0.9-6.5-1.6-7.9-4.9c-1.5-3.7,0.7-6.9,6-8.8c16.1-5.8,24.6,6.8,28.2,14.8c0.4,0.9,0.8,1.7,1.2,2.4
		c-2.4-3.1-5.8-4.9-12.1-2.5c0,0-5.4,2.2-6.3,6.5c0,0,10.1-10,15.5-1.6c9.7,15.1,15.2,15.2,25.9,14.9c0.4,0.1,0.8,0.2,1.2,0.3
		c4.9,0.8,11.5-0.2,17.5-4.2c-0.6,2.3-0.9,5.1-0.1,8c1.3,4.7,5,8.5,11.1,11.5c9,4.3,15.6,0.7,18.8-1.8c2.7-2.2,4.7-5.1,5.9-8
		c1.1,2.9,3.2,5.8,5.9,8c3.2,2.5,9.8,6.2,18.8,1.8c6-2.9,9.8-6.8,11.1-11.5c0.8-2.9,0.5-5.7-0.1-8c6,4.1,12.5,5,17.5,4.2
		c0.4-0.1,0.8-0.2,1.2-0.3c10.7,0.3,16.2,0.2,25.9-14.9c5.4-8.4,15.5,1.6,15.5,1.6c-0.9-4.3-6.3-6.5-6.3-6.5
		c-6.3-2.3-9.7-0.5-12.1,2.5c0.4-0.8,0.8-1.6,1.2-2.4c3.6-8,12.1-20.6,28.2-14.8c5.3,1.9,7.5,5.1,6,8.8c-1.4,3.3-5.3,5.8-7.9,4.9
		c-2.9-1-5-3.1-5.2-5.5c-0.2-1.7,0.5-3.1,2.1-4.1c0.8-0.5,1.4-0.6,1.9-0.4c1.1,0.5,1.8,2.6,2,3.5c0.1,0.7,0.9,1.2,1.7,1.1
		c0.8-0.1,1.3-0.8,1.2-1.5c-0.1-0.4-0.9-4.4-3.7-5.6c-1-0.4-2.6-0.6-4.7,0.6c-2.5,1.5-3.8,4-3.4,6.6c0.4,3.4,3.1,6.3,7.1,7.7
		c4.5,1.5,9.8-2.2,11.6-6.5c0.8-1.9,0.9-4.1,0-6.2c9.3,1.8,14.3-8.1,22-11.8c8.2-4,12.9,6.6,12.9,6.6c1.1-4.2-1.4-6.9-1.4-6.9
		c-3.7-3.2-7.4-4-11-3.5c8.5-2,18.8-4.2,24.4-4.4c5.5-0.2,7.4,2.2,8,3.7c0.9,2,0.3,4.4-1.2,5.6c-1.2,0.9-4.8,1.3-7.3,0.4
		c-0.7-0.3-1.7-0.8-1.8-1.5c-0.2-1.3,0.3-2,0.8-2.1c0.4-0.1,0.8,0.2,1.2,0.7c0.4,0.6,1.3,0.9,2,0.5s0.9-1.2,0.5-1.8
		c-1.1-1.7-2.9-2.5-4.7-1.9c-1.6,0.5-3.1,2.3-2.7,5c0.2,1.6,1.5,2.9,3.6,3.7c3,1.1,7.9,1,10.3-0.8
		C432.2,411.7,433.1,408.1,431.8,405z M334.4,432.4c-3.3,7.2-7.4,9.7-10,10.6c1.8-6.5,0.7-12.5-3.1-16.4c-1.6-1.6-4.1-3.3-7.9-3.9
		c10.2-1.3,21.2-2.8,32.4-4.8C341.3,421,337.4,425.8,334.4,432.4z M271.5,426.8c7-0.5,16.4-1.2,27.3-2.4c-5.9,2.2-7.7,5.3-8.2,7.3
		c-0.9,3.5,1,7.3,4.9,10c0.7,0.4,1.6,0.3,2.1-0.3s0.4-1.4-0.3-1.9c-3-2-4.4-4.8-3.8-7.2c0.8-3.2,5.1-5.7,12-6.8c6.1-1,10.9,0,13.8,3
		c3.2,3.3,4,8.8,2.2,14.7c-1.2,3.9-4.9,6.7-9.8,7.6c-1.2-0.4-5.4-2.2-7-5.5c-0.9-1.9-0.9-4.1,0.2-6.5c2-4.4,5-5.2,7.1-4.5
		c2.2,0.7,4,2.9,3.2,5.8c-0.6,2.3-1.7,3.7-2.8,3.8c-0.9,0-1.9-0.8-2.2-1.8c-0.3-0.7-1.1-1.1-1.9-0.9s-1.2,1-0.9,1.7
		c0.8,2.2,2.9,3.7,5.1,3.6c1.5-0.1,4.2-0.9,5.6-5.8c1.1-3.9-1.2-7.8-5.2-9c-0.7-0.2-1.5-0.3-2.3-0.3c-2.9,0-6.4,1.6-8.5,6.4
		c-1.4,3.1-1.5,6-0.2,8.6c1,1.9,2.5,3.4,4.1,4.5c-5.3-0.6-11.4-3.4-16.3-9.7C283.4,433,276.5,428.9,271.5,426.8z M313.7,453
		c4.3-1.1,7.6-3.6,9.5-6.9c2-0.3,6.6-1.6,10.7-7.2c-1.6,2.9-2.9,6-4.9,7.8C323.8,451.2,316.8,452.6,313.7,453z M228.1,444.8
		c0.6-0.6,1.2-1.3,1.7-2c10.9-14.1,23.5-15.3,23.7-15.3c0.1,0,0.2-0.1,0.4-0.1c2.8,0.2,4.5,0.2,4.6,0.2c0,0,0,0,0.1,0c0,0,0,0,0.1,0
		s1.8-0.1,4.8-0.2c0.1,0,0.3,0.1,0.4,0.1c0.2,0,12.8,1.2,23.7,15.3c0.6,0.7,1.1,1.4,1.7,2c0.4,0.6,4,6.1,2.4,11.8
		c-1.1,3.9-4.3,7.2-9.6,9.7c-7.4,3.6-12.9,0.6-15.5-1.5c-4.6-3.7-6.7-9.6-5.6-12.4c1.2-3.1,7.1-5.9,12.5-6c2.1,0,5.8,0.3,7.1,3
		c1.7,3.7-0.3,8.1-3.3,10c-1.1,0.7-3.1,1.7-5.1,0.1c-1.2-1-1.8-1.9-1.7-2.8c0.1-1.4,1.9-2.7,2.6-3.1s0.9-1.2,0.5-1.8s-1.3-0.8-2-0.5
		c-0.4,0.2-3.7,2.1-4,5.2c-0.2,1.8,0.7,3.5,2.7,5c2.5,2,5.8,2,8.7,0c3.9-2.6,6.5-8.3,4.2-13.3c-1.4-3.1-5-4.8-9.9-4.7
		c-5.4,0.1-12.2,2.7-14.7,6.7c-2.5-4-9.3-6.6-14.7-6.7c-4.9-0.1-8.5,1.6-9.9,4.7c-2.3,5,0.3,10.7,4.2,13.3c3,2,6.2,2,8.7,0
		c1.9-1.6,2.9-3.2,2.7-5c-0.3-3-3.6-5-4-5.2c-0.7-0.4-1.6-0.2-2,0.5c-0.4,0.6-0.2,1.5,0.5,1.8c0.7,0.4,2.4,1.7,2.6,3.1
		c0.1,0.9-0.5,1.8-1.7,2.8c-1.9,1.5-4,0.6-5.1-0.1c-2.9-2-5-6.3-3.3-10c1.3-2.7,5-3.1,7.1-3c5.5,0.1,11.3,2.9,12.5,6
		c1.1,2.8-1,8.7-5.6,12.4c-2.6,2.1-8.1,5.1-15.5,1.5c-5.3-2.6-8.5-5.8-9.6-9.7C224.1,450.8,227.6,445.4,228.1,444.8z M226.5,431.7
		c-0.5-2-2.3-5.1-8.1-7.3c10.9,1.1,20.3,1.9,27.2,2.4c-5,2.1-11.9,6.2-18.2,14.4c-4.9,6.3-11,9.1-16.3,9.7c1.6-1.1,3.1-2.6,4.1-4.5
		c1.3-2.6,1.2-5.5-0.2-8.6c-2.1-4.8-5.6-6.4-8.5-6.4c-0.8,0-1.6,0.1-2.3,0.3c-4,1.2-6.2,5.1-5.2,9c1.3,4.9,4.1,5.8,5.6,5.8
		c2.2,0,4.3-1.4,5.1-3.6c0.3-0.7-0.2-1.5-0.9-1.7c-0.8-0.2-1.6,0.1-1.9,0.9c-0.4,1-1.4,1.8-2.2,1.8c-1.1,0-2.2-1.4-2.8-3.8
		c-0.8-2.9,1.1-5.1,3.2-5.8c2.2-0.7,5.2,0.2,7.1,4.5c1.1,2.4,1.1,4.6,0.2,6.5c-1.6,3.3-5.8,5-7,5.5c-4.9-0.9-8.5-3.7-9.8-7.6
		c-1.9-5.9-1.1-11.4,2.2-14.7c2.9-3,7.7-4,13.8-3c6.9,1.2,11.1,3.6,12,6.8c0.6,2.4-0.8,5.2-3.8,7.2c-0.6,0.4-0.8,1.3-0.3,1.9
		s1.4,0.7,2.1,0.3C225.5,439,227.4,435.2,226.5,431.7z M183.2,438.9c4.2,5.6,8.8,6.9,10.7,7.2c1.8,3.3,5.2,5.8,9.5,6.9
		c-3.1-0.4-10.1-1.8-15.3-6.3C186.1,445,184.8,441.8,183.2,438.9z M171.3,418c11.2,1.9,22.2,3.5,32.3,4.8c-3.8,0.7-6.3,2.3-7.9,3.9
		c-3.7,3.8-4.9,9.9-3.1,16.4c-2.5-0.9-6.7-3.4-10-10.6C179.7,425.8,175.8,421,171.3,418z M155.1,414.9c-1.5,0.3-2.9,0.7-4.4,1.2
		c-3.9,1.4-6.2,3.3-7.3,5.4c-2.1-0.4-6-1.6-9-5.8c-1.7-2.5-6-6.7-11.2-8.4c6.1,1.5,10.6,2.7,10.7,2.7
		C140.9,411.9,148,413.5,155.1,414.9z M383.2,410.1c0.1,0,4.7-1.3,10.7-2.7c-5.2,1.7-9.5,6-11.2,8.4c-2.9,4.2-6.8,5.5-9,5.8
		c-1.2-2.1-3.4-4-7.3-5.4c-1.5-0.5-3-0.9-4.4-1.2C369.1,413.5,376.2,411.9,383.2,410.1z"/>
	<path class="st23" d="M258.6,464.8c0.6,4.1,12.4,8.3,12.4,8.3c-4.8,1.6-6.8-2.1-8.4-1.3c-1.7,0.8,0.6,2.6,1.7,8s-5.6,6.5-5.6,6.5
		s-6.8-1-5.6-6.5c1.1-5.4,3.4-7.3,1.7-8c-1.7-0.8-3.7,2.8-8.5,1.3C246.2,473.1,258,469,258.6,464.8z"/>
</g>
<g>
	<path class="st24" d="M76.7,165.9c-2.7-0.7-5.8-1.8-9.2-3.4c-5.1-2.4-9-5.2-11.8-7.5c-0.5-0.8-2.1-3.3-1.7-6.4
		c0.2-1.2,0.6-2.2,1-2.9c0.4-0.6,1.3-1.7,2.7-2.1c2.5-0.8,5.6,0.4,7.8,3c-1.9-2.9-1.7-6.4,0.2-8.5c1.6-1.8,4.3-2.3,6.4-1.8
		c4.1,1,5.9,5.4,6.6,7c0.6,1.6,1.3,3.8,0.9,9C79.4,155.7,78.7,160.4,76.7,165.9z"/>
	<path class="st25" d="M94.4,214.2c-1.4-2.8-2.9-6.3-4.1-10.4c-1.7-6.1-2-11.5-1.8-15.6c0.4-1,1.7-4.2,5.3-6c1.4-0.7,2.7-1,3.7-1.1
		s2.8,0,4.4,0.9c2.8,1.6,4.2,5.2,3.3,9c1.5-3.7,5.2-6,8.9-5.8c3.2,0.2,5.8,2.1,7,4.3c2.3,4.2-0.7,8.9-1.9,10.7
		c-1.1,1.7-2.9,3.8-8.5,7.1C107.1,209.3,101.7,212,94.4,214.2z"/>
	<path class="st24" d="M70,254.3c-3.3-0.7-7.2-1.8-11.4-3.5c-6.2-2.6-11-5.7-14.3-8.3c-0.6-0.9-2.5-3.8-1.8-7.5
		c0.3-1.5,0.8-2.6,1.3-3.4c0.6-0.8,1.7-2,3.5-2.6c3.1-1,7,0.2,9.6,3.1c-2.2-3.4-1.9-7.5,0.6-10.1c2.1-2.2,5.4-2.9,8-2.4
		c5,0.9,7.1,6.1,7.9,8c0.7,1.8,1.4,4.5,0.7,10.6C73.8,242,72.7,247.7,70,254.3z"/>
	<path class="st24" d="M69.4,339.6c-3.3-0.4-7.3-1.1-11.7-2.5c-6.4-2-11.5-4.7-15.1-7c-0.7-0.8-2.8-3.6-2.6-7.3
		c0.1-1.5,0.6-2.7,1-3.5c0.5-0.8,1.5-2.2,3.2-2.9c3-1.3,7-0.4,9.9,2.3c-2.5-3.2-2.7-7.3-0.4-10.1c1.9-2.4,5.1-3.4,7.7-3.1
		c5.1,0.5,7.7,5.4,8.7,7.3c0.9,1.8,1.9,4.3,1.8,10.5C71.9,327,71.4,332.7,69.4,339.6z"/>
	<path class="st25" d="M97.1,120c-1.2-1.9-2.6-4.2-3.7-6.9c-1.6-4.1-2.3-7.7-2.5-10.5c0.2-0.7,0.9-2.9,3.3-4.2
		c0.9-0.5,1.9-0.8,2.6-0.9s2-0.1,3.2,0.5c2.1,1,3.3,3.4,3,6c0.8-2.6,3.2-4.3,5.9-4.3c2.3,0,4.3,1.2,5.3,2.7c2,2.8,0.1,6.1-0.6,7.3
		c-0.7,1.2-1.8,2.7-5.6,5.1C105.8,116.3,102.1,118.3,97.1,120z"/>
	<path class="st25" d="M85.1,294.4c-1.1-3-2.1-6.6-2.8-10.8c-0.9-6.2-0.6-11.6,0.1-15.7c0.5-1,2.2-4,5.9-5.4
		c1.5-0.6,2.9-0.7,3.9-0.8c1,0,2.7,0.3,4.3,1.4c2.6,1.9,3.5,5.6,2.2,9.2c1.9-3.5,5.9-5.4,9.6-4.8c3.2,0.5,5.5,2.7,6.5,5
		c1.8,4.4-1.8,8.8-3.2,10.4c-1.3,1.5-3.3,3.5-9.4,6.1C98.3,290.9,92.6,293,85.1,294.4z"/>
</g>
<g>
	<path class="st24" d="M432,170c2.5-0.7,5.4-1.7,8.6-3.3c4.7-2.3,8.3-5.1,10.9-7.3c0.5-0.8,1.9-3.2,1.5-6.3
		c-0.2-1.2-0.6-2.1-0.9-2.8c-0.4-0.6-1.2-1.6-2.5-2.1c-2.3-0.8-5.2,0.4-7.3,2.9c1.7-2.9,1.6-6.2-0.2-8.3c-1.5-1.8-3.9-2.2-5.9-1.7
		c-3.8,0.9-5.5,5.3-6.1,6.9c-0.6,1.5-1.2,3.7-0.8,8.8C429.5,160,430.2,164.7,432,170z"/>
	<path class="st25" d="M415.6,217.2c1.3-2.8,2.7-6.2,3.8-10.2c1.5-6,1.8-11.3,1.7-15.2c-0.4-1-1.6-4.1-4.9-5.8
		c-1.3-0.7-2.5-1-3.5-1.1c-0.9-0.1-2.6,0-4.1,0.9c-2.6,1.6-3.9,5.1-3.1,8.8c-1.4-3.6-4.8-5.9-8.3-5.7c-3,0.2-5.4,2.1-6.5,4.2
		c-2.2,4.1,0.7,8.7,1.8,10.5c1,1.6,2.7,3.7,7.9,6.9C403.9,212.5,408.9,215.2,415.6,217.2z"/>
	<path class="st24" d="M438.2,256.6c3-0.7,6.6-1.7,10.5-3.4c5.7-2.5,10.2-5.6,13.3-8.1c0.6-0.9,2.3-3.7,1.7-7.4
		c-0.2-1.4-0.8-2.6-1.2-3.4c-0.5-0.8-1.6-2-3.2-2.6c-2.9-1-6.5,0.2-8.9,3.1c2-3.3,1.8-7.3-0.6-9.9c-2-2.2-5-2.9-7.4-2.4
		c-4.6,0.9-6.6,5.9-7.3,7.8c-0.7,1.8-1.3,4.4-0.7,10.4C434.7,244.5,435.7,250.1,438.2,256.6z"/>
	<path class="st24" d="M438.8,340c3.1-0.4,6.8-1.1,10.8-2.4c6-2,10.6-4.6,14-6.8c0.7-0.8,2.6-3.5,2.4-7.2c-0.1-1.5-0.5-2.6-0.9-3.5
		c-0.4-0.8-1.4-2.1-3-2.9c-2.8-1.3-6.4-0.4-9.2,2.2c2.3-3.1,2.5-7.1,0.4-9.9c-1.7-2.3-4.7-3.3-7.2-3.1c-4.7,0.5-7.1,5.3-8,7.1
		c-0.9,1.7-1.7,4.2-1.7,10.3C436.5,327.7,436.9,333.3,438.8,340z"/>
	<path class="st25" d="M413.2,125.1c1.1-1.8,2.4-4.1,3.4-6.8c1.5-4,2.1-7.6,2.3-10.3c-0.2-0.7-0.8-2.8-3.1-4.1
		c-0.9-0.5-1.7-0.8-2.4-0.9c-0.7-0.1-1.8-0.1-3,0.4c-2,1-3.1,3.3-2.8,5.8c-0.7-2.5-3-4.2-5.5-4.2c-2.1,0-4,1.2-4.9,2.6
		c-1.8,2.7-0.1,6,0.5,7.2c0.6,1.1,1.7,2.6,5.2,5C405.1,121.4,408.5,123.4,413.2,125.1z"/>
	<path class="st25" d="M424.3,295.8c1-2.9,2-6.5,2.6-10.6c0.8-6.1,0.5-11.4,0-15.3c-0.5-0.9-2-3.9-5.5-5.3c-1.4-0.6-2.6-0.7-3.6-0.7
		c-0.9,0-2.5,0.3-3.9,1.3c-2.4,1.9-3.2,5.5-2,9c-1.8-3.4-5.4-5.3-8.9-4.7c-2.9,0.5-5.1,2.7-6,4.9c-1.7,4.3,1.7,8.6,2.9,10.2
		c1.2,1.5,3.1,3.4,8.7,6C412,292.3,417.3,294.4,424.3,295.8z"/>
</g>
<polygon class="st26" points="120,341 381,341 355.9,367 375.1,395 120,395 145.5,368 "/>
<polygon class="st27" points="377.7,0 157.4,500 501,500 501,0 "/>
<text transform="matrix(1 0 0 1 168.2002 389.0907)" class="st28 st29">WEDDING</text>
</svg>
