<?xml version="1.0" encoding="utf-8"?>
<!-- Generator: Adobe Illustrator 19.2.0, SVG Export Plug-In . SVG Version: 6.00 Build 0)  -->
<svg version="1.1" id="Layer_1" xmlns="http://www.w3.org/2000/svg" xmlns:xlink="http://www.w3.org/1999/xlink" x="0px" y="0px"
	 viewBox="0 0 500 500" style="enable-background:new 0 0 500 500;" xml:space="preserve">
<style type="text/css">
	.st0{opacity:0.51;fill:url(#SVGID_1_);stroke:#000000;stroke-miterlimit:10;}
	.st1{fill:#E74C3C;}
	.st2{fill:#3498DB;}
	.st3{fill:#F1C40F;}
	.st4{fill:#2ECC71;}
	.st5{fill:#E67E22;}
	.st6{fill:#95A5A6;}
	.st7{fill:#ECF0F1;}
	.st8{fill:#1ABC9C;}
	.st9{fill:#C0392B;}
	.st10{fill:none;}
	.st11{fill:none;stroke:#BCBBBF;stroke-width:2;stroke-linecap:round;stroke-linejoin:round;stroke-miterlimit:10;}
	.st12{fill:#FFC902;}
	.st13{fill:#FFFFFF;}
	.st14{fill:#F7BC00;}
	.st15{fill:#27AE60;}
	.st16{fill:#2980B9;}
	.st17{fill:#9B59B6;}
	.st18{fill:#8E44AD;}
	.st19{fill:#CE6C24;}
	.st20{fill:#D33F37;}
	.st21{fill:#16A085;}
	.st22{fill:#E19626;}
	.st23{fill:#FAAE3E;}
	.st24{fill:url(#SVGID_2_);}
	.st25{fill:url(#SVGID_3_);}
	.st26{fill:#807287;}
	.st27{fill:#F900F3;}
	.st28{fill:url(#SVGID_4_);}
	.st29{fill:url(#SVGID_5_);}
	.st30{opacity:0.5;fill:#FCFCFC;stroke:#000000;stroke-miterlimit:10;enable-background:new    ;}
	.st31{font-family:'Tw Cen MT Condensed';}
	.st32{font-size:72px;}
</style>
<linearGradient id="SVGID_1_" gradientUnits="userSpaceOnUse" x1="250.25" y1="499" x2="250.25" y2="-1.5" gradientTransform="matrix(1 0 0 -1 0 500)">
	<stop  offset="0" style="stop-color:#EDEDED"/>
	<stop  offset="1" style="stop-color:#8A8A8A"/>
</linearGradient>
<rect y="1" class="st0" width="500.5" height="500.5"/>
<g>
	<g id="Layer_1_5_">
		<g>
			<g>
				<g>
					<g>
						<polygon class="st1" points="124,55.1 120.4,54.2 117.6,56.6 117.4,53 114.3,51.2 117.7,49.8 118.6,46.3 120.9,49.1 
							124.6,48.8 122.6,51.9 						"/>
						<polygon class="st2" points="189.7,253.5 186.1,252.6 183.3,255 183.2,251.4 180,249.5 183.4,248.2 184.4,244.6 186.7,247.5 
							190.3,247.2 188.3,250.2 						"/>
						<polygon class="st3" points="129.3,150.8 128.2,147.1 124.6,145.9 127.8,143.9 127.8,140.1 130.8,142.4 134.6,141.2 
							133.2,144.8 135.5,148 131.6,147.7 						"/>
						<polygon class="st4" points="278,56.9 276.8,53.2 273.2,52 276.4,49.8 276.4,46 279.5,48.4 283.2,47.3 281.8,50.8 284.1,53.9 
							280.3,53.8 						"/>
						<ellipse class="st5" cx="280.9" cy="106.6" rx="5.5" ry="5.4"/>
						<path class="st6" d="M80.4,208.3c1.5-1.5,4-1.5,5.5,0s1.5,3.9,0,5.4s-4,1.5-5.5,0S78.9,209.8,80.4,208.3z"/>
						<polygon class="st7" points="190.4,92 196,87 201.2,92.5 195.6,97.5 						"/>
						<polygon class="st8" points="293,262.6 298.6,257.5 303.8,263 298.2,268.1 						"/>
						<polygon class="st9" points="234.6,176.1 240.2,171.1 245.3,176.6 239.7,181.6 						"/>
					</g>
				</g>
			</g>
		</g>
	</g>
	<g id="Layer_1_4_">
		<g>
			<g>
				<g>
					<g>
						<polygon class="st1" points="313.9,14.5 310.3,13.6 307.5,15.9 307.3,12.3 304.2,10.5 307.6,9.2 308.5,5.7 310.8,8.5 
							314.5,8.1 312.5,11.2 						"/>
						<polygon class="st2" points="379.6,212.9 376,212 373.2,214.3 373.1,210.8 369.9,208.8 373.3,207.6 374.3,204 376.6,206.9 
							380.2,206.6 378.2,209.5 						"/>
						<polygon class="st3" points="319.2,110.2 318.1,106.5 314.5,105.3 317.7,103.2 317.7,99.4 320.7,101.8 324.5,100.5 
							323.1,104.1 325.4,107.3 321.5,107.1 						"/>
						<polygon class="st4" points="467.9,16.2 466.7,12.5 463.1,11.3 466.3,9.2 466.3,5.4 469.4,7.7 473.1,6.6 471.7,10.2 474,13.3 
							470.2,13.2 						"/>
						<ellipse class="st5" cx="470.8" cy="66" rx="5.5" ry="5.4"/>
						<path class="st6" d="M270.3,167.7c1.5-1.5,4-1.5,5.5,0s1.5,3.9,0,5.4s-4,1.5-5.5,0C268.8,171.6,268.8,169.2,270.3,167.7z"/>
						<polygon class="st7" points="380.3,51.4 385.9,46.3 391.1,51.8 385.5,56.9 						"/>
						<polygon class="st8" points="482.9,221.9 488.5,216.9 493.7,222.4 488.1,227.4 						"/>
						<polygon class="st9" points="424.5,135.5 430.1,130.4 435.2,135.9 429.6,141 						"/>
					</g>
				</g>
			</g>
		</g>
	</g>
	<g id="Layer_1_8_">
		<g>
			<g>
				<g>
					<g>
						<polygon class="st1" points="292.6,53.2 289.1,52.3 286.3,54.6 286.1,51.1 282.9,49.2 286.4,47.9 287.3,44.4 289.6,47.2 
							293.3,46.9 291.3,49.9 						"/>
						<polygon class="st2" points="358.4,251.6 354.8,250.7 352,253 351.9,249.5 348.7,247.5 352.1,246.3 353,242.7 355.3,245.6 
							359,245.3 357,248.2 						"/>
						<polygon class="st3" points="297.9,148.9 296.9,145.2 293.3,144 296.5,141.9 296.5,138.1 299.5,140.5 303.3,139.3 
							301.9,142.8 304.2,146 300.2,145.8 						"/>
						<polygon class="st4" points="446.6,54.9 445.5,51.3 441.8,50 445.1,47.9 445.1,44.1 448.2,46.5 451.9,45.3 450.5,48.9 
							452.8,52 448.9,51.9 						"/>
						<ellipse class="st5" cx="449.6" cy="104.7" rx="5.5" ry="5.4"/>
						<path class="st6" d="M249.1,206.4c1.5-1.5,4-1.5,5.5,0s1.5,3.9,0,5.4s-4,1.5-5.5,0S247.6,207.9,249.1,206.4z"/>
						<polygon class="st7" points="359.1,90.1 364.7,85 369.8,90.5 364.2,95.6 						"/>
						<polygon class="st8" points="461.7,260.7 467.3,255.6 472.4,261.1 466.8,266.2 						"/>
						<polygon class="st9" points="403.2,174.2 408.8,169.1 414,174.6 408.4,179.7 						"/>
					</g>
				</g>
			</g>
		</g>
	</g>
	<g id="Layer_1_9_">
		<g>
			<g>
				<g>
					<g>
						<polygon class="st1" points="54.5,77.8 50.9,76.8 48.1,79.2 47.9,75.6 44.8,73.8 48.2,72.4 49.1,69 51.4,71.7 55.1,71.4 
							53.1,74.5 						"/>
						<polygon class="st2" points="120.2,276.2 116.6,275.3 113.8,277.6 113.7,274 110.5,272.1 113.9,270.9 114.9,267.3 
							117.2,270.1 120.8,269.8 118.8,272.8 						"/>
						<polygon class="st3" points="59.8,173.4 58.7,169.8 55.1,168.5 58.3,166.5 58.3,162.7 61.3,165.1 65.1,163.8 63.7,167.4 
							66,170.6 62.1,170.4 						"/>
						<polygon class="st4" points="208.5,79.5 207.3,75.8 203.7,74.6 206.9,72.4 206.9,68.7 210,71 213.7,69.9 212.3,73.5 
							214.6,76.5 210.8,76.4 						"/>
						<ellipse class="st5" cx="211.4" cy="129.2" rx="5.5" ry="5.4"/>
						<path class="st6" d="M10.9,231c1.5-1.5,4-1.5,5.5,0s1.5,3.9,0,5.4s-4,1.5-5.5,0S9.4,232.4,10.9,231z"/>
						<polygon class="st7" points="120.9,114.7 126.5,109.6 131.7,115.1 126.1,120.2 						"/>
						<polygon class="st8" points="223.5,285.2 229.1,280.2 234.3,285.7 228.7,290.7 						"/>
						<polygon class="st9" points="165.1,198.8 170.7,193.7 175.8,199.2 170.2,204.3 						"/>
					</g>
				</g>
			</g>
		</g>
	</g>
	<g id="Layer_1_6_">
		<g>
			<g>
				<g>
					<g>
						<polygon class="st1" points="308.4,100.4 304.8,99.5 302,101.8 301.8,98.2 298.7,96.4 302.1,95.1 303,91.6 305.3,94.4 
							309,94.1 307,97.1 						"/>
						<polygon class="st2" points="374.1,298.8 370.5,297.9 367.7,300.2 367.6,296.7 364.4,294.7 367.8,293.5 368.8,289.9 
							371.1,292.8 374.7,292.5 372.7,295.4 						"/>
						<polygon class="st3" points="313.7,196.1 312.6,192.4 309,191.2 312.2,189.1 312.2,185.3 315.2,187.7 319,186.5 317.6,190 
							319.9,193.2 316,193 						"/>
						<polygon class="st4" points="462.4,102.1 461.2,98.5 457.6,97.2 460.8,95.1 460.8,91.3 463.9,93.6 467.6,92.5 466.2,96.1 
							468.5,99.2 464.7,99.1 						"/>
						<ellipse class="st5" cx="465.3" cy="151.9" rx="5.5" ry="5.4"/>
						<path class="st6" d="M264.8,253.6c1.5-1.5,4-1.5,5.5,0s1.5,3.9,0,5.4s-4,1.5-5.5,0S263.3,255.1,264.8,253.6z"/>
						<polygon class="st7" points="374.8,137.3 380.4,132.2 385.6,137.7 380,142.8 						"/>
						<polygon class="st8" points="477.4,307.8 483,302.8 488.2,308.3 482.6,313.3 						"/>
						<polygon class="st9" points="419,221.4 424.6,216.3 429.7,221.8 424.1,226.9 						"/>
					</g>
				</g>
			</g>
		</g>
	</g>
	<g id="Layer_1_10_">
		<g>
			<g>
				<g>
					<g>
						<polygon class="st1" points="95.2,154.3 91.6,153.4 88.8,155.7 88.6,152.1 85.5,150.3 88.9,149 89.9,145.5 92.1,148.3 
							95.8,148 93.8,151 						"/>
						<polygon class="st2" points="160.9,352.7 157.4,351.8 154.5,354.1 154.4,350.6 151.2,348.6 154.6,347.4 155.6,343.8 
							157.9,346.7 161.5,346.4 159.5,349.3 						"/>
						<polygon class="st3" points="100.5,250 99.4,246.3 95.8,245.1 99,243 99,239.2 102.1,241.6 105.8,240.4 104.5,243.9 
							106.8,247.1 102.8,246.9 						"/>
						<polygon class="st4" points="249.2,156 248,152.4 244.4,151.1 247.6,149 247.6,145.2 250.7,147.5 254.4,146.4 253,150 
							255.3,153.1 251.5,153 						"/>
						<ellipse class="st5" cx="252.1" cy="205.8" rx="5.5" ry="5.4"/>
						<path class="st6" d="M51.7,307.5c1.5-1.5,4-1.5,5.5,0s1.5,3.9,0,5.4s-4,1.5-5.5,0S50.2,309,51.7,307.5z"/>
						<polygon class="st7" points="161.6,191.2 167.2,186.1 172.4,191.6 166.8,196.7 						"/>
						<polygon class="st8" points="264.2,361.7 269.8,356.7 275,362.2 269.4,367.2 						"/>
						<polygon class="st9" points="205.8,275.3 211.4,270.2 216.5,275.7 210.9,280.8 						"/>
					</g>
				</g>
			</g>
		</g>
	</g>
	<g id="Layer_1_3_">
		<g>
			<g>
				<g>
					<g>
						<polygon class="st1" points="251.5,50.5 248,49.5 245.1,51.9 244.9,48.3 241.8,46.5 245.2,45.1 246.2,41.7 248.5,44.4 
							252.1,44.1 250.2,47.2 						"/>
						<polygon class="st2" points="317.2,248.9 313.7,248 310.9,250.3 310.8,246.7 307.5,244.8 311,243.6 311.9,240 314.2,242.8 
							317.9,242.5 315.9,245.5 						"/>
						<polygon class="st3" points="256.8,146.1 255.8,142.5 252.1,141.2 255.4,139.2 255.4,135.4 258.4,137.8 262.2,136.5 
							260.8,140.1 263.1,143.3 259.1,143.1 						"/>
						<polygon class="st4" points="405.5,52.2 404.4,48.5 400.7,47.3 404,45.1 404,41.4 407.1,43.7 410.7,42.6 409.4,46.2 
							411.7,49.2 407.8,49.1 						"/>
						<ellipse class="st5" cx="408.4" cy="101.9" rx="5.5" ry="5.4"/>
						<path class="st6" d="M208,203.7c1.5-1.5,4-1.5,5.5,0s1.5,3.9,0,5.4s-4,1.5-5.5,0S206.5,205.1,208,203.7z"/>
						<polygon class="st7" points="318,87.4 323.6,82.3 328.7,87.8 323.1,92.9 						"/>
						<polygon class="st8" points="420.5,257.9 426.2,252.9 431.3,258.4 425.7,263.4 						"/>
						<polygon class="st9" points="362.1,171.5 367.7,166.4 372.9,171.9 367.3,177 						"/>
					</g>
				</g>
			</g>
		</g>
	</g>
	<g id="Layer_1_2_">
		<g>
			<g>
				<g>
					<g>
						<polygon class="st1" points="50.3,13.3 46.7,12.3 43.9,14.7 43.7,11.1 40.6,9.3 44,7.9 45,4.5 47.3,7.2 50.9,6.9 48.9,10 
													"/>
						<polygon class="st2" points="116,211.7 112.5,210.7 109.7,213.1 109.6,209.5 106.3,207.6 109.8,206.3 110.7,202.8 113,205.6 
							116.6,205.3 114.7,208.3 						"/>
						<polygon class="st3" points="55.6,108.9 54.6,105.2 50.9,104 54.1,102 54.1,98.2 57.2,100.5 60.9,99.3 59.6,102.9 61.9,106.1 
							57.9,105.9 						"/>
						<polygon class="st4" points="204.3,15 203.1,11.3 199.5,10.1 202.7,7.9 202.7,4.2 205.9,6.5 209.5,5.4 208.2,9 210.5,12 
							206.6,11.9 						"/>
						<ellipse class="st5" cx="207.2" cy="64.7" rx="5.5" ry="5.4"/>
						<path class="st6" d="M6.8,166.4c1.5-1.5,4-1.5,5.5,0s1.5,3.9,0,5.4s-4,1.5-5.5,0S5.3,167.9,6.8,166.4z"/>
						<polygon class="st7" points="116.7,50.1 122.3,45.1 127.5,50.6 121.9,55.6 						"/>
						<polygon class="st8" points="219.3,220.7 224.9,215.7 230.1,221.2 224.5,226.2 						"/>
						<polygon class="st9" points="160.9,134.2 166.5,129.2 171.7,134.7 166.1,139.7 						"/>
					</g>
				</g>
			</g>
		</g>
	</g>
	<g id="Layer_1_11_">
		<g>
			<g>
				<g>
					<g>
						<polygon class="st1" points="361.3,9.4 359.8,9 358.6,10 358.5,8.4 357.2,7.6 358.6,7 359,5.5 360,6.7 361.5,6.6 360.7,7.9 
													"/>
						<polygon class="st2" points="388.7,95.8 387.2,95.4 386.1,96.5 386,94.9 384.7,94.1 386.1,93.5 386.5,92 387.5,93.2 389,93.1 
							388.1,94.4 						"/>
						<polygon class="st3" points="363.5,51.1 363,49.5 361.5,48.9 362.9,48 362.9,46.4 364.1,47.4 365.7,46.9 365.1,48.4 
							366.1,49.8 364.4,49.7 						"/>
						<polygon class="st4" points="425.6,10.1 425.1,8.5 423.6,8 424.9,7 424.9,5.4 426.2,6.4 427.8,5.9 427.2,7.5 428.2,8.8 
							426.6,8.8 						"/>
						<ellipse class="st5" cx="426.8" cy="31.8" rx="2.3" ry="2.4"/>
						<path class="st6" d="M343.1,76.1c0.6-0.6,1.7-0.6,2.3,0s0.6,1.7,0,2.3c-0.6,0.6-1.7,0.6-2.3,0S342.4,76.8,343.1,76.1z"/>
						<polygon class="st7" points="389,25.4 391.4,23.2 393.5,25.6 391.2,27.8 						"/>
						<polygon class="st8" points="431.9,99.8 434.2,97.6 436.4,100 434,102.2 						"/>
						<polygon class="st9" points="407.5,62.1 409.8,59.9 412,62.3 409.6,64.5 						"/>
					</g>
				</g>
			</g>
		</g>
	</g>
	<g id="Layer_1_7_">
		<g>
			<g>
				<g>
					<g>
						<polygon class="st1" points="414.9,7.5 413.4,7.1 412.3,8.2 412.2,6.6 410.9,5.8 412.3,5.2 412.7,3.7 413.7,4.9 415.2,4.8 
							414.4,6.1 						"/>
						<polygon class="st2" points="442.4,94 440.9,93.6 439.7,94.6 439.7,93.1 438.3,92.2 439.8,91.7 440.2,90.1 441.1,91.4 
							442.7,91.3 441.8,92.6 						"/>
						<polygon class="st3" points="417.2,49.2 416.7,47.6 415.2,47.1 416.5,46.2 416.5,44.6 417.8,45.6 419.4,45.1 418.8,46.6 
							419.8,48 418.1,47.9 						"/>
						<polygon class="st4" points="479.3,8.3 478.8,6.7 477.3,6.2 478.6,5.2 478.6,3.6 479.9,4.6 481.5,4.1 480.9,5.7 481.8,7 
							480.2,7 						"/>
						<ellipse class="st5" cx="480.5" cy="30" rx="2.3" ry="2.4"/>
						<path class="st6" d="M396.7,74.3c0.6-0.6,1.7-0.6,2.3,0c0.6,0.6,0.6,1.7,0,2.3c-0.6,0.6-1.7,0.6-2.3,0
							C396.1,76,396.1,75,396.7,74.3z"/>
						<polygon class="st7" points="442.7,23.6 445,21.4 447.2,23.8 444.8,26 						"/>
						<polygon class="st8" points="485.6,98 487.9,95.8 490,98.2 487.7,100.4 						"/>
						<polygon class="st9" points="461.1,60.3 463.5,58.1 465.6,60.5 463.3,62.7 						"/>
					</g>
				</g>
			</g>
		</g>
	</g>
	<g id="Layer_1_12_">
		<g>
			<g>
				<g>
					<g>
						<polygon class="st1" points="249.2,11.6 247.8,11.2 246.6,12.2 246.5,10.7 245.2,9.9 246.6,9.3 247,7.8 248,9 249.5,8.8 
							248.7,10.2 						"/>
						<polygon class="st2" points="276.7,98.1 275.2,97.7 274,98.7 274,97.2 272.7,96.3 274.1,95.8 274.5,94.2 275.4,95.5 277,95.3 
							276.1,96.6 						"/>
						<polygon class="st3" points="251.5,53.3 251,51.7 249.5,51.2 250.9,50.3 250.9,48.6 252.1,49.7 253.7,49.1 253.1,50.7 
							254.1,52.1 252.4,52 						"/>
						<polygon class="st4" points="313.6,12.4 313.1,10.8 311.6,10.2 312.9,9.3 312.9,7.6 314.2,8.7 315.8,8.2 315.2,9.7 
							316.2,11.1 314.5,11 						"/>
						<ellipse class="st5" cx="314.8" cy="34" rx="2.3" ry="2.4"/>
						<path class="st6" d="M231.1,78.4c0.6-0.6,1.7-0.6,2.3,0s0.6,1.7,0,2.3c-0.6,0.6-1.7,0.6-2.3,0C230.4,80.1,230.4,79,231.1,78.4
							z"/>
						<polygon class="st7" points="277,27.7 279.3,25.5 281.5,27.9 279.2,30.1 						"/>
						<polygon class="st8" points="319.9,102 322.2,99.8 324.4,102.2 322,104.4 						"/>
						<polygon class="st9" points="295.5,64.3 297.8,62.1 300,64.5 297.6,66.7 						"/>
					</g>
				</g>
			</g>
		</g>
	</g>
	<g id="Layer_1_14_">
		<g>
			<g>
				<g>
					<g>
						<polygon class="st1" points="27.9,14.3 26.5,13.9 25.3,15 25.2,13.4 23.9,12.6 25.3,12 25.7,10.5 26.7,11.7 28.2,11.6 
							27.4,12.9 						"/>
						<polygon class="st2" points="55.4,100.8 53.9,100.4 52.8,101.4 52.7,99.9 51.4,99 52.8,98.5 53.2,96.9 54.1,98.2 55.7,98.1 
							54.8,99.3 						"/>
						<polygon class="st3" points="30.2,56 29.7,54.4 28.2,53.9 29.6,53 29.6,51.4 30.8,52.4 32.4,51.8 31.8,53.4 32.8,54.8 
							31.1,54.7 						"/>
						<polygon class="st4" points="92.3,15.1 91.8,13.5 90.3,13 91.6,12 91.6,10.4 92.9,11.4 94.5,10.9 93.9,12.5 94.9,13.8 
							93.3,13.8 						"/>
						<ellipse class="st5" cx="93.5" cy="36.8" rx="2.3" ry="2.4"/>
						<path class="st6" d="M9.8,81.1c0.6-0.6,1.7-0.6,2.3,0s0.6,1.7,0,2.3c-0.6,0.6-1.7,0.6-2.3,0C9.1,82.8,9.1,81.8,9.8,81.1z"/>
						<polygon class="st7" points="55.7,30.4 58.1,28.2 60.2,30.6 57.9,32.8 						"/>
						<polygon class="st8" points="98.6,104.8 100.9,102.6 103.1,105 100.7,107.2 						"/>
						<polygon class="st9" points="74.2,67.1 76.5,64.9 78.7,67.3 76.3,69.5 						"/>
					</g>
				</g>
			</g>
		</g>
	</g>
	<g id="Layer_1_13_">
		<g>
			<g>
				<g>
					<g>
						<polygon class="st1" points="196.2,82.3 194.8,81.9 193.6,82.9 193.5,81.4 192.2,80.6 193.6,80 194,78.5 195,79.7 196.5,79.5 
							195.7,80.9 						"/>
						<polygon class="st2" points="223.7,168.8 222.2,168.4 221.1,169.4 221,167.8 219.7,167 221.1,166.5 221.5,164.9 222.4,166.2 
							224,166 223.1,167.3 						"/>
						<polygon class="st3" points="198.5,124 198,122.4 196.5,121.9 197.9,121 197.9,119.3 199.1,120.3 200.7,119.8 200.1,121.4 
							201.1,122.8 199.4,122.7 						"/>
						<polygon class="st4" points="260.6,83.1 260.1,81.5 258.6,80.9 259.9,80 259.9,78.3 261.2,79.4 262.8,78.9 262.2,80.4 
							263.2,81.8 261.6,81.7 						"/>
						<ellipse class="st5" cx="261.8" cy="104.7" rx="2.3" ry="2.4"/>
						<path class="st6" d="M178.1,149.1c0.6-0.6,1.7-0.6,2.3,0s0.6,1.7,0,2.3s-1.7,0.6-2.3,0S177.4,149.7,178.1,149.1z"/>
						<polygon class="st7" points="224,98.4 226.4,96.2 228.5,98.6 226.2,100.8 						"/>
						<polygon class="st8" points="266.9,172.7 269.2,170.5 271.4,172.9 269,175.1 						"/>
						<polygon class="st9" points="242.5,135 244.8,132.8 247,135.2 244.6,137.4 						"/>
					</g>
				</g>
			</g>
		</g>
	</g>
	<g id="Layer_1_15_">
		<g>
			<g>
				<g>
					<g>
						<polygon class="st1" points="340.5,125.3 339,124.8 337.9,125.9 337.8,124.3 336.5,123.5 337.9,122.9 338.3,121.4 
							339.3,122.6 340.8,122.5 340,123.8 						"/>
						<polygon class="st2" points="368,211.7 366.5,211.3 365.3,212.4 365.3,210.8 363.9,209.9 365.4,209.4 365.8,207.9 
							366.7,209.1 368.2,209 367.4,210.3 						"/>
						<polygon class="st3" points="342.7,167 342.3,165.3 340.8,164.8 342.1,163.9 342.1,162.3 343.4,163.3 345,162.8 344.4,164.3 
							345.4,165.7 343.7,165.6 						"/>
						<polygon class="st4" points="404.9,126 404.4,124.4 402.9,123.9 404.2,122.9 404.2,121.3 405.5,122.3 407,121.8 406.5,123.4 
							407.4,124.7 405.8,124.7 						"/>
						<ellipse class="st5" cx="406.1" cy="147.7" rx="2.3" ry="2.4"/>
						<path class="st6" d="M322.3,192c0.6-0.6,1.7-0.6,2.3,0c0.6,0.6,0.6,1.7,0,2.3s-1.7,0.6-2.3,0S321.7,192.7,322.3,192z"/>
						<polygon class="st7" points="368.3,141.3 370.6,139.1 372.8,141.5 370.4,143.7 						"/>
						<polygon class="st8" points="411.1,215.7 413.5,213.5 415.6,215.9 413.3,218.1 						"/>
						<polygon class="st9" points="386.7,178 389.1,175.8 391.2,178.2 388.9,180.4 						"/>
					</g>
				</g>
			</g>
		</g>
	</g>
	<g id="Layer_1_17_">
		<g>
			<g>
				<g>
					<g>
						<polygon class="st1" points="385,217.5 383.5,217.1 382.3,218.2 382.2,216.6 380.9,215.8 382.4,215.2 382.7,213.7 
							383.7,214.9 385.2,214.8 384.4,216.1 						"/>
						<polygon class="st2" points="412.4,304 410.9,303.6 409.8,304.7 409.7,303.1 408.4,302.2 409.8,301.7 410.2,300.1 
							411.2,301.4 412.7,301.3 411.9,302.6 						"/>
						<polygon class="st3" points="387.2,259.2 386.8,257.6 385.2,257.1 386.6,256.2 386.6,254.6 387.8,255.6 389.4,255.1 
							388.8,256.6 389.8,258 388.1,257.9 						"/>
						<polygon class="st4" points="449.3,218.3 448.8,216.7 447.3,216.2 448.7,215.2 448.7,213.6 450,214.6 451.5,214.1 
							450.9,215.7 451.9,217 450.3,217 						"/>
						<ellipse class="st5" cx="450.5" cy="240" rx="2.3" ry="2.4"/>
						<path class="st6" d="M366.8,284.3c0.6-0.6,1.7-0.6,2.3,0s0.6,1.7,0,2.3s-1.7,0.6-2.3,0S366.2,285,366.8,284.3z"/>
						<polygon class="st7" points="412.7,233.6 415.1,231.4 417.2,233.8 414.9,236 						"/>
						<polygon class="st8" points="455.6,308 457.9,305.8 460.1,308.2 457.7,310.4 						"/>
						<polygon class="st9" points="431.2,270.3 433.5,268.1 435.7,270.5 433.3,272.7 						"/>
					</g>
				</g>
			</g>
		</g>
	</g>
	<g id="Layer_1_18_">
		<g>
			<g>
				<g>
					<g>
						<polygon class="st1" points="228.6,240.2 227.1,239.8 225.9,240.8 225.9,239.3 224.5,238.5 226,237.9 226.4,236.4 
							227.3,237.6 228.9,237.5 228,238.8 						"/>
						<polygon class="st2" points="256.1,326.7 254.6,326.3 253.4,327.3 253.4,325.8 252,324.9 253.4,324.4 253.8,322.8 
							254.8,324.1 256.3,323.9 255.5,325.2 						"/>
						<polygon class="st3" points="230.8,281.9 230.4,280.3 228.9,279.8 230.2,278.9 230.2,277.2 231.5,278.3 233,277.7 
							232.5,279.3 233.4,280.7 231.8,280.6 						"/>
						<polygon class="st4" points="292.9,241 292.5,239.4 290.9,238.8 292.3,237.9 292.3,236.2 293.6,237.3 295.1,236.8 
							294.6,238.3 295.5,239.7 293.9,239.6 						"/>
						<ellipse class="st5" cx="294.2" cy="262.6" rx="2.3" ry="2.4"/>
						<path class="st6" d="M210.4,307c0.6-0.6,1.7-0.6,2.3,0s0.6,1.7,0,2.3s-1.7,0.6-2.3,0C209.8,308.7,209.8,307.6,210.4,307z"/>
						<polygon class="st7" points="256.4,256.3 258.7,254.1 260.9,256.5 258.5,258.7 						"/>
						<polygon class="st8" points="299.2,330.6 301.6,328.4 303.7,330.8 301.4,333 						"/>
						<polygon class="st9" points="274.8,293 277.2,290.7 279.3,293.1 277,295.3 						"/>
					</g>
				</g>
			</g>
		</g>
	</g>
	<g id="Layer_1_19_">
		<g>
			<g>
				<g>
					<g>
						<polygon class="st1" points="31.7,243.7 30.2,243.3 29,244.3 28.9,242.8 27.6,242 29.1,241.4 29.5,239.9 30.4,241.1 
							31.9,240.9 31.1,242.3 						"/>
						<polygon class="st2" points="59.1,330.2 57.7,329.8 56.5,330.8 56.4,329.2 55.1,328.4 56.5,327.9 56.9,326.3 57.9,327.5 
							59.4,327.4 58.6,328.7 						"/>
						<polygon class="st3" points="33.9,285.4 33.5,283.8 31.9,283.3 33.3,282.4 33.3,280.7 34.6,281.7 36.1,281.2 35.6,282.8 
							36.5,284.2 34.9,284.1 						"/>
						<polygon class="st4" points="96,244.5 95.5,242.9 94,242.3 95.4,241.4 95.4,239.7 96.7,240.8 98.2,240.3 97.6,241.8 
							98.6,243.2 97,243.1 						"/>
						<ellipse class="st5" cx="97.2" cy="266.1" rx="2.3" ry="2.4"/>
						<path class="st6" d="M13.5,310.5c0.6-0.6,1.7-0.6,2.3,0c0.6,0.6,0.6,1.7,0,2.3c-0.6,0.6-1.7,0.6-2.3,0S12.9,311.1,13.5,310.5z
							"/>
						<polygon class="st7" points="59.4,259.8 61.8,257.6 63.9,260 61.6,262.2 						"/>
						<polygon class="st8" points="102.3,334.1 104.6,331.9 106.8,334.3 104.5,336.5 						"/>
						<polygon class="st9" points="77.9,296.4 80.2,294.2 82.4,296.6 80,298.8 						"/>
					</g>
				</g>
			</g>
		</g>
	</g>
	<g id="Layer_1_20_">
		<g>
			<g>
				<g>
					<g>
						<polygon class="st1" points="63.5,176.9 62.1,176.5 60.9,177.5 60.8,176 59.5,175.2 60.9,174.6 61.3,173.1 62.3,174.3 
							63.8,174.1 63,175.5 						"/>
						<polygon class="st2" points="91,263.4 89.5,263 88.3,264 88.3,262.4 87,261.6 88.4,261.1 88.8,259.5 89.7,260.7 91.3,260.6 
							90.4,261.9 						"/>
						<polygon class="st3" points="65.8,218.6 65.3,217 63.8,216.5 65.2,215.6 65.2,213.9 66.4,214.9 68,214.4 67.4,216 68.4,217.3 
							66.7,217.3 						"/>
						<polygon class="st4" points="127.9,177.7 127.4,176 125.9,175.5 127.2,174.6 127.2,172.9 128.5,174 130.1,173.5 129.5,175 
							130.5,176.4 128.8,176.3 						"/>
						<ellipse class="st5" cx="129.1" cy="199.3" rx="2.3" ry="2.4"/>
						<path class="st6" d="M45.4,243.7c0.6-0.6,1.7-0.6,2.3,0s0.6,1.7,0,2.3s-1.7,0.6-2.3,0C44.7,245.4,44.7,244.3,45.4,243.7z"/>
						<polygon class="st7" points="91.3,193 93.6,190.8 95.8,193.2 93.5,195.4 						"/>
						<polygon class="st8" points="134.2,267.3 136.5,265.1 138.7,267.5 136.3,269.7 						"/>
						<polygon class="st10" points="109.8,229.6 112.1,227.4 114.3,229.8 111.9,232 						"/>
					</g>
				</g>
			</g>
		</g>
	</g>
	<g id="Layer_1_21_">
		<g>
			<g>
				<g>
					<g>
						<polygon class="st1" points="277.4,312.4 275.9,312 274.7,313 274.6,311.4 273.3,310.6 274.8,310 275.1,308.5 276.1,309.7 
							277.6,309.6 276.8,310.9 						"/>
						<polygon class="st2" points="304.8,398.8 303.3,398.4 302.2,399.5 302.1,397.9 300.8,397.1 302.2,396.5 302.6,395 
							303.6,396.2 305.1,396.1 304.3,397.4 						"/>
						<polygon class="st3" points="279.6,354.1 279.2,352.5 277.6,351.9 279,351 279,349.4 280.2,350.4 281.8,349.9 281.2,351.4 
							282.2,352.8 280.5,352.7 						"/>
						<polygon class="st4" points="341.7,313.1 341.2,311.5 339.7,311 341.1,310 341.1,308.4 342.4,309.4 343.9,308.9 343.3,310.5 
							344.3,311.8 342.7,311.8 						"/>
						<ellipse class="st5" cx="342.9" cy="334.8" rx="2.3" ry="2.4"/>
						<path class="st6" d="M259.2,379.1c0.6-0.6,1.7-0.6,2.3,0s0.6,1.7,0,2.3s-1.7,0.6-2.3,0S258.6,379.8,259.2,379.1z"/>
						<polygon class="st7" points="305.1,328.4 307.5,326.2 309.6,328.6 307.3,330.8 						"/>
						<polygon class="st8" points="348,402.8 350.3,400.6 352.5,403 350.1,405.2 						"/>
						<polygon class="st9" points="323.6,365.1 325.9,362.9 328.1,365.3 325.7,367.5 						"/>
					</g>
				</g>
			</g>
		</g>
	</g>
	<g id="Layer_1_22_">
		<g>
			<g>
				<g>
					<g>
						<polygon class="st1" points="180.1,377.4 178.6,377 177.5,378 177.4,376.4 176.1,375.6 177.5,375 177.9,373.5 178.8,374.7 
							180.4,374.6 179.5,375.9 						"/>
						<polygon class="st2" points="207.6,463.8 206.1,463.4 204.9,464.5 204.9,462.9 203.5,462.1 205,461.5 205.4,460 206.3,461.2 
							207.8,461.1 207,462.4 						"/>
						<polygon class="st3" points="182.3,419.1 181.9,417.4 180.4,416.9 181.7,416 181.7,414.4 183,415.4 184.6,414.9 184,416.4 
							184.9,417.8 183.3,417.7 						"/>
						<polygon class="st4" points="244.5,378.1 244,376.5 242.4,376 243.8,375 243.8,373.4 245.1,374.4 246.6,373.9 246.1,375.5 
							247,376.8 245.4,376.8 						"/>
						<ellipse class="st5" cx="245.7" cy="399.8" rx="2.3" ry="2.4"/>
						<path class="st6" d="M161.9,444.1c0.6-0.6,1.7-0.6,2.3,0s0.6,1.7,0,2.3s-1.7,0.6-2.3,0S161.3,444.8,161.9,444.1z"/>
						<polygon class="st7" points="207.9,393.4 210.2,391.2 212.4,393.6 210,395.8 						"/>
						<polygon class="st8" points="250.7,467.8 253.1,465.6 255.2,468 252.9,470.2 						"/>
						<polygon class="st9" points="226.3,430.1 228.7,427.9 230.8,430.3 228.5,432.5 						"/>
					</g>
				</g>
			</g>
		</g>
	</g>
	<g id="Layer_1_23_">
		<g>
			<g>
				<g>
					<g>
						<polygon class="st1" points="420.4,396.1 418.9,395.7 417.7,396.7 417.6,395.2 416.3,394.4 417.8,393.8 418.2,392.3 
							419.1,393.5 420.7,393.4 419.8,394.7 						"/>
						<polygon class="st2" points="447.9,482.6 446.4,482.2 445.2,483.2 445.2,481.7 443.8,480.8 445.2,480.3 445.6,478.7 
							446.6,480 448.1,479.8 447.3,481.1 						"/>
						<polygon class="st3" points="422.6,437.8 422.2,436.2 420.7,435.7 422,434.8 422,433.1 423.3,434.2 424.8,433.6 424.3,435.2 
							425.2,436.6 423.6,436.5 						"/>
						<polygon class="st4" points="484.7,396.9 484.3,395.3 482.7,394.7 484.1,393.8 484.1,392.2 485.4,393.2 486.9,392.7 
							486.3,394.2 487.3,395.6 485.7,395.5 						"/>
						<ellipse class="st5" cx="486" cy="418.6" rx="2.3" ry="2.4"/>
						<path class="st6" d="M402.2,462.9c0.6-0.6,1.7-0.6,2.3,0s0.6,1.7,0,2.3s-1.7,0.6-2.3,0C401.6,464.6,401.6,463.5,402.2,462.9z"
							/>
						<polygon class="st7" points="448.2,412.2 450.5,410 452.6,412.4 450.3,414.6 						"/>
						<polygon class="st8" points="491,486.5 493.4,484.3 495.5,486.7 493.2,488.9 						"/>
						<polygon class="st9" points="466.6,448.9 468.9,446.7 471.1,449 468.8,451.3 						"/>
					</g>
				</g>
			</g>
		</g>
	</g>
	<g id="Layer_1_24_">
		<g>
			<g>
				<g>
					<g>
						<polygon class="st1" points="29.7,396.5 28.3,396.1 27.1,397.1 27,395.6 25.7,394.8 27.1,394.2 27.5,392.7 28.5,393.9 
							30,393.7 29.2,395.1 						"/>
						<polygon class="st2" points="57.2,483 55.7,482.6 54.5,483.6 54.5,482.1 53.1,481.2 54.6,480.7 55,479.1 55.9,480.4 
							57.5,480.2 56.6,481.5 						"/>
						<polygon class="st3" points="32,438.2 31.5,436.6 30,436.1 31.3,435.2 31.3,433.5 32.6,434.6 34.2,434 33.6,435.6 34.6,437 
							32.9,436.9 						"/>
						<polygon class="st4" points="94.1,397.3 93.6,395.7 92.1,395.1 93.4,394.2 93.4,392.5 94.7,393.6 96.3,393.1 95.7,394.6 
							96.6,396 95,395.9 						"/>
						<ellipse class="st5" cx="95.3" cy="418.9" rx="2.3" ry="2.4"/>
						<path class="st6" d="M11.6,463.3c0.6-0.6,1.7-0.6,2.3,0s0.6,1.7,0,2.3c-0.6,0.6-1.7,0.6-2.3,0C10.9,465,10.9,463.9,11.6,463.3
							z"/>
						<polygon class="st7" points="57.5,412.6 59.8,410.4 62,412.8 59.6,415 						"/>
						<polygon class="st8" points="100.4,486.9 102.7,484.7 104.9,487.1 102.5,489.3 						"/>
						<polygon class="st9" points="75.9,449.3 78.3,447 80.4,449.4 78.1,451.6 						"/>
					</g>
				</g>
			</g>
		</g>
	</g>
	<g id="Layer_1_25_">
		<g>
			<g>
				<g>
					<g>
						<polygon class="st1" points="73.6,325.2 72.1,324.8 70.9,325.9 70.8,324.3 69.5,323.5 71,322.9 71.3,321.4 72.3,322.6 
							73.8,322.5 73,323.8 						"/>
						<polygon class="st2" points="101,411.7 99.6,411.3 98.4,412.3 98.3,410.8 97,409.9 98.4,409.4 98.8,407.8 99.8,409.1 
							101.3,408.9 100.5,410.2 						"/>
						<polygon class="st3" points="75.8,366.9 75.4,365.3 73.8,364.8 75.2,363.9 75.2,362.2 76.4,363.3 78,362.7 77.5,364.3 
							78.4,365.7 76.8,365.6 						"/>
						<polygon class="st4" points="137.9,326 137.4,324.4 135.9,323.8 137.3,322.9 137.3,321.3 138.6,322.3 140.1,321.8 
							139.5,323.4 140.5,324.7 138.9,324.6 						"/>
						<ellipse class="st5" cx="139.1" cy="347.7" rx="2.3" ry="2.4"/>
						<path class="st6" d="M55.4,392c0.6-0.6,1.7-0.6,2.3,0s0.6,1.7,0,2.3c-0.6,0.6-1.7,0.6-2.3,0C54.8,393.7,54.8,392.6,55.4,392z"
							/>
						<polygon class="st7" points="101.3,341.3 103.7,339.1 105.8,341.5 103.5,343.7 						"/>
						<polygon class="st8" points="144.2,415.7 146.5,413.4 148.7,415.8 146.3,418 						"/>
						<polygon class="st9" points="119.8,378 122.1,375.8 124.3,378.2 121.9,380.4 						"/>
					</g>
				</g>
			</g>
		</g>
	</g>
	<g id="Layer_1_26_">
		<g>
			<g>
				<g>
					<g>
						<polygon class="st1" points="280.6,400 279.1,399.6 277.9,400.6 277.8,399.1 276.5,398.3 278,397.7 278.4,396.2 279.3,397.4 
							280.9,397.3 280,398.6 						"/>
						<polygon class="st2" points="308.1,486.5 306.6,486.1 305.4,487.1 305.4,485.6 304,484.7 305.4,484.2 305.8,482.6 
							306.8,483.9 308.3,483.7 307.5,485 						"/>
						<polygon class="st3" points="282.8,441.7 282.4,440.1 280.9,439.6 282.2,438.7 282.2,437 283.5,438.1 285,437.5 284.5,439.1 
							285.4,440.5 283.8,440.4 						"/>
						<polygon class="st4" points="344.9,400.8 344.5,399.2 342.9,398.6 344.3,397.7 344.3,396.1 345.6,397.1 347.1,396.6 
							346.5,398.1 347.5,399.5 345.9,399.4 						"/>
						<ellipse class="st5" cx="346.2" cy="422.5" rx="2.3" ry="2.4"/>
						<path class="st6" d="M262.4,466.8c0.6-0.6,1.7-0.6,2.3,0s0.6,1.7,0,2.3s-1.7,0.6-2.3,0S261.8,467.4,262.4,466.8z"/>
						<polygon class="st7" points="308.4,416.1 310.7,413.9 312.9,416.3 310.5,418.5 						"/>
						<polygon class="st8" points="351.2,490.4 353.6,488.2 355.7,490.6 353.4,492.8 						"/>
						<polygon class="st9" points="326.8,452.8 329.1,450.6 331.3,452.9 329,455.2 						"/>
					</g>
				</g>
			</g>
		</g>
	</g>
	<g id="Layer_1_27_">
		<g>
			<g>
				<g>
					<g>
						<polygon class="st1" points="382.2,326.1 380.7,325.7 379.5,326.7 379.4,325.1 378.1,324.3 379.6,323.7 380,322.2 
							380.9,323.4 382.4,323.3 381.6,324.6 						"/>
						<polygon class="st2" points="409.6,412.5 408.2,412.1 407,413.2 406.9,411.6 405.6,410.8 407,410.2 407.4,408.7 408.4,409.9 
							409.9,409.8 409.1,411.1 						"/>
						<polygon class="st3" points="384.4,367.8 384,366.2 382.4,365.6 383.8,364.7 383.8,363.1 385.1,364.1 386.6,363.6 
							386.1,365.1 387,366.5 385.4,366.4 						"/>
						<polygon class="st4" points="446.5,326.8 446,325.2 444.5,324.7 445.9,323.7 445.9,322.1 447.2,323.1 448.7,322.6 
							448.1,324.2 449.1,325.5 447.5,325.5 						"/>
						<ellipse class="st5" cx="447.7" cy="348.5" rx="2.3" ry="2.4"/>
						<path class="st6" d="M364,392.8c0.6-0.6,1.7-0.6,2.3,0c0.6,0.6,0.6,1.7,0,2.3c-0.6,0.6-1.7,0.6-2.3,0
							C363.4,394.5,363.4,393.5,364,392.8z"/>
						<polygon class="st7" points="409.9,342.1 412.3,339.9 414.4,342.3 412.1,344.5 						"/>
						<polygon class="st8" points="452.8,416.5 455.1,414.3 457.3,416.7 455,418.9 						"/>
						<polygon class="st9" points="428.4,378.8 430.7,376.6 432.9,379 430.5,381.2 						"/>
					</g>
				</g>
			</g>
		</g>
	</g>
	<g id="Layer_1_28_">
		<g>
			<g>
				<g>
					<g>
						<polygon class="st1" points="157.5,321.7 156,321.3 154.8,322.3 154.7,320.7 153.4,319.9 154.9,319.3 155.2,317.8 156.2,319 
							157.7,318.9 156.9,320.2 						"/>
						<polygon class="st2" points="184.9,408.1 183.4,407.7 182.3,408.8 182.2,407.2 180.9,406.4 182.3,405.8 182.7,404.3 
							183.7,405.5 185.2,405.4 184.4,406.7 						"/>
						<polygon class="st3" points="159.7,363.4 159.3,361.8 157.7,361.2 159.1,360.3 159.1,358.7 160.3,359.7 161.9,359.2 
							161.3,360.7 162.3,362.1 160.6,362 						"/>
						<polygon class="st4" points="221.8,322.4 221.3,320.8 219.8,320.3 221.2,319.3 221.2,317.7 222.5,318.7 224,318.2 
							223.4,319.8 224.4,321.1 222.8,321.1 						"/>
						<ellipse class="st5" cx="223" cy="344.1" rx="2.3" ry="2.4"/>
						<path class="st6" d="M139.3,388.4c0.6-0.6,1.7-0.6,2.3,0s0.6,1.7,0,2.3c-0.6,0.6-1.7,0.6-2.3,0
							C138.7,390.1,138.7,389.1,139.3,388.4z"/>
						<polygon class="st7" points="185.2,337.7 187.6,335.5 189.7,337.9 187.4,340.1 						"/>
						<polygon class="st8" points="228.1,412.1 230.4,409.9 232.6,412.3 230.2,414.5 						"/>
						<polygon class="st9" points="203.7,374.4 206,372.2 208.2,374.6 205.8,376.8 						"/>
					</g>
				</g>
			</g>
		</g>
	</g>
	<g id="Layer_1_16_">
		<g>
			<g>
				<g>
					<g>
						<polygon class="st1" points="410.9,117 409.5,116.6 408.3,117.6 408.2,116.1 406.9,115.3 408.3,114.7 408.7,113.2 
							409.7,114.4 411.2,114.2 410.4,115.6 						"/>
						<polygon class="st2" points="438.4,203.5 436.9,203.1 435.8,204.1 435.7,202.5 434.4,201.7 435.8,201.2 436.2,199.6 
							437.1,200.8 438.7,200.7 437.8,202 						"/>
						<polygon class="st3" points="413.2,158.7 412.7,157.1 411.2,156.6 412.6,155.7 412.6,154 413.8,155 415.4,154.5 414.8,156.1 
							415.8,157.5 414.1,157.4 						"/>
						<polygon class="st4" points="475.3,117.8 474.8,116.2 473.3,115.6 474.6,114.7 474.6,113 475.9,114.1 477.5,113.6 
							476.9,115.1 477.9,116.5 476.2,116.4 						"/>
						<ellipse class="st5" cx="476.5" cy="139.4" rx="2.3" ry="2.4"/>
						<path class="st6" d="M392.8,183.8c0.6-0.6,1.7-0.6,2.3,0c0.6,0.6,0.6,1.7,0,2.3s-1.7,0.6-2.3,0
							C392.1,185.5,392.1,184.4,392.8,183.8z"/>
						<polygon class="st7" points="438.7,133.1 441.1,130.9 443.2,133.3 440.9,135.5 						"/>
						<polygon class="st8" points="481.6,207.4 483.9,205.2 486.1,207.6 483.7,209.8 						"/>
						<polygon class="st9" points="457.2,169.7 459.5,167.5 461.7,169.9 459.3,172.1 						"/>
					</g>
				</g>
			</g>
		</g>
	</g>
	<g id="Layer_1_1_">
		<g>
			<g>
				<g>
					<g>
						<polygon class="st1" points="80.8,51.6 77.8,50.8 75.4,52.9 75.2,49.7 72.6,48.1 75.5,46.9 76.3,43.8 78.2,46.3 81.3,46 
							79.6,48.7 						"/>
						<polygon class="st2" points="136,227.4 133,226.6 130.6,228.7 130.6,225.5 127.8,223.8 130.7,222.7 131.5,219.5 133.4,222 
							136.5,221.8 134.9,224.4 						"/>
						<polygon class="st3" points="85.2,136.4 84.4,133.1 81.3,132 84,130.2 84,126.9 86.6,128.9 89.7,127.9 88.6,131 90.5,133.8 
							87.2,133.7 						"/>
						<polygon class="st4" points="210.2,53.2 209.2,49.9 206.1,48.8 208.8,46.9 208.8,43.6 211.5,45.6 214.5,44.6 213.4,47.8 
							215.3,50.5 212.1,50.4 						"/>
						<ellipse class="st5" cx="212.6" cy="97.2" rx="4.6" ry="4.8"/>
						<path class="st6" d="M44.2,187.3c1.3-1.3,3.3-1.3,4.6,0s1.3,3.4,0,4.7s-3.3,1.3-4.6,0C42.9,190.8,42.9,188.6,44.2,187.3z"/>
						<polygon class="st7" points="136.6,84.3 141.3,79.8 145.6,84.7 140.9,89.2 						"/>
						<polygon class="st8" points="222.8,235.4 227.5,230.9 231.8,235.8 227.1,240.3 						"/>
						<polygon class="st9" points="173.7,158.8 178.4,154.3 182.7,159.2 178,163.7 						"/>
					</g>
				</g>
			</g>
		</g>
	</g>
</g>
<g>
	<g>
		<path class="st11" d="M57.4,431.7c0,0-4.8,17.7,0,30.9c4.8,13.3-4.9,22.2-2.1,37.4"/>
		<path class="st12" d="M103.7,380.1c0,0,0-20.3-13-35.2c-0.3-0.3-0.5-0.6-0.8-0.9s-0.6-0.6-0.8-0.9c-0.3-0.3-0.5-0.6-0.8-0.8
			c-0.3-0.3-0.6-0.6-0.9-0.9s-0.6-0.5-0.9-0.8c-0.3-0.2-0.5-0.5-0.8-0.7c0,0-0.2-0.2-0.4-0.3c-0.1-0.1-0.3-0.3-0.7-0.5
			c-0.2-0.1-0.4-0.3-0.6-0.5c-0.4-0.3-0.9-0.7-1.3-1c-0.2-0.2-0.4-0.3-0.6-0.5c-0.5-0.3-0.9-0.6-1.4-0.9c-0.2-0.1-0.4-0.3-0.6-0.4
			c-0.5-0.3-1-0.6-1.5-0.9c-0.2-0.1-0.4-0.2-0.6-0.3c-0.5-0.3-1.1-0.6-1.6-0.9c-0.2-0.1-0.3-0.2-0.5-0.2c-0.6-0.3-1.1-0.5-1.7-0.8
			c-0.1-0.1-0.3-0.1-0.4-0.2c-0.6-0.2-1.1-0.5-1.7-0.7c-0.1,0-0.2-0.1-0.3-0.1c-0.6-0.2-1.3-0.5-1.9-0.7c-0.1,0-0.3-0.1-0.4-0.1
			c-0.6-0.2-1.3-0.4-1.9-0.6c-0.1,0-0.3-0.1-0.4-0.1c-0.7-0.2-1.3-0.3-2-0.5c-0.1,0-0.3-0.1-0.4-0.1c-0.7-0.1-1.4-0.3-2-0.4
			c-0.1,0-0.2,0-0.4-0.1c-0.7-0.1-1.4-0.2-2.1-0.3c-0.1,0-0.2,0-0.3,0c-0.7-0.1-1.5-0.1-2.2-0.2c-0.1,0-0.1,0-0.2,0
			c-0.8,0-1.6-0.1-2.4-0.1c-26.8,0-48.6,23.1-48.6,51.7c0,0.9,0,1.8,0.1,2.7c0,0.3,0,0.6,0.1,0.8c0,0.6,0.1,1.2,0.1,1.9
			c0,0.3,0.1,0.6,0.1,0.9c0.1,0.6,0.1,1.2,0.2,1.7c0,0.3,0.1,0.6,0.2,0.9c0.1,0.6,0.2,1.1,0.3,1.7c0.1,0.3,0.1,0.6,0.2,0.9
			c0.1,0.6,0.2,1.1,0.4,1.7c0.1,0.3,0.1,0.5,0.2,0.8c0.2,0.6,0.3,1.2,0.5,1.7c0.1,0.2,0.2,0.5,0.2,0.7c0.2,0.6,0.4,1.2,0.6,1.8
			c0.1,0.2,0.2,0.4,0.2,0.6c0.2,0.6,0.5,1.2,0.7,1.8c0.1,0.2,0.2,0.4,0.2,0.5c0.3,0.6,0.5,1.2,0.8,1.8c0.1,0.2,0.1,0.3,0.2,0.4
			c0.3,0.6,0.6,1.2,0.9,1.9c0.1,0.1,0.1,0.2,0.2,0.4c0.3,0.6,0.7,1.3,1.1,1.9c0.1,0.1,0.1,0.2,0.2,0.3c0.4,0.6,0.8,1.3,1.2,1.9
			c0,0.1,0.1,0.1,0.1,0.2c0.4,0.6,0.9,1.3,1.3,1.9l0.1,0.1c0.5,0.6,1,1.3,1.5,1.9c0,0,0,0.1,0.1,0.1c0.5,0.6,1,1.2,1.6,1.8l0,0
			c8.8,9.7,21,15.8,34.6,15.9c-1.2,2-1.8,4.8-1.2,6.1c0.7,1.4,5.5,1.5,7.5,0c1.8-1.3-0.6-5.3-1.3-6.4c3-0.1,7.1-0.5,11.7-2.1
			c0,0,3-1,5.8-2.5C82.7,424,103.7,407,103.7,380.1z"/>
		<g>
			<path class="st13" d="M20.1,365c-0.5,0-1-0.1-1.4-0.3c-1.7-0.8-2.5-2.8-1.7-4.4c2.4-5.2,5.7-9.8,9.8-13.7
				c1.4-1.3,3.5-1.2,4.8,0.1c1.3,1.3,1.3,3.5-0.1,4.7c-3.5,3.3-6.3,7.2-8.3,11.6C22.7,364.3,21.4,365,20.1,365z"/>
		</g>
		<path class="st13" d="M24.9,363.6"/>
		<ellipse class="st13" cx="16.5" cy="370.5" rx="3.2" ry="3.2"/>
		<path class="st14" d="M85.5,401.9c-9.2,18.3-26.9,25.8-25,28.8c1.3,2.1,10-0.5,15.4-3.2c4.3-2.1,6.9-4.6,9.6-7
			c8-7.4,11.9-15.4,13.5-19c2.9-6.6,3.7-11.9,3.9-13.2c0.2-1.7,0.9-6.5,0.2-12.8c-0.6-5.6-1.9-9.7-2.8-12.4
			c-0.6-1.7-2.5-7.5-5.7-12.6c-7.2-11.7-20.3-19-21.7-17.5c-1.4,1.4,9.4,8.5,15,23.5C93,370.1,92.8,387.6,85.5,401.9z"/>
	</g>
	<g>
		<path class="st11" d="M253.8,441.8c0,0-4,15,0,26.3c4,11.3-4.1,18.9-1.8,31.8"/>
		<path class="st4" d="M292,397.8c0,0,0-17.3-10.8-29.9c-0.2-0.3-0.4-0.5-0.7-0.8c-0.2-0.3-0.5-0.5-0.7-0.8
			c-0.2-0.2-0.4-0.5-0.7-0.7c-0.2-0.2-0.5-0.5-0.7-0.7s-0.5-0.5-0.7-0.7s-0.5-0.4-0.7-0.6c0,0-0.2-0.1-0.3-0.3
			c-0.1-0.1-0.3-0.2-0.5-0.5c-0.2-0.1-0.3-0.3-0.5-0.4c-0.4-0.3-0.7-0.6-1.1-0.8c-0.2-0.1-0.4-0.3-0.5-0.4c-0.4-0.3-0.8-0.5-1.1-0.8
			c-0.2-0.1-0.3-0.2-0.5-0.3c-0.4-0.3-0.8-0.5-1.2-0.8c-0.2-0.1-0.3-0.2-0.5-0.3c-0.4-0.3-0.9-0.5-1.3-0.7c-0.1-0.1-0.3-0.1-0.4-0.2
			c-0.5-0.2-0.9-0.5-1.4-0.7c-0.1-0.1-0.2-0.1-0.3-0.2c-0.5-0.2-0.9-0.4-1.4-0.6c-0.1,0-0.2-0.1-0.3-0.1c-0.5-0.2-1-0.4-1.6-0.6
			c-0.1,0-0.2-0.1-0.3-0.1c-0.5-0.2-1.1-0.3-1.6-0.5c-0.1,0-0.2-0.1-0.3-0.1c-0.5-0.2-1.1-0.3-1.6-0.4c-0.1,0-0.2-0.1-0.3-0.1
			c-0.6-0.1-1.1-0.2-1.7-0.3c-0.1,0-0.2,0-0.3-0.1c-0.6-0.1-1.2-0.2-1.7-0.2c-0.1,0-0.2,0-0.3,0c-0.6-0.1-1.2-0.1-1.8-0.2
			c-0.1,0-0.1,0-0.2,0c-0.6,0-1.3-0.1-2-0.1c-22.2,0-40.2,19.7-40.2,44c0,0.8,0,1.5,0.1,2.3c0,0.2,0,0.5,0,0.7
			c0,0.5,0.1,1.1,0.1,1.6c0,0.3,0.1,0.5,0.1,0.8c0.1,0.5,0.1,1,0.2,1.5c0,0.3,0.1,0.5,0.1,0.8c0.1,0.5,0.2,1,0.2,1.5
			c0,0.2,0.1,0.5,0.2,0.7c0.1,0.5,0.2,1,0.3,1.5c0.1,0.2,0.1,0.4,0.2,0.7c0.1,0.5,0.3,1,0.4,1.5c0.1,0.2,0.1,0.4,0.2,0.6
			c0.2,0.5,0.3,1,0.5,1.5c0.1,0.2,0.1,0.4,0.2,0.5c0.2,0.5,0.4,1,0.6,1.5c0.1,0.2,0.1,0.3,0.2,0.5c0.2,0.5,0.4,1,0.7,1.6
			c0.1,0.1,0.1,0.3,0.2,0.4c0.2,0.5,0.5,1.1,0.8,1.6c0.1,0.1,0.1,0.2,0.2,0.3c0.3,0.5,0.6,1.1,0.9,1.6c0,0.1,0.1,0.2,0.1,0.2
			c0.3,0.5,0.6,1.1,1,1.6c0,0.1,0.1,0.1,0.1,0.2c0.4,0.5,0.7,1.1,1.1,1.6l0.1,0.1c0.4,0.5,0.8,1.1,1.2,1.6c0,0,0,0,0.1,0.1
			c0.4,0.5,0.9,1.1,1.3,1.6l0,0c7.2,8.3,17.4,13.4,28.7,13.5c-1,1.7-1.5,4.1-1,5.2c0.5,1.2,4.5,1.3,6.2,0c1.5-1.1-0.5-4.5-1.1-5.4
			c2.5-0.1,5.9-0.4,9.7-1.7c0,0,2.4-0.9,4.8-2.1C274.7,435.2,292,420.8,292,397.8z"/>
		<g>
			<path class="st13" d="M222.9,385c-0.4,0-0.8-0.1-1.2-0.3c-1.4-0.7-2-2.3-1.4-3.8c2-4.4,4.7-8.3,8.1-11.6c1.1-1.1,2.9-1.1,4,0.1
				c1.1,1.1,1.1,2.9-0.1,4c-2.9,2.8-5.2,6.1-6.9,9.9C225,384.4,224,385,222.9,385z"/>
		</g>
		<path class="st13" d="M226.8,383.9"/>
		<ellipse class="st13" cx="219.9" cy="389.7" rx="2.7" ry="2.7"/>
		<path class="st15" d="M277,416.5c-7.6,15.6-22.3,21.9-20.7,24.5c1.1,1.8,8.3-0.4,12.8-2.7c3.5-1.8,5.7-3.9,7.9-6
			c6.6-6.3,9.8-13.1,11.2-16.2c2.4-5.6,3.1-10.1,3.2-11.3c0.2-1.4,0.7-5.6,0.2-10.9c-0.5-4.8-1.6-8.2-2.3-10.5
			c-0.5-1.4-2.1-6.4-4.7-10.7c-6-10-16.8-16.2-18-14.9c-1.2,1.2,7.8,7.3,12.4,20C283.2,389.4,283,404.2,277,416.5z"/>
	</g>
	<g>
		<path class="st11" d="M433,434.3c0,0-4.3,17.2,0,30.2c4.3,12.9-4.5,21.7-1.9,36.4"/>
		<path class="st2" d="M475,384c0,0,0-19.8-11.8-34.3c-0.2-0.3-0.5-0.6-0.7-0.9c-0.3-0.3-0.5-0.6-0.8-0.9c-0.2-0.3-0.5-0.5-0.7-0.8
			c-0.3-0.3-0.5-0.6-0.8-0.8c-0.3-0.3-0.5-0.5-0.8-0.8c-0.2-0.2-0.5-0.5-0.7-0.7c0,0-0.2-0.2-0.4-0.3c-0.1-0.1-0.3-0.3-0.6-0.5
			c-0.2-0.1-0.4-0.3-0.6-0.5c-0.4-0.3-0.8-0.7-1.2-1c-0.2-0.2-0.4-0.3-0.6-0.5c-0.4-0.3-0.8-0.6-1.3-0.9c-0.2-0.1-0.4-0.3-0.6-0.4
			c-0.4-0.3-0.9-0.6-1.3-0.9c-0.2-0.1-0.3-0.2-0.5-0.3c-0.5-0.3-1-0.6-1.4-0.8c-0.1-0.1-0.3-0.2-0.5-0.2c-0.5-0.3-1-0.5-1.5-0.8
			c-0.1-0.1-0.3-0.1-0.4-0.2c-0.5-0.2-1-0.5-1.5-0.7c-0.1,0-0.2-0.1-0.3-0.1c-0.6-0.2-1.2-0.5-1.7-0.7c-0.1,0-0.2-0.1-0.3-0.1
			c-0.6-0.2-1.2-0.4-1.8-0.6c-0.1,0-0.2-0.1-0.4-0.1c-0.6-0.2-1.2-0.3-1.8-0.5c-0.1,0-0.2-0.1-0.4-0.1c-0.6-0.1-1.2-0.3-1.8-0.4
			c-0.1,0-0.2,0-0.3-0.1c-0.6-0.1-1.3-0.2-1.9-0.3c-0.1,0-0.2,0-0.3,0c-0.7-0.1-1.3-0.1-2-0.2c-0.1,0-0.1,0-0.2,0
			c-0.7,0-1.4-0.1-2.1-0.1c-24.4,0-44.1,22.5-44.1,50.3c0,0.9,0,1.8,0.1,2.6c0,0.3,0,0.5,0.1,0.8c0,0.6,0.1,1.2,0.1,1.8
			c0,0.3,0.1,0.6,0.1,0.9c0.1,0.6,0.1,1.1,0.2,1.7c0,0.3,0.1,0.6,0.1,0.9c0.1,0.6,0.2,1.1,0.3,1.7c0.1,0.3,0.1,0.6,0.2,0.8
			c0.1,0.6,0.2,1.1,0.4,1.7c0.1,0.3,0.1,0.5,0.2,0.8c0.1,0.6,0.3,1.1,0.4,1.7c0.1,0.2,0.1,0.5,0.2,0.7c0.2,0.6,0.3,1.2,0.5,1.7
			c0.1,0.2,0.1,0.4,0.2,0.6c0.2,0.6,0.4,1.2,0.6,1.8c0.1,0.2,0.1,0.3,0.2,0.5c0.2,0.6,0.5,1.2,0.7,1.8c0.1,0.1,0.1,0.3,0.2,0.4
			c0.3,0.6,0.6,1.2,0.8,1.8c0.1,0.1,0.1,0.2,0.2,0.4c0.3,0.6,0.6,1.2,1,1.8c0,0.1,0.1,0.2,0.2,0.3c0.4,0.6,0.7,1.2,1.1,1.8
			c0,0.1,0.1,0.1,0.1,0.2c0.4,0.6,0.8,1.2,1.2,1.8l0.1,0.1c0.4,0.6,0.9,1.2,1.3,1.8c0,0,0,0,0.1,0.1c0.5,0.6,0.9,1.2,1.4,1.8l0,0
			c7.9,9.4,19.1,15.4,31.5,15.5c-1.1,1.9-1.7,4.7-1.1,6c0.6,1.4,4.9,1.4,6.8,0c1.6-1.2-0.6-5.1-1.2-6.2c2.7-0.1,6.5-0.5,10.6-2
			c0,0,2.7-1,5.2-2.5C455.9,426.8,475,410.3,475,384z"/>
		<g>
			<path class="st13" d="M399.1,369.4c-0.4,0-0.9-0.1-1.3-0.3c-1.6-0.7-2.2-2.7-1.5-4.3c2.2-5.1,5.2-9.5,8.9-13.3
				c1.2-1.3,3.2-1.2,4.4,0.1c1.2,1.3,1.2,3.4-0.1,4.6c-3.2,3.2-5.7,7-7.6,11.3C401.5,368.7,400.3,369.4,399.1,369.4z"/>
		</g>
		<path class="st13" d="M403.5,368"/>
		<ellipse class="st13" cx="395.9" cy="374.7" rx="2.9" ry="3.1"/>
		<path class="st16" d="M458.5,405.3c-8.4,17.8-24.4,25.1-22.7,28.1c1.2,2,9.1-0.5,14-3.1c3.9-2.1,6.3-4.4,8.7-6.9
			c7.2-7.3,10.8-15,12.2-18.5c2.6-6.4,3.4-11.6,3.6-12.9c0.2-1.6,0.8-6.4,0.2-12.5c-0.5-5.4-1.7-9.4-2.6-12.1
			c-0.5-1.6-2.3-7.3-5.1-12.3c-6.5-11.4-18.4-18.5-19.7-17c-1.3,1.4,8.5,8.3,13.6,22.9C465.3,374.3,465.1,391.3,458.5,405.3z"/>
	</g>
	<g>
		<path class="st11" d="M337.1,373.3c0,0-9.4,32.8,0,57.5s-9.7,41.3-4.2,69.5"/>
		<path class="st17" d="M377.8,326.7c0,0,0-18.4-11.5-31.8c-0.2-0.3-0.5-0.6-0.7-0.8c-0.2-0.3-0.5-0.5-0.7-0.8s-0.5-0.5-0.7-0.7
			c-0.3-0.3-0.5-0.5-0.8-0.8c-0.3-0.2-0.5-0.5-0.8-0.7c-0.2-0.2-0.5-0.4-0.7-0.7c0,0-0.2-0.1-0.3-0.3c-0.1-0.1-0.3-0.2-0.6-0.5
			c-0.2-0.1-0.3-0.3-0.6-0.5c-0.4-0.3-0.8-0.6-1.2-0.9c-0.2-0.1-0.4-0.3-0.6-0.4c-0.4-0.3-0.8-0.6-1.2-0.9c-0.2-0.1-0.4-0.2-0.5-0.4
			c-0.4-0.3-0.9-0.6-1.3-0.8c-0.2-0.1-0.3-0.2-0.5-0.3c-0.5-0.3-0.9-0.5-1.4-0.8c-0.1-0.1-0.3-0.2-0.4-0.2c-0.5-0.3-1-0.5-1.5-0.7
			c-0.1-0.1-0.3-0.1-0.4-0.2c-0.5-0.2-1-0.4-1.5-0.6c-0.1,0-0.2-0.1-0.3-0.1c-0.6-0.2-1.1-0.4-1.7-0.6c-0.1,0-0.2-0.1-0.3-0.1
			c-0.6-0.2-1.1-0.4-1.7-0.5c-0.1,0-0.2-0.1-0.4-0.1c-0.6-0.2-1.2-0.3-1.8-0.4c-0.1,0-0.2-0.1-0.4-0.1c-0.6-0.1-1.2-0.2-1.8-0.3
			c-0.1,0-0.2,0-0.3-0.1c-0.6-0.1-1.2-0.2-1.9-0.3c-0.1,0-0.2,0-0.3,0c-0.6-0.1-1.3-0.1-2-0.2c-0.1,0-0.1,0-0.2,0
			c-0.7,0-1.4-0.1-2.1-0.1c-23.8,0-43.1,20.9-43.1,46.7c0,0.8,0,1.6,0.1,2.4c0,0.3,0,0.5,0.1,0.7c0,0.6,0.1,1.1,0.1,1.7
			c0,0.3,0.1,0.6,0.1,0.8c0.1,0.5,0.1,1,0.2,1.6c0,0.3,0.1,0.5,0.1,0.8c0.1,0.5,0.2,1,0.3,1.5c0,0.3,0.1,0.5,0.2,0.8
			c0.1,0.5,0.2,1,0.3,1.5c0.1,0.2,0.1,0.5,0.2,0.7c0.1,0.5,0.3,1.1,0.4,1.6c0.1,0.2,0.1,0.4,0.2,0.6c0.2,0.5,0.3,1.1,0.5,1.6
			c0.1,0.2,0.1,0.4,0.2,0.6c0.2,0.5,0.4,1.1,0.6,1.6c0.1,0.2,0.1,0.3,0.2,0.5c0.2,0.6,0.5,1.1,0.7,1.7c0.1,0.1,0.1,0.3,0.2,0.4
			c0.3,0.6,0.5,1.1,0.8,1.7c0.1,0.1,0.1,0.2,0.2,0.3c0.3,0.6,0.6,1.1,0.9,1.7c0,0.1,0.1,0.2,0.1,0.3c0.3,0.6,0.7,1.1,1.1,1.7
			c0,0.1,0.1,0.1,0.1,0.2c0.4,0.6,0.8,1.1,1.2,1.7l0.1,0.1c0.4,0.6,0.9,1.1,1.3,1.7c0,0,0,0,0.1,0.1c0.5,0.6,0.9,1.1,1.4,1.7l0,0
			c7.8,8.8,18.6,14.2,30.7,14.3c-1.1,1.8-1.6,4.3-1.1,5.5c0.6,1.3,4.8,1.3,6.6,0c1.6-1.1-0.5-4.8-1.1-5.7c2.6-0.1,6.3-0.4,10.4-1.9
			c0,0,2.6-0.9,5.1-2.3C359.2,366.3,377.8,351,377.8,326.7z"/>
		<g>
			<path class="st13" d="M303.7,313.1c-0.4,0-0.8-0.1-1.3-0.3c-1.5-0.7-2.2-2.5-1.5-4c2.1-4.7,5.1-8.8,8.7-12.3
				c1.2-1.2,3.1-1.1,4.3,0.1c1.2,1.2,1.1,3.1-0.1,4.3c-3.1,3-5.6,6.5-7.4,10.5C306,312.4,304.9,313.1,303.7,313.1z"/>
		</g>
		<path class="st13" d="M307.9,311.8"/>
		<circle class="st13" cx="300.6" cy="318" r="2.9"/>
		<path class="st18" d="M361.7,346.4c-8.2,16.5-23.9,23.3-22.2,26c1.1,1.9,8.9-0.4,13.7-2.9c3.8-1.9,6.1-4.1,8.5-6.4
			c7.1-6.7,10.6-13.9,12-17.2c2.5-5.9,3.3-10.8,3.5-11.9c0.2-1.5,0.8-5.9,0.2-11.6c-0.5-5-1.7-8.7-2.5-11.2c-0.5-1.5-2.2-6.8-5-11.4
			c-6.4-10.6-18-17.2-19.3-15.8c-1.2,1.3,8.3,7.7,13.3,21.2C368.3,317.7,368.1,333.5,361.7,346.4z"/>
	</g>
	<g>
		<path class="st11" d="M157.4,388.2c0,0-9.8,28.9,0,50.6s-10.2,36.4-4.4,61.2"/>
		<path class="st5" d="M203,336.6c0,0,0-20.3-13.4-35.2c-0.3-0.3-0.6-0.6-0.8-0.9c-0.3-0.3-0.6-0.6-0.9-0.9
			c-0.3-0.3-0.6-0.6-0.8-0.8c-0.3-0.3-0.6-0.6-0.9-0.9c-0.3-0.3-0.6-0.5-0.9-0.8c-0.3-0.2-0.6-0.5-0.8-0.7c0,0-0.2-0.2-0.4-0.3
			c-0.1-0.1-0.3-0.3-0.7-0.5c-0.2-0.1-0.4-0.3-0.7-0.5c-0.4-0.3-0.9-0.7-1.3-1c-0.2-0.2-0.4-0.3-0.7-0.5c-0.5-0.3-0.9-0.6-1.4-0.9
			c-0.2-0.1-0.4-0.3-0.6-0.4c-0.5-0.3-1-0.6-1.5-0.9c-0.2-0.1-0.4-0.2-0.6-0.3c-0.5-0.3-1.1-0.6-1.6-0.9c-0.2-0.1-0.3-0.2-0.5-0.2
			c-0.6-0.3-1.1-0.5-1.7-0.8c-0.1-0.1-0.3-0.1-0.4-0.2c-0.6-0.2-1.2-0.5-1.8-0.7c-0.1,0-0.2-0.1-0.3-0.1c-0.6-0.2-1.3-0.5-2-0.7
			c-0.1,0-0.3-0.1-0.4-0.1c-0.7-0.2-1.3-0.4-2-0.6c-0.1,0-0.3-0.1-0.4-0.1c-0.7-0.2-1.3-0.3-2-0.5c-0.1,0-0.3-0.1-0.4-0.1
			c-0.7-0.1-1.4-0.3-2.1-0.4c-0.1,0-0.3,0-0.4-0.1c-0.7-0.1-1.4-0.2-2.2-0.3c-0.1,0-0.2,0-0.3,0c-0.8-0.1-1.5-0.1-2.3-0.2
			c-0.1,0-0.1,0-0.2,0c-0.8,0-1.6-0.1-2.4-0.1c-27.6,0-49.9,23.1-49.9,51.7c0,0.9,0,1.8,0.1,2.7c0,0.3,0,0.6,0.1,0.8
			c0,0.6,0.1,1.2,0.1,1.9c0,0.3,0.1,0.6,0.1,0.9c0.1,0.6,0.1,1.2,0.2,1.7c0,0.3,0.1,0.6,0.2,0.9c0.1,0.6,0.2,1.1,0.3,1.7
			c0.1,0.3,0.1,0.6,0.2,0.9c0.1,0.6,0.3,1.1,0.4,1.7c0.1,0.3,0.1,0.5,0.2,0.8c0.2,0.6,0.3,1.2,0.5,1.7c0.1,0.2,0.2,0.5,0.2,0.7
			c0.2,0.6,0.4,1.2,0.6,1.8c0.1,0.2,0.2,0.4,0.2,0.6c0.2,0.6,0.5,1.2,0.7,1.8c0.1,0.2,0.2,0.4,0.2,0.5c0.3,0.6,0.5,1.2,0.8,1.8
			c0.1,0.2,0.1,0.3,0.2,0.4c0.3,0.6,0.6,1.2,1,1.9c0.1,0.1,0.1,0.2,0.2,0.4c0.4,0.6,0.7,1.3,1.1,1.9c0.1,0.1,0.1,0.2,0.2,0.3
			c0.4,0.6,0.8,1.3,1.2,1.9c0,0.1,0.1,0.1,0.1,0.2c0.4,0.6,0.9,1.3,1.4,1.9l0.1,0.1c0.5,0.6,1,1.3,1.5,1.9c0,0,0,0.1,0.1,0.1
			c0.5,0.6,1.1,1.2,1.6,1.8l0,0c9,9.7,21.6,15.8,35.6,15.9c-1.2,2-1.9,4.8-1.3,6.1c0.7,1.4,5.6,1.5,7.7,0c1.8-1.3-0.6-5.3-1.3-6.4
			c3.1-0.1,7.3-0.5,12-2.1c0,0,3-1,5.9-2.5C181.5,380.5,203,363.5,203,336.6z"/>
		<path class="st13" d="M117.2,321.6c-0.5,0-1-0.1-1.5-0.3c-1.8-0.8-2.5-2.8-1.7-4.4c2.5-5.2,5.9-9.8,10.1-13.7
			c1.4-1.3,3.6-1.2,5,0.1c1.3,1.3,1.3,3.5-0.1,4.7c-3.6,3.3-6.4,7.2-8.6,11.6C119.8,320.9,118.5,321.6,117.2,321.6z"/>
		<path class="st13" d="M122.1,320.2"/>
		<ellipse class="st13" cx="113.5" cy="327.1" rx="3.3" ry="3.2"/>
		<path class="st19" d="M184.4,358.5c-9.5,18.3-27.7,25.8-25.7,28.8c1.3,2.1,10.3-0.5,15.9-3.2c4.4-2.1,7.1-4.6,9.8-7
			c8.2-7.4,12.2-15.4,13.9-19c2.9-6.6,3.8-11.9,4-13.2c0.3-1.7,0.9-6.5,0.2-12.8c-0.6-5.6-2-9.7-2.9-12.4c-0.6-1.7-2.6-7.5-5.8-12.6
			c-7.4-11.7-20.8-19-22.3-17.5c-1.4,1.4,9.7,8.5,15.4,23.5C192.1,326.7,191.8,344.1,184.4,358.5z"/>
	</g>
	<g>
		<path class="st11" d="M129.8,465.9c0,0-6.3,8.8,0,15.4s-6.5,11.1-2.8,18.7"/>
		<path class="st1" d="M158.8,431.2c0,0,0-13.7-8.5-23.7c-0.2-0.2-0.4-0.4-0.5-0.6c-0.2-0.2-0.4-0.4-0.5-0.6
			c-0.2-0.2-0.4-0.4-0.5-0.6c-0.2-0.2-0.4-0.4-0.6-0.6c-0.2-0.2-0.4-0.4-0.6-0.5c-0.2-0.2-0.4-0.3-0.5-0.5c0,0-0.1-0.1-0.3-0.2
			c0,0-0.2-0.2-0.4-0.4c-0.1-0.1-0.3-0.2-0.4-0.3c-0.3-0.2-0.6-0.4-0.9-0.7c-0.1-0.1-0.3-0.2-0.4-0.3c-0.3-0.2-0.6-0.4-0.9-0.6
			c-0.1-0.1-0.3-0.2-0.4-0.3c-0.3-0.2-0.6-0.4-1-0.6c-0.1-0.1-0.3-0.1-0.4-0.2c-0.3-0.2-0.7-0.4-1-0.6c-0.1-0.1-0.2-0.1-0.3-0.2
			c-0.4-0.2-0.7-0.4-1.1-0.5c-0.1,0-0.2-0.1-0.3-0.1c-0.4-0.2-0.7-0.3-1.1-0.5c-0.1,0-0.1-0.1-0.2-0.1c-0.4-0.2-0.8-0.3-1.2-0.5
			c-0.1,0-0.2-0.1-0.2-0.1c-0.4-0.1-0.8-0.3-1.3-0.4c-0.1,0-0.2-0.1-0.3-0.1c-0.4-0.1-0.9-0.2-1.3-0.3c-0.1,0-0.2,0-0.3-0.1
			c-0.4-0.1-0.9-0.2-1.3-0.3c-0.1,0-0.2,0-0.2,0c-0.5-0.1-0.9-0.1-1.4-0.2c-0.1,0-0.1,0-0.2,0c-0.5-0.1-1-0.1-1.4-0.1h-0.1
			c-0.5,0-1,0-1.5,0c-17.5,0-31.7,15.6-31.7,34.8c0,0.6,0,1.2,0,1.8c0,0.2,0,0.4,0,0.6c0,0.4,0.1,0.8,0.1,1.2c0,0.2,0,0.4,0.1,0.6
			c0,0.4,0.1,0.8,0.1,1.2c0,0.2,0.1,0.4,0.1,0.6c0.1,0.4,0.1,0.8,0.2,1.1c0,0.2,0.1,0.4,0.1,0.6c0.1,0.4,0.2,0.8,0.3,1.2
			c0,0.2,0.1,0.4,0.1,0.5c0.1,0.4,0.2,0.8,0.3,1.2c0,0.2,0.1,0.3,0.1,0.5c0.1,0.4,0.2,0.8,0.4,1.2c0,0.1,0.1,0.3,0.2,0.4
			c0.1,0.4,0.3,0.8,0.5,1.2c0,0.1,0.1,0.2,0.1,0.4c0.2,0.4,0.3,0.8,0.5,1.2c0,0.1,0.1,0.2,0.1,0.3c0.2,0.4,0.4,0.8,0.6,1.3
			c0,0.1,0.1,0.2,0.1,0.2c0.2,0.4,0.5,0.8,0.7,1.3c0,0.1,0.1,0.1,0.1,0.2c0.3,0.4,0.5,0.9,0.8,1.3l0.1,0.1c0.3,0.4,0.6,0.9,0.9,1.3
			c0,0,0,0.1,0.1,0.1c0.3,0.4,0.6,0.9,1,1.3c0,0,0,0,0,0.1c0.3,0.4,0.7,0.8,1,1.2l0,0c5.7,6.5,13.7,10.6,22.6,10.7
			c-0.8,1.3-1.2,3.2-0.8,4.1c0.4,1,3.6,1,4.9,0c1.2-0.9-0.4-3.5-0.8-4.3c1.9-0.1,4.7-0.3,7.6-1.4c0,0,1.9-0.7,3.8-1.7
			C145.1,460.7,158.8,449.3,158.8,431.2z"/>
		<path class="st13" d="M104.2,421.1c-0.3,0-0.6-0.1-0.9-0.2c-1.1-0.5-1.6-1.9-1.1-3c1.6-3.5,3.7-6.6,6.4-9.2
			c0.9-0.9,2.3-0.8,3.2,0.1c0.9,0.9,0.8,2.3-0.1,3.2c-2.3,2.2-4.1,4.8-5.4,7.8C105.9,420.6,105.1,421.1,104.2,421.1z"/>
		<path class="st13" d="M107.3,420.1"/>
		<ellipse class="st13" cx="101.9" cy="424.8" rx="2.1" ry="2.1"/>
		<path class="st20" d="M147,445.9c-6,12.3-17.6,17.3-16.3,19.4c0.8,1.4,6.5-0.3,10.1-2.2c2.8-1.4,4.5-3.1,6.3-4.7
			c5.2-5,7.8-10.3,8.8-12.8c1.9-4.4,2.4-8,2.6-8.9c0.2-1.1,0.6-4.4,0.1-8.6c-0.4-3.8-1.3-6.5-1.8-8.3c-0.4-1.1-1.7-5-3.7-8.5
			c-4.7-7.9-13.2-12.8-14.2-11.8c-0.9,1,6.2,5.8,9.8,15.8C151.9,424.5,151.7,436.2,147,445.9z"/>
	</g>
	<g>
		<path class="st11" d="M342.5,465.7c0,0-6.3,8.8,0,15.4s-6.5,11.1-2.8,18.7"/>
		<path class="st8" d="M371.5,431c0,0,0-13.7-8.5-23.7c-0.2-0.2-0.4-0.4-0.5-0.6c-0.2-0.2-0.4-0.4-0.5-0.6c-0.2-0.2-0.4-0.4-0.5-0.6
			c-0.2-0.2-0.4-0.4-0.6-0.6s-0.4-0.4-0.6-0.5c-0.2-0.2-0.4-0.3-0.5-0.5c0,0-0.1-0.1-0.3-0.2c0,0-0.2-0.2-0.4-0.4
			c-0.1-0.1-0.3-0.2-0.4-0.3c-0.3-0.2-0.6-0.4-0.9-0.7c-0.1-0.1-0.3-0.2-0.4-0.3c-0.3-0.2-0.6-0.4-0.9-0.6c-0.1-0.1-0.3-0.2-0.4-0.3
			c-0.3-0.2-0.6-0.4-1-0.6c-0.1-0.1-0.3-0.1-0.4-0.2c-0.3-0.2-0.7-0.4-1-0.6c-0.1-0.1-0.2-0.1-0.3-0.2c-0.4-0.2-0.7-0.4-1.1-0.5
			c-0.1,0-0.2-0.1-0.3-0.1c-0.4-0.2-0.7-0.3-1.1-0.5c-0.1,0-0.1-0.1-0.2-0.1c-0.4-0.2-0.8-0.3-1.2-0.5c-0.1,0-0.2-0.1-0.2-0.1
			c-0.4-0.1-0.8-0.3-1.3-0.4c-0.1,0-0.2-0.1-0.3-0.1c-0.4-0.1-0.9-0.2-1.3-0.3c-0.1,0-0.2,0-0.3-0.1c-0.4-0.1-0.9-0.2-1.3-0.3
			c-0.1,0-0.2,0-0.2,0c-0.5-0.1-0.9-0.1-1.4-0.2c-0.1,0-0.1,0-0.2,0c-0.5-0.1-1-0.1-1.4-0.1h-0.1c-0.5,0-1,0-1.5,0
			c-17.5,0-31.7,15.6-31.7,34.8c0,0.6,0,1.2,0,1.8c0,0.2,0,0.4,0,0.6c0,0.4,0.1,0.8,0.1,1.2c0,0.2,0,0.4,0.1,0.6
			c0,0.4,0.1,0.8,0.1,1.2c0,0.2,0.1,0.4,0.1,0.6c0.1,0.4,0.1,0.8,0.2,1.1c0,0.2,0.1,0.4,0.1,0.6c0.1,0.4,0.2,0.8,0.3,1.2
			c0,0.2,0.1,0.4,0.1,0.5c0.1,0.4,0.2,0.8,0.3,1.2c0,0.2,0.1,0.3,0.1,0.5c0.1,0.4,0.2,0.8,0.4,1.2c0,0.1,0.1,0.3,0.2,0.4
			c0.1,0.4,0.3,0.8,0.5,1.2c0,0.1,0.1,0.2,0.1,0.4c0.2,0.4,0.3,0.8,0.5,1.2c0,0.1,0.1,0.2,0.1,0.3c0.2,0.4,0.4,0.8,0.6,1.3
			c0,0.1,0.1,0.2,0.1,0.2c0.2,0.4,0.5,0.8,0.7,1.3c0,0.1,0.1,0.1,0.1,0.2c0.3,0.4,0.5,0.9,0.8,1.3l0.1,0.1c0.3,0.4,0.6,0.9,0.9,1.3
			c0,0,0,0.1,0.1,0.1c0.3,0.4,0.6,0.9,1,1.3c0,0,0,0,0,0.1c0.3,0.4,0.7,0.8,1,1.2l0,0c5.7,6.5,13.7,10.6,22.6,10.7
			c-0.8,1.3-1.2,3.2-0.8,4.1c0.4,1,3.6,1,4.9,0c1.2-0.9-0.4-3.5-0.8-4.3c1.9-0.1,4.7-0.3,7.6-1.4c0,0,1.9-0.7,3.8-1.7
			C357.8,460.5,371.5,449.1,371.5,431z"/>
		<path class="st13" d="M316.9,420.8c-0.3,0-0.6-0.1-0.9-0.2c-1.1-0.5-1.6-1.9-1.1-3c1.6-3.5,3.7-6.6,6.4-9.2
			c0.9-0.9,2.3-0.8,3.2,0.1c0.9,0.9,0.8,2.3-0.1,3.2c-2.3,2.2-4.1,4.8-5.4,7.8C318.6,420.4,317.8,420.8,316.9,420.8z"/>
		<path class="st13" d="M320,419.9"/>
		<ellipse class="st13" cx="314.6" cy="424.5" rx="2.1" ry="2.1"/>
		<path class="st21" d="M359.7,445.7c-6,12.3-17.6,17.3-16.3,19.4c0.8,1.4,6.5-0.3,10.1-2.2c2.8-1.4,4.5-3.1,6.3-4.7
			c5.2-5,7.8-10.3,8.8-12.8c1.9-4.4,2.4-8,2.6-8.9c0.2-1.1,0.6-4.4,0.1-8.6c-0.4-3.8-1.3-6.5-1.8-8.3c-0.4-1.1-1.7-5-3.7-8.5
			c-4.7-7.9-13.2-12.8-14.2-11.8c-0.9,1,6.2,5.8,9.8,15.8C364.6,424.3,364.4,436,359.7,445.7z"/>
	</g>
</g>
<g>
	<path id="path5" class="st5" d="M154.9,162.2c-3.9,1.3-8.2-0.7-11.5-3.8c-1,2.9-1.1,6.5-0.6,9.4c1.2-0.8,2.5-1.4,4.1-2
		c5.7-1.9,16.8,0.7,15.7,8.2c-0.5,3.6-4.1,7-7.5,8.2c-4,1.4-8.1-0.4-11.2-2.9c-0.8-0.7-1.6-1.4-2.2-2.1c-1.9,6.5,4,15.6,9.1,18.5
		c3.1,1.8,0,6.2-3,4.5c-9.7-5.5-14.6-19.2-9.3-28c-2.1-5-1.8-10.8,0.3-16.3c0.3-0.7,0.6-1.3,1-1.9c-0.5-0.8-0.9-1.6-1.2-2.4
		c-3.3-9.1,3.3-17.2,11.2-21.4c3.1-1.6,5.6,3.1,2.5,4.8c-5.7,3-10.8,8.5-8.5,14.9c3.6-2.2,8.3-2.8,12.6-1.6
		C164.2,150.6,160.7,160.3,154.9,162.2z M149.9,176.9c2.8,1.3,6.9-0.7,7.4-3.9c0.3-1.8-5.1-2.2-6.1-2.3c-2.3-0.1-4.4,0.7-6.2,2
		C146.2,174.5,148,176,149.9,176.9z M147,154.3c2.4,2.2,5.8,4.1,7.7,1.9C158.4,152,149.5,153.5,147,154.3z"/>
	<path id="path4" class="st4" d="M170,246.7c-3.9,1.3-8.2-0.7-11.5-3.8c-1,2.9-1.1,6.5-0.6,9.4c1.2-0.8,2.5-1.4,4.1-2
		c5.7-1.9,16.8,0.7,15.7,8.2c-0.5,3.6-4.1,7-7.5,8.2c-4,1.4-8.1-0.4-11.2-2.9c-0.8-0.7-1.6-1.4-2.2-2.1c-1.9,6.5,4,15.6,9.1,18.5
		c3.1,1.8,0,6.2-3,4.5c-9.7-5.5-14.6-19.2-9.3-28c-2.1-5-1.8-10.8,0.3-16.3c0.3-0.7,0.6-1.3,1-1.9c-0.5-0.8-0.9-1.6-1.2-2.4
		c-3.3-9.1,3.3-17.2,11.2-21.4c3.1-1.6,5.6,3.1,2.5,4.8c-5.7,3-10.8,8.5-8.5,14.9c3.6-2.2,8.3-2.8,12.6-1.6
		C179.3,235.1,175.8,244.8,170,246.7z M165,261.4c2.8,1.3,6.9-0.7,7.4-3.9c0.3-1.8-5.1-2.2-6.1-2.3c-2.3-0.1-4.4,0.7-6.2,2
		C161.4,259,163.1,260.5,165,261.4z M162.2,238.8c2.4,2.2,5.8,4.1,7.7,1.9C173.5,236.5,164.7,238,162.2,238.8z"/>
	<path id="path3" class="st2" d="M445.9,202.2c3.8,1.3,8.1-0.7,11.2-3.8c1,2.9,1.1,6.5,0.6,9.4c-1.2-0.8-2.5-1.4-4-2
		c-5.5-1.9-16.4,0.7-15.4,8.2c0.5,3.6,4.1,7,7.3,8.2c3.9,1.4,7.9-0.4,11-2.9c0.8-0.7,1.5-1.4,2.2-2.1c1.8,6.5-3.9,15.6-8.9,18.5
		c-3,1.8,0,6.2,2.9,4.5c9.4-5.5,14.3-19.2,9.1-28c2-5,1.8-10.8-0.3-16.3c-0.3-0.7-0.6-1.3-0.9-1.9c0.5-0.8,0.9-1.6,1.1-2.4
		c3.2-9.1-3.2-17.2-10.9-21.4c-3.1-1.6-5.5,3.1-2.5,4.8c5.6,3,10.5,8.5,8.3,14.9c-3.5-2.2-8.1-2.8-12.3-1.6
		C436.9,190.5,440.3,200.2,445.9,202.2z M450.8,216.8c-2.8,1.3-6.8-0.7-7.2-3.9c-0.3-1.8,5-2.2,5.9-2.3c2.2-0.1,4.3,0.7,6.1,2
		C454.4,214.4,452.7,215.9,450.8,216.8z M453.6,194.3c-2.4,2.2-5.7,4.1-7.5,1.9C442.5,192,451.2,193.4,453.6,194.3z"/>
	<path id="path2" class="st12" d="M47.2,242c3.8,1.3,8.1-0.7,11.2-3.8c1,2.9,1.1,6.5,0.6,9.4c-1.2-0.8-2.5-1.4-4-2
		c-5.5-1.9-16.4,0.7-15.4,8.2c0.5,3.6,4.1,7,7.3,8.2c3.9,1.4,7.9-0.4,11-2.9c0.8-0.7,1.5-1.4,2.2-2.1c1.8,6.5-3.9,15.6-8.9,18.5
		c-3,1.8,0,6.2,2.9,4.5c9.4-5.5,14.3-19.2,9.1-28c2-5,1.8-10.8-0.3-16.3c-0.3-0.7-0.6-1.3-0.9-1.9c0.5-0.8,0.9-1.6,1.1-2.4
		c3.2-9.1-3.2-17.2-10.9-21.4c-3.1-1.6-5.5,3.1-2.5,4.8c5.6,3,10.5,8.5,8.3,14.9c-3.5-2.2-8.1-2.8-12.3-1.6
		C38.1,230.4,41.5,240.1,47.2,242z M52.1,256.7c-2.8,1.3-6.8-0.7-7.2-3.9c-0.3-1.8,5-2.2,5.9-2.3c2.2-0.1,4.3,0.7,6.1,2
		C55.6,254.3,53.9,255.8,52.1,256.7z M54.9,234.1c-2.4,2.2-5.7,4.1-7.5,1.9C43.8,231.8,52.4,233.3,54.9,234.1z"/>
	<path id="path" class="st1" d="M336.4,155.9c3.8,1.3,8.1-0.7,11.2-3.8c1,2.9,1.1,6.5,0.6,9.4c-1.2-0.8-2.5-1.4-4-2
		c-5.5-1.9-16.4,0.7-15.4,8.2c0.5,3.6,4.1,7,7.3,8.2c3.9,1.4,7.9-0.4,11-2.9c0.8-0.7,1.5-1.4,2.2-2.1c1.8,6.5-3.9,15.6-8.9,18.5
		c-3,1.8,0,6.2,2.9,4.5c9.4-5.5,14.3-19.2,9.1-28c2-5,1.8-10.8-0.3-16.3c-0.3-0.7-0.6-1.3-0.9-1.9c0.5-0.8,0.9-1.6,1.1-2.4
		c3.2-9.1-3.2-17.2-10.9-21.4c-3.1-1.6-5.5,3.1-2.5,4.8c5.6,3,10.5,8.5,8.3,14.9c-3.5-2.2-8.1-2.8-12.3-1.6
		C327.3,144.3,330.7,153.9,336.4,155.9z M341.3,170.6c-2.8,1.3-6.8-0.7-7.2-3.9c-0.3-1.8,5-2.2,5.9-2.3c2.2-0.1,4.3,0.7,6.1,2
		C344.9,168.1,343.2,169.7,341.3,170.6z M344.1,148c-2.4,2.2-5.7,4.1-7.5,1.9C333,145.7,341.6,147.2,344.1,148z"/>
</g>
<g>
	<g>
		<g>
			<path class="st22" d="M77.4,15.9c0,0,1.5,1.9-0.4,3.8S67.4,25,67.4,25l-11,4.2l-5.9,3.3c0,0-2.4-1.7,0.6-3.6s9.2-4.2,9.2-4.2
				l11.4-4.5C71.6,20.1,77.1,17.2,77.4,15.9z"/>
			<path class="st22" d="M76.5,42.4c0,0-3.7,2.1-10.5,4.2c-6.3,2.1-13.3,4.2-14.1,5.8c0,0-1.3-3,0-4c1.2-1,3.6-2.1,8-3.4
				s12.3-4,12.8-4.2C73.4,40.9,76.5,42.4,76.5,42.4z"/>
			<path class="st22" d="M72.5,55.3c0,0-1.2-0.6-5.7-0.4c-4.5,0.2-11.9,1.6-14.1,3.3c-2.2,1.7-0.4,3.4-0.4,3.4s5-2.5,7.6-2.7
				c2.5-0.1,12.7,0.4,12.7,0.4L72.5,55.3L72.5,55.3z"/>
			<g>
				<path class="st23" d="M51.2,50.2c0,0,1.2,3.6,3.1,4.2c1.9,0.7,14.6,3,18.1,0.8V59c0,0-3.4,1.5-8.8,0.6s-8.2-1.6-10.2-2.1
					S51,55.2,51,55.2L51.2,50.2z"/>
			</g>
			<path class="st22" d="M70,64.6c0,0-1.5-1.1-4.8-1c-3.3,0.2-9.5,0.2-11.3,2.9c0.5,1.6,2.2,1.8,2.2,1.8s1.5-0.8,3.1-1.1
				c1.7-0.2,11,0.5,11,0.5L70,64.6z"/>
			<g>
				<path class="st23" d="M51.5,59.8c0,0,2,3.2,4.1,3.6S66,65.8,70,64.8c0,1.1,0.2,3.3,0.2,3.3s-3,0.7-6.3,0.2
					c-3.3-0.6-8-1.6-9.5-2.3c-1.6-0.7-2.4-1.8-2.4-1.8L51.5,59.8z"/>
			</g>
			<g>
				<path class="st23" d="M53.8,66.7c0,0,3.7,3.6,8.4,3.2c0.3,0.8,1.1,3,1.1,3s-3.2,0-6.2-0.8s-2.8-1.6-2.8-1.6L53.8,66.7z"/>
			</g>
			<g>
				<path class="st23" d="M49.5,30.4c0,0,0.3,3.6,4.2,4.2c16.5,2.8,22.7,4.6,22.7,4.6l0.1,3c0,0-3.4-1.1-12.7-2.7
					c-9.2-1.6-13.1-2.5-14-4.4C48.9,33.5,49.5,30.4,49.5,30.4z"/>
			</g>
			<g>
				<path class="st23" d="M72.3,11.9c-5.5-4.5-14.4-10.8-16-12.1h6.1c0,0,17.2,12,15.4,18C77.8,17.7,75.5,14.5,72.3,11.9z"/>
			</g>
		</g>
	</g>
</g>
<g>
	<g>
		<g>
			<path class="st15" d="M116.6,21.3c0,0,1.8,2.4-0.5,4.9c-2.3,2.4-12,6.8-12,6.8l-13.7,5.5L83,42.6c0,0-3.1-2.3,0.7-4.6
				c3.7-2.4,11.5-5.3,11.5-5.3l14.2-5.6C109.4,26.8,116.3,23.2,116.6,21.3z"/>
			<path class="st15" d="M115.6,55.2c0,0-4.6,2.5-13.2,5.5C94.6,63.2,85.7,66,84.7,68c0,0-1.6-3.9-0.1-5.1c1.5-1.2,4.5-2.5,10-4.2
				s15.4-5.1,16-5.3C111.8,53.2,115.6,55.2,115.6,55.2z"/>
			<path class="st15" d="M110.6,71.3c0,0-1.5-0.8-7.1-0.6c-5.6,0.2-14.9,1.8-17.6,4.1c-2.7,2.3-0.5,4.1-0.5,4.1s6.3-3.3,9.5-3.5
				s15.8,0.4,15.8,0.4v-4.5H110.6z"/>
			<g>
				<path class="st4" d="M83.9,64.9c0,0,1.5,4.5,3.9,5.3s18.3,3.9,22.8,1.1V76c0,0-4.3,1.8-11,0.7s-10.3-1.9-12.7-2.5
					c-2.4-0.6-3.1-3-3.1-3L83.9,64.9z"/>
			</g>
			<path class="st15" d="M107.5,83.3c0,0-1.9-1.5-6-1.1s-11.8,0.2-14.1,3.6c0.6,2.1,2.7,2.3,2.7,2.3s1.8-1.1,3.9-1.3
				c2.1-0.4,13.7,0.6,13.7,0.6L107.5,83.3z"/>
			<g>
				<path class="st4" d="M84.3,77c0,0,2.5,4,5.1,4.6s12.9,3,17.9,1.7c0.1,1.5,0.3,4.1,0.3,4.1s-3.8,1-7.9,0.2
					c-4.1-0.7-10-1.8-11.9-2.9c-2-1-3.1-2.3-3.1-2.3L84.3,77z"/>
			</g>
			<g>
				<path class="st4" d="M87.3,85.9c0,0,4.7,4.6,10.5,4c0.5,1.1,1.4,3.9,1.4,3.9s-4,0.1-7.8-1.1c-3.8-1.1-3.6-1.8-3.6-1.8L87.3,85.9
					z"/>
			</g>
			<g>
				<path class="st4" d="M81.8,39.9c0,0,0.4,4.6,5.2,5.5c20.7,3.5,28.5,5.8,28.5,5.8l0.1,3.9c0,0-4.3-1.3-15.8-3.4
					c-11.6-2.1-16.4-3.3-17.6-5.6C80.9,43.7,81.8,39.9,81.8,39.9z"/>
			</g>
			<g>
				<path class="st4" d="M110.3,16.4c-6.9-5.7-18-13.7-19.9-15.4H98c0,0,21.7,15.2,19.3,22.8C117.2,23.8,114.4,19.6,110.3,16.4z"/>
			</g>
		</g>
	</g>
</g>
<g>
	<g>
		<path class="st16" d="M159,11c0,0,1.6,1.5-0.5,2.9C156.4,15.4,148,18,148,18l-12,3.3l-6.4,2.4c0,0-2.6-1.3,0.6-2.8
			c3.3-1.5,10.1-3.3,10.1-3.3l12.5-3.4C152.7,14.3,158.8,12.1,159,11z"/>
		<path class="st16" d="M158.1,31.2c0,0-4.1,1.6-11.5,3.3c-6.9,1.6-14.6,3.3-15.5,4.4c0,0-1.4-2.3-0.1-3c1.4-0.7,3.9-1.6,8.7-2.5
			c4.8-1,13.4-3,14-3.2C154.8,30.1,158.1,31.2,158.1,31.2z"/>
		<path class="st16" d="M153.8,41c0,0-1.3-0.5-6.3-0.4s-13,1.1-15.4,2.4c-2.4,1.3-0.5,2.5-0.5,2.5s5.5-1.9,8.3-2.1
			c2.8-0.1,13.8,0.2,13.8,0.2L153.8,41L153.8,41z"/>
		<g>
			<path class="st2" d="M130.4,37.1c0,0,1.3,2.7,3.4,3.3c2.1,0.5,16,2.3,19.8,0.6v2.8c0,0-3.8,1.1-9.6,0.4c-5.8-0.7-9-1.2-11.1-1.6
				s-2.6-1.7-2.6-1.7L130.4,37.1z"/>
		</g>
		<path class="st16" d="M151.1,48c0,0-1.6-0.8-5.3-0.7c-3.6,0.1-10.3,0.1-12.3,2.2c0.6,1.2,2.3,1.3,2.3,1.3s1.6-0.6,3.4-0.8
			c1.8-0.2,12,0.4,12,0.4L151.1,48z"/>
		<g>
			<path class="st2" d="M130.9,44.3c0,0,2.2,2.4,4.4,2.8c2.3,0.4,11.3,1.8,15.6,1.1c0.1,0.8,0.3,2.4,0.3,2.4s-3.3,0.6-6.9,0.1
				c-3.6-0.5-8.7-1.1-10.4-1.7c-1.7-0.6-2.7-1.3-2.7-1.3L130.9,44.3z"/>
		</g>
		<g>
			<path class="st2" d="M133.4,49.6c0,0,4.1,2.8,9.2,2.4c0.4,0.7,1.3,2.3,1.3,2.3s-3.4,0-6.8-0.6c-3.3-0.7-3.1-1.1-3.1-1.1
				L133.4,49.6z"/>
		</g>
		<g>
			<path class="st2" d="M128.6,22.1c0,0,0.4,2.8,4.5,3.3c18.1,2.2,24.9,3.5,24.9,3.5l0.1,2.3c0,0-3.7-0.8-13.8-2.1
				c-10.1-1.2-14.3-1.9-15.3-3.4C127.9,24.4,128.6,22.1,128.6,22.1z"/>
		</g>
		<g>
			<path class="st2" d="M153.5,8c-6-3.4-15.7-8.2-17.5-9.2h6.6c0,0,18.8,9.1,16.9,13.6C159.6,12.5,157.1,10.1,153.5,8z"/>
		</g>
	</g>
</g>
<g>
	<g>
		<path class="st9" d="M43.4,22.3c0,0,2.1,2.9-0.6,5.7s-13.9,8-13.9,8l-16,6.4l-8.5,4.9c0,0-3.5-2.7,0.8-5.5
			c4.3-2.9,13.4-6.4,13.4-6.4l16.5-6.8C35,28.6,43,24.2,43.4,22.3z"/>
		<path class="st9" d="M42.2,62.1c0,0-5.4,3.2-15.3,6.4c-9.1,3.2-19.3,6.4-20.5,8.6c0,0-1.9-4.6-0.1-5.9s5.2-3.2,11.6-5
			c6.4-1.9,17.8-5.9,18.5-6.3C37.7,59.7,42.2,62.1,42.2,62.1z"/>
		<path class="st9" d="M36.4,81.1c0,0-1.7-1-8.3-0.6c-6.6,0.2-17.3,2.3-20.4,4.7c-3.2,2.7-0.6,5-0.6,5s7.3-3.9,11-4
			c3.7-0.2,18.3,0.5,18.3,0.5V81.1z"/>
		<g>
			<path class="st1" d="M5.5,73.5c0,0,1.8,5.3,4.6,6.4c2.8,1,21.3,4.6,26.4,1.2v5.6c0,0-5,2.2-12.7,0.7c-7.8-1.3-11.9-2.3-14.7-3
				c-2.9-0.7-3.5-3.5-3.5-3.5L5.5,73.5z"/>
		</g>
		<path class="st9" d="M32.8,95.2c0,0-2.2-1.7-7-1.3C21,94.3,12,94.1,9.4,98.3c0.7,2.4,3.1,2.8,3.1,2.8s2.1-1.2,4.5-1.6
			s16,0.7,16,0.7L32.8,95.2z"/>
		<g>
			<path class="st1" d="M6,87.8c0,0,3,4.7,5.9,5.5c3,0.7,15,3.6,20.7,2.2c0.1,1.7,0.3,4.7,0.3,4.7s-4.4,1.1-9.1,0.2
				C19.1,99.7,12.2,98.1,10,97c-2.3-1.1-3.5-2.7-3.5-2.7L6,87.8z"/>
		</g>
		<g>
			<path class="st1" d="M9.4,98.2c0,0,5.4,5.5,12.2,4.7c0.5,1.3,1.6,4.6,1.6,4.6s-4.6,0-9-1.2c-4.4-1.3-4.1-2.3-4.1-2.3L9.4,98.2z"
				/>
		</g>
		<g>
			<path class="st1" d="M3,44c0,0,0.4,5.5,6,6.4c24.1,4.2,33,6.9,33,6.9l0.2,4.6c0,0-4.9-1.6-18.3-4s-19-3.8-20.4-6.7
				C2.1,48.4,3,44,3,44z"/>
		</g>
		<g>
			<path class="st1" d="M36,16.2C28,9.4,15,0,12.7-1.7h8.8c0,0,25.1,18,22.5,26.9C44.1,25.1,40.8,20.2,36,16.2z"/>
		</g>
	</g>
</g>
<g>
	<path class="st4" d="M463.8,109.3c3.6-3,7-5.7,10.5-8.9c3.7,3.2,7.5,6.3,11.4,9.3c-0.7-10.1-1.4-20.1-2-30.1
		c-6.8,0.2-13.6,0.2-20.3,0C463.4,89.5,463.7,99.2,463.8,109.3z"/>
	<g>
		<path class="st2" d="M432.1,106.2c3.9-2.5,7.7-5.3,11.4-8.1c3.4,3.5,7,7.2,10.6,10.4c0.1-10.1,0.2-19.7,0.3-29.7
			c-6.7-0.5-13.5-1.3-20.2-2.2C433.4,86.8,432.8,96.3,432.1,106.2z"/>
	</g>
	<g>
		
			<linearGradient id="SVGID_2_" gradientUnits="userSpaceOnUse" x1="407.7299" y1="72.7172" x2="366.6421" y2="85.971" gradientTransform="matrix(-0.4709 3.165062e-002 2.868202e-002 0.9719 593.2938 -1.4055)">
			<stop  offset="0" style="stop-color:#F36D6D"/>
			<stop  offset="1" style="stop-color:#F71B39"/>
		</linearGradient>
		<path class="st24" d="M400.8,100.4c4-2.2,8.1-4.9,12-7.3c3.1,4,6.2,8,9.5,12c1-10.4,2-20.3,3-29.8c-6.7-1.2-13.2-2.7-19.8-4.4
			C403.9,80.3,402.4,90.2,400.8,100.4z"/>
	</g>
	<path class="st4" d="M370.1,90.8c4.2-1.8,8.5-4,12.6-5.8c2.8,4.2,5.6,8.7,8.6,12.9c1.9-10.2,3.7-20,5.3-29.2
		c-6.5-1.9-13.1-4-19.5-6.4C374.9,71.3,372.5,80.9,370.1,90.8z"/>
	<path class="st2" d="M340.2,78.2c4.4-1.3,8.8-3,13-4.5c2.5,4.5,4.9,9.3,7.6,13.7c2.7-9.8,5.3-19.4,7.6-28.4
		c-6.4-2.7-12.7-5.3-18.9-8.5C346.6,59.2,343.4,68.4,340.2,78.2z"/>
	
		<linearGradient id="SVGID_3_" gradientUnits="userSpaceOnUse" x1="599.378" y1="23.029" x2="542.6286" y2="52.9802" gradientTransform="matrix(-0.4709 3.165062e-002 2.868202e-002 0.9719 593.2938 -1.4055)">
		<stop  offset="0" style="stop-color:#F36D6D"/>
		<stop  offset="1" style="stop-color:#F71B39"/>
	</linearGradient>
	<path class="st25" d="M311.2,62.2c4.5-0.7,9.1-2.1,13.3-3c2.1,4.6,4.2,9.7,6.4,14.3c3.4-9.5,6.9-18.7,10-27.4
		c-6.1-3.3-12.2-6.8-18.3-10.4C319.3,44.3,315.4,53.1,311.2,62.2z"/>
	<path class="st4" d="M283.7,42.9c4.6-0.2,9.1-0.6,13.5-1.1c1.7,4.9,3.5,9.7,5.5,14.6c4.1-8.6,8.1-17,12.2-25.6
		c-5.9-3.9-11.8-8-17.5-12.4C292.9,26.7,288.3,34.6,283.7,42.9z"/>
	<g>
		<path class="st26" d="M368.3,59.7c14.9,5.7,30.8,10.4,47.1,14.1c47.8,10.3,84.8,7.2,85.1,7.2l-0.2-1.5c-0.3,0-37.2,3.2-84.8-7.2
			C371.6,62.7,309.2,39.5,261.6-17l-0.8,1c21.2,25.1,46.8,45.9,76.5,61.5C347.2,50.8,357.7,55.5,368.3,59.7z"/>
	</g>
</g>
<g>
	<path class="st8" d="M47.1,151.1C42.9,148,39,145.3,35,142c-4,3.8-8.1,7.4-12.3,10.9c0.3-11.2,0.7-22.2,1-33.4
		c7.6-0.1,15.1-0.5,22.7-1.3C46.6,129.4,46.8,140.1,47.1,151.1z"/>
	<path class="st27" d="M82.3,145.9c-4.4-2.7-8.7-5.3-13-8.2c-3.6,4.1-7.4,8.2-11.3,12.1c-0.6-11-1-21.6-1.6-32.6
		c7.5-1,15-2.2,22.5-3.6C80,124.6,81.1,135,82.3,145.9z"/>
	
		<linearGradient id="SVGID_4_" gradientUnits="userSpaceOnUse" x1="41.2579" y1="81.4362" x2="-36.3337" y2="90.4588" gradientTransform="matrix(0.3787 -2.879279e-002 -9.338845e-003 1.0997 103.8408 29.5628)">
		<stop  offset="0" style="stop-color:#FFD866"/>
		<stop  offset="1" style="stop-color:#FFC419"/>
	</linearGradient>
	<path class="st28" d="M117.1,137.5c-4.6-2.2-9.3-4.9-13.8-7.2c-3.3,4.5-6.6,9.3-10.1,13.7c-1.5-11.4-3-22.2-4.5-32.6
		c7.4-1.7,14.7-3.8,22.1-5.9C112.7,115.7,114.8,126.4,117.1,137.5z"/>
	<path class="st8" d="M150.8,125.2c-4.8-1.6-9.6-3.9-14.3-5.7c-2.9,4.7-5.9,9.9-9,14.7c-2.5-11.2-4.9-21.7-7.2-31.8
		c7.2-2.5,14.4-5.2,21.5-8.2C144.6,103.9,147.7,114.4,150.8,125.2z"/>
	<path class="st27" d="M183.5,109.3c-4.9-1.1-9.9-2.8-14.7-4.1c-2.5,5.1-5.1,10.6-7.8,15.5c-3.4-10.7-6.7-21-9.8-30.8
		c7-3.3,13.9-6.7,20.8-10.6C175.6,88.9,179.5,98.8,183.5,109.3z"/>
	
		<linearGradient id="SVGID_5_" gradientUnits="userSpaceOnUse" x1="287.6215" y1="44.6648" x2="217.9108" y2="63.0099" gradientTransform="matrix(0.3787 -2.879279e-002 -9.338845e-003 1.0997 103.8408 29.5628)">
		<stop  offset="0" style="stop-color:#FFD866"/>
		<stop  offset="1" style="stop-color:#FFC419"/>
	</linearGradient>
	<path class="st29" d="M215.1,90.1c-5-0.6-10.2-1.7-15-2.5c-2.2,5.2-4.3,10.9-6.6,16.3c-4.3-10.2-8.4-20-12.3-29.5
		c6.7-4,13.4-8.1,19.9-12.6C205.5,70.7,210.2,80.2,215.1,90.1z"/>
	<path class="st8" d="M245.1,67.1c-5.1,0-10.2-0.2-15.1-0.5c-1.7,5.5-3.5,10.9-5.5,16.4c-4.9-9.3-9.7-18.2-14.6-27.4
		c6.5-4.6,12.8-9.6,19-14.7C234.2,49.8,239.6,58.2,245.1,67.1z"/>
	<path class="st27" d="M273.6,41.8c-5.1,0.5-10.2,1-15.3,1.3c-1.3,5.6-2.8,10.8-4.3,16.4c-5.7-8.7-11.3-16.9-16.9-25.6
		c6.1-5.3,12.1-10.9,17.9-16.7C261.1,25.5,267.3,33.6,273.6,41.8z"/>
	<g>
		<path class="st26" d="M149.2,91.8c-16.7,7.4-34.5,13.7-52.9,18.7C42.5,125.3,0.5,124.3,0,124.3l0.1-1.5c0.4,0,42.3,0.8,95.9-13.7
			C145.4,95.6,215.3,65.7,267.1,0l0.9,1c-23,29.1-51.4,53.7-84.5,73.1C172.6,80.5,161.1,86.5,149.2,91.8z"/>
	</g>
</g>
<rect y="174" class="st30" width="500.5" height="146.1"/>
<text transform="matrix(1 0 0 1 71.6499 310.7504)" class="st31 st32">PLAN NEW PARTY</text>
<g>
	<g id="plus">
		<g>
			<path d="M275.2,215.2h-22.7v-23.3c0-3.9-3.1-7-6.8-7s-6.8,3.1-6.8,7v23.3h-22.7c-3.8,0-6.8,3.1-6.8,7s3.1,7,6.8,7h22.7v23.3
				c0,3.9,3.1,7,6.8,7s6.8-3.1,6.8-7v-23.3h22.7c3.8,0,6.8-3.1,6.8-7S279,215.2,275.2,215.2z"/>
		</g>
	</g>
</g>
</svg>
