<?xml version="1.0" encoding="utf-8"?>
<!-- Generator: Adobe Illustrator 19.2.0, SVG Export Plug-In . SVG Version: 6.00 Build 0)  -->
<svg version="1.1" id="Layer_1" xmlns="http://www.w3.org/2000/svg" xmlns:xlink="http://www.w3.org/1999/xlink" x="0px" y="0px"
	 viewBox="0 0 500 500" style="enable-background:new 0 0 500 500;" xml:space="preserve">
<style type="text/css">
	.st0{opacity:0.66;fill:url(#SVGID_1_);enable-background:new    ;}
	.st1{opacity:0.63;fill:url(#SVGID_2_);enable-background:new    ;}
	.st2{fill:none;stroke:#000000;stroke-miterlimit:10;}
	.st3{fill:#F05A28;}
	.st4{fill:#FFCA05;}
	.st5{fill:#26B578;}
	.st6{fill:#00ADEE;}
	.st7{fill:url(#SVGID_3_);}
	.st8{fill:url(#SVGID_4_);}
	.st9{fill:#9B59B6;}
	.st10{fill:url(#SVGID_5_);}
	.st11{fill:url(#SVGID_6_);}
	.st12{fill:#807287;}
	.st13{fill:#2ECC71;}
	.st14{fill:url(#SVGID_7_);}
	.st15{fill:url(#SVGID_8_);}
	.st16{fill:url(#SVGID_9_);}
	.st17{fill:url(#SVGID_10_);}
	.st18{font-family:'TwCen';}
	.st19{font-size:80px;}
	.st20{fill:#5A4A42;}
	.st21{opacity:0.56;fill:#FFFFFF;enable-background:new    ;}
	.st22{fill:#F17892;}
	.st23{fill:#5E5E5E;}
	.st24{fill:#FFBA00;}
	.st25{fill:#25AF1B;}
	.st26{fill:#AF509F;}
	.st27{fill:#00B4B6;}
	.st28{fill:#FFE49F;}
	.st29{opacity:0.38;}
	.st30{fill:#E85E00;}
	.st31{fill:#994308;}
	.st32{fill:#29ABE2;}
	.st33{clip-path:url(#SVGID_12_);}
	.st34{fill:#FFFFFF;}
	.st35{fill:none;stroke:#29ABE2;stroke-width:4;stroke-miterlimit:10;}
	.st36{fill:#1689A8;}
	.st37{fill:#F7931E;}
	.st38{clip-path:url(#SVGID_14_);}
	.st39{fill:none;stroke:#F7931E;stroke-width:4;stroke-miterlimit:10;}
	.st40{fill:#F15A24;}
	.st41{fill:#39B54A;}
	.st42{clip-path:url(#SVGID_16_);}
	.st43{fill:none;stroke:#009245;stroke-width:4;stroke-miterlimit:10;}
	.st44{fill:#006837;}
</style>
<linearGradient id="SVGID_1_" gradientUnits="userSpaceOnUse" x1="250" y1="187" x2="250" y2="500">
	<stop  offset="0.1613" style="stop-color:#FFFFFF"/>
	<stop  offset="0.2376" style="stop-color:#F8FEF7"/>
	<stop  offset="0.3541" style="stop-color:#E6FBE2"/>
	<stop  offset="0.4963" style="stop-color:#C7F5BF"/>
	<stop  offset="0.6587" style="stop-color:#9CEE8F"/>
	<stop  offset="0.8356" style="stop-color:#67E552"/>
	<stop  offset="1" style="stop-color:#2FDB13"/>
</linearGradient>
<rect y="187" class="st0" width="500" height="313"/>
<linearGradient id="SVGID_2_" gradientUnits="userSpaceOnUse" x1="250" y1="186.9" x2="250" y2="-1.122407e-008">
	<stop  offset="9.139785e-002" style="stop-color:#FFFFFF"/>
	<stop  offset="0.2536" style="stop-color:#FCFEFF"/>
	<stop  offset="0.3867" style="stop-color:#F2F9FE"/>
	<stop  offset="0.5094" style="stop-color:#E0F1FD"/>
	<stop  offset="0.6261" style="stop-color:#C8E6FC"/>
	<stop  offset="0.7384" style="stop-color:#A9D8FB"/>
	<stop  offset="0.8474" style="stop-color:#83C7F9"/>
	<stop  offset="0.9519" style="stop-color:#56B3F6"/>
	<stop  offset="1" style="stop-color:#3FA9F5"/>
</linearGradient>
<rect class="st1" width="500" height="186.9"/>
<g>
	<line class="st2" x1="64.1" y1="76.6" x2="64.1" y2="-2.2"/>
	<line class="st2" x1="96.3" y1="79.8" x2="96.3" y2="0.9"/>
	<line class="st2" x1="153.4" y1="78.3" x2="153.4" y2="-0.6"/>
	<line class="st2" x1="204.2" y1="79.8" x2="204.2" y2="0.9"/>
	<line class="st2" x1="258.1" y1="78.3" x2="258.1" y2="-0.6"/>
	<line class="st2" x1="311.9" y1="79.8" x2="311.9" y2="0.9"/>
	<line class="st2" x1="360.6" y1="79.8" x2="360.6" y2="0.9"/>
	<line class="st2" x1="413.9" y1="79.8" x2="413.9" y2="0.9"/>
</g>
<g>
	<polygon class="st3" points="37.1,70.7 89.5,78.2 81.6,157 29.2,149.5 	"/>
	<polygon class="st4" points="71.3,76.8 123.8,69.6 131.4,148.5 79,155.7 	"/>
	<polygon class="st4" points="383.3,82.6 435.7,75.4 443.3,154.3 390.9,161.4 	"/>
	<polygon class="st5" points="132.3,74.9 184.6,83.3 175.7,162 123.4,153.5 	"/>
	<polygon class="st6" points="179.5,80.4 232.2,77.1 235.7,156.4 183,159.7 	"/>
	<polygon class="st6" points="283.8,80.4 336.5,77.1 340,156.4 287.3,159.7 	"/>
	<polygon class="st3" points="235.7,70.3 288,78.8 278.9,157.4 226.7,148.9 	"/>
	<polygon class="st3" points="339.1,74.8 391.3,83.3 382.3,162 330,153.5 	"/>
</g>
<g>
	<g>
		
			<linearGradient id="SVGID_3_" gradientUnits="userSpaceOnUse" x1="384.5845" y1="440.4763" x2="362.3986" y2="437.0628" gradientTransform="matrix(1.2387 3.165062e-002 7.545273e-002 -0.9719 -472.2508 484.5445)">
			<stop  offset="0" style="stop-color:#FFD866"/>
			<stop  offset="1" style="stop-color:#FFC419"/>
		</linearGradient>
		<path class="st7" d="M32.8,81.4c-3.9-2.1-7.7-4.4-11.4-6.7c-3.4,2.9-7,5.9-10.6,8.6c-0.1-8.3-0.2-16.2-0.3-24.5
			c6.7-0.4,13.5-1.1,20.2-1.8C31.5,65.4,32.1,73.3,32.8,81.4z"/>
	</g>
	<g>
		
			<linearGradient id="SVGID_4_" gradientUnits="userSpaceOnUse" x1="404.757" y1="446.0792" x2="386.3442" y2="440.1397" gradientTransform="matrix(1.2387 3.165062e-002 7.545273e-002 -0.9719 -472.2508 484.5445)">
			<stop  offset="0" style="stop-color:#F36D6D"/>
			<stop  offset="1" style="stop-color:#F71B39"/>
		</linearGradient>
		<path class="st8" d="M64.1,76.6c-4-1.8-8.1-4-12-6c-3.1,3.3-6.2,6.6-9.5,9.9c-1-8.6-2-16.7-3-24.6c6.7-1,13.2-2.2,19.8-3.6
			C61,60,62.5,68.3,64.1,76.6z"/>
	</g>
	<path class="st9" d="M94.7,68.8c-4.2-1.5-8.5-3.3-12.6-4.8c-2.8,3.5-5.6,7.2-8.6,10.6c-1.9-8.4-3.7-16.5-5.3-24.1
		c6.5-1.6,13.1-3.3,19.5-5.3C89.9,52.6,92.3,60.5,94.7,68.8z"/>
	
		<linearGradient id="SVGID_5_" gradientUnits="userSpaceOnUse" x1="452.378" y1="466.867" x2="434.8591" y2="456.8561" gradientTransform="matrix(1.2387 3.165062e-002 7.545273e-002 -0.9719 -472.2508 484.5445)">
		<stop  offset="0" style="stop-color:#FFD866"/>
		<stop  offset="1" style="stop-color:#FFC419"/>
	</linearGradient>
	<path class="st10" d="M124.5,58.3c-4.4-1.1-8.8-2.5-13-3.7c-2.5,3.7-4.9,7.7-7.6,11.3c-2.7-8.1-5.3-16-7.6-23.4
		c6.4-2.2,12.7-4.4,18.9-7C118.1,42.6,121.3,50.2,124.5,58.3z"/>
	
		<linearGradient id="SVGID_6_" gradientUnits="userSpaceOnUse" x1="475.0741" y1="479.7473" x2="453.1993" y2="468.2022" gradientTransform="matrix(1.2387 3.165062e-002 7.545273e-002 -0.9719 -472.2508 484.5445)">
		<stop  offset="0" style="stop-color:#F36D6D"/>
		<stop  offset="1" style="stop-color:#F71B39"/>
	</linearGradient>
	<path class="st11" d="M153.4,45.1c-4.5-0.6-9.1-1.7-13.3-2.5c-2.1,3.8-4.2,8-6.4,11.8c-3.4-7.8-6.9-15.4-10-22.6
		c6.1-2.7,12.2-5.6,18.3-8.6C145.4,30.3,149.3,37.6,153.4,45.1z"/>
	<g>
		<path class="st9" d="M180.9,29.2c-4.6-0.2-9.1-0.5-13.5-0.9c-1.7,4-3.5,8-5.5,12c-4.1-7.1-8.1-14-12.2-21.1
			c5.9-3.2,11.8-6.6,17.5-10.2C171.7,15.8,176.3,22.3,180.9,29.2z"/>
	</g>
	<g>
		<path class="st12" d="M96.5,43c-14.9,4.7-30.7,8.6-47,11.6c-47.7,8.5-84.6,5.9-84.9,5.9l0.2-1.2c0.3,0,37.1,2.6,84.6-5.9
			c43.8-7.9,106-27,153.5-73.6l0.8,0.8C182.6,1.4,157,18.5,127.4,31.4C117.5,35.7,107.1,39.6,96.5,43z"/>
	</g>
</g>
<g>
	<g>
		<path class="st13" d="M472.7,83.8c4-2.8,8-5.6,11.9-8.6c4.1,2.8,8.3,5.7,12.6,8.3c-0.7-9.1-1.6-17.8-2.3-26.8
			c-7.5,0.3-15.1,0.4-22.6,0.3C472.5,66.1,472.6,74.8,472.7,83.8z"/>
	</g>
	<g>
		
			<linearGradient id="SVGID_7_" gradientUnits="userSpaceOnUse" x1="424.6454" y1="443.132" x2="396.2523" y2="439.8304" gradientTransform="matrix(-0.99 0.1157 -0.1834 -1.0846 936.1287 500.7206)">
			<stop  offset="0" style="stop-color:#FFD866"/>
			<stop  offset="1" style="stop-color:#FFC419"/>
		</linearGradient>
		<path class="st14" d="M437.4,82c4.3-2.4,8.6-5.3,12.8-7.8c3.8,3.2,7.6,6.7,11.6,9.7c0.1-9.5,0.3-18.5,0.6-27.3
			c-7.5-0.3-15-0.9-22.5-1.7C439.2,63.6,438.4,72.6,437.4,82z"/>
	</g>
	
		<linearGradient id="SVGID_8_" gradientUnits="userSpaceOnUse" x1="454.528" y1="448.6442" x2="428.428" y2="447.9917" gradientTransform="matrix(-0.99 0.1157 -0.1834 -1.0846 936.1287 500.7206)">
		<stop  offset="0" style="stop-color:#F36D6D"/>
		<stop  offset="1" style="stop-color:#F71B39"/>
	</linearGradient>
	<path class="st15" d="M402.7,76.8c4.6-2,9-4.6,13.5-6.7c3.4,3.4,7,7.3,10.7,10.7c1.1-9.5,2.3-18.4,3.3-27c-7.4-1-14.9-2.2-22.2-3.6
		C406.2,58.6,404.5,67.5,402.7,76.8z"/>
	<path class="st13" d="M368.4,68.6c4.7-1.6,9.5-3.7,14.1-5.5c3.1,3.8,6.3,7.9,9.6,11.5c2.1-9.2,4.1-18.1,6-26.6
		c-7.3-1.7-14.5-3.4-21.8-5.6C373.8,50.8,371.1,59.5,368.4,68.6z"/>
	
		<linearGradient id="SVGID_9_" gradientUnits="userSpaceOnUse" x1="517.5857" y1="473.9533" x2="492.3885" y2="467.3224" gradientTransform="matrix(-0.99 0.1157 -0.1834 -1.0846 936.1287 500.7206)">
		<stop  offset="0" style="stop-color:#FFD866"/>
		<stop  offset="1" style="stop-color:#FFC419"/>
	</linearGradient>
	<path class="st16" d="M335,57.5c4.9-1.2,9.9-2.9,14.5-4.2c2.8,3.9,5.6,8.3,8.5,12.3c3-8.9,5.9-17.5,8.7-25.8
		c-7.1-2.3-14.2-4.7-21.2-7.4C342.2,40.3,338.6,48.7,335,57.5z"/>
	<g>
		
			<linearGradient id="SVGID_10_" gradientUnits="userSpaceOnUse" x1="542.1823" y1="487.8995" x2="521.0535" y2="481.957" gradientTransform="matrix(-0.99 0.1157 -0.1834 -1.0846 936.1287 500.7206)">
			<stop  offset="0" style="stop-color:#F36D6D"/>
			<stop  offset="1" style="stop-color:#F71B39"/>
		</linearGradient>
		<path class="st17" d="M302.6,43c5-0.7,10.1-1.7,14.9-2.6c2.3,4.2,4.8,8.4,7.4,12.6c3.7-8.3,7.4-16.2,11.2-24.5
			c-7-2.8-13.8-6-20.6-9.2C311.4,27.4,307,35,302.6,43z"/>
	</g>
	<g>
		<path class="st13" d="M271.5,26.5c5.1-0.3,10.2-0.7,15.3-1.1c2,4.4,4.1,8.4,6.2,12.7c4.6-7.9,9.2-15.4,13.7-23.3
			c-6.7-3.4-13.3-7.1-19.7-11C281.9,11.4,276.7,18.9,271.5,26.5z"/>
	</g>
	<g>
		<path class="st12" d="M400.3,49.4c17.4,3.6,35.7,6.2,54.5,7.6c54.8,4.3,96.1-2.5,96.6-2.6l-0.3-1.2c-0.4,0.1-41.7,6.8-96.3,2.7
			C404.4,52,331.9,37.7,272.9-8.5l-0.8,0.9c26.1,20.4,57.2,36.4,92.1,47.5C375.8,43.5,387.9,46.7,400.3,49.4z"/>
	</g>
</g>
<text transform="matrix(1 0 0 1 39.8361 145.4724)" class="st18 st19">BIRTHDAY</text>
<g>
	<polygon class="st20" points="462.8,503.1 463.5,503.1 464.7,400.9 464,400.9 	"/>
	<path class="st3" d="M464.5,340.6c46.1,1.3,31.3,66.9,2.5,72.6c0.3,0.6,0.7,1.3,0.9,1.5c0.2,0.4,0.3,0.5-0.1,1
		c-0.4,0.4-0.5,0-0.8,0.4c-0.2,0.3-0.8,0-1.3-0.2c0,0.3-0.1,0.6-0.1,0.8c-0.4,0.1-0.7,0.3-1,0.5c0-0.4,0.1-0.8,0.1-1.2
		c-0.2,0.1-0.3,0.2-0.6,0.3c-0.6,0-0.7-0.7-1.2-0.8c-0.4-0.1-1.1,0.1-1.1,0s0.5-1.2,0.8-2C432.7,409.6,417.5,341.2,464.5,340.6z"/>
	<path class="st21" d="M453.2,347.3c1.4-0.9,12.9-3.9,17.3-0.2c4.3,3.7,6.1,9.5,1.5,13.9s-12.1,9.6-15.5,16.9
		c-3.4,7.4-6,15.6-11.9,8c-5.9-7.5-8.2-14.6-4.5-24.6C443.7,351.4,453.2,347.3,453.2,347.3z"/>
</g>
<g>
	<polygon class="st20" points="420.2,529.7 420.9,529.7 422.1,427.5 421.4,427.5 	"/>
	<path class="st6" d="M421.9,367.2c46.1,1.3,31.3,66.9,2.5,72.6c0.3,0.6,0.7,1.3,0.9,1.5c0.2,0.4,0.3,0.5-0.1,1
		c-0.4,0.4-0.5,0-0.8,0.4c-0.2,0.3-0.8,0-1.3-0.2c0,0.3-0.1,0.6-0.1,0.8c-0.4,0.1-0.7,0.3-1,0.5c0-0.4,0.1-0.8,0.1-1.2
		c-0.2,0.1-0.3,0.2-0.6,0.3c-0.6,0-0.7-0.7-1.2-0.8c-0.4-0.1-1.1,0.1-1.1,0s0.5-1.2,0.8-2C390.1,436.3,374.9,367.8,421.9,367.2z"/>
	<path class="st21" d="M410.6,373.9c1.4-0.9,12.9-3.9,17.3-0.2c4.3,3.7,6.1,9.5,1.5,13.9s-12.1,9.6-15.5,16.9
		c-3.4,7.4-6,15.6-11.9,8c-5.9-7.5-8.2-14.6-4.5-24.6C401.1,378,410.6,373.9,410.6,373.9z"/>
</g>
<g>
	<polygon class="st20" points="374.6,559.9 375.3,559.8 376.5,457.7 375.7,457.7 	"/>
	<path class="st4" d="M376.3,397.3c46.1,1.3,31.3,66.9,2.5,72.6c0.3,0.6,0.7,1.3,0.9,1.5c0.2,0.4,0.3,0.5-0.1,1
		c-0.4,0.4-0.5,0-0.8,0.4c-0.2,0.3-0.8,0-1.3-0.2c0,0.3-0.1,0.6-0.1,0.8c-0.4,0.1-0.7,0.3-1,0.5c0-0.4,0.1-0.8,0.1-1.2
		c-0.2,0.1-0.3,0.2-0.6,0.3c-0.6,0-0.7-0.7-1.2-0.8c-0.4-0.1-1.1,0.1-1.1,0s0.5-1.2,0.8-2C344.5,466.4,329.3,398,376.3,397.3z"/>
	<path class="st21" d="M364.9,404.1c1.4-0.9,12.9-3.9,17.3-0.2c4.3,3.7,6.1,9.5,1.5,13.9s-12.1,9.6-15.5,16.9
		c-3.4,7.4-6,15.6-11.9,8c-5.9-7.5-8.2-14.6-4.5-24.6C355.5,408.2,364.9,404.1,364.9,404.1z"/>
</g>
<g>
	<polygon class="st20" points="34,503.1 33.3,503.1 32.1,400.9 32.9,400.9 	"/>
	<path class="st22" d="M32.3,340.6c-46.2,1.3-31.4,66.9-2.5,72.6c-0.3,0.6-0.7,1.3-0.9,1.5c-0.2,0.4-0.3,0.5,0.1,1
		c0.4,0.4,0.5,0,0.8,0.4c0.2,0.3,0.8,0,1.3-0.2c0,0.3,0.1,0.6,0.1,0.8c0.4,0.1,0.7,0.3,1,0.5c0-0.4-0.1-0.8-0.1-1.2
		c0.2,0.1,0.3,0.2,0.6,0.3c0.6,0,0.7-0.7,1.2-0.8c0.4-0.1,1.1,0.1,1.1,0s-0.5-1.2-0.8-2C64.2,409.6,79.5,341.2,32.3,340.6z"/>
	<path class="st21" d="M43.7,347.3c-1.4-0.9-13-3.9-17.3-0.2c-4.3,3.7-6.1,9.5-1.5,13.9s12.1,9.6,15.5,16.9c3.4,7.4,6,15.6,11.9,8
		c5.9-7.5,8.2-14.6,4.5-24.6C53.2,351.4,43.7,347.3,43.7,347.3z"/>
</g>
<g>
	<polygon class="st20" points="76.7,529.7 76,529.7 74.8,427.5 75.6,427.5 	"/>
	<path class="st6" d="M75,367.2c-46.2,1.3-31.4,66.9-2.5,72.6c-0.3,0.6-0.7,1.3-0.9,1.5c-0.2,0.4-0.3,0.5,0.1,1
		c0.4,0.4,0.5,0,0.8,0.4c0.2,0.3,0.8,0,1.3-0.2c0,0.3,0.1,0.6,0.1,0.8c0.4,0.1,0.7,0.3,1,0.5c0-0.4-0.1-0.8-0.1-1.2
		c0.2,0.1,0.3,0.2,0.6,0.3c0.6,0,0.7-0.7,1.2-0.8c0.4-0.1,1.1,0.1,1.1,0s-0.5-1.2-0.8-2C106.9,436.3,122.2,367.8,75,367.2z"/>
	<path class="st21" d="M86.4,373.9c-1.4-0.9-13-3.9-17.3-0.2c-4.3,3.7-6.1,9.5-1.5,13.9s12.1,9.6,15.5,16.9c3.4,7.4,6,15.6,11.9,8
		c5.9-7.5,8.2-14.6,4.5-24.6C95.9,378,86.4,373.9,86.4,373.9z"/>
</g>
<g>
	<polygon class="st20" points="122.5,559.9 121.7,559.8 120.6,457.7 121.3,457.7 	"/>
	<path class="st4" d="M120.8,397.3c-46.2,1.3-31.4,66.9-2.5,72.6c-0.3,0.6-0.7,1.3-0.9,1.5c-0.2,0.4-0.3,0.5,0.1,1
		c0.4,0.4,0.5,0,0.8,0.4c0.2,0.3,0.8,0,1.3-0.2c0,0.3,0.1,0.6,0.1,0.8c0.4,0.1,0.7,0.3,1,0.5c0-0.4-0.1-0.8-0.1-1.2
		c0.2,0.1,0.3,0.2,0.6,0.3c0.6,0,0.7-0.7,1.2-0.8c0.4-0.1,1.1,0.1,1.1,0s-0.5-1.2-0.8-2C152.6,466.4,167.9,398,120.8,397.3z"/>
	<path class="st21" d="M132.1,404.1c-1.4-0.9-13-3.9-17.3-0.2c-4.3,3.7-6.1,9.5-1.5,13.9s12.1,9.6,15.5,16.9c3.4,7.4,6,15.6,11.9,8
		c5.9-7.5,8.2-14.6,4.5-24.6C141.6,408.2,132.1,404.1,132.1,404.1z"/>
</g>
<g>
	<path class="st23" d="M170.8,361.4h165.1c1.3,0,2.4-1.1,2.4-2.4l0,0c0-1.3-1.1-2.4-2.4-2.4H170.8c-1.3,0-2.4,1.1-2.4,2.4l0,0
		C168.4,360.3,169.5,361.4,170.8,361.4z"/>
	<g>
		<g>
			<path class="st24" d="M235.7,192.4c1.5,0,1.8-3.6,0.5-6c-0.1,1.4-1.1,2.8-1.4,3.8C234.6,191,234.5,192.4,235.7,192.4z"/>
			<polygon class="st25" points="232.1,221.8 238.8,221.8 237.2,196.9 233.7,196.9 			"/>
		</g>
		<g>
			<path class="st24" d="M248.4,192.4c-1.5,0-1.8-3.6-0.5-6c0.1,1.4,1.1,2.8,1.4,3.8C249.5,191,249.6,192.4,248.4,192.4z"/>
			<polygon class="st26" points="251.9,221.8 245.3,221.8 246.9,196.9 250.4,196.9 			"/>
		</g>
		<g>
			<path class="st24" d="M261.4,192.4c1.5,0,1.8-3.6,0.5-6c-0.1,1.4-1.1,2.8-1.4,3.8C260.2,191,260.2,192.4,261.4,192.4z"/>
			<polygon class="st27" points="257.8,221.8 264.4,221.8 262.9,196.9 259.4,196.9 			"/>
		</g>
		<g>
			<path class="st24" d="M273.7,192.4c-1.5,0-1.8-3.6-0.5-6c0.1,1.4,1.1,2.8,1.4,3.8C274.8,191,274.9,192.4,273.7,192.4z"/>
			<polygon class="st3" points="277.3,221.8 270.6,221.8 272.2,196.9 275.7,196.9 			"/>
		</g>
	</g>
	<path class="st28" d="M215.6,221.8c26.1,0,52.2,0,78.4,0c-4.3,14.5-2.7,24.8,0,34.3c-26.1,0-52.2,0-78.4,0
		C218.3,246.5,219.9,236.3,215.6,221.8z"/>
	<g class="st29">
		<rect x="220" y="222" class="st30" width="71" height="1"/>
		<polygon class="st30" points="291,225 220,225 220,225 		"/>
		<polygon class="st30" points="291,228 220,228 220,228 		"/>
		<polygon class="st30" points="291,231 220,231 220,231 		"/>
		<polygon class="st30" points="291,234 220,234 220,234 		"/>
		<rect x="220" y="236" class="st30" width="71" height="1"/>
		<rect x="220" y="239" class="st30" width="71" height="1"/>
		<rect x="220" y="242" class="st30" width="71" height="1"/>
		<rect x="220" y="245" class="st30" width="71" height="1"/>
		<rect x="220" y="248" class="st30" width="71" height="1"/>
		<rect x="220" y="251" class="st30" width="71" height="1"/>
		<rect x="220" y="254" class="st30" width="71" height="1"/>
	</g>
	<path class="st31" d="M293.5,221.8c-0.6,2.3-1.1,4.5-1.5,6.7c-2.4-1.2-3.5-3.4-6.6-3.4c-4.3,0-4.8,4.2-10.2,4.2
		c-5.4,0-5.9-4.2-10.2-4.2s-4.8,4.2-10.2,4.2c-5.4,0-5.9-4.2-10.2-4.2s-4.8,4.2-10.2,4.2s-5.9-4.2-10.2-4.2c-3.1,0-4.2,2.1-6.6,3.4
		c-0.4-2.1-0.8-4.3-1.5-6.7H293.5z"/>
	<path class="st28" d="M192,256c35.4,0,90.1,0,125.5,0c-5.8,19.5-3.7,33.4,0,46.2c-35.4,0-90.1,0-125.5,0
		C195.7,289.4,197.8,275.5,192,256z"/>
	<g class="st29">
		<rect x="197" y="256" class="st30" width="116" height="1"/>
		<rect x="197" y="260" class="st30" width="116" height="1"/>
		<rect x="197" y="263" class="st30" width="116" height="1"/>
		<rect x="197" y="267" class="st30" width="116" height="1"/>
		<rect x="197" y="270" class="st30" width="116" height="1"/>
		<polygon class="st30" points="313,274 197,274 197,274 		"/>
		<rect x="197" y="277" class="st30" width="116" height="1"/>
		<rect x="197" y="280" class="st30" width="116" height="1"/>
		<rect x="197" y="284" class="st30" width="116" height="1"/>
		<rect x="197" y="287" class="st30" width="116" height="1"/>
		<rect x="197" y="291" class="st30" width="116" height="1"/>
		<rect x="197" y="294" class="st30" width="116" height="1"/>
		<polygon class="st30" points="313,298 197,298 197,298 		"/>
		<rect x="197" y="301" class="st30" width="116" height="1"/>
	</g>
	<path class="st31" d="M192.4,256H317c-0.7,2.6-1.3,5.1-1.8,7.4c-4.6-0.4-5.3-4.2-9.4-4.2c-4.3,0-4.8,4.2-10.2,4.2
		c-5.4,0-5.9-4.2-10.2-4.2c-4.3,0-4.8,4.2-10.2,4.2c-5.4,0-5.9-4.2-10.2-4.2s-4.8,4.2-10.2,4.2c-5.4,0-5.9-4.2-10.2-4.2
		s-4.8,4.2-10.2,4.2s-5.9-4.2-10.2-4.2s-4.8,4.2-10.2,4.2s-5.9-4.2-10.2-4.2c-4.1,0-4.8,3.8-9.4,4.2
		C193.7,261.1,193.2,258.6,192.4,256z"/>
	<path class="st28" d="M177.2,302.2c31.1,0,124.1,0,155.2,0c-5.1,23-3.2,39.3,0,54.4c-31.1,0-124.1,0-155.2,0
		C180.4,341.5,182.3,325.2,177.2,302.2z"/>
	<g class="st29">
		<rect x="181" y="308" class="st30" width="148" height="1"/>
		<rect x="181" y="310" class="st30" width="148" height="1"/>
		<rect x="181" y="313" class="st30" width="148" height="1"/>
		<rect x="181" y="316" class="st30" width="148" height="1"/>
		<rect x="181" y="319" class="st30" width="148" height="1"/>
		<rect x="181" y="322" class="st30" width="148" height="1"/>
		<rect x="181" y="325" class="st30" width="148" height="1"/>
		<rect x="181" y="327" class="st30" width="148" height="1"/>
		<rect x="181" y="330" class="st30" width="148" height="1"/>
		<rect x="181" y="333" class="st30" width="148" height="1"/>
		<rect x="181" y="336" class="st30" width="148" height="1"/>
		<rect x="181" y="339" class="st30" width="148" height="1"/>
		<rect x="181" y="342" class="st30" width="148" height="1"/>
		<rect x="181" y="345" class="st30" width="148" height="1"/>
		<rect x="181" y="347" class="st30" width="148" height="1"/>
		<rect x="181" y="350" class="st30" width="148" height="1"/>
		<rect x="181" y="353" class="st30" width="148" height="1"/>
	</g>
	<path class="st31" d="M177.6,302.2H332c-0.4,1.7-0.7,3.4-1,5c-1.3-1-2.5-2-4.6-2c-4.3,0-4.8,4.2-10.2,4.2c-5.4,0-5.9-4.2-10.2-4.2
		c-4.3,0-4.8,4.2-10.2,4.2c-5.4,0-5.9-4.2-10.2-4.2c-4.3,0-4.8,4.2-10.2,4.2c-5.4,0-5.9-4.2-10.2-4.2s-4.8,4.2-10.2,4.2
		c-5.4,0-5.9-4.2-10.2-4.2s-4.8,4.2-10.2,4.2s-5.9-4.2-10.2-4.2s-4.8,4.2-10.2,4.2s-5.9-4.2-10.2-4.2s-4.8,4.2-10.2,4.2
		s-5.9-4.2-10.2-4.2c-2.1,0-3.3,1-4.6,2C178.2,305.6,177.9,303.9,177.6,302.2z"/>
</g>
<g>
	<rect x="174.3" y="425.8" class="st32" width="62.1" height="75.6"/>
	<g>
		<g>
			<g>
				<g>
					<g>
						<g>
							<g>
								<g>
									<g>
										<g>
											<g>
												<defs>
													<rect id="SVGID_11_" x="174.3" y="425.8" width="62.1" height="75.6"/>
												</defs>
												<clipPath id="SVGID_12_">
													<use xlink:href="#SVGID_11_"  style="overflow:visible;"/>
												</clipPath>
												<g class="st33">
													<polygon class="st34" points="203.2,386.2 138.1,463.4 137.4,462.5 202.5,385.4 													"/>
													<polygon class="st34" points="207.1,390.9 142.1,468.1 141.4,467.2 206.4,390 													"/>
													<polygon class="st34" points="211.1,395.6 146,472.8 145.3,471.9 210.4,394.7 													"/>
													<polygon class="st34" points="215,400.3 150,477.4 149.2,476.6 214.3,399.4 													"/>
													<polygon class="st34" points="219,404.9 153.9,482.1 153.2,481.3 218.3,404.1 													"/>
													<polygon class="st34" points="222.9,409.6 157.9,486.8 157.1,486 222.2,408.8 													"/>
													<polygon class="st34" points="226.9,414.3 161.8,491.5 161.1,490.6 226.2,413.5 													"/>
													<polygon class="st34" points="230.8,419 165.8,496.2 165,495.3 230.1,418.1 													"/>
													<polygon class="st34" points="234.8,423.7 169.7,500.9 169,500 234.1,422.8 													"/>
													<polygon class="st34" points="238.7,428.4 173.7,505.5 172.9,504.7 238,427.5 													"/>
													<polygon class="st34" points="242.7,433 177.6,510.2 176.9,509.4 242,432.2 													"/>
													<polygon class="st34" points="246.6,437.7 181.5,514.9 180.8,514.1 245.9,436.9 													"/>
													<polygon class="st34" points="250.6,442.4 185.5,519.6 184.8,518.7 249.9,441.6 													"/>
													<polygon class="st34" points="254.5,447.1 189.4,524.3 188.7,523.4 253.8,446.2 													"/>
													<polygon class="st34" points="258.5,451.8 193.4,529 192.7,528.1 257.7,450.9 													"/>
													<polygon class="st34" points="262.4,456.5 197.3,533.6 196.6,532.8 261.7,455.6 													"/>
													<polygon class="st34" points="266.4,461.1 201.3,538.3 200.6,537.5 265.6,460.3 													"/>
												</g>
											</g>
										</g>
									</g>
								</g>
							</g>
						</g>
					</g>
				</g>
			</g>
		</g>
	</g>
	<path class="st35" d="M204.5,416.7c0.5,0.6,1.7,0.1,7.3-3.5c7.4-4.8,8.9-6.1,9.6-8.5c0.2-0.6,0.9-3.1,0-5.2c-1.4-3-5.8-3.8-8.8-2.2
		c-2.6,1.3-3.9,5-6.5,12.2C204.6,413.4,203.7,415.9,204.5,416.7z"/>
	<path class="st35" d="M206.4,422.6c0.7-0.3-14.5-14.8-15.5-17.2c-1.6-4.1,5.7-6.9,8.1-2.2C200.7,406.4,205.2,423.1,206.4,422.6z"/>
	<path class="st36" d="M237.9,428h-65.7v-11.1c11.7,0,23.3,0,35,0c10.2,0,20.4,0,30.7,0C237.9,420.6,237.9,424.3,237.9,428z"/>
</g>
<g>
	<rect x="270.4" y="439.5" class="st37" width="71.7" height="61"/>
	<g>
		<g>
			<g>
				<g>
					<g>
						<g>
							<g>
								<g>
									<g>
										<g>
											<g>
												<defs>
													<rect id="SVGID_13_" x="270.4" y="439.5" width="71.7" height="61"/>
												</defs>
												<clipPath id="SVGID_14_">
													<use xlink:href="#SVGID_13_"  style="overflow:visible;"/>
												</clipPath>
												<g class="st38">
													<polygon class="st34" points="303.8,407.6 228.6,469.8 227.8,469.1 302.9,406.9 													"/>
													<polygon class="st34" points="308.3,411.3 233.2,473.5 232.4,472.9 307.5,410.6 													"/>
													<polygon class="st34" points="312.9,415.1 237.8,477.3 236.9,476.6 312.1,414.4 													"/>
													<polygon class="st34" points="317.4,418.9 242.3,481.1 241.5,480.4 316.6,418.2 													"/>
													<polygon class="st34" points="322,422.7 246.9,484.9 246,484.2 321.2,422 													"/>
													<polygon class="st34" points="326.6,426.4 251.4,488.6 250.6,488 325.7,425.7 													"/>
													<polygon class="st34" points="331.1,430.2 256,492.4 255.2,491.7 330.3,429.5 													"/>
													<polygon class="st34" points="335.7,434 260.5,496.2 259.7,495.5 334.9,433.3 													"/>
													<polygon class="st34" points="340.2,437.8 265.1,500 264.3,499.3 339.4,437.1 													"/>
													<polygon class="st34" points="344.8,441.5 269.7,503.7 268.8,503.1 344,440.8 													"/>
													<polygon class="st34" points="349.4,445.3 274.2,507.5 273.4,506.8 348.5,444.6 													"/>
													<polygon class="st34" points="353.9,449.1 278.8,511.3 278,510.6 353.1,448.4 													"/>
													<polygon class="st34" points="358.5,452.9 283.3,515.1 282.5,514.4 357.6,452.2 													"/>
													<polygon class="st34" points="363,456.6 287.9,518.8 287.1,518.2 362.2,455.9 													"/>
													<polygon class="st34" points="367.6,460.4 292.5,522.6 291.6,521.9 366.8,459.7 													"/>
													<polygon class="st34" points="372.1,464.2 297,526.4 296.2,525.7 371.3,463.5 													"/>
													<polygon class="st34" points="376.7,468 301.6,530.2 300.7,529.5 375.9,467.3 													"/>
												</g>
											</g>
										</g>
									</g>
								</g>
							</g>
						</g>
					</g>
				</g>
			</g>
		</g>
	</g>
	<path class="st39" d="M305.3,432.1c0.6,0.5,2,0.1,8.4-2.8c8.5-3.8,10.2-4.9,11.1-6.9c0.2-0.5,1.1-2.5,0-4.2
		c-1.6-2.4-6.7-3-10.2-1.8c-3,1.1-4.5,4-7.6,9.9C305.4,429.5,304.4,431.5,305.3,432.1z"/>
	<path class="st39" d="M307.5,436.9c0.8-0.2-16.8-12-17.9-13.9c-1.8-3.3,6.6-5.5,9.3-1.8C300.9,423.9,306,437.3,307.5,436.9z"/>
	<path class="st40" d="M343.8,441.3H268v-9c13.5,0,27,0,40.4,0c11.8,0,23.6,0,35.4,0C343.8,435.3,343.8,438.3,343.8,441.3z"/>
</g>
<g>
	<rect x="230.5" y="460.6" class="st41" width="44.3" height="41.7"/>
	<g>
		<g>
			<g>
				<g>
					<g>
						<g>
							<g>
								<g>
									<g>
										<g>
											<g>
												<defs>
													<rect id="SVGID_15_" x="230.5" y="460.6" width="44.3" height="41.7"/>
												</defs>
												<clipPath id="SVGID_16_">
													<use xlink:href="#SVGID_15_"  style="overflow:visible;"/>
												</clipPath>
												<g class="st42">
													<polygon class="st34" points="251.1,438.8 204.7,481.4 204.2,480.9 250.6,438.3 													"/>
													<polygon class="st34" points="253.9,441.4 207.5,484 207,483.5 253.4,440.9 													"/>
													<polygon class="st34" points="256.7,444 210.3,486.5 209.8,486.1 256.2,443.5 													"/>
													<polygon class="st34" points="259.6,446.5 213.1,489.1 212.6,488.7 259.1,446.1 													"/>
													<polygon class="st34" points="262.4,449.1 215.9,491.7 215.4,491.2 261.9,448.7 													"/>
													<polygon class="st34" points="265.2,451.7 218.8,494.3 218.2,493.8 264.7,451.2 													"/>
													<polygon class="st34" points="268,454.3 221.6,496.9 221.1,496.4 267.5,453.8 													"/>
													<polygon class="st34" points="270.8,456.9 224.4,499.5 223.9,499 270.3,456.4 													"/>
													<polygon class="st34" points="273.7,459.5 227.2,502.1 226.7,501.6 273.1,459 													"/>
													<polygon class="st34" points="276.5,462 230,504.6 229.5,504.2 276,461.6 													"/>
													<polygon class="st34" points="279.3,464.6 232.8,507.2 232.3,506.8 278.8,464.2 													"/>
													<polygon class="st34" points="282.1,467.2 235.7,509.8 235.2,509.3 281.6,466.7 													"/>
													<polygon class="st34" points="284.9,469.8 238.5,512.4 238,511.9 284.4,469.3 													"/>
													<polygon class="st34" points="287.7,472.4 241.3,515 240.8,514.5 287.2,471.9 													"/>
													<polygon class="st34" points="290.6,475 244.1,517.6 243.6,517.1 290.1,474.5 													"/>
													<polygon class="st34" points="293.4,477.5 246.9,520.1 246.4,519.7 292.9,477.1 													"/>
													<polygon class="st34" points="296.2,480.1 249.8,522.7 249.2,522.3 295.7,479.7 													"/>
												</g>
											</g>
										</g>
									</g>
								</g>
							</g>
						</g>
					</g>
				</g>
			</g>
		</g>
	</g>
	<path class="st43" d="M252,455.6c0.4,0.3,1.2,0.1,5.2-1.9c5.3-2.6,6.3-3.4,6.8-4.7c0.1-0.4,0.7-1.7,0-2.9c-1-1.7-4.2-2.1-6.3-1.2
		c-1.9,0.7-2.8,2.7-4.7,6.8C252.1,453.8,251.5,455.1,252,455.6z"/>
	<path class="st43" d="M253.4,458.9c0.5-0.1-10.4-8.2-11-9.5c-1.1-2.2,4.1-3.8,5.8-1.2C249.3,449.9,252.5,459.2,253.4,458.9z"/>
	<path class="st44" d="M275.9,461.9H229v-6.1c8.3,0,16.7,0,25,0c7.3,0,14.6,0,21.9,0C275.9,457.8,275.9,459.8,275.9,461.9z"/>
</g>
</svg>
