<?xml version="1.0" encoding="utf-8"?>
<!-- Generator: Adobe Illustrator 19.2.0, SVG Export Plug-In . SVG Version: 6.00 Build 0)  -->
<svg version="1.1" id="Layer_1" xmlns="http://www.w3.org/2000/svg" xmlns:xlink="http://www.w3.org/1999/xlink" x="0px" y="0px"
	 viewBox="0 0 500 500" style="enable-background:new 0 0 500 500;" xml:space="preserve">
<style type="text/css">
	.st136{fill:#FFFFFF;stroke:#000000;stroke-width:2;stroke-miterlimit:10;}
	.st137{opacity:0.56;fill:url(#SVGID_1_);stroke:#000000;stroke-miterlimit:10;}
	.st138{opacity:0.31;fill:#FFCE00;stroke:#000000;stroke-width:2;stroke-miterlimit:10;}
	.st139{opacity:0.31;fill:#F1C40F;stroke:#000000;stroke-width:2;stroke-miterlimit:10;}
	.st140{fill:#5A4A42;}
	.st141{fill:#00ADEE;}
	.st142{opacity:0.56;fill:#FFFFFF;enable-background:new    ;}
	.st143{fill:#FFCA05;}
	.st144{fill:#F17892;}
	.st145{fill:#F05A28;}
	.st146{fill:#27AE60;}
	.st147{fill:#5E5E5E;}
	.st148{fill:#FFBA00;}
	.st149{fill:#25AF1B;}
	.st150{fill:#AF509F;}
	.st151{fill:#00B4B6;}
	.st152{fill:#FFE49F;}
	.st153{opacity:0.38;}
	.st154{fill:#E85E00;}
	.st155{fill:#994308;}
	.st156{fill:#DD0030;}
	.st157{opacity:0.42;fill:#F4F4F4;}
	.st158{fill:#632F00;}
	.st159{fill:#29ABE2;}
	.st160{clip-path:url(#SVGID_3_);}
	.st161{fill:#FFFFFF;}
	.st162{fill:none;stroke:#29ABE2;stroke-width:4;stroke-miterlimit:10;}
	.st163{fill:#1689A8;}
	.st164{fill:#F7931E;}
	.st165{clip-path:url(#SVGID_5_);}
	.st166{fill:none;stroke:#F7931E;stroke-width:4;stroke-miterlimit:10;}
	.st167{fill:#F15A24;}
	.st168{fill:#39B54A;}
	.st169{clip-path:url(#SVGID_7_);}
	.st170{fill:none;stroke:#009245;stroke-width:4;stroke-miterlimit:10;}
	.st171{fill:#006837;}
	.st172{opacity:0.57;}
	.st173{fill:none;stroke:#000000;stroke-miterlimit:10;}
	.st174{fill:#26B578;}
	.st175{fill:none;stroke:#000000;stroke-width:2;stroke-miterlimit:10;}
	.st176{font-family:'vtksdistress';}
	.st177{font-size:65px;}
	.st178{font-family:'TwCenMT-Condensed';}
	.st179{font-size:36px;}
	.st180{fill:#F05A28;stroke:#000000;stroke-miterlimit:10;}
	.st181{font-size:72px;}
	.st182{fill:#FFCA05;stroke:#000000;stroke-miterlimit:10;}
	.st183{fill:#27AE60;stroke:#000000;stroke-miterlimit:10;}
	.st184{fill:#C0392B;stroke:#000000;stroke-miterlimit:10;}
	.st185{fill:#3498DB;stroke:#000000;stroke-miterlimit:10;}
</style>
<rect class="st136" width="500" height="500"/>
<linearGradient id="SVGID_1_" gradientUnits="userSpaceOnUse" x1="250" y1="-1.122407e-008" x2="250" y2="500">
	<stop  offset="1.075269e-002" style="stop-color:#E67E22"/>
	<stop  offset="4.409345e-002" style="stop-color:#E98F3F"/>
	<stop  offset="0.1094" style="stop-color:#EFAC71"/>
	<stop  offset="0.176" style="stop-color:#F4C69D"/>
	<stop  offset="0.2429" style="stop-color:#F8DAC0"/>
	<stop  offset="0.3101" style="stop-color:#FBEADC"/>
	<stop  offset="0.3777" style="stop-color:#FDF6EF"/>
	<stop  offset="0.446" style="stop-color:#FFFDFB"/>
	<stop  offset="0.5161" style="stop-color:#FFFFFF"/>
	<stop  offset="0.583" style="stop-color:#FEFBFB"/>
	<stop  offset="0.6524" style="stop-color:#FDF0EE"/>
	<stop  offset="0.7229" style="stop-color:#FADDDA"/>
	<stop  offset="0.7942" style="stop-color:#F7C2BD"/>
	<stop  offset="0.8661" style="stop-color:#F2A097"/>
	<stop  offset="0.9375" style="stop-color:#ED766A"/>
	<stop  offset="1" style="stop-color:#E74C3C"/>
</linearGradient>
<rect class="st137" width="500" height="500"/>
<polygon class="st138" points="-1,55 478,55 432.5,100.5 474,142 -1,142 "/>
<polygon class="st139" points="498,314 82,314 121.5,340.2 85.5,364 498,364 "/>
<g>
	<g>
		<polygon class="st140" points="37.2,520.1 36.5,520.1 35.3,417.9 36.1,417.9 		"/>
		<path class="st141" d="M35.5,357.6c-46.2,1.3-31.4,66.9-2.5,72.6c-0.3,0.6-0.7,1.3-0.9,1.5c-0.2,0.4-0.3,0.5,0.1,1
			c0.4,0.4,0.5,0,0.8,0.4c0.2,0.3,0.8,0,1.3-0.2c0,0.3,0.1,0.6,0.1,0.8c0.4,0.1,0.7,0.3,1,0.5c0-0.4-0.1-0.8-0.1-1.2
			c0.2,0.1,0.3,0.2,0.6,0.3c0.6,0,0.7-0.7,1.2-0.8c0.4-0.1,1.1,0.1,1.1,0s-0.5-1.2-0.8-2C67.4,426.7,82.7,358.2,35.5,357.6z"/>
		<path class="st142" d="M46.9,364.3c-1.4-0.9-13-3.9-17.3-0.2c-4.3,3.7-6.1,9.5-1.5,13.9s12.1,9.6,15.5,16.9c3.4,7.4,6,15.6,11.9,8
			c5.9-7.5,8.2-14.6,4.5-24.6C56.4,368.4,46.9,364.3,46.9,364.3z"/>
	</g>
	<g>
		<polygon class="st140" points="67,554.9 66.2,554.8 65.1,452.7 65.8,452.7 		"/>
		<path class="st143" d="M65.3,392.3c-46.2,1.3-31.4,66.9-2.5,72.6c-0.3,0.6-0.7,1.3-0.9,1.5c-0.2,0.4-0.3,0.5,0.1,1
			c0.4,0.4,0.5,0,0.8,0.4c0.2,0.3,0.8,0,1.3-0.2c0,0.3,0.1,0.6,0.1,0.8c0.4,0.1,0.7,0.3,1,0.5c0-0.4-0.1-0.8-0.1-1.2
			c0.2,0.1,0.3,0.2,0.6,0.3c0.6,0,0.7-0.7,1.2-0.8c0.4-0.1,1.1,0.1,1.1,0s-0.5-1.2-0.8-2C97.1,461.4,112.4,393,65.3,392.3z"/>
		<path class="st142" d="M76.6,399.1c-1.4-0.9-13-3.9-17.3-0.2c-4.3,3.7-6.1,9.5-1.5,13.9s12.1,9.6,15.5,16.9c3.4,7.4,6,15.6,11.9,8
			c5.9-7.5,8.2-14.6,4.5-24.6C86.1,403.2,76.6,399.1,76.6,399.1z"/>
	</g>
	<g>
		<polygon class="st140" points="109.1,526.7 108.4,526.7 107.2,424.5 108,424.5 		"/>
		<path class="st144" d="M107.4,364.2c-46.2,1.3-31.4,66.9-2.5,72.6c-0.3,0.6-0.7,1.3-0.9,1.5c-0.2,0.4-0.3,0.5,0.1,1
			c0.4,0.4,0.5,0,0.8,0.4c0.2,0.3,0.8,0,1.3-0.2c0,0.3,0.1,0.6,0.1,0.8c0.4,0.1,0.7,0.3,1,0.5c0-0.4-0.1-0.8-0.1-1.2
			c0.2,0.1,0.3,0.2,0.6,0.3c0.6,0,0.7-0.7,1.2-0.8c0.4-0.1,1.1,0.1,1.1,0s-0.5-1.2-0.8-2C139.3,433.2,154.6,364.8,107.4,364.2z"/>
		<path class="st142" d="M118.8,370.9c-1.4-0.9-13-3.9-17.3-0.2c-4.3,3.7-6.1,9.5-1.5,13.9c4.6,4.4,12.1,9.6,15.5,16.9
			c3.4,7.4,6,15.6,11.9,8c5.9-7.5,8.2-14.6,4.5-24.6C128.3,375,118.8,370.9,118.8,370.9z"/>
	</g>
	<g>
		<polygon class="st140" points="154.2,556.9 154.9,556.9 156.1,454.7 155.4,454.7 		"/>
		<path class="st145" d="M155.9,394.4c46.1,1.3,31.3,66.9,2.5,72.6c0.3,0.6,0.7,1.3,0.9,1.5c0.2,0.4,0.3,0.5-0.1,1
			c-0.4,0.4-0.5,0-0.8,0.4c-0.2,0.3-0.8,0-1.3-0.2c0,0.3-0.1,0.6-0.1,0.8c-0.4,0.1-0.7,0.3-1,0.5c0-0.4,0.1-0.8,0.1-1.2
			c-0.2,0.1-0.3,0.2-0.6,0.3c-0.6,0-0.7-0.7-1.2-0.8c-0.4-0.1-1.1,0.1-1.1,0s0.5-1.2,0.8-2C124.1,463.4,108.9,395,155.9,394.4z"/>
		<path class="st142" d="M144.6,401.1c1.4-0.9,12.9-3.9,17.3-0.2c4.3,3.7,6.1,9.5,1.5,13.9s-12.1,9.6-15.5,16.9
			c-3.4,7.4-6,15.6-11.9,8c-5.9-7.5-8.2-14.6-4.5-24.6C135.1,405.2,144.6,401.1,144.6,401.1z"/>
	</g>
	<g>
		<polygon class="st140" points="199.3,534 200,533.9 201.2,431.8 200.4,431.8 		"/>
		<path class="st146" d="M201,371.4c46.1,1.3,31.3,66.9,2.5,72.6c0.3,0.6,0.7,1.3,0.9,1.5c0.2,0.4,0.3,0.5-0.1,1
			c-0.4,0.4-0.5,0-0.8,0.4c-0.2,0.3-0.8,0-1.3-0.2c0,0.3-0.1,0.6-0.1,0.8c-0.4,0.1-0.7,0.3-1,0.5c0-0.4,0.1-0.8,0.1-1.2
			c-0.2,0.1-0.3,0.2-0.6,0.3c-0.6,0-0.7-0.7-1.2-0.8c-0.4-0.1-1.1,0.1-1.1,0s0.5-1.2,0.8-2C169.2,440.5,154,372.1,201,371.4z"/>
		<path class="st142" d="M189.6,378.2c1.4-0.9,12.9-3.9,17.3-0.2c4.3,3.7,6.1,9.5,1.5,13.9s-12.1,9.6-15.5,16.9
			c-3.4,7.4-6,15.6-11.9,8c-5.9-7.5-8.2-14.6-4.5-24.6C180.2,382.3,189.6,378.2,189.6,378.2z"/>
	</g>
	<g>
		<polygon class="st140" points="243.9,552.2 244.6,552.2 245.8,450 245.1,450 		"/>
		<path class="st141" d="M245.6,389.7c46.1,1.3,31.3,66.9,2.5,72.6c0.3,0.6,0.7,1.3,0.9,1.5c0.2,0.4,0.3,0.5-0.1,1
			c-0.4,0.4-0.5,0-0.8,0.4c-0.2,0.3-0.8,0-1.3-0.2c0,0.3-0.1,0.6-0.1,0.8c-0.4,0.1-0.7,0.3-1,0.5c0-0.4,0.1-0.8,0.1-1.2
			c-0.2,0.1-0.3,0.2-0.6,0.3c-0.6,0-0.7-0.7-1.2-0.8c-0.4-0.1-1.1,0.1-1.1,0s0.5-1.2,0.8-2C213.8,458.8,198.6,390.3,245.6,389.7z"/>
		<path class="st142" d="M234.3,396.4c1.4-0.9,12.9-3.9,17.3-0.2c4.3,3.7,6.1,9.5,1.5,13.9c-4.6,4.4-12.1,9.6-15.5,16.9
			c-3.4,7.4-6,15.6-11.9,8c-5.9-7.5-8.2-14.6-4.5-24.6C224.8,400.5,234.3,396.4,234.3,396.4z"/>
	</g>
</g>
<g>
	<path class="st147" d="M362.4,482.6h134c1.1,0,1.9-1,1.9-2.1l0,0c0-1.2-0.9-2.1-1.9-2.1h-134c-1.1,0-1.9,1-1.9,2.1l0,0
		C360.5,481.6,361.4,482.6,362.4,482.6z"/>
	<g>
		<g>
			<path class="st148" d="M415.1,332.8c1.2,0,1.5-3.2,0.4-5.3c-0.1,1.2-0.9,2.5-1.1,3.4C414.2,331.6,414.1,332.8,415.1,332.8z"/>
			<polygon class="st149" points="412.2,358.9 417.6,358.9 416.3,336.8 413.5,336.8 			"/>
		</g>
		<g>
			<path class="st148" d="M425.4,332.8c-1.2,0-1.5-3.2-0.4-5.3c0.1,1.2,0.9,2.5,1.1,3.4C426.3,331.6,426.4,332.8,425.4,332.8z"/>
			<polygon class="st150" points="428.3,358.9 422.9,358.9 424.2,336.8 427.1,336.8 			"/>
		</g>
		<g>
			<path class="st148" d="M436,332.8c1.2,0,1.5-3.2,0.4-5.3c-0.1,1.2-0.9,2.5-1.1,3.4C435,331.6,435,332.8,436,332.8z"/>
			<polygon class="st151" points="433.1,358.9 438.4,358.9 437.2,336.8 434.4,336.8 			"/>
		</g>
		<g>
			<path class="st148" d="M446,332.8c-1.2,0-1.5-3.2-0.4-5.3c0.1,1.2,0.9,2.5,1.1,3.4C446.9,331.6,446.9,332.8,446,332.8z"/>
			<polygon class="st145" points="448.9,358.9 443.4,358.9 444.7,336.8 447.6,336.8 			"/>
		</g>
	</g>
	<path class="st152" d="M398.8,358.9c21.2,0,42.4,0,63.6,0c-3.5,12.8-2.2,22,0,30.4c-21.2,0-42.4,0-63.6,0
		C401,380.8,402.3,371.7,398.8,358.9z"/>
	<g class="st153">
		<rect x="402.4" y="359" class="st154" width="57.6" height="0.9"/>
		<polygon class="st154" points="460,361.7 402.4,361.7 402.4,361.7 		"/>
		<polygon class="st154" points="460,364.4 402.4,364.4 402.4,364.4 		"/>
		<polygon class="st154" points="460,367 402.4,367 402.4,367 		"/>
		<polygon class="st154" points="460,369.7 402.4,369.7 402.4,369.7 		"/>
		<rect x="402.4" y="371.5" class="st154" width="57.6" height="0.9"/>
		<rect x="402.4" y="374.1" class="st154" width="57.6" height="0.9"/>
		<rect x="402.4" y="376.8" class="st154" width="57.6" height="0.9"/>
		<rect x="402.4" y="379.4" class="st154" width="57.6" height="0.9"/>
		<rect x="402.4" y="382.1" class="st154" width="57.6" height="0.9"/>
		<rect x="402.4" y="384.7" class="st154" width="57.6" height="0.9"/>
		<rect x="402.4" y="387.4" class="st154" width="57.6" height="0.9"/>
	</g>
	<path class="st155" d="M462,358.9c-0.5,2-0.9,4-1.2,5.9c-1.9-1.1-2.8-3-5.4-3c-3.5,0-3.9,3.7-8.3,3.7c-4.4,0-4.8-3.7-8.3-3.7
		c-3.5,0-3.9,3.7-8.3,3.7c-4.4,0-4.8-3.7-8.3-3.7s-3.9,3.7-8.3,3.7c-4.4,0-4.8-3.7-8.3-3.7c-2.5,0-3.4,1.9-5.4,3
		c-0.3-1.9-0.6-3.8-1.2-5.9H462z"/>
	<path class="st152" d="M379.7,389.2c28.7,0,73.1,0,101.9,0c-4.7,17.3-3,29.6,0,40.9c-28.7,0-73.1,0-101.9,0
		C382.7,418.8,384.4,406.4,379.7,389.2z"/>
	<g class="st153">
		<rect x="383.7" y="389.2" class="st154" width="94.2" height="0.9"/>
		<rect x="383.7" y="392.7" class="st154" width="94.2" height="0.9"/>
		<rect x="383.7" y="395.4" class="st154" width="94.2" height="0.9"/>
		<rect x="383.7" y="398.9" class="st154" width="94.2" height="0.9"/>
		<rect x="383.7" y="401.6" class="st154" width="94.2" height="0.9"/>
		<polygon class="st154" points="477.9,405.1 383.7,405.1 383.7,405.1 		"/>
		<rect x="383.7" y="407.8" class="st154" width="94.2" height="0.9"/>
		<rect x="383.7" y="410.4" class="st154" width="94.2" height="0.9"/>
		<rect x="383.7" y="414" class="st154" width="94.2" height="0.9"/>
		<rect x="383.7" y="416.6" class="st154" width="94.2" height="0.9"/>
		<rect x="383.7" y="420.2" class="st154" width="94.2" height="0.9"/>
		<rect x="383.7" y="422.8" class="st154" width="94.2" height="0.9"/>
		<polygon class="st154" points="477.9,426.4 383.7,426.4 383.7,426.4 		"/>
		<rect x="383.7" y="429" class="st154" width="94.2" height="0.9"/>
	</g>
	<path class="st155" d="M380,389.2h101.1c-0.6,2.3-1.1,4.5-1.5,6.6c-3.7-0.4-4.3-3.7-7.6-3.7c-3.5,0-3.9,3.7-8.3,3.7
		c-4.4,0-4.8-3.7-8.3-3.7s-3.9,3.7-8.3,3.7c-4.4,0-4.8-3.7-8.3-3.7c-3.5,0-3.9,3.7-8.3,3.7c-4.4,0-4.8-3.7-8.3-3.7s-3.9,3.7-8.3,3.7
		c-4.4,0-4.8-3.7-8.3-3.7c-3.5,0-3.9,3.7-8.3,3.7c-4.4,0-4.8-3.7-8.3-3.7c-3.3,0-3.9,3.4-7.6,3.7C381,393.7,380.6,391.5,380,389.2z"
		/>
	<path class="st152" d="M367.6,430.1c25.2,0,100.7,0,126,0c-4.1,20.4-2.6,34.8,0,48.2c-25.2,0-100.7,0-126,0
		C370.2,464.9,371.8,450.5,367.6,430.1z"/>
	<g class="st153">
		<rect x="370.7" y="435.2" class="st154" width="120.1" height="0.9"/>
		<rect x="370.7" y="437" class="st154" width="120.1" height="0.9"/>
		<rect x="370.7" y="439.7" class="st154" width="120.1" height="0.9"/>
		<rect x="370.7" y="442.3" class="st154" width="120.1" height="0.9"/>
		<rect x="370.7" y="445" class="st154" width="120.1" height="0.9"/>
		<rect x="370.7" y="447.6" class="st154" width="120.1" height="0.9"/>
		<rect x="370.7" y="450.3" class="st154" width="120.1" height="0.9"/>
		<rect x="370.7" y="452.1" class="st154" width="120.1" height="0.9"/>
		<rect x="370.7" y="454.7" class="st154" width="120.1" height="0.9"/>
		<rect x="370.7" y="457.4" class="st154" width="120.1" height="0.9"/>
		<rect x="370.7" y="460.1" class="st154" width="120.1" height="0.9"/>
		<rect x="370.7" y="462.7" class="st154" width="120.1" height="0.9"/>
		<rect x="370.7" y="465.4" class="st154" width="120.1" height="0.9"/>
		<rect x="370.7" y="468" class="st154" width="120.1" height="0.9"/>
		<rect x="370.7" y="469.8" class="st154" width="120.1" height="0.9"/>
		<rect x="370.7" y="472.5" class="st154" width="120.1" height="0.9"/>
		<rect x="370.7" y="475.1" class="st154" width="120.1" height="0.9"/>
	</g>
	<path class="st155" d="M368,430.1h125.3c-0.3,1.5-0.6,3-0.8,4.4c-1.1-0.9-2-1.8-3.7-1.8c-3.5,0-3.9,3.7-8.3,3.7
		c-4.4,0-4.8-3.7-8.3-3.7s-3.9,3.7-8.3,3.7c-4.4,0-4.8-3.7-8.3-3.7s-3.9,3.7-8.3,3.7c-4.4,0-4.8-3.7-8.3-3.7c-3.5,0-3.9,3.7-8.3,3.7
		c-4.4,0-4.8-3.7-8.3-3.7s-3.9,3.7-8.3,3.7c-4.4,0-4.8-3.7-8.3-3.7s-3.9,3.7-8.3,3.7s-4.8-3.7-8.3-3.7s-3.9,3.7-8.3,3.7
		c-4.4,0-4.8-3.7-8.3-3.7c-1.7,0-2.7,0.9-3.7,1.8C368.5,433.1,368.2,431.6,368,430.1z"/>
</g>
<g>
	<g>
		<path class="st156" d="M371.1,398.7c-3.3,0.1-6.9-2.1-6.7-3.7c0.2-1.6,3.7-2.6,6.4-2.6c2.7,0,6.3,1.2,6.4,2.8
			C377.3,396.8,374.1,398.6,371.1,398.7z"/>
		<path class="st157" d="M373.6,394c0.8,0.5,1.2,0.7,1.5,1c0.6,0.7,0.7,1.2,0.9,1.2c0.3,0,0.7-0.7,0.5-1.3c-0.2-0.7-0.9-1-1.8-1.4
			c-1.4-0.5-2.8-0.7-2.9-0.6C371.9,393.2,372.4,393.3,373.6,394z"/>
	</g>
	<g>
		<g>
			<path class="st158" d="M381.3,405.1c-3,0-1.5-3.3-3.8-3.3c-2.3,0,0.4,6.6-3.3,6.6s-0.5-6.6-3.2-6.6c-2.7,0-0.8,4.4-3.6,4.4
				c-2.8,0-0.8-4.4-3.8-4.4c-3,0-1.3,5.4-4.2,5.4c-2,0-2.6-1.6-2.6-2.6v11.5c0,3.5,3.1,6.3,6.8,6.3h14.9c3.7,0,6.8-2.7,6.8-6.3
				v-14.2c0-0.1,0-0.2,0-0.3c-0.4-0.2-0.7-0.3-1-0.3C382.8,401.3,384.3,405.1,381.3,405.1z"/>
		</g>
		<g>
			<path d="M378.5,395.4h-14.9c-3.7,0-6.8,2.9-6.8,6.4v1.9v0.9c0,1,0.6,2.6,2.6,2.6c2.9,0,1.2-5.4,4.2-5.4c3,0,1,4.4,3.8,4.4
				c2.8,0,1-4.4,3.6-4.4c2.7,0-0.4,6.6,3.2,6.6s1-6.6,3.3-6.6c2.3,0,0.8,3.3,3.8,3.3c3,0,1.4-3.8,2.8-3.8c0.3,0,0.6,0.1,1,0.3
				C385,398.1,382.1,395.4,378.5,395.4z"/>
		</g>
	</g>
	<g>
		<g>
			<path class="st158" d="M394.7,421.2c-4.7,0,1.2,6.8-3.6,6.8c-4.8,0,0.4-6.9-4.3-6.9s0.4,12.5-5.3,12.5c-5.7,0,1.2-13-2.9-13
				s-3,9.3-6.3,9.3c-3.3,0-0.4-9.3-4.4-9.3s-1.8,12.3-4.9,12.3c-3.1,0-3.6-1.8-3.6-7.5s-2.6-4.7-5.2-4.7c-2.7,0-1.3,10.6-4.1,10.6
				c-2.8,0-0.9-8.7-2.7-10.4c-1.8-1.7-1.6,5.9-3.8,5.9c-1.4,0-1.7-2.1-1.7-3.7V464c0,3.5,2.8,6.5,6.5,6.5h44.9c3.7,0,6.4-3,6.4-6.5
				v-32.2c0,0-0.7,0-1.2,0C395.8,431.8,399.4,421.2,394.7,421.2z"/>
		</g>
		<g>
			<path d="M393.5,414.3h-44.9c-3.7,0-6.5,3-6.5,6.6v0.5v1.8c0,1.6,0.4,3.7,1.7,3.7c2.2,0,2.1-7.6,3.8-5.9
				c1.8,1.7-0.1,10.4,2.6,10.4s1.4-10.6,4-10.6c2.7,0,5.2-1,5.2,4.7c0,5.7,0.4,7.5,3.6,7.5c3.1,0,0.9-12.3,4.9-12.3s1.1,9.3,4.4,9.3
				s2.2-9.3,6.3-9.3s-2.8,13,2.9,13c5.7,0,0.6-12.5,5.3-12.5s-0.5,7,4.3,7s-1.2-6.9,3.6-6.9c4.7,0,1.1,10.6,4,10.6
				c0.5,0,1.2,0,1.2,0v-11C399.9,417.3,397.2,414.3,393.5,414.3z"/>
		</g>
	</g>
	<g>
		<g>
			<path class="st158" d="M415,458.9c-2.2,3.5,3.1,9.5-0.6,14c-4.3,5.2-8.9,0.2-7.3-5.9c0.9-3.2,1.6-8.3-1.6-10
				c-3.1-1.7-3.4,1.5-4,7.8s0.1,11.5-3.5,11.5s2.2-20.1,2.8-23.2c0.6-3.1-5-4.7-4,3c1,7.7,0,9.2-2.2,9.2s-1.6-3.9-1.1-6.2
				c0.4-2.4,1.1-5.9-2-6.6c-3.2-0.7-3.5,3.1-1.6,10.2c2,7.1-0.6,12.4-10.9,11c-10.3-1.4,1-21.2-6.8-21.2c-7.9,0-1,7.9-8.2,7.9
				s-1.4-8.6-7.7-8.6s3.7,19.9-7.7,19.9c-11.4,0-4-19.5-7.9-19.5s-2.3,11.9-7.3,11.9c-5,0-1.7-11.9-4.9-11.9c-3.2,0-3.7,2-3.7,9.2
				s-3.9,6.3-3.9,6.3V492h100.5v-33.4C420.2,456.2,417.2,455.4,415,458.9z"/>
		</g>
		<g>
			<path d="M414.5,442.1h-86.9c-3.7,0-6.8,2.7-6.8,6.2v7.6v11.6c0,0,3.9,0.9,3.9-6.3c0-7.2,0.5-9.2,3.7-9.2s-0.1,11.9,4.9,11.9
				c5,0,3.4-11.9,7.3-11.9s-3.5,19.5,7.9,19.5s1.4-19.9,7.7-19.9s0.5,8.6,7.7,8.6c7.2,0,0.3-7.9,8.2-7.9s-3.4,19.9,6.8,21.2
				c10.3,1.4,12.9-3.9,10.9-11c-2-7.1-1.6-10.9,1.6-10.2c3.2,0.7,2.4,4.2,2,6.6c-0.4,2.4-1,6.2,1.1,6.2c2.2,0,3.2-1.5,2.2-9.2
				c-1-7.7,4.6-6,4-3c-0.6,3.1-6.4,23.2-2.8,23.2c3.6,0,2.9-5.1,3.5-11.5c0.6-6.3,0.9-9.5,4-7.8c3.1,1.7,2.4,6.7,1.6,10
				c-1.6,6.2,3,11.2,7.3,5.9c3.7-4.5-1.5-10.6,0.7-14s5.2-2.7,6.3-0.3v-10.3C421.3,444.8,418.2,442.1,414.5,442.1z"/>
		</g>
	</g>
</g>
<g>
	<g>
		<rect x="421.6" y="435.2" class="st159" width="69.5" height="55.7"/>
		<g>
			<g>
				<g>
					<g>
						<g>
							<g>
								<g>
									<g>
										<g>
											<g>
												<g>
													<g>
														<defs>
															<rect id="SVGID_2_" x="421.6" y="435.2" width="69.5" height="55.7"/>
														</defs>
														<clipPath id="SVGID_3_">
															<use xlink:href="#SVGID_2_"  style="overflow:visible;"/>
														</clipPath>
														<g class="st160">
															<polygon class="st161" points="454,406 381.1,462.9 380.4,462.2 453.2,405.5 															"/>
															<polygon class="st161" points="458.3,409.5 385.6,466.4 384.8,465.7 457.6,408.8 															"/>
															<polygon class="st161" points="462.8,413 390,469.8 389.2,469.2 462,412.3 															"/>
															<polygon class="st161" points="467.2,416.4 394.5,473.2 393.6,472.6 466.4,415.8 															"/>
															<polygon class="st161" points="471.7,419.8 398.8,476.7 398,476.1 470.9,419.2 															"/>
															<polygon class="st161" points="476,423.3 403.3,480.1 402.4,479.5 475.2,422.7 															"/>
															<polygon class="st161" points="480.5,426.7 407.7,483.6 406.9,482.9 479.7,426.1 															"/>
															<polygon class="st161" points="484.9,430.2 412.1,487.1 411.2,486.4 484.1,429.5 															"/>
															<polygon class="st161" points="489.3,433.7 416.5,490.5 415.7,489.9 488.5,433 															"/>
															<polygon class="st161" points="493.7,437.1 421,493.9 420.1,493.3 492.9,436.5 															"/>
															<polygon class="st161" points="498.2,440.5 425.3,497.4 424.6,496.8 497.4,439.9 															"/>
															<polygon class="st161" points="502.5,444 429.7,500.8 428.9,500.2 501.7,443.4 															"/>
															<polygon class="st161" points="507,447.4 434.2,504.3 433.4,503.6 506.2,446.8 															"/>
															<polygon class="st161" points="511.4,450.9 438.5,507.8 437.8,507.1 510.6,450.2 															"/>
															<polygon class="st161" points="515.8,454.4 443,511.2 442.2,510.5 515,453.7 															"/>
															<polygon class="st161" points="520.2,457.8 447.4,514.6 446.6,514 519.4,457.2 															"/>
															<polygon class="st161" points="524.7,461.2 451.9,518.1 451.1,517.5 523.8,460.6 															"/>
														</g>
													</g>
												</g>
											</g>
										</g>
									</g>
								</g>
							</g>
						</g>
					</g>
				</g>
			</g>
		</g>
		<path class="st162" d="M455.4,428.5c0.6,0.4,1.9,0.1,8.2-2.6c8.3-3.5,10-4.5,10.7-6.3c0.2-0.4,1-2.3,0-3.8
			c-1.6-2.2-6.5-2.8-9.8-1.6c-2.9,1-4.4,3.7-7.3,9C455.5,426.1,454.5,427.9,455.4,428.5z"/>
		<path class="st162" d="M457.6,432.8c0.8-0.2-16.2-10.9-17.3-12.7c-1.8-3,6.4-5.1,9.1-1.6C451.2,420.9,456.2,433.2,457.6,432.8z"/>
		<path class="st163" d="M492.8,436.8h-73.5v-8.2c13.1,0,26.1,0,39.2,0c11.4,0,22.8,0,34.3,0C492.8,431.4,492.8,434.1,492.8,436.8z"
			/>
	</g>
	<g>
		<rect x="345.2" y="462.4" class="st164" width="38.9" height="27.9"/>
		<g>
			<g>
				<g>
					<g>
						<g>
							<g>
								<g>
									<g>
										<g>
											<g>
												<g>
													<g>
														<defs>
															<rect id="SVGID_4_" x="345.2" y="462.4" width="38.9" height="27.9"/>
														</defs>
														<clipPath id="SVGID_5_">
															<use xlink:href="#SVGID_4_"  style="overflow:visible;"/>
														</clipPath>
														<g class="st165">
															<polygon class="st161" points="363.3,447.8 322.5,476.2 322.1,475.9 362.8,447.5 															"/>
															<polygon class="st161" points="365.7,449.5 325,477.9 324.6,477.7 365.3,449.2 															"/>
															<polygon class="st161" points="368.2,451.3 327.5,479.7 327,479.4 367.8,450.9 															"/>
															<polygon class="st161" points="370.7,453 329.9,481.4 329.5,481.1 370.2,452.7 															"/>
															<polygon class="st161" points="373.2,454.7 332.4,483.1 332,482.8 372.7,454.4 															"/>
															<polygon class="st161" points="375.6,456.4 334.9,484.8 334.4,484.6 375.2,456.1 															"/>
															<polygon class="st161" points="378.1,458.2 337.4,486.6 336.9,486.2 377.7,457.8 															"/>
															<polygon class="st161" points="380.6,459.9 339.8,488.3 339.4,488 380.1,459.6 															"/>
															<polygon class="st161" points="383,461.6 342.3,490 341.9,489.7 382.6,461.3 															"/>
															<polygon class="st161" points="385.5,463.3 344.8,491.7 344.3,491.5 385.1,463 															"/>
															<polygon class="st161" points="388,465.1 347.2,493.5 346.8,493.1 387.5,464.7 															"/>
															<polygon class="st161" points="390.4,466.8 349.7,495.2 349.3,494.9 390,466.5 															"/>
															<polygon class="st161" points="392.9,468.5 352.2,496.9 351.7,496.6 392.5,468.2 															"/>
															<polygon class="st161" points="395.4,470.2 354.7,498.6 354.2,498.4 394.9,469.9 															"/>
															<polygon class="st161" points="397.9,472 357.2,500.4 356.7,500 397.4,471.6 															"/>
															<polygon class="st161" points="400.3,473.7 359.6,502.1 359.2,501.8 399.9,473.4 															"/>
															<polygon class="st161" points="402.8,475.4 362.1,503.8 361.6,503.5 402.4,475.1 															"/>
														</g>
													</g>
												</g>
											</g>
										</g>
									</g>
								</g>
							</g>
						</g>
					</g>
				</g>
			</g>
		</g>
		<path class="st166" d="M364.1,459c0.3,0.2,1.1,0,4.6-1.3c4.6-1.7,5.5-2.2,6-3.2c0.1-0.2,0.6-1.1,0-1.9c-0.9-1.1-3.6-1.4-5.5-0.8
			c-1.6,0.5-2.4,1.8-4.1,4.5C364.2,457.8,363.6,458.7,364.1,459z"/>
		<path class="st166" d="M365.3,461.2c0.4-0.1-9.1-5.5-9.7-6.3c-1-1.5,3.6-2.5,5-0.8C361.7,455.3,364.5,461.4,365.3,461.2z"/>
		<path class="st167" d="M385,463.2h-41.1v-4.1c7.3,0,14.6,0,21.9,0c6.4,0,12.8,0,19.2,0C385,460.5,385,461.9,385,463.2z"/>
	</g>
	<g>
		<rect x="379.7" y="451.1" class="st168" width="44.3" height="41.7"/>
		<g>
			<g>
				<g>
					<g>
						<g>
							<g>
								<g>
									<g>
										<g>
											<g>
												<g>
													<g>
														<defs>
															<rect id="SVGID_6_" x="379.7" y="451.1" width="44.3" height="41.7"/>
														</defs>
														<clipPath id="SVGID_7_">
															<use xlink:href="#SVGID_6_"  style="overflow:visible;"/>
														</clipPath>
														<g class="st169">
															<polygon class="st161" points="400.3,429.3 353.9,471.9 353.4,471.4 399.8,428.8 															"/>
															<polygon class="st161" points="403.1,431.9 356.7,474.5 356.2,474 402.6,431.4 															"/>
															<polygon class="st161" points="405.9,434.5 359.5,477 359,476.6 405.4,434 															"/>
															<polygon class="st161" points="408.8,437 362.3,479.6 361.8,479.2 408.3,436.6 															"/>
															<polygon class="st161" points="411.6,439.6 365.1,482.2 364.6,481.7 411.1,439.2 															"/>
															<polygon class="st161" points="414.4,442.2 368,484.8 367.4,484.3 413.9,441.7 															"/>
															<polygon class="st161" points="417.2,444.8 370.8,487.4 370.3,486.9 416.7,444.3 															"/>
															<polygon class="st161" points="420,447.4 373.6,490 373.1,489.5 419.5,446.9 															"/>
															<polygon class="st161" points="422.9,450 376.4,492.6 375.9,492.1 422.3,449.5 															"/>
															<polygon class="st161" points="425.7,452.5 379.2,495.1 378.7,494.7 425.2,452.1 															"/>
															<polygon class="st161" points="428.5,455.1 382,497.7 381.5,497.3 428,454.7 															"/>
															<polygon class="st161" points="431.3,457.7 384.9,500.3 384.4,499.8 430.8,457.2 															"/>
															<polygon class="st161" points="434.1,460.3 387.7,502.9 387.2,502.4 433.6,459.8 															"/>
															<polygon class="st161" points="436.9,462.9 390.5,505.5 390,505 436.4,462.4 															"/>
															<polygon class="st161" points="439.8,465.5 393.3,508.1 392.8,507.6 439.3,465 															"/>
															<polygon class="st161" points="442.6,468 396.1,510.6 395.6,510.2 442.1,467.6 															"/>
															<polygon class="st161" points="445.4,470.6 399,513.2 398.4,512.8 444.9,470.2 															"/>
														</g>
													</g>
												</g>
											</g>
										</g>
									</g>
								</g>
							</g>
						</g>
					</g>
				</g>
			</g>
		</g>
		<path class="st170" d="M401.2,446.1c0.4,0.3,1.2,0.1,5.2-1.9c5.3-2.6,6.3-3.4,6.8-4.7c0.1-0.4,0.7-1.7,0-2.9
			c-1-1.7-4.2-2.1-6.3-1.2c-1.9,0.7-2.8,2.7-4.7,6.8C401.3,444.3,400.7,445.6,401.2,446.1z"/>
		<path class="st170" d="M402.6,449.4c0.5-0.1-10.4-8.2-11-9.5c-1.1-2.2,4.1-3.8,5.8-1.2C398.5,440.4,401.7,449.7,402.6,449.4z"/>
		<path class="st171" d="M425.1,452.4h-46.9v-6.1c8.3,0,16.7,0,25,0c7.3,0,14.6,0,21.9,0C425.1,448.3,425.1,450.3,425.1,452.4z"/>
	</g>
</g>
<g class="st172">
	<line class="st173" x1="80.8" y1="179.5" x2="80.8" y2="-57.6"/>
	<line class="st173" x1="113" y1="189.2" x2="113" y2="-48.3"/>
	<line class="st173" x1="170.1" y1="184.7" x2="170.1" y2="-52.8"/>
	<line class="st173" x1="220.9" y1="189.2" x2="220.9" y2="-48.3"/>
	<line class="st173" x1="274.8" y1="184.7" x2="274.8" y2="-52.8"/>
	<line class="st173" x1="328.6" y1="189.2" x2="328.6" y2="-48.3"/>
	<line class="st173" x1="377.3" y1="189.2" x2="377.3" y2="-48.3"/>
	<line class="st173" x1="430.6" y1="189.2" x2="430.6" y2="-48.3"/>
</g>
<g>
	<polygon class="st145" points="54.2,153.4 106.6,160.9 98.7,239.7 46.3,232.2 	"/>
	<polygon class="st143" points="88.4,159.5 140.9,152.3 148.5,231.2 96.1,238.4 	"/>
	<polygon class="st143" points="400.4,165.3 452.8,158.1 460.4,237 408,244.1 	"/>
	<polygon class="st174" points="149.4,157.6 201.7,166 192.8,244.7 140.5,236.2 	"/>
	<polygon class="st141" points="196.6,163.1 249.3,159.8 252.8,239.1 200.1,242.4 	"/>
	<polygon class="st141" points="300.9,163.1 353.6,159.8 357.1,239.1 304.4,242.4 	"/>
	<polygon class="st145" points="252.8,153 305.1,161.5 296,240.1 243.8,231.6 	"/>
	<polygon class="st145" points="356.2,157.5 408.4,166 399.4,244.7 347.1,236.2 	"/>
</g>
<rect x="6" y="7" class="st175" width="487" height="485"/>
<text transform="matrix(1 0 0 1 54.7466 230.4241)" class="st176 st177">B I R T H D A Y</text>
<text transform="matrix(1 0 0 1 46.2722 81.6102)" class="st178 st179">Dear </text>
<text transform="matrix(1 0 0 1 76.422 123.8473)" class="st178 st179">You are cordially invited to my</text>
<text transform="matrix(1 0 0 1 148.4724 307.0332)"><tspan x="0" y="0" class="st180 st176 st181">P</tspan><tspan x="36.8" y="0" class="st182 st176 st181">A</tspan><tspan x="79.3" y="0" class="st183 st176 st181">R</tspan><tspan x="118.1" y="0" class="st184 st176 st181">T</tspan><tspan x="151.2" y="0" class="st185 st176 st181">Y</tspan></text>
<text transform="matrix(1 0 0 1 125.9366 347.8396)" class="st178 st179">Date-</text>
<text transform="matrix(1 0 0 1 106.572 81.6102)" class="st178 st179">Ayush Singh</text>
<text transform="matrix(1 0 0 1 192.8968 347.8396)" class="st178 st179">21st January</text>
</svg>
