<?xml version="1.0" encoding="utf-8"?>
<!-- Generator: Adobe Illustrator 19.2.0, SVG Export Plug-In . SVG Version: 6.00 Build 0)  -->
<svg version="1.1" id="Layer_1" xmlns="http://www.w3.org/2000/svg" xmlns:xlink="http://www.w3.org/1999/xlink" x="0px" y="0px"
	 viewBox="0 0 192 50" style="enable-background:new 0 0 192 50;" xml:space="preserve">
<style type="text/css">
	.st0{fill:url(#SVGID_1_);}
	.st1{fill:url(#SVGID_2_);}
	.st2{fill:#FF5B9D;}
	.st3{fill:#9B59B6;}
	.st4{fill:#2ECC71;}
	.st5{fill:#FFC902;}
	.st6{fill:url(#SVGID_3_);}
	.st7{fill:url(#SVGID_4_);}
	.st8{fill:url(#SVGID_5_);}
	.st9{fill:url(#SVGID_6_);}
	.st10{fill:url(#SVGID_7_);}
	.st11{fill:url(#SVGID_8_);}
	.st12{fill:url(#SVGID_9_);}
	.st13{fill:url(#SVGID_10_);}
	.st14{fill:url(#SVGID_11_);}
	.st15{fill:url(#SVGID_12_);}
	.st16{fill:url(#SVGID_13_);}
	.st17{fill:url(#SVGID_14_);}
	.st18{fill:url(#SVGID_15_);}
	.st19{fill:url(#SVGID_16_);}
	.st20{fill:url(#SVGID_17_);}
	.st21{fill:url(#SVGID_18_);}
	.st22{fill:url(#SVGID_19_);}
	.st23{fill:url(#SVGID_20_);}
	.st24{fill:url(#SVGID_21_);}
	.st25{fill:url(#SVGID_22_);}
	.st26{fill:url(#SVGID_23_);}
	.st27{fill:url(#SVGID_24_);}
	.st28{fill:url(#SVGID_25_);}
	.st29{fill:url(#SVGID_26_);}
	.st30{fill:url(#SVGID_27_);}
	.st31{fill:url(#SVGID_28_);}
	.st32{fill:url(#SVGID_29_);}
	.st33{fill:url(#SVGID_30_);}
	.st34{fill:url(#SVGID_31_);}
	.st35{fill:url(#SVGID_32_);}
	.st36{fill:url(#SVGID_33_);}
	.st37{fill:url(#SVGID_34_);}
	.st38{fill:url(#SVGID_35_);}
	.st39{opacity:0.39;fill:#FFFFFF;}
</style>
<linearGradient id="SVGID_1_" gradientUnits="userSpaceOnUse" x1="96" y1="50" x2="96" y2="-4.311005e-009">
	<stop  offset="0" style="stop-color:#2980B9"/>
	<stop  offset="1" style="stop-color:#45BDFF"/>
</linearGradient>
<rect class="st0" width="192" height="50"/>
<g>
	<g>
		
			<linearGradient id="SVGID_2_" gradientUnits="userSpaceOnUse" x1="13.7912" y1="6.65" x2="19.4817" y2="6.65" gradientTransform="matrix(1 0 0 1 0 2)">
			<stop  offset="0" style="stop-color:#F36D6D"/>
			<stop  offset="1" style="stop-color:#F71B39"/>
		</linearGradient>
		<polygon class="st1" points="17,10.5 19.5,7.6 16.3,6.8 13.8,9 		"/>
		<polygon class="st2" points="24,10.4 27.6,9.2 26.6,7.5 23.7,8.6 		"/>
		<polygon class="st2" points="9.4,8.3 6.7,6.4 5,8.1 8.3,9.2 		"/>
		<polygon class="st3" points="14,3.5 12.7,2.6 10.8,4.4 13.2,5.6 		"/>
		<polygon class="st4" points="21.7,4 24.1,3.8 22.5,1.5 20.2,2.8 		"/>
		<polygon class="st5" points="30.2,4.6 33.7,4.8 33.4,3.3 30,3.7 		"/>
		<polygon class="st4" points="31.2,10.3 32.1,9.5 30,8 29.1,9.3 		"/>
		<polygon class="st5" points="2.1,12.2 5.8,12.5 5.6,11.2 2.5,10.3 		"/>
	</g>
	<g>
		
			<linearGradient id="SVGID_3_" gradientUnits="userSpaceOnUse" x1="4.1778" y1="26.7308" x2="9.8579" y2="26.7308" gradientTransform="matrix(0.6831 2.458723e-002 2.458723e-002 0.8526 45.7934 13.2366)">
			<stop  offset="0" style="stop-color:#F36D6D"/>
			<stop  offset="1" style="stop-color:#F71B39"/>
		</linearGradient>
		<polygon class="st6" points="51.5,37.8 53.2,35.4 51,34.6 49.3,36.4 		"/>
		<polygon class="st2" points="56.3,37.9 58.8,36.9 58,35.4 56.1,36.3 		"/>
		<polygon class="st2" points="46.3,35.8 44.4,34.1 43.3,35.5 45.6,36.5 		"/>
		<polygon class="st3" points="49.3,31.8 48.3,31 47.1,32.5 48.8,33.6 		"/>
		<polygon class="st4" points="54.5,32.4 56.2,32.2 55,30.2 53.5,31.3 		"/>
		<polygon class="st5" points="60.4,33.1 62.7,33.2 62.5,32 60.3,32.3 		"/>
		<polygon class="st4" points="61.3,37.9 61.8,37.2 60.4,35.9 59.8,37.1 		"/>
		<polygon class="st5" points="41.4,38.9 44,39.3 43.8,38.2 41.7,37.3 		"/>
	</g>
	<g>
		
			<linearGradient id="SVGID_4_" gradientUnits="userSpaceOnUse" x1="-47.1102" y1="9.8542" x2="-41.4301" y2="9.8542" gradientTransform="matrix(0.6831 2.458723e-002 2.458723e-002 0.8526 45.7934 13.2366)">
			<stop  offset="0" style="stop-color:#F36D6D"/>
			<stop  offset="1" style="stop-color:#F71B39"/>
		</linearGradient>
		<polygon class="st7" points="16.1,22.1 17.7,19.7 15.5,19 13.9,20.8 		"/>
		<polygon class="st2" points="20.9,22.2 23.3,21.3 22.5,19.8 20.6,20.7 		"/>
		<polygon class="st2" points="10.8,20.1 8.9,18.5 7.9,19.9 10.1,20.9 		"/>
		<polygon class="st3" points="13.8,16.2 12.9,15.4 11.7,16.8 13.4,17.9 		"/>
		<polygon class="st4" points="19.1,16.7 20.8,16.5 19.6,14.6 18,15.7 		"/>
		<polygon class="st5" points="24.9,17.4 27.3,17.6 27.1,16.4 24.8,16.6 		"/>
		<polygon class="st4" points="25.8,22.3 26.4,21.6 24.9,20.3 24.4,21.4 		"/>
		<polygon class="st5" points="6,23.3 8.5,23.7 8.4,22.6 6.2,21.7 		"/>
	</g>
	<g>
		
			<linearGradient id="SVGID_5_" gradientUnits="userSpaceOnUse" x1="5.5142" y1="-8.3183" x2="11.1943" y2="-8.3183" gradientTransform="matrix(0.6831 2.458723e-002 2.458723e-002 0.8526 45.7934 13.2366)">
			<stop  offset="0" style="stop-color:#F36D6D"/>
			<stop  offset="1" style="stop-color:#F71B39"/>
		</linearGradient>
		<polygon class="st8" points="51.6,7.9 53.2,5.5 51,4.8 49.3,6.5 		"/>
		<polygon class="st2" points="56.4,8 58.8,7 58,5.5 56.1,6.5 		"/>
		<polygon class="st2" points="46.3,5.9 44.4,4.2 43.4,5.6 45.6,6.6 		"/>
		<polygon class="st3" points="49.3,1.9 48.4,1.1 47.2,2.6 48.8,3.7 		"/>
		<polygon class="st4" points="54.6,2.5 56.3,2.3 55.1,0.3 53.5,1.4 		"/>
		<polygon class="st5" points="60.5,3.2 62.8,3.4 62.6,2.1 60.3,2.4 		"/>
		<polygon class="st4" points="61.3,8.1 61.9,7.4 60.4,6 59.8,7.2 		"/>
		<polygon class="st5" points="41.5,9.1 44,9.4 43.8,8.3 41.7,7.4 		"/>
	</g>
	<g>
		
			<linearGradient id="SVGID_6_" gradientUnits="userSpaceOnUse" x1="-5.6541" y1="5.7251" x2="2.596164e-002" y2="5.7251" gradientTransform="matrix(0.6831 2.458723e-002 2.458723e-002 0.8526 45.7934 13.2366)">
			<stop  offset="0" style="stop-color:#F36D6D"/>
			<stop  offset="1" style="stop-color:#F71B39"/>
		</linearGradient>
		<polygon class="st9" points="44.3,19.6 45.9,17.2 43.8,16.5 42.1,18.3 		"/>
		<polygon class="st2" points="49.1,19.7 51.5,18.8 50.7,17.3 48.8,18.2 		"/>
		<polygon class="st2" points="39.1,17.7 37.1,15.9 36.1,17.4 38.3,18.4 		"/>
		<polygon class="st3" points="42.1,13.7 41.1,12.8 39.9,14.3 41.6,15.4 		"/>
		<polygon class="st4" points="47.3,14.3 49,14.1 47.8,12.1 46.3,13.2 		"/>
		<polygon class="st5" points="53.2,14.9 55.5,15.1 55.3,13.8 53,14.1 		"/>
		<polygon class="st4" points="54,19.8 54.6,19.1 53.2,17.8 52.6,18.9 		"/>
		<polygon class="st5" points="34.2,20.8 36.7,21.2 36.5,20.1 34.4,19.2 		"/>
	</g>
	<g>
		
			<linearGradient id="SVGID_7_" gradientUnits="userSpaceOnUse" x1="45.0182" y1="2.0363" x2="50.6982" y2="2.0363" gradientTransform="matrix(0.6831 2.458723e-002 2.458723e-002 0.8526 45.7934 13.2366)">
			<stop  offset="0" style="stop-color:#F36D6D"/>
			<stop  offset="1" style="stop-color:#F71B39"/>
		</linearGradient>
		<polygon class="st10" points="78.8,17.7 80.4,15.3 78.3,14.6 76.6,16.4 		"/>
		<polygon class="st2" points="83.6,17.8 86.1,16.9 85.3,15.4 83.4,16.3 		"/>
		<polygon class="st2" points="73.6,15.7 71.6,14 70.6,15.4 72.8,16.4 		"/>
		<polygon class="st3" points="76.6,11.7 75.6,10.9 74.5,12.4 76.1,13.5 		"/>
		<polygon class="st4" points="81.8,12.3 83.5,12.1 82.3,10.2 80.8,11.2 		"/>
		<polygon class="st5" points="87.7,13 90,13.2 89.8,11.9 87.5,12.2 		"/>
		<polygon class="st4" points="88.5,17.9 89.1,17.2 87.7,15.9 87.1,17 		"/>
		<polygon class="st5" points="68.7,18.9 71.3,19.2 71.1,18.1 68.9,17.2 		"/>
	</g>
	<g>
		
			<linearGradient id="SVGID_8_" gradientUnits="userSpaceOnUse" x1="-61.2909" y1="3.414288e-002" x2="-55.6212" y2="3.414288e-002" gradientTransform="matrix(0.4665 3.713123e-002 3.713123e-002 0.7224 101.5657 8.5457)">
			<stop  offset="0" style="stop-color:#F36D6D"/>
			<stop  offset="1" style="stop-color:#F71B39"/>
		</linearGradient>
		<polygon class="st11" points="74.5,7.7 75.6,5.7 74.1,5.1 73,6.5 		"/>
		<polygon class="st2" points="77.8,7.9 79.4,7.2 78.8,5.9 77.6,6.6 		"/>
		<polygon class="st2" points="70.9,6 69.6,4.5 68.9,5.7 70.4,6.5 		"/>
		<polygon class="st3" points="72.8,2.6 72.2,1.9 71.4,3.1 72.6,4.1 		"/>
		<polygon class="st4" points="76.4,3.2 77.6,3.1 76.7,1.4 75.7,2.3 		"/>
		<polygon class="st5" points="80.4,3.9 82.1,4.1 81.9,3.1 80.3,3.2 		"/>
		<polygon class="st4" points="81.2,8.1 81.5,7.5 80.5,6.4 80.2,7.3 		"/>
		<polygon class="st5" points="67.7,8.5 69.4,8.9 69.3,8 67.8,7.2 		"/>
	</g>
	<g>
		
			<linearGradient id="SVGID_9_" gradientUnits="userSpaceOnUse" x1="-86.3097" y1="28.2471" x2="-80.6397" y2="28.2471" gradientTransform="matrix(0.4665 3.713123e-002 3.713123e-002 0.7224 101.5657 8.5457)">
			<stop  offset="0" style="stop-color:#F36D6D"/>
			<stop  offset="1" style="stop-color:#F71B39"/>
		</linearGradient>
		<polygon class="st12" points="63.9,27.2 65,25.2 63.4,24.5 62.3,26 		"/>
		<polygon class="st2" points="67.2,27.3 68.8,26.6 68.2,25.3 67,26 		"/>
		<polygon class="st2" points="60.3,25.4 58.9,23.9 58.3,25.1 59.8,26 		"/>
		<polygon class="st3" points="62.2,22.1 61.6,21.4 60.8,22.6 61.9,23.6 		"/>
		<polygon class="st4" points="65.8,22.6 66.9,22.5 66,20.8 65,21.7 		"/>
		<polygon class="st5" points="69.8,23.3 71.4,23.5 71.3,22.5 69.7,22.6 		"/>
		<polygon class="st4" points="70.6,27.5 70.9,26.9 69.9,25.8 69.5,26.7 		"/>
		<polygon class="st5" points="57.1,27.9 58.8,28.3 58.6,27.4 57.2,26.6 		"/>
	</g>
	<g>
		
			<linearGradient id="SVGID_10_" gradientUnits="userSpaceOnUse" x1="-205.5013" y1="41.2234" x2="-199.8324" y2="41.2234" gradientTransform="matrix(0.4665 3.713123e-002 3.713123e-002 0.7224 101.5657 8.5457)">
			<stop  offset="0" style="stop-color:#F36D6D"/>
			<stop  offset="1" style="stop-color:#F71B39"/>
		</linearGradient>
		<polygon class="st13" points="8.8,32.1 9.8,30.1 8.3,29.5 7.2,31 		"/>
		<polygon class="st2" points="12.1,32.3 13.7,31.6 13.1,30.3 11.9,31 		"/>
		<polygon class="st2" points="5.2,30.4 3.8,28.9 3.1,30.1 4.7,31 		"/>
		<polygon class="st3" points="7.1,27 6.4,26.3 5.7,27.5 6.8,28.5 		"/>
		<polygon class="st4" points="10.7,27.6 11.8,27.5 10.9,25.8 9.9,26.7 		"/>
		<polygon class="st5" points="14.7,28.3 16.3,28.5 16.1,27.4 14.6,27.6 		"/>
		<polygon class="st4" points="15.4,32.5 15.8,31.9 14.8,30.7 14.4,31.7 		"/>
		<polygon class="st5" points="2,32.9 3.7,33.3 3.5,32.3 2.1,31.5 		"/>
	</g>
	<g>
		
			<linearGradient id="SVGID_11_" gradientUnits="userSpaceOnUse" x1="-49.7187" y1="70.526" x2="-44.0476" y2="70.526" gradientTransform="matrix(0.8605 5.468238e-002 5.468238e-002 1.2374 71.039 -53.1582)">
			<stop  offset="0" style="stop-color:#F36D6D"/>
			<stop  offset="1" style="stop-color:#F71B39"/>
		</linearGradient>
		<polygon class="st14" points="35,33.8 36.9,30.4 34.2,29.3 32.1,31.9 		"/>
		<polygon class="st2" points="41,34.1 44,32.8 43,30.6 40.6,31.9 		"/>
		<polygon class="st2" points="28.3,30.9 25.8,28.4 24.6,30.4 27.4,31.9 		"/>
		<polygon class="st3" points="31.9,25.1 30.8,23.9 29.3,26 31.4,27.7 		"/>
		<polygon class="st4" points="38.5,26.1 40.7,25.8 39.1,23 37.2,24.5 		"/>
		<polygon class="st5" points="46,27.2 48.9,27.5 48.6,25.7 45.8,26 		"/>
		<polygon class="st4" points="47.2,34.3 47.9,33.3 46,31.4 45.4,33 		"/>
		<polygon class="st5" points="22.3,35.3 25.5,35.9 25.2,34.3 22.5,33 		"/>
	</g>
	<g>
		
			<linearGradient id="SVGID_12_" gradientUnits="userSpaceOnUse" x1="-102.9487" y1="26.5807" x2="-97.2668" y2="26.5807" gradientTransform="matrix(0.5737 1.673791e-002 1.673791e-002 0.689 66.5847 25.5615)">
			<stop  offset="0" style="stop-color:#F36D6D"/>
			<stop  offset="1" style="stop-color:#F71B39"/>
		</linearGradient>
		<polygon class="st15" points="9.8,43.5 11.2,41.5 9.4,40.9 8,42.4 		"/>
		<polygon class="st2" points="13.9,43.5 15.9,42.8 15.3,41.6 13.6,42.3 		"/>
		<polygon class="st2" points="5.4,41.9 3.8,40.5 3,41.7 4.8,42.5 		"/>
		<polygon class="st3" points="8,38.7 7.2,38 6.2,39.2 7.6,40.1 		"/>
		<polygon class="st4" points="12.4,39.1 13.8,38.9 12.8,37.4 11.5,38.3 		"/>
		<polygon class="st5" points="17.3,39.6 19.3,39.8 19.1,38.8 17.2,39 		"/>
		<polygon class="st4" points="18,43.6 18.5,43 17.3,41.9 16.8,42.9 		"/>
		<polygon class="st5" points="1.3,44.5 3.5,44.7 3.3,43.9 1.5,43.1 		"/>
	</g>
	<g>
		
			<linearGradient id="SVGID_13_" gradientUnits="userSpaceOnUse" x1="23.8045" y1="-1.3897" x2="29.4864" y2="-1.3897" gradientTransform="matrix(0.5737 1.673791e-002 1.673791e-002 0.689 66.5847 25.5615)">
			<stop  offset="0" style="stop-color:#F36D6D"/>
			<stop  offset="1" style="stop-color:#F71B39"/>
		</linearGradient>
		<polygon class="st16" points="82.1,26.3 83.4,24.4 81.6,23.8 80.2,25.2 		"/>
		<polygon class="st2" points="86.1,26.4 88.1,25.6 87.5,24.4 85.9,25.2 		"/>
		<polygon class="st2" points="77.7,24.7 76.1,23.4 75.2,24.5 77.1,25.3 		"/>
		<polygon class="st3" points="80.2,21.5 79.5,20.9 78.4,22 79.8,22.9 		"/>
		<polygon class="st4" points="84.6,22 86,21.8 85,20.2 83.7,21.1 		"/>
		<polygon class="st5" points="89.5,22.5 91.5,22.6 91.3,21.6 89.4,21.8 		"/>
		<polygon class="st4" points="90.2,26.4 90.7,25.9 89.5,24.8 89,25.7 		"/>
		<polygon class="st5" points="73.6,27.3 75.7,27.6 75.6,26.7 73.8,26 		"/>
	</g>
	<g>
		
			<linearGradient id="SVGID_14_" gradientUnits="userSpaceOnUse" x1="50.4652" y1="-27.9444" x2="56.147" y2="-27.9444" gradientTransform="matrix(0.5737 1.673791e-002 1.673791e-002 0.689 66.5847 25.5615)">
			<stop  offset="0" style="stop-color:#F36D6D"/>
			<stop  offset="1" style="stop-color:#F71B39"/>
		</linearGradient>
		<polygon class="st17" points="96.9,8.5 98.3,6.5 96.5,5.9 95.1,7.4 		"/>
		<polygon class="st2" points="101,8.6 103,7.8 102.3,6.5 100.8,7.3 		"/>
		<polygon class="st2" points="92.5,6.9 90.9,5.5 90,6.7 91.9,7.5 		"/>
		<polygon class="st3" points="95,3.6 94.3,3 93.3,4.2 94.7,5.1 		"/>
		<polygon class="st4" points="99.5,4.1 100.9,3.9 99.9,2.3 98.6,3.2 		"/>
		<polygon class="st5" points="104.4,4.6 106.4,4.8 106.2,3.8 104.3,4 		"/>
		<polygon class="st4" points="105.1,8.6 105.6,8 104.4,7 103.9,7.8 		"/>
		<polygon class="st5" points="88.4,9.4 90.6,9.7 90.4,8.8 88.6,8.1 		"/>
	</g>
	<g>
		
			<linearGradient id="SVGID_15_" gradientUnits="userSpaceOnUse" x1="93.3075" y1="-26.2999" x2="98.989" y2="-26.2999" gradientTransform="matrix(0.5737 1.673791e-002 1.673791e-002 0.689 66.5847 25.5615)">
			<stop  offset="0" style="stop-color:#F36D6D"/>
			<stop  offset="1" style="stop-color:#F71B39"/>
		</linearGradient>
		<polygon class="st18" points="121.5,10.3 122.9,8.3 121.1,7.8 119.7,9.2 		"/>
		<polygon class="st2" points="125.6,10.4 127.6,9.6 126.9,8.4 125.4,9.1 		"/>
		<polygon class="st2" points="117.1,8.7 115.5,7.4 114.6,8.5 116.5,9.3 		"/>
		<polygon class="st3" points="119.7,5.5 118.9,4.8 117.9,6 119.3,6.9 		"/>
		<polygon class="st4" points="124.1,6 125.5,5.8 124.5,4.2 123.2,5.1 		"/>
		<polygon class="st5" points="129,6.5 131,6.6 130.8,5.6 128.9,5.8 		"/>
		<polygon class="st4" points="129.7,10.4 130.2,9.8 129,8.8 128.5,9.7 		"/>
		<polygon class="st5" points="113,11.3 115.2,11.6 115,10.7 113.2,10 		"/>
	</g>
	<g>
		
			<linearGradient id="SVGID_16_" gradientUnits="userSpaceOnUse" x1="69.8912" y1="-4.8301" x2="75.5727" y2="-4.8301" gradientTransform="matrix(0.5737 1.673791e-002 1.673791e-002 0.689 66.5847 25.5615)">
			<stop  offset="0" style="stop-color:#F36D6D"/>
			<stop  offset="1" style="stop-color:#F71B39"/>
		</linearGradient>
		<polygon class="st19" points="108.4,24.7 109.8,22.7 108,22.2 106.6,23.7 		"/>
		<polygon class="st2" points="112.5,24.8 114.5,24 113.9,22.8 112.3,23.5 		"/>
		<polygon class="st2" points="104.1,23.2 102.5,21.8 101.6,22.9 103.5,23.7 		"/>
		<polygon class="st3" points="106.6,19.9 105.8,19.2 104.8,20.4 106.2,21.3 		"/>
		<polygon class="st4" points="111,20.4 112.4,20.2 111.4,18.6 110.1,19.5 		"/>
		<polygon class="st5" points="115.9,20.9 117.9,21 117.7,20 115.8,20.2 		"/>
		<polygon class="st4" points="116.6,24.8 117.1,24.2 115.9,23.2 115.4,24.1 		"/>
		<polygon class="st5" points="99.9,25.7 102.1,26 101.9,25.1 100.2,24.4 		"/>
	</g>
	<g>
		
			<linearGradient id="SVGID_17_" gradientUnits="userSpaceOnUse" x1="146.0244" y1="-33.6755" x2="151.7061" y2="-33.6755" gradientTransform="matrix(0.5737 1.673791e-002 1.673791e-002 0.689 66.5847 25.5615)">
			<stop  offset="0" style="stop-color:#F36D6D"/>
			<stop  offset="1" style="stop-color:#F71B39"/>
		</linearGradient>
		<polygon class="st20" points="151.6,6.1 153,4.2 151.2,3.6 149.8,5 		"/>
		<polygon class="st2" points="155.7,6.2 157.7,5.4 157.1,4.2 155.5,4.9 		"/>
		<polygon class="st2" points="147.3,4.5 145.6,3.2 144.8,4.3 146.6,5.1 		"/>
		<polygon class="st3" points="149.8,1.3 149,0.7 148,1.8 149.4,2.7 		"/>
		<polygon class="st4" points="154.2,1.8 155.6,1.6 154.6,0 153.3,0.9 		"/>
		<polygon class="st5" points="159.1,2.3 161.1,2.4 160.9,1.4 159,1.6 		"/>
		<polygon class="st4" points="159.8,6.2 160.3,5.7 159.1,4.6 158.6,5.5 		"/>
		<polygon class="st5" points="143.1,7.1 145.3,7.4 145.1,6.5 143.4,5.8 		"/>
	</g>
	<g>
		
			<linearGradient id="SVGID_18_" gradientUnits="userSpaceOnUse" x1="198.1687" y1="-2.332" x2="203.8466" y2="-2.332" gradientTransform="matrix(0.6888 2.946954e-002 2.946954e-002 0.892 -0.9023 14.2058)">
			<stop  offset="0" style="stop-color:#F36D6D"/>
			<stop  offset="1" style="stop-color:#F71B39"/>
		</linearGradient>
		<polygon class="st21" points="137.8,19.7 139.4,17.2 137.2,16.4 135.5,18.3 		"/>
		<polygon class="st2" points="142.6,19.9 145.1,18.9 144.3,17.3 142.4,18.2 		"/>
		<polygon class="st2" points="132.5,17.6 130.5,15.9 129.5,17.4 131.8,18.4 		"/>
		<polygon class="st3" points="135.5,13.5 134.5,12.6 133.3,14.1 135,15.3 		"/>
		<polygon class="st4" points="140.8,14.1 142.5,13.9 141.2,11.8 139.7,13 		"/>
		<polygon class="st5" points="146.7,14.8 149.1,15 148.8,13.7 146.5,14 		"/>
		<polygon class="st4" points="147.6,20 148.2,19.2 146.7,17.8 146.1,19 		"/>
		<polygon class="st5" points="127.6,20.9 130.2,21.3 130,20.1 127.8,19.2 		"/>
	</g>
	<g>
		
			<linearGradient id="SVGID_19_" gradientUnits="userSpaceOnUse" x1="248.4312" y1="-12.3994" x2="254.1096" y2="-12.3994" gradientTransform="matrix(0.6888 2.946954e-002 2.946954e-002 0.892 -0.9023 14.2058)">
			<stop  offset="0" style="stop-color:#F36D6D"/>
			<stop  offset="1" style="stop-color:#F71B39"/>
		</linearGradient>
		<polygon class="st22" points="172.1,12.2 173.8,9.7 171.5,8.9 169.9,10.8 		"/>
		<polygon class="st2" points="177,12.3 179.4,11.3 178.6,9.8 176.7,10.7 		"/>
		<polygon class="st2" points="166.8,10.1 164.8,8.3 163.8,9.8 166.1,10.8 		"/>
		<polygon class="st3" points="169.8,6 168.9,5.1 167.7,6.6 169.4,7.8 		"/>
		<polygon class="st4" points="175.1,6.6 176.8,6.4 175.6,4.3 174,5.5 		"/>
		<polygon class="st5" points="181,7.3 183.4,7.5 183.2,6.2 180.9,6.5 		"/>
		<polygon class="st4" points="181.9,12.4 182.5,11.7 181,10.3 180.5,11.5 		"/>
		<polygon class="st5" points="161.9,13.4 164.5,13.8 164.3,12.6 162.1,11.7 		"/>
	</g>
	<g>
		
			<linearGradient id="SVGID_20_" gradientUnits="userSpaceOnUse" x1="253.5251" y1="5.0318" x2="259.2033" y2="5.0318" gradientTransform="matrix(0.6888 2.946954e-002 2.946954e-002 0.892 -0.9023 14.2058)">
			<stop  offset="0" style="stop-color:#F36D6D"/>
			<stop  offset="1" style="stop-color:#F71B39"/>
		</linearGradient>
		<polygon class="st23" points="176.1,27.9 177.8,25.3 175.6,24.6 173.9,26.4 		"/>
		<polygon class="st2" points="181,28 183.4,27 182.6,25.4 180.7,26.4 		"/>
		<polygon class="st2" points="170.8,25.8 168.9,24 167.9,25.5 170.1,26.5 		"/>
		<polygon class="st3" points="173.8,21.6 172.9,20.8 171.7,22.3 173.4,23.5 		"/>
		<polygon class="st4" points="179.1,22.2 180.8,22.1 179.6,20 178.1,21.1 		"/>
		<polygon class="st5" points="185.1,23 187.4,23.2 187.2,21.9 184.9,22.1 		"/>
		<polygon class="st4" points="185.9,28.1 186.5,27.4 185.1,26 184.5,27.1 		"/>
		<polygon class="st5" points="166,29 168.6,29.4 168.3,28.3 166.2,27.3 		"/>
	</g>
	<g>
		
			<linearGradient id="SVGID_21_" gradientUnits="userSpaceOnUse" x1="206.8313" y1="13.1902" x2="212.5096" y2="13.1902" gradientTransform="matrix(0.6888 2.946954e-002 2.946954e-002 0.892 -0.9023 14.2058)">
			<stop  offset="0" style="stop-color:#F36D6D"/>
			<stop  offset="1" style="stop-color:#F71B39"/>
		</linearGradient>
		<polygon class="st24" points="144.2,33.8 145.8,31.3 143.6,30.5 142,32.4 		"/>
		<polygon class="st2" points="149.1,34 151.5,33 150.7,31.4 148.8,32.3 		"/>
		<polygon class="st2" points="138.9,31.7 137,29.9 135.9,31.4 138.2,32.5 		"/>
		<polygon class="st3" points="141.9,27.6 141,26.7 139.8,28.2 141.4,29.4 		"/>
		<polygon class="st4" points="147.2,28.2 148.9,28 147.7,25.9 146.1,27.1 		"/>
		<polygon class="st5" points="153.1,28.9 155.5,29.1 155.2,27.8 153,28.1 		"/>
		<polygon class="st4" points="154,34 154.6,33.3 153.1,31.9 152.5,33.1 		"/>
		<polygon class="st5" points="134,35 136.6,35.4 136.4,34.2 134.3,33.3 		"/>
	</g>
	<g>
		
			<linearGradient id="SVGID_22_" gradientUnits="userSpaceOnUse" x1="165.356" y1="15.1765" x2="171.0345" y2="15.1765" gradientTransform="matrix(0.6888 2.946954e-002 2.946954e-002 0.892 -0.9023 14.2058)">
			<stop  offset="0" style="stop-color:#F36D6D"/>
			<stop  offset="1" style="stop-color:#F71B39"/>
		</linearGradient>
		<polygon class="st25" points="115.7,34.3 117.3,31.8 115.1,31.1 113.4,32.9 		"/>
		<polygon class="st2" points="120.6,34.5 123,33.5 122.2,31.9 120.3,32.9 		"/>
		<polygon class="st2" points="110.4,32.3 108.4,30.5 107.4,32 109.7,33 		"/>
		<polygon class="st3" points="113.4,28.1 112.5,27.3 111.2,28.8 112.9,29.9 		"/>
		<polygon class="st4" points="118.7,28.7 120.4,28.5 119.1,26.5 117.6,27.6 		"/>
		<polygon class="st5" points="124.6,29.4 127,29.7 126.7,28.4 124.5,28.6 		"/>
		<polygon class="st4" points="125.5,34.6 126.1,33.9 124.6,32.5 124,33.6 		"/>
		<polygon class="st5" points="105.5,35.5 108.1,35.9 107.9,34.8 105.8,33.8 		"/>
	</g>
	<g>
		
			<linearGradient id="SVGID_23_" gradientUnits="userSpaceOnUse" x1="33.4607" y1="-3.6821" x2="39.1354" y2="-3.6821" gradientTransform="matrix(0.5167 2.335853e-002 2.335853e-002 0.6778 67.0795 37.2978)">
			<stop  offset="0" style="stop-color:#F36D6D"/>
			<stop  offset="1" style="stop-color:#F71B39"/>
		</linearGradient>
		<polygon class="st26" points="86,36.9 87.2,35 85.5,34.4 84.3,35.8 		"/>
		<polygon class="st2" points="89.6,37 91.4,36.2 90.8,35.1 89.4,35.8 		"/>
		<polygon class="st2" points="82,35.3 80.5,33.9 79.8,35.1 81.4,35.8 		"/>
		<polygon class="st3" points="84.2,32.1 83.6,31.5 82.6,32.6 83.9,33.6 		"/>
		<polygon class="st4" points="88.2,32.6 89.5,32.5 88.6,30.9 87.4,31.8 		"/>
		<polygon class="st5" points="92.7,33.2 94.4,33.3 94.2,32.4 92.5,32.5 		"/>
		<polygon class="st4" points="93.3,37.1 93.8,36.5 92.7,35.5 92.2,36.3 		"/>
		<polygon class="st5" points="78.3,37.8 80.3,38.1 80.1,37.2 78.5,36.5 		"/>
	</g>
	<g>
		
			<linearGradient id="SVGID_24_" gradientUnits="userSpaceOnUse" x1="208.0737" y1="-0.8483" x2="213.7551" y2="-0.8483" gradientTransform="matrix(0.5167 2.335853e-002 2.335853e-002 0.6778 67.0795 37.2978)">
			<stop  offset="0" style="stop-color:#F36D6D"/>
			<stop  offset="1" style="stop-color:#F71B39"/>
		</linearGradient>
		<polygon class="st27" points="176.3,42.9 177.5,40.9 175.8,40.4 174.6,41.8 		"/>
		<polygon class="st2" points="179.9,43 181.7,42.2 181.1,41 179.7,41.7 		"/>
		<polygon class="st2" points="172.3,41.3 170.8,39.9 170.1,41 171.8,41.8 		"/>
		<polygon class="st3" points="174.5,38.1 173.8,37.5 172.9,38.6 174.2,39.5 		"/>
		<polygon class="st4" points="178.5,38.6 179.8,38.4 178.8,36.9 177.7,37.7 		"/>
		<polygon class="st5" points="182.9,39.2 184.7,39.3 184.6,38.3 182.8,38.5 		"/>
		<polygon class="st4" points="183.6,43 184.1,42.5 183,41.4 182.5,42.3 		"/>
		<polygon class="st5" points="168.6,43.7 170.6,44 170.4,43.2 168.8,42.4 		"/>
	</g>
	<g>
		
			<linearGradient id="SVGID_25_" gradientUnits="userSpaceOnUse" x1="610.6094" y1="543.0278" x2="615.206" y2="543.0278" gradientTransform="matrix(-0.1205 0.503 -0.67 -0.1051 597.6433 -209.9589)">
			<stop  offset="0" style="stop-color:#F36D6D"/>
			<stop  offset="1" style="stop-color:#F71B39"/>
		</linearGradient>
		<polygon class="st28" points="158.4,41.2 160.5,42.5 161.5,41.4 160,40.1 		"/>
		<polygon class="st2" points="157.6,44.1 158.1,45.7 159.7,45.5 159.1,44.2 		"/>
		<polygon class="st2" points="161.1,38.3 163,37.4 161.8,36.6 160.5,37.8 		"/>
		<polygon class="st3" points="164.5,40.7 165.4,40.3 164.2,39.3 162.8,40.2 		"/>
		<polygon class="st4" points="163.1,43.8 163.1,44.8 165.1,44.4 164.3,43.3 		"/>
		<polygon class="st5" points="161.6,47.2 161.1,48.6 162.3,48.7 162.4,47.3 		"/>
		<polygon class="st4" points="156.8,47.1 157.4,47.5 158.9,46.8 157.9,46.3 		"/>
		<polygon class="st5" points="158.8,35 158,36.5 159.1,36.5 160.3,35.3 		"/>
	</g>
	<g>
		
			<linearGradient id="SVGID_26_" gradientUnits="userSpaceOnUse" x1="634.1372" y1="673.9542" x2="638.7337" y2="673.9542" gradientTransform="matrix(-0.1205 0.503 -0.67 -0.1051 597.6433 -209.9589)">
			<stop  offset="0" style="stop-color:#F36D6D"/>
			<stop  offset="1" style="stop-color:#F71B39"/>
		</linearGradient>
		<polygon class="st29" points="67.9,39.3 69.9,40.6 70.9,39.4 69.5,38.2 		"/>
		<polygon class="st2" points="67,42.2 67.6,43.8 69.2,43.5 68.6,42.3 		"/>
		<polygon class="st2" points="70.6,36.4 72.5,35.5 71.3,34.7 70,35.9 		"/>
		<polygon class="st3" points="74,38.8 74.8,38.4 73.6,37.4 72.3,38.3 		"/>
		<polygon class="st4" points="72.6,41.9 72.5,42.9 74.6,42.5 73.8,41.4 		"/>
		<polygon class="st5" points="71.1,45.3 70.6,46.7 71.8,46.8 71.9,45.4 		"/>
		<polygon class="st4" points="66.3,45.1 66.9,45.6 68.3,44.9 67.3,44.4 		"/>
		<polygon class="st5" points="68.2,33.1 67.5,34.5 68.6,34.6 69.8,33.4 		"/>
	</g>
	<g>
		
			<linearGradient id="SVGID_27_" gradientUnits="userSpaceOnUse" x1="626.5579" y1="629.8596" x2="631.1544" y2="629.8596" gradientTransform="matrix(-0.1205 0.503 -0.67 -0.1051 597.6433 -209.9589)">
			<stop  offset="0" style="stop-color:#F36D6D"/>
			<stop  offset="1" style="stop-color:#F71B39"/>
		</linearGradient>
		<polygon class="st30" points="98.3,40.1 100.4,41.4 101.4,40.3 99.9,39 		"/>
		<polygon class="st2" points="97.5,43 98.1,44.6 99.6,44.4 99.1,43.1 		"/>
		<polygon class="st2" points="101,37.2 103,36.3 101.7,35.5 100.4,36.7 		"/>
		<polygon class="st3" points="104.4,39.6 105.3,39.2 104.1,38.3 102.8,39.1 		"/>
		<polygon class="st4" points="103.1,42.7 103,43.7 105.1,43.3 104.3,42.2 		"/>
		<polygon class="st5" points="101.6,46.1 101,47.5 102.3,47.6 102.3,46.2 		"/>
		<polygon class="st4" points="96.7,46 97.3,46.4 98.8,45.7 97.8,45.2 		"/>
		<polygon class="st5" points="98.7,33.9 98,35.4 99.1,35.4 100.3,34.2 		"/>
	</g>
	<g>
		
			<linearGradient id="SVGID_28_" gradientUnits="userSpaceOnUse" x1="624.9711" y1="564.8585" x2="629.5676" y2="564.8585" gradientTransform="matrix(-0.1205 0.503 -0.67 -0.1051 597.6433 -209.9589)">
			<stop  offset="0" style="stop-color:#F36D6D"/>
			<stop  offset="1" style="stop-color:#F71B39"/>
		</linearGradient>
		<polygon class="st31" points="142.1,46.1 144.1,47.5 145.1,46.3 143.7,45 		"/>
		<polygon class="st2" points="141.2,49 141.8,50.6 143.4,50.4 142.8,49.1 		"/>
		<polygon class="st2" points="144.8,43.3 146.7,42.4 145.5,41.5 144.2,42.7 		"/>
		<polygon class="st3" points="148.2,45.7 149.1,45.2 147.8,44.3 146.5,45.1 		"/>
		<polygon class="st4" points="146.8,48.7 146.7,49.8 148.8,49.3 148,48.3 		"/>
		<polygon class="st5" points="145.3,52.2 144.8,53.6 146,53.6 146.1,52.2 		"/>
		<polygon class="st4" points="140.5,52 141.1,52.4 142.5,51.8 141.5,51.3 		"/>
		<polygon class="st5" points="142.4,39.9 141.7,41.4 142.8,41.4 144,40.3 		"/>
	</g>
	<g>
		
			<linearGradient id="SVGID_29_" gradientUnits="userSpaceOnUse" x1="634.6091" y1="604.0863" x2="639.2056" y2="604.0863" gradientTransform="matrix(-0.1205 0.503 -0.67 -0.1051 597.6433 -209.9589)">
			<stop  offset="0" style="stop-color:#F36D6D"/>
			<stop  offset="1" style="stop-color:#F71B39"/>
		</linearGradient>
		<polygon class="st32" points="114.6,46.9 116.7,48.2 117.7,47 116.3,45.7 		"/>
		<polygon class="st2" points="113.8,49.8 114.4,51.3 115.9,51.1 115.3,49.8 		"/>
		<polygon class="st2" points="117.3,44 119.2,43.1 118,42.3 116.8,43.5 		"/>
		<polygon class="st3" points="120.7,46.4 121.6,46 120.4,45 119.1,45.9 		"/>
		<polygon class="st4" points="119.4,49.5 119.3,50.5 121.4,50.1 120.5,49 		"/>
		<polygon class="st5" points="117.9,52.9 117.3,54.3 118.6,54.4 118.6,52.9 		"/>
		<polygon class="st4" points="113,52.7 113.6,53.2 115.1,52.5 114.1,52 		"/>
		<polygon class="st5" points="115,40.6 114.3,42.1 115.4,42.2 116.5,41 		"/>
	</g>
	<g>
		
			<linearGradient id="SVGID_30_" gradientUnits="userSpaceOnUse" x1="660.1332" y1="720.9891" x2="664.7297" y2="720.9891" gradientTransform="matrix(-0.1205 0.503 -0.67 -0.1051 597.6433 -209.9589)">
			<stop  offset="0" style="stop-color:#F36D6D"/>
			<stop  offset="1" style="stop-color:#F71B39"/>
		</linearGradient>
		<polygon class="st33" points="33.2,47.4 35.3,48.8 36.3,47.6 34.8,46.3 		"/>
		<polygon class="st2" points="32.4,50.3 32.9,51.9 34.5,51.7 33.9,50.4 		"/>
		<polygon class="st2" points="35.9,44.5 37.8,43.6 36.6,42.8 35.3,44 		"/>
		<polygon class="st3" points="39.3,46.9 40.2,46.5 39,45.6 37.6,46.4 		"/>
		<polygon class="st4" points="37.9,50 37.9,51.1 39.9,50.6 39.1,49.5 		"/>
		<polygon class="st5" points="36.4,53.4 35.9,54.9 37.1,54.9 37.2,53.5 		"/>
		<polygon class="st4" points="31.6,53.3 32.2,53.7 33.7,53 32.7,52.5 		"/>
		<polygon class="st5" points="33.6,41.2 32.8,42.7 33.9,42.7 35.1,41.5 		"/>
	</g>
	<g>
		
			<linearGradient id="SVGID_31_" gradientUnits="userSpaceOnUse" x1="648.9735" y1="653.2232" x2="653.57" y2="653.2232" gradientTransform="matrix(-0.1205 0.503 -0.67 -0.1051 597.6433 -209.9589)">
			<stop  offset="0" style="stop-color:#F36D6D"/>
			<stop  offset="1" style="stop-color:#F71B39"/>
		</linearGradient>
		<polygon class="st34" points="79.9,48.9 82,50.3 83.1,49.1 81.5,47.8 		"/>
		<polygon class="st2" points="79.1,51.8 79.7,53.4 81.2,53.2 80.7,51.9 		"/>
		<polygon class="st2" points="82.6,46.1 84.6,45.1 83.3,44.3 82.1,45.5 		"/>
		<polygon class="st3" points="86,48.4 86.9,48 85.7,47.1 84.4,47.9 		"/>
		<polygon class="st4" points="84.7,51.5 84.6,52.6 86.7,52.1 85.9,51 		"/>
		<polygon class="st5" points="83.2,54.9 82.6,56.4 83.9,56.4 83.9,55 		"/>
		<polygon class="st4" points="78.3,54.8 78.9,55.2 80.4,54.5 79.4,54 		"/>
		<polygon class="st5" points="80.3,42.7 79.6,44.2 80.7,44.2 81.9,43 		"/>
	</g>
	<g>
		
			<linearGradient id="SVGID_32_" gradientUnits="userSpaceOnUse" x1="684.1218" y1="756.2313" x2="688.718" y2="756.2313" gradientTransform="matrix(-0.1205 0.503 -0.67 -0.1051 597.6433 -209.9589)">
			<stop  offset="0" style="stop-color:#F36D6D"/>
			<stop  offset="1" style="stop-color:#F71B39"/>
		</linearGradient>
		<polygon class="st35" points="6.7,55.8 8.8,57.1 9.8,55.9 8.3,54.7 		"/>
		<polygon class="st2" points="5.8,58.7 6.4,60.3 8,60 7.4,58.7 		"/>
		<polygon class="st2" points="9.4,52.9 11.3,52 10.1,51.2 8.8,52.4 		"/>
		<polygon class="st3" points="12.7,55.3 13.7,54.9 12.4,53.9 11.1,54.8 		"/>
		<polygon class="st4" points="11.4,58.4 11.4,59.4 13.4,59 12.6,57.9 		"/>
		<polygon class="st5" points="9.9,61.8 9.4,63.2 10.6,63.3 10.7,61.8 		"/>
		<polygon class="st4" points="5.1,61.6 5.7,62.1 7.2,61.4 6.2,60.9 		"/>
		<polygon class="st5" points="7.1,49.5 6.3,51 7.4,51.1 8.6,49.9 		"/>
	</g>
	<g>
		
			<linearGradient id="SVGID_33_" gradientUnits="userSpaceOnUse" x1="674.0322" y1="737.9692" x2="678.6287" y2="737.9692" gradientTransform="matrix(-0.1205 0.503 -0.67 -0.1051 597.6433 -209.9589)">
			<stop  offset="0" style="stop-color:#F36D6D"/>
			<stop  offset="1" style="stop-color:#F71B39"/>
		</linearGradient>
		<polygon class="st36" points="20.2,52.6 22.2,54 23.2,52.8 21.8,51.5 		"/>
		<polygon class="st2" points="19.3,55.5 19.9,57.1 21.4,56.9 20.8,55.6 		"/>
		<polygon class="st2" points="22.8,49.8 24.7,48.8 23.5,48 22.2,49.2 		"/>
		<polygon class="st3" points="26.2,52.1 27.1,51.7 25.9,50.8 24.6,51.6 		"/>
		<polygon class="st4" points="24.9,55.2 24.8,56.3 26.9,55.8 26.1,54.8 		"/>
		<polygon class="st5" points="23.4,58.6 22.9,60.1 24.1,60.1 24.2,58.7 		"/>
		<polygon class="st4" points="18.5,58.5 19.1,58.9 20.6,58.2 19.6,57.7 		"/>
		<polygon class="st5" points="20.5,46.4 19.8,47.9 20.9,47.9 22,46.8 		"/>
	</g>
	<g>
		
			<linearGradient id="SVGID_34_" gradientUnits="userSpaceOnUse" x1="606.8069" y1="348.0795" x2="611.3965" y2="348.0795" gradientTransform="matrix(-0.1612 0.501 -0.9559 -0.1191 614.6244 -209.1285)">
			<stop  offset="0" style="stop-color:#F36D6D"/>
			<stop  offset="1" style="stop-color:#F71B39"/>
		</linearGradient>
		<polygon class="st37" points="181.5,54.5 184.5,55.9 185.9,54.7 183.8,53.4 		"/>
		<polygon class="st2" points="180.4,57.4 181.3,59 183.5,58.8 182.6,57.5 		"/>
		<polygon class="st2" points="185.2,51.7 188,50.8 186.2,49.9 184.4,51.1 		"/>
		<polygon class="st3" points="190.1,54.1 191.5,53.7 189.7,52.8 187.8,53.6 		"/>
		<polygon class="st4" points="188.3,57.2 188.3,58.2 191.2,57.8 190,56.7 		"/>
		<polygon class="st5" points="186.3,60.6 185.6,62 187.3,62.1 187.4,60.6 		"/>
		<polygon class="st4" points="179.4,60.3 180.2,60.8 182.3,60.1 180.9,59.6 		"/>
		<polygon class="st5" points="181.9,48.3 180.9,49.7 182.4,49.8 184.1,48.7 		"/>
	</g>
	<g>
		
			<linearGradient id="SVGID_35_" gradientUnits="userSpaceOnUse" x1="1162.5178" y1="242.9001" x2="1167.7181" y2="242.9001" gradientTransform="matrix(-0.4884 0.1962 -0.5193 -0.8114 863.0742 21.7259)">
			<stop  offset="0" style="stop-color:#F36D6D"/>
			<stop  offset="1" style="stop-color:#F71B39"/>
		</linearGradient>
		<polygon class="st38" points="166.5,51.8 167.2,54.6 169.2,54.7 169.1,52.6 		"/>
		<polygon class="st2" points="163.1,53 162.1,54.5 163.8,55.8 164.4,54.4 		"/>
		<polygon class="st2" points="171.6,52.4 174.2,53.5 173.9,51.8 171.6,51.5 		"/>
		<polygon class="st3" points="172.4,57 173.7,57.5 173.4,55.8 171.5,55.2 		"/>
		<polygon class="st4" points="168.4,57.8 167.4,58.4 169.6,60 169.9,58.6 		"/>
		<polygon class="st5" points="163.8,58.7 162.1,59.1 163.1,60.3 164.5,59.4 		"/>
		<polygon class="st4" points="159.7,54.2 159.8,55 161.8,55.9 161.3,54.7 		"/>
		<polygon class="st5" points="172.7,48.1 170.7,48.4 171.6,49.4 173.7,49.7 		"/>
	</g>
</g>
<rect y="10.8" class="st39" width="192" height="27.5"/>
</svg>
