<?xml version="1.0" encoding="utf-8"?>
<!-- Generator: Adobe Illustrator 19.2.0, SVG Export Plug-In . SVG Version: 6.00 Build 0)  -->
<svg version="1.1" id="OBJECTS" xmlns="http://www.w3.org/2000/svg" xmlns:xlink="http://www.w3.org/1999/xlink" x="0px" y="0px"
	 viewBox="0 0 1338.1 319.8" style="enable-background:new 0 0 1338.1 319.8;" xml:space="preserve">
<style type="text/css">
	.st0{clip-path:url(#SVGID_2_);}
	.st1{fill:#9B59B6;}
	.st2{fill:url(#SVGID_3_);}
	.st3{fill:url(#SVGID_4_);}
	.st4{fill:url(#SVGID_5_);}
	.st5{fill:url(#SVGID_6_);}
	.st6{fill:#807287;}
	.st7{fill:#8F23FF;}
	.st8{fill:#FF8F2A;}
	.st9{fill:#046300;}
	.st10{display:none;}
	.st11{display:inline;fill:url(#SVGID_7_);}
	.st12{display:inline;}
	.st13{fill:#2ECC71;}
	.st14{fill:url(#SVGID_8_);}
	.st15{display:inline;fill:url(#SVGID_9_);}
	.st16{display:inline;fill:#2ECC71;}
	.st17{display:inline;fill:url(#SVGID_10_);}
	.st18{fill:url(#SVGID_11_);}
	.st19{clip-path:url(#SVGID_13_);}
	.st20{fill:#C0392B;}
	.st21{fill:#E74C3C;}
	.st22{clip-path:url(#SVGID_15_);}
	.st23{fill:#2980B9;}
	.st24{fill:#3498DB;}
	.st25{clip-path:url(#SVGID_17_);}
	.st26{fill:#BDC3C7;}
	.st27{fill:#ECF0F1;}
	.st28{clip-path:url(#SVGID_19_);}
	.st29{fill:#27AE60;}
	.st30{clip-path:url(#SVGID_21_);}
	.st31{fill:#E19626;}
	.st32{fill:#FAAE3E;}
</style>
<g>
	<g>
		<g>
			<g>
				<defs>
					<rect id="SVGID_1_" x="2" width="1336.1" height="319.8"/>
				</defs>
				<clipPath id="SVGID_2_">
					<use xlink:href="#SVGID_1_"  style="overflow:visible;"/>
				</clipPath>
				<g class="st0">
					<g>
						<path class="st1" d="M51.3,90.2c-5.3-4.9-10.4-9.4-15.4-14.5c-6.7,3.4-13.4,6.9-20.3,10c3.1-13.5,6.1-27.1,9.1-40.5
							c11,1.9,22,3.5,33,4.7C55.6,63.5,53.4,76.6,51.3,90.2z"/>
						<g>
							
								<linearGradient id="SVGID_3_" gradientUnits="userSpaceOnUse" x1="457.6069" y1="-148.427" x2="418.3638" y2="-154.4645" gradientTransform="matrix(1.0989 0.1797 0.2284 -1.0567 -356.0726 -166.2958)">
								<stop  offset="0" style="stop-color:#FFD866"/>
								<stop  offset="1" style="stop-color:#FFC419"/>
							</linearGradient>
							<path class="st2" d="M103.2,93.5c-5.8-4.4-11.4-9-16.8-13.6c-6.2,4-12.7,8-19.2,11.8C68.9,78,70.7,65,72.4,51.3
								c11.1,0.9,22.1,1.4,33.2,1.7C104.9,66.7,104,79.8,103.2,93.5z"/>
						</g>
						<g>
							
								<linearGradient id="SVGID_4_" gradientUnits="userSpaceOnUse" x1="494.0071" y1="-140.0448" x2="462.8604" y2="-150.0921" gradientTransform="matrix(1.0989 0.1797 0.2284 -1.0567 -356.0726 -166.2958)">
								<stop  offset="0" style="stop-color:#F36D6D"/>
								<stop  offset="1" style="stop-color:#F71B39"/>
							</linearGradient>
							<path class="st3" d="M155.3,92.7c-6.2-3.9-12.3-8.5-18.2-12.6c-5.8,4.6-11.7,9.6-17.8,14c0.4-14.3,0.8-28.1,1-41.2
								c11.1-0.1,22.1-0.5,33.1-1.3C154.1,64.8,154.7,78.5,155.3,92.7z"/>
						</g>
						<path class="st1" d="M206.9,86.8c-6.5-3.3-13.1-7.4-19.3-10.9c-5.3,5.1-10.7,10.6-16.4,15.5c-1.1-14.3-2.1-27.9-3-41
							c11-1.1,22-2.5,32.9-4.3C203,59.2,204.9,72.7,206.9,86.8z"/>
						
							<linearGradient id="SVGID_5_" gradientUnits="userSpaceOnUse" x1="580.0724" y1="-109.1585" x2="551.9986" y2="-125.2007" gradientTransform="matrix(1.0989 0.1797 0.2284 -1.0567 -356.0726 -166.2958)">
							<stop  offset="0" style="stop-color:#FFD866"/>
							<stop  offset="1" style="stop-color:#FFC419"/>
						</linearGradient>
						<path class="st4" d="M257.8,76.4c-6.9-2.7-13.7-6.2-20.3-9.2c-4.8,5.5-9.7,11.5-14.9,16.9c-2.5-14.1-4.8-27.5-7-40.3
							c10.9-2,21.7-4.4,32.5-7.1C251.1,49.3,254.5,62.5,257.8,76.4z"/>
						
							<linearGradient id="SVGID_6_" gradientUnits="userSpaceOnUse" x1="622.8159" y1="-89.4967" x2="586.6062" y2="-108.6074" gradientTransform="matrix(1.0989 0.1797 0.2284 -1.0567 -356.0726 -166.2958)">
							<stop  offset="0" style="stop-color:#F36D6D"/>
							<stop  offset="1" style="stop-color:#F71B39"/>
						</linearGradient>
						<path class="st5" d="M307.8,61.5c-7.2-2.1-14.3-4.9-21.1-7.2c-4.3,5.9-8.7,12.2-13.3,18.1c-3.8-13.7-7.5-26.9-10.9-39.5
							c10.7-3,21.3-6.4,31.8-10C298.5,35.2,303,48,307.8,61.5z"/>
						<g>
							<path class="st1" d="M356.3,41.5c-7.4-1.4-14.7-3-21.8-4.7c-3.7,6.2-7.7,12.4-11.8,18.6c-5-12.7-9.8-24.9-14.8-37.6
								c10.4-3.9,20.8-8.2,30.9-12.7C344.7,17.4,350.4,29.2,356.3,41.5z"/>
						</g>
						<g>
							<path class="st6" d="M215.9,44.9c-25.5,4.4-51.9,7.2-79.2,8.2c-79.6,3-139-9.8-139.5-9.9l0.5-1.8c0.6,0.1,59.8,12.8,139,9.9
								c73.1-2.8,178.8-19.9,267.1-85.8L405-33c-39.2,29.2-85,51.4-136.1,66C251.8,37.7,234,41.8,215.9,44.9z"/>
						</g>
					</g>
					<g>
						<g>
							<path class="st7" d="M544.6,72.9c-5.8-7.6-11.3-15.4-16.7-23.2c-9.3,3.4-18.8,6.6-28.4,9.6c6.9-17.5,13.7-34.1,20.6-51.5
								c13.8,4.6,27.6,8.8,41.6,12.5C555.9,38.1,550.3,55.2,544.6,72.9z"/>
						</g>
						<g>
							<path class="st8" d="M610.9,88.2c-6.5-7.1-12.7-15-18.8-22.2c-9,4.2-18.2,9.1-27.4,12.9c5.5-18.8,10.6-36.7,15.6-53.9
								c14.1,3.3,28.2,6.2,42.6,8.6C619,51,614.9,69.1,610.9,88.2z"/>
						</g>
						<path class="st9" d="M678.3,96.4c-7.2-6.4-14-13.7-20.7-20.4c-8.5,5-17.3,10.6-26.2,15.3c3.6-19.1,7-37.3,10.3-54.8
							c14.4,2,28.8,3.6,43.2,4.6C682.9,58.7,680.7,77.2,678.3,96.4z"/>
						<path class="st7" d="M746.6,98.4c-7.7-5.7-15.3-12.4-22.6-18.3c-8,5.7-16.4,12-24.8,17.6c1.7-19.3,3.4-37.7,5.1-55.4
							c14.5,0.7,29.1,0.9,43.7,0.7C747.5,60.6,747.1,79.1,746.6,98.4z"/>
						<path class="st8" d="M815.2,94.3c-8.3-5-16.4-10.9-24.3-16.1c-7.5,6.3-15.3,13.4-23.2,19.6c-0.2-19.2-0.2-37.7-0.3-55.4
							c14.6-0.6,29.2-1.7,43.7-3.2C812.4,56.8,813.8,75.1,815.2,94.3z"/>
						<g>
							<path class="st9" d="M883.6,83.2c-8.8-4.1-17.6-8.6-26-13c-6.9,7-14,13.9-21.3,20.8c-1.9-18.3-3.9-35.9-5.8-54.1
								c14.6-1.9,29.2-4.3,43.6-7.2C877.2,47.8,880.5,65.1,883.6,83.2z"/>
						</g>
						<g>
							<path class="st7" d="M951.3,67.4c-9.3-3.3-18.5-6.8-27.5-10.4c-6.2,7.6-12.6,14.3-19.3,21.8c-3.7-18-7.5-35.1-11.1-53.1
								c14.5-3.2,28.9-7,43.1-11.2C941.4,32,946.3,49.7,951.3,67.4z"/>
						</g>
						<g>
							<path class="st6" d="M700.5,39.1c-42.9-1.9-86.8-6.8-131-15.2C440.4-0.1,351.1-44,350.2-44.5l1.6-2.9c1,0.4,90,44,218.6,68.2
								C689.1,43,866.8,52.7,1039.5-27.6l1.1,2.8C964.1,10.9,880,32,790.9,37.9C761.5,40,731.2,40.4,700.5,39.1z"/>
						</g>
					</g>
					<g class="st10">
						
							<linearGradient id="SVGID_7_" gradientUnits="userSpaceOnUse" x1="432.9563" y1="-213.131" x2="393.6657" y2="-215.1459" gradientTransform="matrix(1.0989 0.1797 0.2284 -1.0567 -356.0726 -166.2958)">
							<stop  offset="0" style="stop-color:#F36D6D"/>
							<stop  offset="1" style="stop-color:#F71B39"/>
						</linearGradient>
						<path class="st11" d="M64.7,160.6c-6.3-5.8-12.2-11-18-17c-7.8,4-15.7,8-23.9,11.8c3.6-15.8,7.2-31.7,10.8-47.5
							c12.9,2.2,25.7,4.1,38.7,5.4C69.7,129.3,67.2,144.7,64.7,160.6z"/>
						<g class="st12">
							<path class="st13" d="M125.6,164.4c-6.8-5.2-13.3-10.5-19.8-16c-7.3,4.7-14.8,9.4-22.5,13.8c2-16,4.1-31.3,6.2-47.3
								c13,1.1,26,1.7,38.9,2C127.5,133,126.5,148.4,125.6,164.4z"/>
						</g>
						<g class="st12">
							
								<linearGradient id="SVGID_8_" gradientUnits="userSpaceOnUse" x1="540.5239" y1="-199.5589" x2="497.1769" y2="-204.5993" gradientTransform="matrix(1.0989 0.1797 0.2284 -1.0567 -356.0726 -166.2958)">
								<stop  offset="0" style="stop-color:#FFD866"/>
								<stop  offset="1" style="stop-color:#FFC419"/>
							</linearGradient>
							<path class="st14" d="M186.6,163.6c-7.3-4.6-14.4-9.9-21.4-14.8c-6.8,5.3-13.7,11.3-20.9,16.4c0.5-16.8,0.9-32.8,1.3-48.3
								c13-0.1,25.9-0.6,38.9-1.5C185.1,130.8,185.8,146.8,186.6,163.6z"/>
						</g>
						
							<linearGradient id="SVGID_9_" gradientUnits="userSpaceOnUse" x1="586.876" y1="-188.8285" x2="546.5766" y2="-189.836" gradientTransform="matrix(1.0989 0.1797 0.2284 -1.0567 -356.0726 -166.2958)">
							<stop  offset="0" style="stop-color:#F36D6D"/>
							<stop  offset="1" style="stop-color:#F71B39"/>
						</linearGradient>
						<path class="st15" d="M247,156.6c-7.7-3.9-15.3-8.6-22.6-12.8c-6.3,5.9-12.6,12.4-19.3,18.2c-1.2-16.7-2.4-32.7-3.5-48
							c12.9-1.2,25.8-2.9,38.6-5C242.4,124.2,244.7,140.1,247,156.6z"/>
						<path class="st16" d="M306.8,144.4c-8-3.2-16.1-7.3-23.8-10.7c-5.7,6.4-11.5,13.4-17.5,19.8c-2.9-16.5-5.6-32.3-8.2-47.4
							c12.8-2.4,25.4-5.2,38.1-8.4C298.9,112.6,302.8,128.1,306.8,144.4z"/>
						
							<linearGradient id="SVGID_10_" gradientUnits="userSpaceOnUse" x1="683.7388" y1="-143.6655" x2="645.4239" y2="-153.7484" gradientTransform="matrix(1.0989 0.1797 0.2284 -1.0567 -356.0726 -166.2958)">
							<stop  offset="0" style="stop-color:#FFD866"/>
							<stop  offset="1" style="stop-color:#FFC419"/>
						</linearGradient>
						<path class="st17" d="M365.3,126.9c-8.4-2.5-16.8-5.8-24.8-8.5c-5.1,6.8-10.2,14.4-15.7,21.1c-4.5-16.1-8.8-31.5-12.9-46.3
							c12.5-3.5,25-7.4,37.2-11.6C354.3,96.1,359.7,111.1,365.3,126.9z"/>
						<g class="st12">
							
								<linearGradient id="SVGID_11_" gradientUnits="userSpaceOnUse" x1="721.8879" y1="-118.4672" x2="689.6293" y2="-127.5399" gradientTransform="matrix(1.0989 0.1797 0.2284 -1.0567 -356.0726 -166.2958)">
								<stop  offset="0" style="stop-color:#F36D6D"/>
								<stop  offset="1" style="stop-color:#F71B39"/>
							</linearGradient>
							<path class="st18" d="M422.2,103.6c-8.6-1.6-17.2-3.6-25.5-5.5c-4.4,7.3-9,14.5-13.7,21.8c-5.8-14.9-11.5-29.2-17.3-44.1
								c12.2-4.6,24.3-9.6,36.2-14.9C408.6,75.3,415.4,89.1,422.2,103.6z"/>
						</g>
						<g class="st12">
							<path class="st13" d="M477.3,76.5c-8.9-0.9-17.6-1.9-26.2-3.1c-3.7,7.6-7.7,14.5-11.8,22.2c-7.3-14.3-14.5-27.9-21.7-42.1
								c11.8-5.7,23.5-11.8,34.9-18.2C460.7,48.9,469,62.7,477.3,76.5z"/>
						</g>
						<g class="st12">
							<path class="st6" d="M268.6,101.7c-34.6,7.4-70.4,12.5-107.3,14.8c-107.5,7.3-187.4-9.6-188.2-9.7l0.7-2.6
								c0.8,0.2,80.4,16.9,187.6,9.7c99-6.7,242.3-35.7,363.8-136.2l1.5,2.1C472.8,24.3,410.1,58.7,340.4,82
								C317.4,89.8,293.4,96.3,268.6,101.7z"/>
						</g>
					</g>
				</g>
			</g>
		</g>
	</g>
	<g>
		<g>
			<g>
				<defs>
					<rect id="SVGID_12_" x="552.7" y="0.1" width="913.3" height="170.7"/>
				</defs>
				<clipPath id="SVGID_13_">
					<use xlink:href="#SVGID_12_"  style="overflow:visible;"/>
				</clipPath>
				<g class="st19">
					<g>
						<path class="st20" d="M1112.7,22.8c0,0-2.9,3,0.9,6s19.3,8.4,19.3,8.4L1155,44l11.8,5.2c0,0,4.9-2.7-1.1-5.8
							c-6-3-18.5-6.7-18.5-6.7l-22.9-7.1C1124.2,29.6,1113.1,25,1112.7,22.8z"/>
						<path class="st20" d="M1114.3,64.9c0,0,7.4,3.3,21.2,6.8c12.6,3.3,26.8,6.8,28.4,9.2c0,0,2.6-4.9,0.1-6.4
							c-2.5-1.4-7.2-3.3-16.1-5.3c-8.8-2.1-24.7-6.4-25.7-6.7C1120.4,62.5,1114.3,64.9,1114.3,64.9z"/>
						<path class="st20" d="M1122.3,85.2c0,0,2.4-1,11.6-0.7s23.9,2.4,28.3,5.1s0.9,5.3,0.9,5.3s-10.1-4.1-15.3-4.3
							c-5.1-0.3-25.4,0.5-25.4,0.5L1122.3,85.2z"/>
						<g>
							<path class="st21" d="M1165.1,77.1c0,0-2.5,5.7-6.4,6.7s-29.4,4.8-36.4,1.4v5.9c0,0,6.9,2.3,17.6,0.9
								c10.8-1.4,16.5-2.4,20.4-3.2c4-0.8,4.9-3.7,4.9-3.7L1165.1,77.1z"/>
						</g>
						<path class="st20" d="M1127.3,100c0,0,3-1.8,9.6-1.4s19.1,0.3,22.7,4.7c-1,2.5-4.2,2.9-4.2,2.9s-2.9-1.3-6.3-1.7
							c-3.3-0.4-22.1,0.8-22.1,0.8L1127.3,100z"/>
						<g>
							<path class="st21" d="M1164.3,92.3c0,0-4.1,5-8.2,5.8s-20.8,3.8-28.7,2.2c-0.1,1.8-0.5,5.1-0.5,5.1s6.2,1.2,12.6,0.3
								s16.1-2.3,19.1-3.6c3.1-1.2,4.9-2.8,4.9-2.8L1164.3,92.3z"/>
						</g>
						<g>
							<path class="st21" d="M1159.6,103.2c0,0-7.5,5.8-16.9,5c-0.8,1.4-2.3,4.9-2.3,4.9s6.4,0.1,12.5-1.4c6.2-1.4,5.7-2.3,5.7-2.3
								L1159.6,103.2z"/>
						</g>
						<g>
							<path class="st21" d="M1168.5,45.9c0,0-0.6,5.8-8.3,6.8c-33.3,4.5-45.6,7.3-45.6,7.3l-0.3,4.9c0,0,6.8-1.8,25.4-4.2
								s26.3-3.9,28.2-7C1169.8,50.6,1168.5,45.9,1168.5,45.9z"/>
						</g>
						<g>
							<path class="st21" d="M1122.8,16.5c11.1-7.1,28.9-17.2,32.1-19.1h-12.2c0,0-34.7,19-31,28.4
								C1111.6,25.8,1116.3,20.7,1122.8,16.5z"/>
						</g>
					</g>
				</g>
			</g>
		</g>
	</g>
	<g>
		<g>
			<g>
				<defs>
					<rect id="SVGID_14_" x="302" width="1504" height="319.8"/>
				</defs>
				<clipPath id="SVGID_15_">
					<use xlink:href="#SVGID_14_"  style="overflow:visible;"/>
				</clipPath>
				<g class="st22">
					<g>
						<path class="st23" d="M989.1,24.5c0,0-2.8,3.7,0.9,7.2c3.7,3.6,18.8,10.2,18.8,10.2l21.6,8.1l11.5,6.2c0,0,4.7-3.3-1.1-6.9
							c-5.9-3.7-18.1-8.1-18.1-8.1l-22.4-8.5C1000.4,32.7,989.6,27.1,989.1,24.5z"/>
						<path class="st23" d="M990.7,75.1c0,0,7.3,3.9,20.7,8.2c12.4,3.9,26.2,8.1,27.8,11c0,0,2.6-5.9,0.1-7.6s-7-3.9-15.6-6.4
							c-8.7-2.5-24.1-7.7-25.1-8C996.6,72.2,990.7,75.1,990.7,75.1z"/>
						<path class="st23" d="M998.4,99.5c0,0,2.4-1.2,11.3-0.8c8.9,0.4,23.4,2.8,27.7,6.1c4.3,3.3,0.9,6.3,0.9,6.3s-9.9-4.9-15-5.2
							c-5.1-0.3-24.9,0.6-24.9,0.6V99.5z"/>
						<g>
							<path class="st24" d="M1040.3,89.8c0,0-2.4,6.8-6.2,8.1c-3.8,1.3-28.7,5.8-35.6,1.6v7.1c0,0,6.8,2.8,17.2,1
								c10.5-1.7,16.1-2.9,19.9-3.9s4.7-4.4,4.7-4.4V89.8z"/>
						</g>
						<path class="st23" d="M1003.4,117.4c0,0,2.9-2.2,9.5-1.7c6.5,0.4,18.6,0.4,22.2,5.6c-1,3-4.2,3.4-4.2,3.4s-2.8-1.6-6.1-2
							c-3.3-0.4-21.6,1-21.6,1L1003.4,117.4z"/>
						<g>
							<path class="st24" d="M1039.5,108c0,0-3.9,6-8,6.9c-4.1,1-20.3,4.6-28,2.6c-0.1,2.2-0.5,6.1-0.5,6.1s6,1.4,12.4,0.4
								s15.6-2.8,18.7-4.3c3-1.5,4.8-3.4,4.8-3.4L1039.5,108z"/>
						</g>
						<g>
							<path class="st24" d="M1034.9,121.2c0,0-7.3,7-16.5,6c-0.8,1.7-2.3,5.8-2.3,5.8s6.2,0.1,12.3-1.6c6-1.7,5.6-2.8,5.6-2.8
								L1034.9,121.2z"/>
						</g>
						<g>
							<path class="st24" d="M1043.6,52.2c0,0-0.7,6.9-8.1,8.2c-32.5,5.4-44.6,8.8-44.6,8.8l-0.2,5.9c0,0,6.6-2.1,24.8-5.1
								c18.1-3,25.8-4.8,27.6-8.4C1044.8,57.9,1043.6,52.2,1043.6,52.2z"/>
						</g>
						<g>
							<path class="st24" d="M999,17c10.8-8.5,28.3-20.6,31.4-23h-11.9c0,0-33.8,22.8-30.4,34.1C988.1,28.1,992.6,22,999,17z"/>
						</g>
					</g>
				</g>
			</g>
		</g>
	</g>
	<g class="st10">
		<g class="st12">
			<g>
				<defs>
					<rect id="SVGID_16_" x="2" width="1336.1" height="319.8"/>
				</defs>
				<clipPath id="SVGID_17_">
					<use xlink:href="#SVGID_16_"  style="overflow:visible;"/>
				</clipPath>
				<g class="st25">
					<g>
						<path class="st26" d="M767.4,22.8c0,0-2.4,3.4,0.7,6.8c3.1,3.4,15.9,9.6,15.9,9.6l18.2,7.7l9.7,5.8c0,0,4-3.1-0.9-6.5
							s-15.3-7.6-15.3-7.6l-18.9-8C776.9,30.5,767.8,25.2,767.4,22.8z"/>
						<path class="st26" d="M768.7,70.4c0,0,6.1,3.7,17.4,7.7c10.4,3.7,22.1,7.7,23.4,10.4c0,0,2.2-5.6,0.1-7.2
							c-2.1-1.6-5.9-3.7-13.2-6.1s-20.3-7.2-21.1-7.6C773.8,67.7,768.7,70.4,768.7,70.4z"/>
						<path class="st26" d="M775.3,93.4c0,0,2-1.1,9.5-0.8c7.5,0.4,19.7,2.7,23.3,5.8c3.6,3.1,0.7,6,0.7,6s-8.3-4.6-12.6-4.9
							c-4.2-0.3-20.9,0.6-20.9,0.6V93.4z"/>
						<g>
							<path class="st27" d="M810.5,84.2c0,0-2,6.4-5.2,7.6s-24.2,5.5-30,1.5v6.7c0,0,5.7,2.6,14.5,1c8.9-1.6,13.6-2.7,16.8-3.6
								c3.3-0.9,4-4.2,4-4.2L810.5,84.2z"/>
						</g>
						<path class="st26" d="M779.5,110.2c0,0,2.5-2,7.9-1.6c5.5,0.4,15.7,0.4,18.7,5.3c-0.8,2.8-3.5,3.2-3.5,3.2s-2.4-1.5-5.2-1.9
							s-18.2,0.9-18.2,0.9L779.5,110.2z"/>
						<g>
							<path class="st27" d="M809.9,101.3c0,0-3.4,5.6-6.8,6.5c-3.4,0.9-17.1,4.3-23.6,2.5c-0.1,2-0.4,5.8-0.4,5.8s5,1.3,10.4,0.4
								c5.4-1,13.2-2.7,15.8-4.1s4-3.2,4-3.2L809.9,101.3z"/>
						</g>
						<g>
							<path class="st27" d="M806,113.8c0,0-6.2,6.6-13.9,5.6c-0.6,1.6-1.9,5.5-1.9,5.5s5.3,0.1,10.3-1.5s4.7-2.7,4.7-2.7L806,113.8
								z"/>
						</g>
						<g>
							<path class="st27" d="M813.3,48.8c0,0-0.5,6.5-6.9,7.7c-27.4,5-37.5,8.3-37.5,8.3l-0.2,5.6c0,0,5.6-2,20.9-4.8
								c15.3-2.8,21.7-4.5,23.2-7.9C814.4,54.2,813.3,48.8,813.3,48.8z"/>
						</g>
						<g>
							<path class="st27" d="M775.7,15.6c9.1-8,23.8-19.4,26.4-21.6H792c0,0-28.5,21.5-25.5,32.2C766.5,26.2,770.4,20.4,775.7,15.6z
								"/>
						</g>
					</g>
				</g>
			</g>
		</g>
	</g>
	<g class="st10">
		<g class="st12">
			<g>
				<defs>
					<rect id="SVGID_18_" x="2" width="1336.1" height="319.8"/>
				</defs>
				<clipPath id="SVGID_19_">
					<use xlink:href="#SVGID_18_"  style="overflow:visible;"/>
				</clipPath>
				<g class="st28">
					<g>
						<path class="st29" d="M688.6,31.7c0,0-3.4,4.5,1,9c4.4,4.4,22.8,12.6,22.8,12.6l26.2,10.1l13.9,7.7c0,0,5.8-4.1-1.3-8.6
							s-21.9-10-21.9-10L702.2,42C702.3,41.9,689.2,35,688.6,31.7z"/>
						<path class="st29" d="M690.6,94.2c0,0,8.8,4.8,25.1,10.1c14.9,4.8,31.7,10,33.7,13.6c0,0,3.1-7.3,0.1-9.4s-8.5-4.8-19-7.9
							s-29.2-9.5-30.4-9.9C697.8,90.7,690.6,94.2,690.6,94.2z"/>
						<path class="st29" d="M700.1,124.4c0,0,2.8-1.5,13.6-1s28.3,3.5,33.5,7.6c5.2,4.1,1,7.8,1,7.8s-12-6-18.1-6.4
							s-30.1,0.7-30.1,0.7L700.1,124.4L700.1,124.4z"/>
						<g>
							<path class="st13" d="M750.7,112.4c0,0-2.9,8.4-7.5,10s-34.8,7.2-43.1,2v8.8c0,0,8.2,3.4,20.9,1.3
								c12.8-2.1,19.5-3.6,24.2-4.8s5.8-5.5,5.8-5.5L750.7,112.4z"/>
						</g>
						<path class="st29" d="M706,146.5c0,0,3.6-2.7,11.4-2.1c7.9,0.6,22.5,0.5,26.8,6.9c-1.2,3.7-5,4.2-5,4.2s-3.4-1.9-7.4-2.5
							s-26.2,1.2-26.2,1.2L706,146.5z"/>
						<g>
							<path class="st13" d="M749.8,134.8c0,0-4.8,7.4-9.7,8.6c-4.9,1.2-24.6,5.6-34,3.2c-0.1,2.7-0.6,7.6-0.6,7.6s7.3,1.8,15,0.5
								s19-3.5,22.7-5.4c3.7-1.8,5.8-4.2,5.8-4.2L749.8,134.8z"/>
						</g>
						<g>
							<path class="st13" d="M744.2,151.2c0,0-8.9,8.7-20,7.4c-0.9,2.1-2.7,7.2-2.7,7.2s7.6,0.1,14.8-2c7.3-2.1,6.8-3.5,6.8-3.5
								L744.2,151.2z"/>
						</g>
						<g>
							<path class="st13" d="M754.7,66c0,0-0.8,8.5-9.9,10.1c-39.4,6.6-54,10.9-54,10.9l-0.3,7.3c0,0,8.1-2.6,30.1-6.3
								c22-3.7,31.2-5.9,33.4-10.4C756.3,73,754.7,66,754.7,66z"/>
						</g>
						<g>
							<path class="st13" d="M700.6,22.4c13.1-10.6,34.3-25.5,38-28.4h-14.5c0,0-41,28.2-36.8,42.2
								C687.4,36.2,692.9,28.6,700.6,22.4z"/>
						</g>
					</g>
				</g>
			</g>
		</g>
	</g>
	<g>
		<g>
			<g>
				<defs>
					<rect id="SVGID_20_" x="546.4" width="1305.6" height="205.8"/>
				</defs>
				<clipPath id="SVGID_21_">
					<use xlink:href="#SVGID_20_"  style="overflow:visible;"/>
				</clipPath>
				<g class="st30">
					<g>
						<path class="st31" d="M1048.2,30.4c0,0-3.9,4.1,1.2,8c5.1,4,25.9,11.2,25.9,11.2l29.8,9l15.8,6.9c0,0,6.5-3.6-1.6-7.7
							s-24.9-8.9-24.9-8.9l-30.8-9.4C1063.7,39.5,1048.9,33.3,1048.2,30.4z"/>
						<path class="st31" d="M1050.4,86.4c0,0,10,4.3,28.4,9c17,4.3,36.1,9,38.2,12.2c0,0,3.5-6.5,0.2-8.4s-9.7-4.3-21.6-7.1
							c-11.9-2.8-33.2-8.5-34.5-8.9C1058.6,83.1,1050.4,86.4,1050.4,86.4z"/>
						<path class="st31" d="M1061.2,113.3c0,0,3.2-1.4,15.5-0.9c12.3,0.4,32.1,3.2,38.1,6.8c5.9,3.6,1.2,7,1.2,7s-13.7-5.3-20.5-5.7
							c-6.9-0.3-34.2,0.6-34.2,0.6L1061.2,113.3L1061.2,113.3z"/>
						<g>
							<path class="st32" d="M1118.7,102.6c0,0-3.3,7.5-8.5,8.9s-39.5,6.4-49.1,1.8v7.9c0,0,9.3,3,23.7,1.2
								c14.5-1.9,22.2-3.2,27.5-4.2c5.4-1,6.5-4.9,6.5-4.9L1118.7,102.6z"/>
						</g>
						<path class="st31" d="M1067.9,133.1c0,0,4-2.4,13-1.9c8.9,0.5,25.6,0.4,30.5,6.2c-1.4,3.3-5.8,3.8-5.8,3.8s-3.9-1.7-8.4-2.3
							c-4.6-0.5-29.8,1.1-29.8,1.1L1067.9,133.1z"/>
						<g>
							<path class="st32" d="M1117.6,122.7c0,0-5.5,6.6-11,7.7c-5.6,1.1-27.9,5-38.6,2.9c-0.2,2.4-0.7,6.8-0.7,6.8s8.2,1.5,17,0.4
								c8.8-1.2,21.6-3.2,25.8-4.8c4.2-1.7,6.6-3.8,6.6-3.8L1117.6,122.7z"/>
						</g>
						<g>
							<path class="st32" d="M1111.4,137.3c0,0-10.1,7.7-22.8,6.6c-1,1.9-3,6.4-3,6.4s8.6,0.1,16.8-1.8c8.2-1.9,7.7-3.2,7.7-3.2
								L1111.4,137.3z"/>
						</g>
						<g>
							<path class="st32" d="M1123.2,61.1c0,0-0.9,7.7-11.2,9c-44.8,5.9-61.3,9.7-61.3,9.7l-0.3,6.5c0,0,9.2-2.3,34.2-5.6
								c25-3.3,35.4-5.3,37.9-9.3C1125,67.4,1123.2,61.1,1123.2,61.1z"/>
						</g>
						<g>
							<path class="st32" d="M1061.9,22.1c15-9.5,38.9-22.8,43.2-25.4h-16.5c0,0-46.5,25.2-41.7,37.8
								C1046.8,34.4,1053.1,27.7,1061.9,22.1z"/>
						</g>
					</g>
				</g>
			</g>
		</g>
	</g>
</g>
</svg>
