<?xml version="1.0" encoding="utf-8"?>
<!-- Generator: Adobe Illustrator 19.2.0, SVG Export Plug-In . SVG Version: 6.00 Build 0)  -->
<svg version="1.1" id="OBJECTS" xmlns="http://www.w3.org/2000/svg" xmlns:xlink="http://www.w3.org/1999/xlink" x="0px" y="0px"
	 viewBox="0 0 1338.1 319.8" style="enable-background:new 0 0 1338.1 319.8;" xml:space="preserve">
<style type="text/css">
	.st0{clip-path:url(#SVGID_2_);}
	.st1{fill:url(#SVGID_3_);}
	.st2{fill:url(#SVGID_4_);}
	.st3{fill:url(#SVGID_5_);}
	.st4{fill:url(#SVGID_6_);}
	.st5{fill:url(#SVGID_7_);}
	.st6{fill:url(#SVGID_8_);}
	.st7{fill:url(#SVGID_9_);}
	.st8{fill:url(#SVGID_10_);}
	.st9{fill:#807287;}
	.st10{fill:url(#SVGID_11_);}
	.st11{fill:url(#SVGID_12_);}
	.st12{fill:#27AE60;}
	.st13{fill:url(#SVGID_13_);}
	.st14{fill:url(#SVGID_14_);}
	.st15{fill:url(#SVGID_15_);}
	.st16{fill:url(#SVGID_16_);}
	.st17{fill:#907173;}
	.st18{fill:#9B59B6;}
	.st19{fill:url(#SVGID_17_);}
	.st20{fill:url(#SVGID_18_);}
	.st21{fill:url(#SVGID_19_);}
	.st22{fill:url(#SVGID_20_);}
	.st23{fill:url(#SVGID_21_);}
	.st24{fill:#2ECC71;}
	.st25{fill:url(#SVGID_22_);}
	.st26{fill:url(#SVGID_23_);}
	.st27{fill:url(#SVGID_24_);}
	.st28{fill:url(#SVGID_25_);}
	.st29{fill:#C0392B;}
	.st30{fill:#E74C3C;}
	.st31{fill:#2980B9;}
	.st32{fill:#3498DB;}
	.st33{fill:#BDC3C7;}
	.st34{fill:#ECF0F1;}
	.st35{fill:#E19626;}
	.st36{fill:#FAAE3E;}
</style>
<g>
	<defs>
		<rect id="SVGID_1_" x="2" width="1336.1" height="319.8"/>
	</defs>
	<clipPath id="SVGID_2_">
		<use xlink:href="#SVGID_1_"  style="overflow:visible;"/>
	</clipPath>
	<g class="st0">
		<g>
			
				<linearGradient id="SVGID_3_" gradientUnits="userSpaceOnUse" x1="787.0915" y1="-1.7666" x2="871.8432" y2="-1.7666" gradientTransform="matrix(0.8941 -0.1367 -0.1367 1.0225 170.7189 151.4545)">
				<stop  offset="0" style="stop-color:#FFD866"/>
				<stop  offset="1" style="stop-color:#FFC419"/>
			</linearGradient>
			<path class="st1" d="M902.1,67.8c0.5-8.5,0.7-16.3,1.6-24.7c-9.6-0.5-19.2-1.2-28.9-2C891.9,28.8,909,16.6,926,4.3
				c7.8,8.8,16,17.2,24.6,25.3C934.3,42.6,918.4,54.8,902.1,67.8z"/>
			<g>
				
					<linearGradient id="SVGID_4_" gradientUnits="userSpaceOnUse" x1="838.4161" y1="39.9021" x2="922.0378" y2="39.9021" gradientTransform="matrix(0.8941 -0.1367 -0.1367 1.0225 170.7189 151.4545)">
					<stop  offset="0" style="stop-color:#47DCEA"/>
					<stop  offset="1" style="stop-color:#0CB9CF"/>
				</linearGradient>
				<path class="st2" d="M945,103.4c-0.4-8.2-0.7-16.4-0.6-24.7c-9.9,0.4-19.8,0.5-29.7,0.5c16-13.3,31.5-25.8,47.5-39.1
					c8.9,7.8,18.3,15.2,27.9,22.3C975,76.3,960.3,89.5,945,103.4z"/>
			</g>
			<g>
				
					<linearGradient id="SVGID_5_" gradientUnits="userSpaceOnUse" x1="893.9036" y1="78.0076" x2="976.7464" y2="78.0076" gradientTransform="matrix(0.8941 -0.1367 -0.1367 1.0225 170.7189 151.4545)">
					<stop  offset="0" style="stop-color:#F36D6D"/>
					<stop  offset="1" style="stop-color:#F71B39"/>
				</linearGradient>
				<path class="st3" d="M992.4,134.8c-1.4-7.9-2-16.5-2.9-24.4c-10,1.2-20.7,2.9-30.8,3.7c15.5-14.8,30.4-28.9,44.6-42.5
					c10,6.7,20.4,13.1,31.1,19.2C1021,104.8,1007,119.4,992.4,134.8z"/>
			</g>
			
				<linearGradient id="SVGID_6_" gradientUnits="userSpaceOnUse" x1="954.6733" y1="111.7585" x2="1035.562" y2="111.7585" gradientTransform="matrix(0.8941 -0.1367 -0.1367 1.0225 170.7189 151.4545)">
				<stop  offset="0" style="stop-color:#FFD866"/>
				<stop  offset="1" style="stop-color:#FFC419"/>
			</linearGradient>
			<path class="st4" d="M1044.8,160.5c-2.3-7.5-3.9-15.8-5.7-23.4c-10.1,2-20.9,4.5-31.1,6.1c14.2-15.6,27.8-30.5,40.7-44.7
				c11,5.7,22.3,11,34,15.9C1070.6,129.1,1058,144.5,1044.8,160.5z"/>
			
				<linearGradient id="SVGID_7_" gradientUnits="userSpaceOnUse" x1="1019.7615" y1="141.2538" x2="1098.0742" y2="141.2538" gradientTransform="matrix(0.8941 -0.1367 -0.1367 1.0225 170.7189 151.4545)">
				<stop  offset="0" style="stop-color:#47DCEA"/>
				<stop  offset="1" style="stop-color:#0CB9CF"/>
			</linearGradient>
			<path class="st5" d="M1101.5,181.1c-3.3-7.1-5.7-14.9-8.5-22.1c-10.1,2.7-20.9,6-31.2,8.4c12.7-16.2,24.9-31.8,36.5-46.6
				c11.9,4.6,24.1,8.8,36.6,12.6C1124.2,148.6,1113.1,164.5,1101.5,181.1z"/>
			
				<linearGradient id="SVGID_8_" gradientUnits="userSpaceOnUse" x1="1088.726" y1="166.2989" x2="1163.8779" y2="166.2989" gradientTransform="matrix(0.8941 -0.1367 -0.1367 1.0225 170.7189 151.4545)">
				<stop  offset="0" style="stop-color:#F36D6D"/>
				<stop  offset="1" style="stop-color:#F71B39"/>
			</linearGradient>
			<path class="st6" d="M1162,196.4c-4.2-6.6-7.6-14-11.2-20.7c-10.1,3.5-20.8,7.5-31.1,10.7c11.1-16.7,21.8-32.8,32-48.1
				c12.7,3.5,25.7,6.6,39,9.2C1181.5,163.1,1171.9,179.4,1162,196.4z"/>
			<g>
				
					<linearGradient id="SVGID_9_" gradientUnits="userSpaceOnUse" x1="1161.6464" y1="186.3983" x2="1232.5638" y2="186.3983" gradientTransform="matrix(0.8941 -0.1367 -0.1367 1.0225 170.7189 151.4545)">
					<stop  offset="0" style="stop-color:#FFD866"/>
					<stop  offset="1" style="stop-color:#FFC419"/>
				</linearGradient>
				<path class="st7" d="M1226.5,205.5c-5.1-6-9.9-12.2-14.5-18.4c-9.9,4.2-20,8.3-30.2,12.2c9.1-16.4,17.6-32.1,26.6-48.5
					c13.5,2.3,27.2,4.2,41.2,5.8C1241.7,173.1,1234.3,189,1226.5,205.5z"/>
			</g>
			<g>
				
					<linearGradient id="SVGID_10_" gradientUnits="userSpaceOnUse" x1="1237.0376" y1="202.2496" x2="1303.7247" y2="202.2496" gradientTransform="matrix(0.8941 -0.1367 -0.1367 1.0225 170.7189 151.4545)">
					<stop  offset="0" style="stop-color:#47DCEA"/>
					<stop  offset="1" style="stop-color:#0CB9CF"/>
				</linearGradient>
				<path class="st8" d="M1293,210.5c-6-5.4-11.7-11-17.2-16.6c-9.7,4.9-19.1,9-29.1,13.6c7.4-16.6,14.2-32.5,21.5-49.1
					c14.2,1.1,28.6,1.9,43.1,2.2C1305.2,177.1,1299.1,193.8,1293,210.5z"/>
			</g>
			<g>
				<path class="st9" d="M1097.3,122.2c-27.5-11.1-54.1-24.6-79.5-40.4c-74.3-46-113.9-96.2-114.3-96.7l2.3-1.5
					c0.4,0.5,39.8,50.4,113.9,96.3c68.4,42.3,181.1,89.8,329.8,75.4l-0.5,2.2c-66,6.4-130.5,1.3-191.8-15.2
					C1137,136.8,1116.9,130.1,1097.3,122.2z"/>
			</g>
		</g>
		<g>
			
				<linearGradient id="SVGID_11_" gradientUnits="userSpaceOnUse" x1="886.6465" y1="-22.685" x2="954.131" y2="-22.685" gradientTransform="matrix(0.8699 -0.145 -0.145 1.0979 190.5411 185.8392)">
				<stop  offset="0" style="stop-color:#F36D6D"/>
				<stop  offset="1" style="stop-color:#F71B39"/>
			</linearGradient>
			<path class="st10" d="M989.3,54.5c-0.4-7-1.1-13.5-1.2-20.5c-7.7,0.4-15.5,0.7-23.3,0.7c12.4-11.6,24.9-23.1,37.3-34.7
				c7.1,6.6,14.5,12.9,22.2,18.8C1012.5,30.9,1001.1,42.4,989.3,54.5z"/>
			<g>
				
					<linearGradient id="SVGID_12_" gradientUnits="userSpaceOnUse" x1="933.0042" y1="7.1389" x2="998.9163" y2="7.1389" gradientTransform="matrix(0.8699 -0.145 -0.145 1.0979 190.5411 185.8392)">
					<stop  offset="0" style="stop-color:#FFD866"/>
					<stop  offset="1" style="stop-color:#FFC419"/>
				</linearGradient>
				<path class="st11" d="M1027.3,80.2c-1.2-6.8-2.2-13.5-3-20.3c-7.9,1.1-15.8,2.1-23.7,2.9c11.5-12.3,22.6-24,34.2-36.3
					c7.9,5.7,16.1,11,24.6,16C1048.5,55.3,1038.1,67.5,1027.3,80.2z"/>
			</g>
			<g>
				<path class="st12" d="M1068.3,102.2c-1.9-6.4-3.2-13.5-4.8-19.9c-7.9,1.8-16.3,4.1-24.3,5.6c10.9-13.5,21.4-26.4,31.5-38.8
					c8.7,4.7,17.6,9.1,26.8,13.2C1088.2,75,1078.4,88.3,1068.3,102.2z"/>
			</g>
			
				<linearGradient id="SVGID_13_" gradientUnits="userSpaceOnUse" x1="1035.2781" y1="56.7298" x2="1097.5139" y2="56.7298" gradientTransform="matrix(0.8699 -0.145 -0.145 1.0979 190.5411 185.8392)">
				<stop  offset="0" style="stop-color:#F36D6D"/>
				<stop  offset="1" style="stop-color:#F71B39"/>
			</linearGradient>
			<path class="st13" d="M1112.8,119c-2.6-6-4.7-12.7-6.9-18.8c-7.9,2.5-16.3,5.4-24.3,7.6c9.8-14.1,19.2-27.5,28.1-40.4
				c9.4,3.8,19,7.2,28.8,10.3C1130.4,90.9,1121.8,104.7,1112.8,119z"/>
			
				<linearGradient id="SVGID_14_" gradientUnits="userSpaceOnUse" x1="1091.1191" y1="75.9857" x2="1150.629" y2="75.9857" gradientTransform="matrix(0.8699 -0.145 -0.145 1.0979 190.5411 185.8392)">
				<stop  offset="0" style="stop-color:#FFD866"/>
				<stop  offset="1" style="stop-color:#FFC419"/>
			</linearGradient>
			<path class="st14" d="M1160.3,131.2c-3.3-5.6-6.1-11.9-9-17.6c-7.8,3.1-16.1,6.7-24.1,9.6c8.6-14.5,16.8-28.3,24.6-41.6
				c10,2.8,20.2,5.3,30.6,7.4C1175.2,102.5,1167.9,116.6,1160.3,131.2z"/>
			<path class="st12" d="M1210.2,138.8c-4-5.1-7.4-10.9-11.1-16.2c-7.7,3.7-15.9,7.9-23.8,11.4c7.2-14.8,14.2-28.9,20.8-42.4
				c10.5,1.8,21.3,3.3,32.2,4.4C1222.5,109.6,1216.5,123.9,1210.2,138.8z"/>
			<g>
				
					<linearGradient id="SVGID_15_" gradientUnits="userSpaceOnUse" x1="1210.3196" y1="102.7757" x2="1262.751" y2="102.7757" gradientTransform="matrix(0.8699 -0.145 -0.145 1.0979 190.5411 185.8392)">
					<stop  offset="0" style="stop-color:#F36D6D"/>
					<stop  offset="1" style="stop-color:#F71B39"/>
				</linearGradient>
				<path class="st15" d="M1262.8,140.9c-4.7-4.6-9.2-9.2-13.5-14c-7.5,4.3-15.2,8.5-23,12.6c5.6-14.3,10.9-28,16.5-42.3
					c11,0.8,22.2,1.2,33.6,1.3C1271.7,112.9,1267.4,126.6,1262.8,140.9z"/>
			</g>
			<g>
				
					<linearGradient id="SVGID_16_" gradientUnits="userSpaceOnUse" x1="1272.5841" y1="110.5625" x2="1321.0626" y2="110.5625" gradientTransform="matrix(0.8699 -0.145 -0.145 1.0979 190.5411 185.8392)">
					<stop  offset="0" style="stop-color:#FFD866"/>
					<stop  offset="1" style="stop-color:#FFC419"/>
				</linearGradient>
				<path class="st16" d="M1316.5,139.4c-5.3-4-10.5-8.1-15.4-12.3c-7.3,4.8-14.4,9-21.9,13.7c4.2-14.3,8.1-28.1,12.3-42.4
					c11.5-0.3,23-0.9,34.8-1.8C1323,110.8,1319.8,125.1,1316.5,139.4z"/>
			</g>
			<g>
				<path class="st17" d="M1151.1,82.9c-23.1-6.9-45.7-15.8-67.7-26.7C1019.2,24.5,982.6-13.6,982.2-14l1.7-1.5
					c0.4,0.4,36.9,38.3,100.8,70c59,29.2,153.9,58.9,271.6,34.5l-0.2,1.8c-52.2,10.8-104.4,12-155,3.6
					C1184.3,91.7,1167.5,87.8,1151.1,82.9z"/>
			</g>
		</g>
		<g>
			<path class="st18" d="M59.6,140.9c-6.4-3.9-12.5-7.4-18.7-11.6c-6.2,4.7-12.5,9.4-19,13.9c0.5-14.1,1-28.2,1.5-42.2
				c11.7-0.2,23.3-0.7,34.9-1.6C58.8,113.4,59.1,126.9,59.6,140.9z"/>
			<g>
				
					<linearGradient id="SVGID_17_" gradientUnits="userSpaceOnUse" x1="372.8823" y1="86.4635" x2="333.6392" y2="92.501" gradientTransform="matrix(1.1676 -2.879279e-002 -2.879279e-002 1.0997 -313.2615 27.4343)">
					<stop  offset="0" style="stop-color:#FFD866"/>
					<stop  offset="1" style="stop-color:#FFC419"/>
				</linearGradient>
				<path class="st19" d="M113.7,134.3c-6.8-3.3-13.5-6.8-20-10.4c-5.6,5.2-11.5,10.4-17.5,15.4c-0.9-14-1.6-27.4-2.5-41.4
					c11.6-1.2,23.1-2.8,34.5-4.6C110.2,107.2,111.8,120.5,113.7,134.3z"/>
			</g>
			<g>
				
					<linearGradient id="SVGID_18_" gradientUnits="userSpaceOnUse" x1="409.3093" y1="78.1563" x2="378.1626" y2="88.2036" gradientTransform="matrix(1.1676 -2.879279e-002 -2.879279e-002 1.0997 -313.2615 27.4343)">
					<stop  offset="0" style="stop-color:#F36D6D"/>
					<stop  offset="1" style="stop-color:#F71B39"/>
				</linearGradient>
				<path class="st20" d="M167.2,123.7c-7.1-2.7-14.3-6.2-21.2-9.1c-5.1,5.7-10.2,11.8-15.6,17.4c-2.4-14.4-4.7-28.2-7-41.4
					c11.4-2.2,22.7-4.7,33.9-7.6C160.5,96,163.8,109.6,167.2,123.7z"/>
			</g>
			<path class="st18" d="M219.2,108c-7.4-2.1-14.9-4.9-22-7.2c-4.5,6.1-9,12.6-13.9,18.6c-3.9-14.1-7.6-27.5-11.1-40.4
				c11.1-3.2,22.2-6.7,33.1-10.5C209.8,81.1,214.4,94.3,219.2,108z"/>
			
				<linearGradient id="SVGID_19_" gradientUnits="userSpaceOnUse" x1="495.3332" y1="47.1581" x2="467.2593" y2="63.2004" gradientTransform="matrix(1.1676 -2.879279e-002 -2.879279e-002 1.0997 -313.2615 27.4343)">
				<stop  offset="0" style="stop-color:#FFD866"/>
				<stop  offset="1" style="stop-color:#FFC419"/>
			</linearGradient>
			<path class="st21" d="M269.7,87.9c-7.6-1.4-15.3-3.6-22.7-5.3c-3.9,6.4-7.8,13.3-12.1,19.7c-5.3-13.6-10.3-26.6-15.1-39
				c10.8-4.1,21.5-8.5,32.1-13.3C257.5,62.1,263.5,74.7,269.7,87.9z"/>
			
				<linearGradient id="SVGID_20_" gradientUnits="userSpaceOnUse" x1="538.0432" y1="27.4312" x2="501.8336" y2="46.5418" gradientTransform="matrix(1.1676 -2.879279e-002 -2.879279e-002 1.0997 -313.2615 27.4343)">
				<stop  offset="0" style="stop-color:#F36D6D"/>
				<stop  offset="1" style="stop-color:#F71B39"/>
			</linearGradient>
			<path class="st22" d="M318.3,63.5c-7.8-0.7-15.7-2.2-23.2-3.2c-3.3,6.7-6.6,13.9-10.2,20.6c-6.6-13-13-25.5-19-37.4
				c10.4-5,20.7-10.4,30.8-16C303.5,39,310.7,51,318.3,63.5z"/>
			<g>
				<path class="st18" d="M364.4,34.4c-7.9,0-15.7-0.2-23.4-0.6c-2.6,6.9-5.5,13.9-8.5,20.8c-7.6-11.8-15-23-22.6-34.8
					c10-5.9,19.8-12.1,29.4-18.6C347.7,12.5,355.9,23.2,364.4,34.4z"/>
			</g>
			<g>
				<path class="st9" d="M220.3,64.4c-25.4,9.2-52.1,17-80,23.2C58.9,105.7-4.8,104.2-5.4,104.2l0.2-1.9c0.6,0,64.1,1.5,145.2-16.5
					c74.8-16.7,180.4-53.8,258.5-136.4l1.5,1.2c-34.7,36.6-77.5,67.5-127.4,91.8C255.9,50.4,238.4,57.8,220.3,64.4z"/>
			</g>
		</g>
		<g>
			
				<linearGradient id="SVGID_21_" gradientUnits="userSpaceOnUse" x1="348.2298" y1="151.1608" x2="308.9392" y2="153.1757" gradientTransform="matrix(1.1676 -2.879279e-002 -2.879279e-002 1.0997 -313.2615 27.4343)">
				<stop  offset="0" style="stop-color:#F36D6D"/>
				<stop  offset="1" style="stop-color:#F71B39"/>
			</linearGradient>
			<path class="st23" d="M87.1,208.7c-7.6-4.6-14.7-8.7-21.9-13.6c-7.2,5.5-14.6,11-22.3,16.3c0.6-16.5,1.2-33,1.8-49.5
				c13.7-0.2,27.3-0.8,40.9-1.9C86.2,176.5,86.6,192.3,87.1,208.7z"/>
			<g>
				<path class="st24" d="M150.6,201c-8-3.9-15.8-8-23.5-12.2c-6.6,6.1-13.4,12.2-20.5,18.1c-1.1-16.4-1.9-32.1-2.9-48.5
					c13.6-1.4,27.1-3.2,40.5-5.4C146.4,169.2,148.4,184.8,150.6,201z"/>
			</g>
			<g>
				
					<linearGradient id="SVGID_22_" gradientUnits="userSpaceOnUse" x1="455.8036" y1="137.637" x2="412.4565" y2="142.6774" gradientTransform="matrix(1.1676 -2.879279e-002 -2.879279e-002 1.0997 -313.2615 27.4343)">
					<stop  offset="0" style="stop-color:#FFD866"/>
					<stop  offset="1" style="stop-color:#FFC419"/>
				</linearGradient>
				<path class="st25" d="M213.3,188.6c-8.4-3.2-16.8-7.2-24.9-10.7c-6,6.6-11.9,13.9-18.3,20.4c-2.8-16.9-5.5-33-8.1-48.5
					c13.4-2.6,26.6-5.5,39.8-8.9C205.4,156.1,209.2,172,213.3,188.6z"/>
			</g>
			
				<linearGradient id="SVGID_23_" gradientUnits="userSpaceOnUse" x1="502.15" y1="126.8888" x2="461.8506" y2="127.8963" gradientTransform="matrix(1.1676 -2.879279e-002 -2.879279e-002 1.0997 -313.2615 27.4343)">
				<stop  offset="0" style="stop-color:#F36D6D"/>
				<stop  offset="1" style="stop-color:#F71B39"/>
			</linearGradient>
			<path class="st26" d="M274.2,170.2c-8.7-2.4-17.4-5.7-25.8-8.5c-5.3,7.1-10.6,14.8-16.3,21.8c-4.5-16.5-8.9-32.2-13-47.3
				c13.1-3.7,26-7.8,38.8-12.3C263.1,138.6,268.6,154.1,274.2,170.2z"/>
			<path class="st24" d="M333.4,146.6c-8.9-1.7-18-4.2-26.6-6.2c-4.6,7.5-9.2,15.6-14.2,23.1c-6.2-15.9-12.1-31.2-17.7-45.8
				c12.7-4.8,25.2-10,37.6-15.6C319.1,116.3,326.1,131.1,333.4,146.6z"/>
			
				<linearGradient id="SVGID_24_" gradientUnits="userSpaceOnUse" x1="599.0332" y1="81.768" x2="560.7184" y2="91.8509" gradientTransform="matrix(1.1676 -2.879279e-002 -2.879279e-002 1.0997 -313.2615 27.4343)">
				<stop  offset="0" style="stop-color:#FFD866"/>
				<stop  offset="1" style="stop-color:#FFC419"/>
			</linearGradient>
			<path class="st27" d="M390.3,118c-9.1-0.9-18.4-2.6-27.2-3.8c-3.9,7.8-7.7,16.3-12,24.1c-7.8-15.2-15.2-29.8-22.3-43.8
				c12.2-5.9,24.3-12.1,36.1-18.7C373,89.3,381.5,103.3,390.3,118z"/>
			<g>
				
					<linearGradient id="SVGID_25_" gradientUnits="userSpaceOnUse" x1="637.1364" y1="56.4014" x2="604.8778" y2="65.4741" gradientTransform="matrix(1.1676 -2.879279e-002 -2.879279e-002 1.0997 -313.2615 27.4343)">
					<stop  offset="0" style="stop-color:#F36D6D"/>
					<stop  offset="1" style="stop-color:#F71B39"/>
				</linearGradient>
				<path class="st28" d="M444.4,83.9c-9.2,0-18.4-0.3-27.4-0.7c-3.1,8.1-6.4,16.2-9.9,24.4c-8.9-13.8-17.6-27-26.5-40.8
					c11.7-6.9,23.2-14.2,34.4-21.8C424.8,58.2,434.5,70.7,444.4,83.9z"/>
			</g>
			<g>
				<path class="st24" d="M495.9,46.4c-9.3,0.8-18.5,1.4-27.6,1.9c-2.3,8.3-5.1,16-7.8,24.4c-10.3-12.9-20.4-25.1-30.6-38
					c11.1-7.9,21.9-16.2,32.4-24.8C473.4,22,484.6,34.2,495.9,46.4z"/>
			</g>
			<g>
				<path class="st9" d="M271.2,120.6c-30.3,11-62.2,20.4-95.5,27.8C78.7,170.3,2.8,168.9,2,168.9l0.2-2.2
					c0.8,0,76.4,1.3,173.1-20.4c89.3-20.1,215.3-64.5,308.9-162.1l1.7,1.4c-41.5,43.3-92.8,79.9-152.5,108.7
					C313.7,103.9,292.9,112.7,271.2,120.6z"/>
			</g>
		</g>
	</g>
	<g class="st0">
		<g>
			<path class="st29" d="M821.2,42.5c0,0-4.2,5.7,1.3,11.3c5.5,5.6,28.2,15.8,28.2,15.8l32.4,12.7l17.2,9.7c0,0,7.1-5.1-1.6-10.8
				c-8.8-5.7-27.1-12.6-27.1-12.6l-33.5-13.3C838.1,55.3,821.9,46.6,821.2,42.5z"/>
			<path class="st29" d="M823.6,121.3c0,0,10.9,6.1,31,12.7c18.5,6.1,39.2,12.7,41.6,17.2c0,0,3.8-9.2,0.2-11.9
				c-3.7-2.7-10.5-6.1-23.5-10c-12.9-4-36.1-11.9-37.6-12.5C832.6,116.8,823.6,121.3,823.6,121.3z"/>
			<path class="st29" d="M835.3,159.4c0,0,3.5-1.9,16.9-1.3c13.4,0.6,35,4.4,41.4,9.5c6.4,5.1,1.3,9.9,1.3,9.9s-14.8-7.6-22.4-8
				c-7.5-0.5-37.2,0.9-37.2,0.9V159.4z"/>
			<g>
				<path class="st30" d="M897.9,144.2c0,0-3.6,10.6-9.3,12.6c-5.7,2-43,9.1-53.3,2.6v11.1c0,0,10.1,4.3,25.8,1.6
					c15.8-2.7,24.1-4.5,29.9-6c5.8-1.5,7.1-6.9,7.1-6.9L897.9,144.2z"/>
			</g>
			<path class="st29" d="M842.7,187.2c0,0,4.4-3.4,14.1-2.7c9.7,0.7,27.9,0.6,33.2,8.7c-1.5,4.7-6.2,5.4-6.2,5.4s-4.2-2.4-9.2-3.1
				c-4.9-0.7-32.4,1.5-32.4,1.5L842.7,187.2z"/>
			<g>
				<path class="st30" d="M896.8,172.6c0,0-6,9.3-12,10.8c-6,1.5-30.4,7.1-42,4.1c-0.2,3.4-0.7,9.5-0.7,9.5s9,2.2,18.5,0.6
					c9.5-1.6,23.5-4.4,28-6.8c4.6-2.3,7.2-5.3,7.2-5.3L896.8,172.6z"/>
			</g>
			<g>
				<path class="st30" d="M889.9,193.2c0,0-11,10.9-24.7,9.3c-1.1,2.7-3.3,9.1-3.3,9.1s9.3,0.1,18.3-2.6c9-2.7,8.4-4.4,8.4-4.4
					L889.9,193.2z"/>
			</g>
			<g>
				<path class="st30" d="M902.9,85.7c0,0-0.9,10.8-12.2,12.7c-48.7,8.4-66.7,13.7-66.7,13.7l-0.4,9.2c0,0,10-3.3,37.2-7.9
					c27.2-4.6,38.5-7.4,41.3-13.1C904.8,94.5,902.9,85.7,902.9,85.7z"/>
			</g>
			<g>
				<path class="st30" d="M836.1,30.7c16.2-13.3,42.3-32.2,47-35.8h-17.9c0,0-50.7,35.6-45.4,53.3C819.7,48.1,826.5,38.5,836.1,30.7
					z"/>
			</g>
		</g>
	</g>
	<g class="st0">
		<g>
			<path class="st31" d="M612.4,24.5c0,0-2.5,3.7,0.8,7.2c3.3,3.6,16.7,10.2,16.7,10.2l19.2,8.1l10.2,6.2c0,0,4.2-3.3-1-6.9
				c-5.2-3.7-16.1-8.1-16.1-8.1l-19.9-8.5C622.4,32.7,612.8,27.1,612.4,24.5z"/>
			<path class="st31" d="M613.8,75.1c0,0,6.5,3.9,18.4,8.2c11,3.9,23.3,8.1,24.7,11c0,0,2.3-5.9,0.1-7.6c-2.2-1.7-6.2-3.9-13.9-6.4
				c-7.7-2.5-21.4-7.7-22.3-8C619.1,72.2,613.8,75.1,613.8,75.1z"/>
			<path class="st31" d="M620.7,99.5c0,0,2.1-1.2,10-0.8c7.9,0.4,20.8,2.8,24.6,6.1c3.8,3.3,0.8,6.3,0.8,6.3s-8.8-4.9-13.3-5.2
				c-4.5-0.3-22.1,0.6-22.1,0.6V99.5z"/>
			<g>
				<path class="st32" d="M657.9,89.8c0,0-2.1,6.8-5.5,8.1c-3.4,1.3-25.5,5.8-31.6,1.6v7.1c0,0,6,2.8,15.3,1
					c9.3-1.7,14.3-2.9,17.7-3.9c3.4-1,4.2-4.4,4.2-4.4L657.9,89.8z"/>
			</g>
			<path class="st31" d="M625.1,117.4c0,0,2.6-2.2,8.4-1.7c5.8,0.4,16.5,0.4,19.7,5.6c-0.9,3-3.7,3.4-3.7,3.4s-2.5-1.6-5.4-2
				c-2.9-0.4-19.2,1-19.2,1L625.1,117.4z"/>
			<g>
				<path class="st32" d="M657.2,108c0,0-3.5,6-7.1,6.9c-3.6,1-18,4.6-24.9,2.6c-0.1,2.2-0.4,6.1-0.4,6.1s5.3,1.4,11,0.4
					c5.7-1,13.9-2.8,16.6-4.3c2.7-1.5,4.3-3.4,4.3-3.4L657.2,108z"/>
			</g>
			<g>
				<path class="st32" d="M653.1,121.2c0,0-6.5,7-14.7,6c-0.7,1.7-2,5.8-2,5.8s5.5,0.1,10.9-1.6c5.3-1.7,5-2.8,5-2.8L653.1,121.2z"
					/>
			</g>
			<g>
				<path class="st32" d="M660.8,52.2c0,0-0.6,6.9-7.2,8.2c-28.9,5.4-39.6,8.8-39.6,8.8l-0.2,5.9c0,0,5.9-2.1,22-5.1
					s22.9-4.8,24.5-8.4C661.9,57.9,660.8,52.2,660.8,52.2z"/>
			</g>
			<g>
				<path class="st32" d="M621.2,17c9.6-8.5,25.1-20.6,27.9-23h-10.6c0,0-30,22.8-27,34.1C611.5,28.1,615.5,22,621.2,17z"/>
			</g>
		</g>
	</g>
	<g class="st0">
		<g>
			<path class="st33" d="M767.4,22.8c0,0-2.4,3.4,0.7,6.8c3.1,3.4,15.9,9.6,15.9,9.6l18.2,7.7l9.7,5.8c0,0,4-3.1-0.9-6.5
				c-4.9-3.4-15.3-7.6-15.3-7.6l-18.9-8C776.9,30.5,767.8,25.2,767.4,22.8z"/>
			<path class="st33" d="M768.7,70.4c0,0,6.1,3.7,17.4,7.7c10.4,3.7,22.1,7.7,23.4,10.4c0,0,2.2-5.6,0.1-7.2
				c-2.1-1.6-5.9-3.7-13.2-6.1c-7.3-2.4-20.3-7.2-21.1-7.6C773.8,67.7,768.7,70.4,768.7,70.4z"/>
			<path class="st33" d="M775.3,93.4c0,0,2-1.1,9.5-0.8c7.5,0.4,19.7,2.7,23.3,5.8c3.6,3.1,0.7,6,0.7,6s-8.3-4.6-12.6-4.9
				c-4.2-0.3-20.9,0.6-20.9,0.6V93.4z"/>
			<g>
				<path class="st34" d="M810.5,84.2c0,0-2,6.4-5.2,7.6c-3.2,1.2-24.2,5.5-30,1.5v6.7c0,0,5.7,2.6,14.5,1
					c8.9-1.6,13.6-2.7,16.8-3.6c3.3-0.9,4-4.2,4-4.2L810.5,84.2z"/>
			</g>
			<path class="st33" d="M779.5,110.2c0,0,2.5-2,7.9-1.6c5.5,0.4,15.7,0.4,18.7,5.3c-0.8,2.8-3.5,3.2-3.5,3.2s-2.4-1.5-5.2-1.9
				c-2.8-0.4-18.2,0.9-18.2,0.9L779.5,110.2z"/>
			<g>
				<path class="st34" d="M809.9,101.3c0,0-3.4,5.6-6.8,6.5c-3.4,0.9-17.1,4.3-23.6,2.5c-0.1,2-0.4,5.8-0.4,5.8s5,1.3,10.4,0.4
					c5.4-1,13.2-2.7,15.8-4.1c2.6-1.4,4-3.2,4-3.2L809.9,101.3z"/>
			</g>
			<g>
				<path class="st34" d="M806,113.8c0,0-6.2,6.6-13.9,5.6c-0.6,1.6-1.9,5.5-1.9,5.5s5.3,0.1,10.3-1.5c5-1.6,4.7-2.7,4.7-2.7
					L806,113.8z"/>
			</g>
			<g>
				<path class="st34" d="M813.3,48.8c0,0-0.5,6.5-6.9,7.7c-27.4,5-37.5,8.3-37.5,8.3l-0.2,5.6c0,0,5.6-2,20.9-4.8
					c15.3-2.8,21.7-4.5,23.2-7.9C814.4,54.2,813.3,48.8,813.3,48.8z"/>
			</g>
			<g>
				<path class="st34" d="M775.7,15.6c9.1-8,23.8-19.4,26.4-21.6h-10.1c0,0-28.5,21.5-25.5,32.2C766.5,26.2,770.4,20.4,775.7,15.6z"
					/>
			</g>
		</g>
	</g>
	<g class="st0">
		<g>
			<path class="st12" d="M688.6,31.7c0,0-3.4,4.5,1,9c4.4,4.4,22.8,12.6,22.8,12.6l26.2,10.1l13.9,7.7c0,0,5.8-4.1-1.3-8.6
				c-7.1-4.5-21.9-10-21.9-10l-27.1-10.5C702.3,41.9,689.2,35,688.6,31.7z"/>
			<path class="st12" d="M690.6,94.2c0,0,8.8,4.8,25.1,10.1c14.9,4.8,31.7,10,33.7,13.6c0,0,3.1-7.3,0.1-9.4c-3-2.1-8.5-4.8-19-7.9
				c-10.5-3.1-29.2-9.5-30.4-9.9C697.8,90.7,690.6,94.2,690.6,94.2z"/>
			<path class="st12" d="M700.1,124.4c0,0,2.8-1.5,13.6-1c10.8,0.5,28.3,3.5,33.5,7.6c5.2,4.1,1,7.8,1,7.8s-12-6-18.1-6.4
				c-6.1-0.4-30.1,0.7-30.1,0.7V124.4z"/>
			<g>
				<path class="st24" d="M750.7,112.4c0,0-2.9,8.4-7.5,10c-4.6,1.6-34.8,7.2-43.1,2v8.8c0,0,8.2,3.4,20.9,1.3
					c12.8-2.1,19.5-3.6,24.2-4.8c4.7-1.2,5.8-5.5,5.8-5.5L750.7,112.4z"/>
			</g>
			<path class="st12" d="M706,146.5c0,0,3.6-2.7,11.4-2.1c7.9,0.6,22.5,0.5,26.8,6.9c-1.2,3.7-5,4.2-5,4.2s-3.4-1.9-7.4-2.5
				c-4-0.6-26.2,1.2-26.2,1.2L706,146.5z"/>
			<g>
				<path class="st24" d="M749.8,134.8c0,0-4.8,7.4-9.7,8.6c-4.9,1.2-24.6,5.6-34,3.2c-0.1,2.7-0.6,7.6-0.6,7.6s7.3,1.8,15,0.5
					c7.7-1.3,19-3.5,22.7-5.4c3.7-1.8,5.8-4.2,5.8-4.2L749.8,134.8z"/>
			</g>
			<g>
				<path class="st24" d="M744.2,151.2c0,0-8.9,8.7-20,7.4c-0.9,2.1-2.7,7.2-2.7,7.2s7.6,0.1,14.8-2c7.3-2.1,6.8-3.5,6.8-3.5
					L744.2,151.2z"/>
			</g>
			<g>
				<path class="st24" d="M754.7,66c0,0-0.8,8.5-9.9,10.1c-39.4,6.6-54,10.9-54,10.9l-0.3,7.3c0,0,8.1-2.6,30.1-6.3
					c22-3.7,31.2-5.9,33.4-10.4C756.3,73,754.7,66,754.7,66z"/>
			</g>
			<g>
				<path class="st24" d="M700.6,22.4c13.1-10.6,34.3-25.5,38-28.4h-14.5c0,0-41,28.2-36.8,42.2C687.4,36.2,692.9,28.6,700.6,22.4z"
					/>
			</g>
		</g>
	</g>
	<g class="st0">
		<g>
			<path class="st35" d="M515.5,47.3c0,0-4,6.3,1.2,12.4c5.2,6.2,26.5,17.4,26.5,17.4l30.5,14l16.2,10.7c0,0,6.7-5.6-1.6-11.9
				c-8.3-6.3-25.5-13.9-25.5-13.9l-31.5-14.6C531.4,61.4,516.2,51.8,515.5,47.3z"/>
			<path class="st35" d="M517.8,134.2c0,0,10.2,6.7,29.1,14c17.4,6.7,36.9,14,39.1,19c0,0,3.6-10.1,0.2-13.1c-3.4-3-9.9-6.7-22.1-11
				c-12.2-4.4-34-13.2-35.3-13.8C526.2,129.2,517.8,134.2,517.8,134.2z"/>
			<path class="st35" d="M528.8,176.1c0,0,3.3-2.1,15.9-1.4c12.6,0.6,32.9,4.9,39,10.5c6,5.6,1.2,10.9,1.2,10.9s-14-8.3-21-8.9
				c-7.1-0.5-35,1-35,1V176.1z"/>
			<g>
				<path class="st36" d="M587.7,159.4c0,0-3.4,11.7-8.7,13.9c-5.3,2.2-40.4,10-50.2,2.8v12.2c0,0,9.5,4.7,24.3,1.8
					c14.8-2.9,22.7-5,28.1-6.6c5.5-1.6,6.7-7.6,6.7-7.6L587.7,159.4z"/>
			</g>
			<path class="st35" d="M535.7,206.8c0,0,4.1-3.7,13.3-3c9.1,0.8,26.2,0.6,31.2,9.6c-1.4,5.1-5.9,5.9-5.9,5.9s-4-2.7-8.6-3.5
				c-4.7-0.8-30.5,1.7-30.5,1.7L535.7,206.8z"/>
			<g>
				<path class="st36" d="M586.6,190.7c0,0-5.6,10.2-11.3,11.9c-5.7,1.7-28.6,7.8-39.5,4.5c-0.2,3.7-0.7,10.5-0.7,10.5
					s8.4,2.4,17.4,0.6c9-1.8,22.1-4.9,26.4-7.4c4.3-2.6,6.8-5.9,6.8-5.9L586.6,190.7z"/>
			</g>
			<g>
				<path class="st36" d="M580.2,213.4c0,0-10.3,12-23.3,10.2c-1,2.9-3.1,10-3.1,10s8.8,0.1,17.2-2.8c8.4-2.9,7.9-4.9,7.9-4.9
					L580.2,213.4z"/>
			</g>
			<g>
				<path class="st36" d="M592.3,94.9c0,0-0.9,11.9-11.5,14c-45.8,9.2-62.7,15.1-62.7,15.1l-0.3,10.1c0,0,9.4-3.6,35-8.7
					c25.6-5.1,36.2-8.2,38.8-14.5C594.1,104.7,592.3,94.9,592.3,94.9z"/>
			</g>
			<g>
				<path class="st36" d="M529.5,34.3c15.3-14.7,39.8-35.4,44.2-39.5h-16.9c0,0-47.6,39.2-42.7,58.7C514.1,53.5,520.5,43,529.5,34.3
					z"/>
			</g>
		</g>
	</g>
</g>
</svg>
