<?xml version="1.0" encoding="utf-8"?>
<!-- Generator: Adobe Illustrator 19.2.0, SVG Export Plug-In . SVG Version: 6.00 Build 0)  -->
<svg version="1.1" id="OBJECTS" xmlns="http://www.w3.org/2000/svg" xmlns:xlink="http://www.w3.org/1999/xlink" x="0px" y="0px"
	 viewBox="0 0 1338.1 319.8" style="enable-background:new 0 0 1338.1 319.8;" xml:space="preserve">
<style type="text/css">
	.st0{clip-path:url(#SVGID_2_);}
	.st1{fill:#13CE3F;}
	.st2{fill:#15F955;}
	.st3{clip-path:url(#SVGID_4_);}
	.st4{fill:#C0392B;}
	.st5{fill:#E74C3C;}
	.st6{clip-path:url(#SVGID_6_);}
	.st7{fill:#2980B9;}
	.st8{fill:#3498DB;}
	.st9{display:none;}
	.st10{display:inline;}
	.st11{clip-path:url(#SVGID_8_);}
	.st12{fill:#BDC3C7;}
	.st13{fill:#ECF0F1;}
	.st14{clip-path:url(#SVGID_10_);}
	.st15{fill:#27AE60;}
	.st16{fill:#2ECC71;}
	.st17{clip-path:url(#SVGID_12_);}
	.st18{fill:#E19626;}
	.st19{fill:#FAAE3E;}
</style>
<g>
	<g>
		<g>
			<g>
				<g>
					<defs>
						<rect id="SVGID_1_" x="721" y="0.1" width="737" height="140.4"/>
					</defs>
					<clipPath id="SVGID_2_">
						<use xlink:href="#SVGID_1_"  style="overflow:visible;"/>
					</clipPath>
					<g class="st0">
						<g>
							<path class="st1" d="M1172.9,18.8c0,0-2.3,2.5,0.7,4.9s15.6,6.9,15.6,6.9l17.8,5.6l9.5,4.3c0,0,4-2.2-0.9-4.8
								c-4.8-2.5-14.9-5.5-14.9-5.5l-18.5-5.8C1182.2,24.4,1173.2,20.6,1172.9,18.8z"/>
							<path class="st1" d="M1174.2,53.4c0,0,6,2.7,17.1,5.6c10.2,2.7,21.6,5.6,22.9,7.6c0,0,2.1-4,0.1-5.3c-2-1.2-5.8-2.7-13-4.4
								c-7.1-1.7-19.9-5.3-20.7-5.5C1179.1,51.4,1174.2,53.4,1174.2,53.4z"/>
							<path class="st1" d="M1180.6,70.1c0,0,1.9-0.8,9.4-0.6c7.4,0.2,19.3,2,22.8,4.2c3.6,2.2,0.7,4.4,0.7,4.4s-8.2-3.4-12.3-3.5
								c-4.1-0.2-20.5,0.4-20.5,0.4L1180.6,70.1z"/>
							<g>
								<path class="st2" d="M1215.2,63.4c0,0-2,4.7-5.2,5.5c-3.1,0.8-23.7,3.9-29.4,1.2v4.9c0,0,5.6,1.9,14.2,0.7
									c8.7-1.2,13.3-2,16.5-2.6c3.2-0.7,4-3,4-3L1215.2,63.4z"/>
							</g>
							<path class="st1" d="M1184.7,82.3c0,0,2.4-1.5,7.7-1.2s15.4,0.2,18.3,3.9c-0.8,2.1-3.4,2.4-3.4,2.4s-2.3-1.1-5.1-1.4
								c-2.7-0.3-17.8,0.7-17.8,0.7L1184.7,82.3z"/>
							<g>
								<path class="st2" d="M1214.5,75.9c0,0-3.3,4.1-6.6,4.8c-3.3,0.7-16.8,3.1-23.2,1.8c-0.1,1.5-0.4,4.2-0.4,4.2s5,1,10.2,0.2
									c5.2-0.7,13-1.9,15.4-3c2.5-1,4-2.3,4-2.3L1214.5,75.9z"/>
							</g>
							<g>
								<path class="st2" d="M1210.7,84.9c0,0-6.1,4.8-13.6,4.1c-0.6,1.2-1.9,4-1.9,4s5.2,0.1,10.1-1.2c5-1.2,4.6-1.9,4.6-1.9
									L1210.7,84.9z"/>
							</g>
							<g>
								<path class="st2" d="M1217.9,37.8c0,0-0.5,4.8-6.7,5.6c-26.9,3.7-36.8,6-36.8,6l-0.2,4c0,0,5.5-1.5,20.5-3.5
									c15-2,21.2-3.2,22.8-5.8C1219,41.6,1217.9,37.8,1217.9,37.8z"/>
							</g>
							<g>
								<path class="st2" d="M1181.1,13.6c9-5.8,23.3-14.1,25.9-15.7h-9.8c0,0-28,15.6-25,23.4C1172,21.2,1175.8,17,1181.1,13.6z"/>
							</g>
						</g>
					</g>
				</g>
			</g>
		</g>
	</g>
	<g>
		<g>
			<g>
				<g>
					<defs>
						<rect id="SVGID_3_" x="552.7" y="0.1" width="913.3" height="170.7"/>
					</defs>
					<clipPath id="SVGID_4_">
						<use xlink:href="#SVGID_3_"  style="overflow:visible;"/>
					</clipPath>
					<g class="st3">
						<g>
							<path class="st4" d="M1112.7,22.8c0,0-2.9,3,0.9,6s19.3,8.4,19.3,8.4L1155,44l11.8,5.2c0,0,4.9-2.7-1.1-5.8
								c-6-3-18.5-6.7-18.5-6.7l-22.9-7.1C1124.2,29.6,1113.1,25,1112.7,22.8z"/>
							<path class="st4" d="M1114.3,64.9c0,0,7.4,3.3,21.2,6.8c12.6,3.3,26.8,6.8,28.4,9.2c0,0,2.6-4.9,0.1-6.4
								c-2.5-1.4-7.2-3.3-16.1-5.3c-8.8-2.1-24.7-6.4-25.7-6.7C1120.4,62.5,1114.3,64.9,1114.3,64.9z"/>
							<path class="st4" d="M1122.3,85.2c0,0,2.4-1,11.6-0.7s23.9,2.4,28.3,5.1s0.9,5.3,0.9,5.3s-10.1-4.1-15.3-4.3
								c-5.1-0.3-25.4,0.5-25.4,0.5L1122.3,85.2z"/>
							<g>
								<path class="st5" d="M1165.1,77.1c0,0-2.5,5.7-6.4,6.7s-29.4,4.8-36.4,1.4v5.9c0,0,6.9,2.3,17.6,0.9
									c10.8-1.4,16.5-2.4,20.4-3.2c4-0.8,4.9-3.7,4.9-3.7L1165.1,77.1z"/>
							</g>
							<path class="st4" d="M1127.3,100c0,0,3-1.8,9.6-1.4s19.1,0.3,22.7,4.7c-1,2.5-4.2,2.9-4.2,2.9s-2.9-1.3-6.3-1.7
								c-3.3-0.4-22.1,0.8-22.1,0.8L1127.3,100z"/>
							<g>
								<path class="st5" d="M1164.3,92.3c0,0-4.1,5-8.2,5.8s-20.8,3.8-28.7,2.2c-0.1,1.8-0.5,5.1-0.5,5.1s6.2,1.2,12.6,0.3
									s16.1-2.3,19.1-3.6c3.1-1.2,4.9-2.8,4.9-2.8L1164.3,92.3z"/>
							</g>
							<g>
								<path class="st5" d="M1159.6,103.2c0,0-7.5,5.8-16.9,5c-0.8,1.4-2.3,4.9-2.3,4.9s6.4,0.1,12.5-1.4c6.2-1.4,5.7-2.3,5.7-2.3
									L1159.6,103.2z"/>
							</g>
							<g>
								<path class="st5" d="M1168.5,45.9c0,0-0.6,5.8-8.3,6.8c-33.3,4.5-45.6,7.3-45.6,7.3l-0.3,4.9c0,0,6.8-1.8,25.4-4.2
									s26.3-3.9,28.2-7C1169.8,50.6,1168.5,45.9,1168.5,45.9z"/>
							</g>
							<g>
								<path class="st5" d="M1122.8,16.5c11.1-7.1,28.9-17.2,32.1-19.1h-12.2c0,0-34.7,19-31,28.4
									C1111.6,25.8,1116.3,20.7,1122.8,16.5z"/>
							</g>
						</g>
					</g>
				</g>
			</g>
		</g>
	</g>
	<g>
		<g>
			<g>
				<g>
					<defs>
						<rect id="SVGID_5_" x="302" width="1504" height="319.8"/>
					</defs>
					<clipPath id="SVGID_6_">
						<use xlink:href="#SVGID_5_"  style="overflow:visible;"/>
					</clipPath>
					<g class="st6">
						<g>
							<path class="st7" d="M989.1,24.5c0,0-2.8,3.7,0.9,7.2c3.7,3.6,18.8,10.2,18.8,10.2l21.6,8.1l11.5,6.2c0,0,4.7-3.3-1.1-6.9
								c-5.9-3.7-18.1-8.1-18.1-8.1l-22.4-8.5C1000.4,32.7,989.6,27.1,989.1,24.5z"/>
							<path class="st7" d="M990.7,75.1c0,0,7.3,3.9,20.7,8.2c12.4,3.9,26.2,8.1,27.8,11c0,0,2.6-5.9,0.1-7.6s-7-3.9-15.6-6.4
								c-8.7-2.5-24.1-7.7-25.1-8C996.6,72.2,990.7,75.1,990.7,75.1z"/>
							<path class="st7" d="M998.4,99.5c0,0,2.4-1.2,11.3-0.8c8.9,0.4,23.4,2.8,27.7,6.1c4.3,3.3,0.9,6.3,0.9,6.3s-9.9-4.9-15-5.2
								c-5.1-0.3-24.9,0.6-24.9,0.6V99.5z"/>
							<g>
								<path class="st8" d="M1040.3,89.8c0,0-2.4,6.8-6.2,8.1c-3.8,1.3-28.7,5.8-35.6,1.6v7.1c0,0,6.8,2.8,17.2,1
									c10.5-1.7,16.1-2.9,19.9-3.9s4.7-4.4,4.7-4.4V89.8z"/>
							</g>
							<path class="st7" d="M1003.4,117.4c0,0,2.9-2.2,9.5-1.7c6.5,0.4,18.6,0.4,22.2,5.6c-1,3-4.2,3.4-4.2,3.4s-2.8-1.6-6.1-2
								c-3.3-0.4-21.6,1-21.6,1L1003.4,117.4z"/>
							<g>
								<path class="st8" d="M1039.5,108c0,0-3.9,6-8,6.9c-4.1,1-20.3,4.6-28,2.6c-0.1,2.2-0.5,6.1-0.5,6.1s6,1.4,12.4,0.4
									s15.6-2.8,18.7-4.3c3-1.5,4.8-3.4,4.8-3.4L1039.5,108z"/>
							</g>
							<g>
								<path class="st8" d="M1034.9,121.2c0,0-7.3,7-16.5,6c-0.8,1.7-2.3,5.8-2.3,5.8s6.2,0.1,12.3-1.6c6-1.7,5.6-2.8,5.6-2.8
									L1034.9,121.2z"/>
							</g>
							<g>
								<path class="st8" d="M1043.6,52.2c0,0-0.7,6.9-8.1,8.2c-32.5,5.4-44.6,8.8-44.6,8.8l-0.2,5.9c0,0,6.6-2.1,24.8-5.1
									c18.1-3,25.8-4.8,27.6-8.4C1044.8,57.9,1043.6,52.2,1043.6,52.2z"/>
							</g>
							<g>
								<path class="st8" d="M999,17c10.8-8.5,28.3-20.6,31.4-23h-11.9c0,0-33.8,22.8-30.4,34.1C988.1,28.1,992.6,22,999,17z"/>
							</g>
						</g>
					</g>
				</g>
			</g>
		</g>
	</g>
	<g class="st9">
		<g class="st10">
			<g>
				<g>
					<defs>
						<rect id="SVGID_7_" x="2" width="1336.1" height="319.8"/>
					</defs>
					<clipPath id="SVGID_8_">
						<use xlink:href="#SVGID_7_"  style="overflow:visible;"/>
					</clipPath>
					<g class="st11">
						<g>
							<path class="st12" d="M767.4,22.8c0,0-2.4,3.4,0.7,6.8c3.1,3.4,15.9,9.6,15.9,9.6l18.2,7.7l9.7,5.8c0,0,4-3.1-0.9-6.5
								s-15.3-7.6-15.3-7.6l-18.9-8C776.9,30.5,767.8,25.2,767.4,22.8z"/>
							<path class="st12" d="M768.7,70.4c0,0,6.1,3.7,17.4,7.7c10.4,3.7,22.1,7.7,23.4,10.4c0,0,2.2-5.6,0.1-7.2
								c-2.1-1.6-5.9-3.7-13.2-6.1s-20.3-7.2-21.1-7.6C773.8,67.7,768.7,70.4,768.7,70.4z"/>
							<path class="st12" d="M775.3,93.4c0,0,2-1.1,9.5-0.8c7.5,0.4,19.7,2.7,23.3,5.8c3.6,3.1,0.7,6,0.7,6s-8.3-4.6-12.6-4.9
								c-4.2-0.3-20.9,0.6-20.9,0.6V93.4z"/>
							<g>
								<path class="st13" d="M810.5,84.2c0,0-2,6.4-5.2,7.6s-24.2,5.5-30,1.5v6.7c0,0,5.7,2.6,14.5,1c8.9-1.6,13.6-2.7,16.8-3.6
									c3.3-0.9,4-4.2,4-4.2L810.5,84.2z"/>
							</g>
							<path class="st12" d="M779.5,110.2c0,0,2.5-2,7.9-1.6c5.5,0.4,15.7,0.4,18.7,5.3c-0.8,2.8-3.5,3.2-3.5,3.2s-2.4-1.5-5.2-1.9
								s-18.2,0.9-18.2,0.9L779.5,110.2z"/>
							<g>
								<path class="st13" d="M809.9,101.3c0,0-3.4,5.6-6.8,6.5c-3.4,0.9-17.1,4.3-23.6,2.5c-0.1,2-0.4,5.8-0.4,5.8s5,1.3,10.4,0.4
									c5.4-1,13.2-2.7,15.8-4.1s4-3.2,4-3.2L809.9,101.3z"/>
							</g>
							<g>
								<path class="st13" d="M806,113.8c0,0-6.2,6.6-13.9,5.6c-0.6,1.6-1.9,5.5-1.9,5.5s5.3,0.1,10.3-1.5s4.7-2.7,4.7-2.7
									L806,113.8z"/>
							</g>
							<g>
								<path class="st13" d="M813.3,48.8c0,0-0.5,6.5-6.9,7.7c-27.4,5-37.5,8.3-37.5,8.3l-0.2,5.6c0,0,5.6-2,20.9-4.8
									c15.3-2.8,21.7-4.5,23.2-7.9C814.4,54.2,813.3,48.8,813.3,48.8z"/>
							</g>
							<g>
								<path class="st13" d="M775.7,15.6c9.1-8,23.8-19.4,26.4-21.6H792c0,0-28.5,21.5-25.5,32.2C766.5,26.2,770.4,20.4,775.7,15.6
									z"/>
							</g>
						</g>
					</g>
				</g>
			</g>
		</g>
	</g>
	<g class="st9">
		<g class="st10">
			<g>
				<g>
					<defs>
						<rect id="SVGID_9_" x="2" width="1336.1" height="319.8"/>
					</defs>
					<clipPath id="SVGID_10_">
						<use xlink:href="#SVGID_9_"  style="overflow:visible;"/>
					</clipPath>
					<g class="st14">
						<g>
							<path class="st15" d="M688.6,31.7c0,0-3.4,4.5,1,9c4.4,4.4,22.8,12.6,22.8,12.6l26.2,10.1l13.9,7.7c0,0,5.8-4.1-1.3-8.6
								s-21.9-10-21.9-10L702.2,42C702.3,41.9,689.2,35,688.6,31.7z"/>
							<path class="st15" d="M690.6,94.2c0,0,8.8,4.8,25.1,10.1c14.9,4.8,31.7,10,33.7,13.6c0,0,3.1-7.3,0.1-9.4s-8.5-4.8-19-7.9
								s-29.2-9.5-30.4-9.9C697.8,90.7,690.6,94.2,690.6,94.2z"/>
							<path class="st15" d="M700.1,124.4c0,0,2.8-1.5,13.6-1s28.3,3.5,33.5,7.6c5.2,4.1,1,7.8,1,7.8s-12-6-18.1-6.4
								s-30.1,0.7-30.1,0.7L700.1,124.4L700.1,124.4z"/>
							<g>
								<path class="st16" d="M750.7,112.4c0,0-2.9,8.4-7.5,10s-34.8,7.2-43.1,2v8.8c0,0,8.2,3.4,20.9,1.3
									c12.8-2.1,19.5-3.6,24.2-4.8s5.8-5.5,5.8-5.5L750.7,112.4z"/>
							</g>
							<path class="st15" d="M706,146.5c0,0,3.6-2.7,11.4-2.1c7.9,0.6,22.5,0.5,26.8,6.9c-1.2,3.7-5,4.2-5,4.2s-3.4-1.9-7.4-2.5
								s-26.2,1.2-26.2,1.2L706,146.5z"/>
							<g>
								<path class="st16" d="M749.8,134.8c0,0-4.8,7.4-9.7,8.6c-4.9,1.2-24.6,5.6-34,3.2c-0.1,2.7-0.6,7.6-0.6,7.6s7.3,1.8,15,0.5
									s19-3.5,22.7-5.4c3.7-1.8,5.8-4.2,5.8-4.2L749.8,134.8z"/>
							</g>
							<g>
								<path class="st16" d="M744.2,151.2c0,0-8.9,8.7-20,7.4c-0.9,2.1-2.7,7.2-2.7,7.2s7.6,0.1,14.8-2c7.3-2.1,6.8-3.5,6.8-3.5
									L744.2,151.2z"/>
							</g>
							<g>
								<path class="st16" d="M754.7,66c0,0-0.8,8.5-9.9,10.1c-39.4,6.6-54,10.9-54,10.9l-0.3,7.3c0,0,8.1-2.6,30.1-6.3
									c22-3.7,31.2-5.9,33.4-10.4C756.3,73,754.7,66,754.7,66z"/>
							</g>
							<g>
								<path class="st16" d="M700.6,22.4c13.1-10.6,34.3-25.5,38-28.4h-14.5c0,0-41,28.2-36.8,42.2
									C687.4,36.2,692.9,28.6,700.6,22.4z"/>
							</g>
						</g>
					</g>
				</g>
			</g>
		</g>
	</g>
	<g>
		<g>
			<g>
				<g>
					<defs>
						<rect id="SVGID_11_" x="546.4" width="1305.6" height="205.8"/>
					</defs>
					<clipPath id="SVGID_12_">
						<use xlink:href="#SVGID_11_"  style="overflow:visible;"/>
					</clipPath>
					<g class="st17">
						<g>
							<path class="st18" d="M1048.2,30.4c0,0-3.9,4.1,1.2,8c5.1,4,25.9,11.2,25.9,11.2l29.8,9l15.8,6.9c0,0,6.5-3.6-1.6-7.7
								s-24.9-8.9-24.9-8.9l-30.8-9.4C1063.7,39.5,1048.9,33.3,1048.2,30.4z"/>
							<path class="st18" d="M1050.4,86.4c0,0,10,4.3,28.4,9c17,4.3,36.1,9,38.2,12.2c0,0,3.5-6.5,0.2-8.4s-9.7-4.3-21.6-7.1
								c-11.9-2.8-33.2-8.5-34.5-8.9C1058.6,83.1,1050.4,86.4,1050.4,86.4z"/>
							<path class="st18" d="M1061.2,113.3c0,0,3.2-1.4,15.5-0.9c12.3,0.4,32.1,3.2,38.1,6.8c5.9,3.6,1.2,7,1.2,7
								s-13.7-5.3-20.5-5.7c-6.9-0.3-34.2,0.6-34.2,0.6L1061.2,113.3L1061.2,113.3z"/>
							<g>
								<path class="st19" d="M1118.7,102.6c0,0-3.3,7.5-8.5,8.9s-39.5,6.4-49.1,1.8v7.9c0,0,9.3,3,23.7,1.2
									c14.5-1.9,22.2-3.2,27.5-4.2c5.4-1,6.5-4.9,6.5-4.9L1118.7,102.6z"/>
							</g>
							<path class="st18" d="M1067.9,133.1c0,0,4-2.4,13-1.9c8.9,0.5,25.6,0.4,30.5,6.2c-1.4,3.3-5.8,3.8-5.8,3.8s-3.9-1.7-8.4-2.3
								c-4.6-0.5-29.8,1.1-29.8,1.1L1067.9,133.1z"/>
							<g>
								<path class="st19" d="M1117.6,122.7c0,0-5.5,6.6-11,7.7c-5.6,1.1-27.9,5-38.6,2.9c-0.2,2.4-0.7,6.8-0.7,6.8s8.2,1.5,17,0.4
									c8.8-1.2,21.6-3.2,25.8-4.8c4.2-1.7,6.6-3.8,6.6-3.8L1117.6,122.7z"/>
							</g>
							<g>
								<path class="st19" d="M1111.4,137.3c0,0-10.1,7.7-22.8,6.6c-1,1.9-3,6.4-3,6.4s8.6,0.1,16.8-1.8c8.2-1.9,7.7-3.2,7.7-3.2
									L1111.4,137.3z"/>
							</g>
							<g>
								<path class="st19" d="M1123.2,61.1c0,0-0.9,7.7-11.2,9c-44.8,5.9-61.3,9.7-61.3,9.7l-0.3,6.5c0,0,9.2-2.3,34.2-5.6
									c25-3.3,35.4-5.3,37.9-9.3C1125,67.4,1123.2,61.1,1123.2,61.1z"/>
							</g>
							<g>
								<path class="st19" d="M1061.9,22.1c15-9.5,38.9-22.8,43.2-25.4h-16.5c0,0-46.5,25.2-41.7,37.8
									C1046.8,34.4,1053.1,27.7,1061.9,22.1z"/>
							</g>
						</g>
					</g>
				</g>
			</g>
		</g>
	</g>
</g>
</svg>
