<?xml version="1.0" encoding="utf-8"?>
<!-- Generator: Adobe Illustrator 19.2.0, SVG Export Plug-In . SVG Version: 6.00 Build 0)  -->
<svg version="1.1" id="Layer_1" xmlns="http://www.w3.org/2000/svg" xmlns:xlink="http://www.w3.org/1999/xlink" x="0px" y="0px"
	 viewBox="0 0 500 500" style="enable-background:new 0 0 500 500;" xml:space="preserve">
<style type="text/css">
	.st0{opacity:0.54;}
	.st1{fill:#F93D4F;}
	.st2{fill:#FBB03B;}
	.st3{fill:#2D2D2D;}
	.st4{fill:#DDDBD9;}
	.st5{fill:#F4F4ED;stroke:#8C8883;stroke-miterlimit:10;}
	.st6{fill:#252426;}
	.st7{fill:none;stroke:#626163;stroke-width:2;stroke-miterlimit:10;}
	.st8{fill:#3C3B3D;}
	.st9{fill:#2C2A2D;}
	.st10{opacity:0.54;fill:#B2B2B2;enable-background:new    ;}
	.st11{font-family:'MyriadPro-Regular';}
	.st12{font-size:72px;}
</style>
<g class="st0">
	<rect y="1.1" class="st1" width="71" height="30.1"/>
	<rect x="84" y="1.1" class="st2" width="71" height="30.1"/>
	<rect x="170" y="1.1" class="st1" width="71" height="30.1"/>
	<rect x="259" y="1.1" class="st2" width="68" height="30.1"/>
	<rect x="345" y="1.1" class="st1" width="68" height="30.1"/>
	<rect x="429" y="1.1" class="st2" width="71" height="30.1"/>
	<rect y="46.3" class="st1" width="71" height="28.9"/>
	<rect x="84" y="46.3" class="st2" width="71" height="28.9"/>
	<rect x="170" y="46.3" class="st1" width="71" height="28.9"/>
	<rect x="259" y="46.3" class="st2" width="68" height="28.9"/>
	<rect x="345" y="46.3" class="st1" width="68" height="28.9"/>
	<rect x="429" y="46.3" class="st2" width="71" height="28.9"/>
	<rect y="92.5" class="st1" width="71" height="27.8"/>
	<rect y="136.5" class="st1" width="71" height="26.6"/>
	<rect x="84" y="92.5" class="st2" width="71" height="27.8"/>
	<rect x="170" y="92.5" class="st1" width="71" height="27.8"/>
	<rect x="259" y="92.5" class="st2" width="68" height="27.8"/>
	<rect x="345" y="92.5" class="st1" width="68" height="27.8"/>
	<rect x="429" y="92.5" class="st2" width="71" height="27.8"/>
	<rect x="170" y="136.5" class="st1" width="71" height="26.6"/>
	<rect x="259" y="136.5" class="st2" width="68" height="26.6"/>
	<rect x="429" y="136.5" class="st2" width="71" height="26.6"/>
	<rect x="170" y="182.8" class="st1" width="71" height="25.5"/>
</g>
<g>
	<path d="M477,122c0.4,0.3,0.7,0.6,1.1,0.9c3.6-8.7,5.5-18.2,5.5-27.8c0-39.6-31.5-71.9-70.2-71.9s-70.2,32.2-70.2,71.9
		c0,9.7,1.9,19.1,5.4,27.8c0.3-0.4,0.7-0.7,1.1-1c0.6-2.4,2-4.5,4.1-5.8c-2.2-6.7-3.4-13.8-3.4-21c0-35.5,28.2-64.5,63-64.5
		c34.7,0,63,28.9,63,64.5c0,7.3-1.2,14.4-3.4,21.1C475,117.5,476.4,119.6,477,122z"/>
	<path d="M477,122c0.5,1.9,0.4,4-0.3,6l-8.2,21.9c-0.7,2-2,3.5-3.6,4.6c3.4,0.4,6.7-1.5,8-4.9l6.9-18.5c1.1-2.9,0.3-6.1-1.7-8.2
		C477.8,122.5,477.4,122.2,477,122z"/>
	<path d="M468.6,149.8l8.2-21.9c0.7-2,0.8-4.1,0.3-6c-0.6-2.3-2-4.4-4.1-5.8c-0.5-0.3-1.1-0.6-1.7-0.9l-2.3-0.9
		c-0.9-0.2-2.1-0.3-3.5,0c-3.2,0.5-5.4,2.5-6.2,3.3c-2.9,8.2-5.9,16.4-8.8,24.7c-1.9,2.9-2,6.6-0.3,9.3c1.8,2.9,4.9,3.4,5.5,3.5
		c-0.6-0.2-1.2-0.4-1.9-0.5c0.9,0.5,2.8,1.4,5.2,1.4c1.1,0,3.6,0,6-1.6C467.2,152.9,468.2,150.7,468.6,149.8z"/>
	<path d="M358.2,149.8l-8.2-21.9c-0.7-2-0.8-4.1-0.3-6c-0.4,0.3-0.8,0.6-1.1,1c-2,2.1-2.7,5.2-1.7,8.1l6.9,18.5
		c1.3,3.4,4.6,5.3,8,4.9C360.2,153.3,358.9,151.8,358.2,149.8z"/>
	<path d="M349.7,122c-0.5,1.9-0.4,4,0.3,6l8.2,21.9c0.7,2,2,3.5,3.6,4.6c2.5,1.7,5.7,2.2,8.7,1l0.6-0.3c0.9-0.2,2-0.7,3.1-1.5
		c3.7-3.1,2.7-9,2.6-9.3c-2.3-6.6-4.6-13.1-6.8-19.7c0-0.7-0.1-4.7-3.3-7.7c-3.7-3.5-8.4-2.7-8.9-2.6l-2.3,0.9
		c-0.6,0.2-1.2,0.5-1.7,0.9C351.8,117.5,350.3,119.6,349.7,122z"/>
</g>
<g>
	<rect y="474" class="st1" width="71" height="26"/>
	<rect x="84" y="474" class="st2" width="71" height="26"/>
	<rect x="170" y="474" class="st1" width="71" height="26"/>
	<rect x="259" y="474" class="st2" width="68" height="26"/>
	<rect x="345" y="474" class="st1" width="68" height="26"/>
	<rect x="429" y="474" class="st2" width="71" height="26"/>
	<rect y="436" class="st1" width="71" height="25"/>
	<rect x="84" y="436" class="st2" width="71" height="25"/>
	<rect x="170" y="436" class="st1" width="71" height="25"/>
	<rect x="259" y="436" class="st2" width="68" height="25"/>
	<rect x="345" y="436" class="st1" width="68" height="25"/>
	<rect x="429" y="436" class="st2" width="71" height="25"/>
	<rect y="397" class="st1" width="71" height="24"/>
	<rect y="360" class="st1" width="71" height="23"/>
	<rect x="84" y="397" class="st2" width="71" height="24"/>
	<rect x="170" y="397" class="st1" width="71" height="24"/>
	<rect x="259" y="397" class="st2" width="68" height="24"/>
	<rect x="345" y="397" class="st1" width="68" height="24"/>
	<rect x="429" y="397" class="st2" width="71" height="24"/>
	<rect x="170" y="360" class="st1" width="71" height="23"/>
	<rect x="259" y="360" class="st2" width="68" height="23"/>
	<rect x="429" y="360" class="st2" width="71" height="23"/>
	<rect x="170" y="321" class="st1" width="71" height="22"/>
</g>
<g>
	<ellipse class="st3" cx="93.4" cy="100.1" rx="76.6" ry="76.9"/>
	<path class="st4" d="M93.4,135.9c-19.7,0-35.7-16.1-35.7-35.8s16-35.8,35.7-35.8s35.7,16.1,35.7,35.8
		C129.1,119.9,113.1,135.9,93.4,135.9z"/>
	<path class="st3" d="M93.4,112.3c-6.7,0-12.2-5.5-12.2-12.2s5.5-12.2,12.2-12.2s12.2,5.5,12.2,12.2
		C105.6,106.9,100.1,112.3,93.4,112.3z"/>
	<ellipse class="st5" cx="93.4" cy="100.1" rx="4" ry="4"/>
</g>
<g>
	<path class="st6" d="M305.4,191.8H194.6c-2.1,0-3.8-1.7-3.8-3.8V20.2c0-2.1,1.7-3.8,3.8-3.8h110.8c2.1,0,3.8,1.7,3.8,3.8V188
		C309.2,190.1,307.5,191.8,305.4,191.8z"/>
	<path class="st7" d="M194.5,184.9V23.3c0-1.7,1.4-3.1,3.1-3.1h104.9c1.7,0,3.1,1.4,3.1,3.1V185c0,1.7-1.4,3.1-3.1,3.1H197.6
		C195.9,188,194.5,186.6,194.5,184.9z"/>
	<g>
		<ellipse class="st8" cx="250" cy="56.3" rx="12.6" ry="13.1"/>
		<ellipse class="st9" cx="250" cy="56.3" rx="5.2" ry="5.4"/>
	</g>
	<ellipse class="st8" cx="250" cy="126.6" rx="47.9" ry="49.7"/>
	<path class="st9" d="M250,170.1c-23.1,0-42-19.5-42-43.6c0-24,18.8-43.6,42-43.6s42,19.5,42,43.6S273.1,170.1,250,170.1z"/>
	<path class="st8" d="M250,148.6c-11.7,0-21.2-9.9-21.2-22s9.5-22,21.2-22c11.7,0,21.2,9.9,21.2,22S261.7,148.6,250,148.6z"/>
</g>
<rect x="-11" y="217" class="st10" width="552" height="88"/>
<text transform="matrix(1 0 0 1 208.0473 285)" class="st11 st12">DJ</text>
</svg>
