<?xml version="1.0" encoding="utf-8"?>
<!-- Generator: Adobe Illustrator 19.2.0, SVG Export Plug-In . SVG Version: 6.00 Build 0)  -->
<svg version="1.1" id="Layer_1" xmlns="http://www.w3.org/2000/svg" xmlns:xlink="http://www.w3.org/1999/xlink" x="0px" y="0px"
	 viewBox="0 0 150 150" style="enable-background:new 0 0 150 150;" xml:space="preserve">
<style type="text/css">
	.st0{fill:#FFFFFF;}
	.st1{opacity:0.2;fill:#FFFFFF;}
	.st2{opacity:0.8;fill:#326699;}
</style>
<g>
	<path class="st0" d="M115.1,86.6l2.4-18.8H98.9v-12c0-5.4,1.5-9.2,9.3-9.2l9.9,0V29.9c-1.7-0.2-7.6-0.7-14.5-0.7
		c-14.4,0-24.2,8.8-24.2,24.9v13.9H63.2v18.8h16.2v48.3h19.4V86.6H115.1z"/>
	<polygon class="st1" points="150,0 0,150 150,150 	"/>
</g>
<g>
	<path class="st2" d="M305,437.2c0,12.6-10.2,22.8-22.8,22.8H177.8c-12.6,0-22.8-10.2-22.8-22.8V332.8c0-12.6,10.2-22.8,22.8-22.8
		h104.4c12.6,0,22.8,10.2,22.8,22.8V437.2z"/>
	<path class="st0" d="M198.6,343.2h64.8c6.2,0,11.2,5,11.2,11.2v64.8c0,6.2-5,11.2-11.2,11.2h-64.8c-6.2,0-11.2-5-11.2-11.2v-64.8
		C187.4,348.2,192.4,343.2,198.6,343.2z M250.9,352.9c-2.2,0-3.9,1.8-3.9,3.9v9.4c0,2.2,1.8,3.9,3.9,3.9h9.9c2.2,0,3.9-1.8,3.9-3.9
		v-9.4c0-2.2-1.8-3.9-3.9-3.9H250.9z M264.8,380.1h-7.7c0.7,2.4,1.1,4.9,1.1,7.5c0,14.5-12.1,26.3-27.1,26.3
		c-15,0-27.1-11.8-27.1-26.3c0-2.6,0.4-5.1,1.1-7.5h-8v36.9c0,1.9,1.6,3.5,3.5,3.5h60.7c1.9,0,3.5-1.6,3.5-3.5V380.1z M231.1,369.7
		c-9.7,0-17.5,7.6-17.5,17c0,9.4,7.8,17,17.5,17c9.7,0,17.5-7.6,17.5-17C248.6,377.3,240.8,369.7,231.1,369.7z"/>
</g>
</svg>
