<?xml version="1.0" encoding="utf-8"?>
<!-- Generator: Adobe Illustrator 19.2.0, SVG Export Plug-In . SVG Version: 6.00 Build 0)  -->
<svg version="1.1" id="Layer_1" xmlns="http://www.w3.org/2000/svg" xmlns:xlink="http://www.w3.org/1999/xlink" x="0px" y="0px"
	 viewBox="0 0 85.6 20.5" style="enable-background:new 0 0 85.6 20.5;" xml:space="preserve">
<style type="text/css">
	.st0{opacity:0.38;fill:#FFFFFF;}
	.st1{stroke:#000000;stroke-miterlimit:10;}
	.st2{fill:none;}
	.st3{font-family:'TwCenMT-Condensed';}
	.st4{font-size:22.0392px;}
</style>
<path class="st0" d="M78.4,20.5H7.3c-4,0-7.3-3.2-7.3-7.3v-6C0,3.2,3.2,0,7.3,0h71.1c4,0,7.3,3.2,7.3,7.3v6
	C85.6,17.3,82.4,20.5,78.4,20.5z"/>
<g>
	<rect x="11.3" y="8" class="st1" width="21.3" height="5"/>
	<path class="st1" d="M11.1,7.1v-3l-6.7,6.7c2.2,2.1,4.5,4.1,6.7,6.2C11.1,13.7,11.1,10.4,11.1,7.1z"/>
</g>
<rect x="37.5" y="-1.1" class="st2" width="46.3" height="23.2"/>
<text transform="matrix(0.8167 0 0 1 37.5 16.7369)" class="st3 st4">GO </text>
</svg>
