<?xml version="1.0" encoding="utf-8"?>
<!-- Generator: Adobe Illustrator 19.2.0, SVG Export Plug-In . SVG Version: 6.00 Build 0)  -->
<svg version="1.1" id="Layer_1" xmlns="http://www.w3.org/2000/svg" xmlns:xlink="http://www.w3.org/1999/xlink" x="0px" y="0px"
	 viewBox="0 0 500 500" style="enable-background:new 0 0 500 500;" xml:space="preserve">
<style type="text/css">
	.st0{opacity:0.47;}
	.st1{fill:#29ABE2;}
	.st2{fill:#00FF00;}
	.st3{fill:#31313D;}
	.st4{opacity:0.54;fill:#B2B2B2;enable-background:new    ;}
	.st5{font-family:'Tw Cen MT Condensed';}
	.st6{font-size:100px;}
</style>
<g class="st0">
	<rect x="0.5" y="1" class="st1" width="71" height="26.7"/>
	<rect x="84.5" y="1" class="st1" width="71" height="26.7"/>
	<rect x="170.5" y="1" class="st1" width="71" height="26.7"/>
	<rect x="259.5" y="1" class="st1" width="68" height="26.7"/>
	<rect x="345.5" y="1" class="st1" width="68" height="26.7"/>
	<rect x="429.5" y="1" class="st1" width="71" height="26.7"/>
	<rect x="0.5" y="41" class="st1" width="71" height="25.7"/>
	<rect x="84.5" y="41" class="st1" width="71" height="25.7"/>
	<rect x="170.5" y="41" class="st1" width="71" height="25.7"/>
	<rect x="259.5" y="41" class="st1" width="68" height="25.7"/>
	<rect x="345.5" y="41" class="st1" width="68" height="25.7"/>
	<rect x="429.5" y="41" class="st1" width="71" height="25.7"/>
	<rect x="0.5" y="82.1" class="st1" width="71" height="24.7"/>
	<rect x="0.5" y="121.2" class="st1" width="71" height="23.6"/>
	<rect x="84.5" y="82.1" class="st1" width="71" height="24.7"/>
	<rect x="170.5" y="82.1" class="st1" width="71" height="24.7"/>
	<rect x="259.5" y="82.1" class="st1" width="68" height="24.7"/>
	<rect x="345.5" y="82.1" class="st1" width="68" height="24.7"/>
	<rect x="429.5" y="82.1" class="st1" width="71" height="24.7"/>
	<rect x="170.5" y="121.2" class="st1" width="71" height="23.6"/>
	<rect x="259.5" y="121.2" class="st1" width="68" height="23.6"/>
	<rect x="429.5" y="121.2" class="st1" width="71" height="23.6"/>
	<rect x="170.5" y="162.3" class="st1" width="71" height="22.6"/>
</g>
<g class="st0">
	<rect x="1" y="474" class="st2" width="71" height="26"/>
	<rect x="85" y="474" class="st2" width="71" height="26"/>
	<rect x="171" y="474" class="st2" width="71" height="26"/>
	<rect x="260" y="474" class="st2" width="68" height="26"/>
	<rect x="346" y="474" class="st2" width="68" height="26"/>
	<rect x="430" y="474" class="st2" width="71" height="26"/>
	<rect x="1" y="436" class="st2" width="71" height="25"/>
	<rect x="85" y="436" class="st2" width="71" height="25"/>
	<rect x="171" y="436" class="st2" width="71" height="25"/>
	<rect x="260" y="436" class="st2" width="68" height="25"/>
	<rect x="346" y="436" class="st2" width="68" height="25"/>
	<rect x="430" y="436" class="st2" width="71" height="25"/>
	<rect x="1" y="397" class="st2" width="71" height="24"/>
	<rect x="1" y="360" class="st2" width="71" height="23"/>
	<rect x="85" y="397" class="st2" width="71" height="24"/>
	<rect x="171" y="397" class="st2" width="71" height="24"/>
	<rect x="260" y="397" class="st2" width="68" height="24"/>
	<rect x="346" y="397" class="st2" width="68" height="24"/>
	<rect x="430" y="397" class="st2" width="71" height="24"/>
	<rect x="171" y="360" class="st2" width="71" height="23"/>
	<rect x="260" y="360" class="st2" width="68" height="23"/>
	<rect x="430" y="360" class="st2" width="71" height="23"/>
	<rect x="171" y="321" class="st2" width="71" height="22"/>
</g>
<g>
	<path class="st3" d="M483,118.2C483,118.1,483,118.1,483,118.2C483,118.1,483,118.1,483,118.2L482.4,16h-5.6l0.4,89.8
		c-4.1-3.9-10.1-6.4-16.9-6.4c-12.4,0-22.4,8.4-22.4,18.7s10,18.5,22.4,18.5c12.3,0,22.2-7.6,22.4-18.6h0.2v0.2H483z"/>
	<path class="st3" d="M424,126L424,126L424,126l-0.4-61h-3.5l0.3,53.6c-2.6-2.3-6.3-3.8-10.5-3.8c-7.7,0-13.9,5-13.9,11.1
		c0,6.2,6.2,11.1,13.9,11.1c7.6,0,13.8-5.1,13.9-11.1L424,126L424,126z"/>
	<path class="st3" d="M329,118L329,118L329,118l-0.4-61h-3.5l0.3,53.6c-2.6-2.3-6.3-3.8-10.5-3.8c-7.7,0-13.9,5-13.9,11.1
		c0,6.2,6.2,11.1,13.9,11.1c7.6,0,13.8-5.1,13.9-11.1L329,118L329,118z"/>
	<path class="st3" d="M145,79L145,79L145,79l-0.4-61h-3.5l0.3,53.6c-2.6-2.3-6.3-3.8-10.5-3.8c-7.7,0-13.9,5-13.9,11.1
		c0,6.2,6.2,11.1,13.9,11.1c7.6,0,13.8-5.1,13.9-11.1L145,79L145,79z"/>
	<path class="st3" d="M393.8,34.8C381.5,27.3,380,16.2,380,16.1V16h-4.1l0.3,57.4c-2.9-2.5-7.1-4.1-11.7-4.1
		c-8.6,0-15.6,5.3-15.6,11.9s7,11.7,15.6,11.7c8.5,0,15.5-4.9,15.6-11.9h0.9v0.2l0,0l0,0l-0.7-53.5c2,2.9,5.3,6.3,11.7,10.7
		c12.7,8.7,3.5,17.8,3.5,17.8C403.6,52.6,405.6,42.1,393.8,34.8z"/>
	<path class="st3" d="M71.8,60.8C59.5,53.3,58,42.2,58,42.1V42h-4.1l0.3,57.4c-2.9-2.5-7.1-4.1-11.7-4.1c-8.6,0-15.6,5.3-15.6,11.9
		s7,11.7,15.6,11.7c8.5,0,15.5-4.9,15.6-11.9H59v0.2l0,0l0,0l-0.7-53.5c2,2.9,5.3,6.3,11.7,10.7c12.7,8.7,3.5,17.8,3.5,17.8
		C81.6,78.6,83.6,68.1,71.8,60.8z"/>
	<path class="st3" d="M210.8,34.8C198.5,27.3,197,16.2,197,16.1V16h-4.1l0.3,57.4c-2.9-2.5-7.1-4.1-11.7-4.1
		c-8.6,0-15.6,5.3-15.6,11.9s7,11.7,15.6,11.7c8.5,0,15.5-4.9,15.6-11.9h0.9v0.2l0,0l0,0l-0.7-53.5c2,2.9,5.3,6.3,11.7,10.7
		c12.7,8.7,3.5,17.8,3.5,17.8C220.6,52.6,222.6,42.1,210.8,34.8z"/>
	<path class="st3" d="M292,57.6L292,57.6C292,57.6,292,57.5,292,57.6l0.3-42.6l0,0v-0.7l-34.9,4.1l0.1,5.1l0.2,32.7
		c-1.8-1.6-4.5-2.7-7.5-2.7c-5.5,0-9.9,3.5-9.9,7.8s4.5,7.6,9.9,7.6s9.9-2.9,9.9-7.9H260v0.3l0,0l0,0l-0.1-38.1l30-3.7l0.2,32.9
		c-1.8-1.6-4.5-2.7-7.5-2.7c-5.5,0-9.9,3.5-9.9,7.8s4.5,7.9,9.9,7.9s9.9-3.5,9.9-7.5H292V57.6z"/>
	<path class="st3" d="M124,43.6L124,43.6C124,43.6,124,43.5,124,43.6L124.3,1l0,0V0.3L89.4,4.4l0.1,5.1l0.2,32.7
		c-1.8-1.6-4.5-2.7-7.5-2.7c-5.5,0-9.9,3.5-9.9,7.8s4.5,7.6,9.9,7.6s9.9-2.9,9.9-7.9H92v0.3l0,0l0,0L91.9,9.2l30-3.7l0.2,32.9
		c-1.8-1.6-4.5-2.7-7.5-2.7c-5.5,0-9.9,3.5-9.9,7.8s4.5,7.9,9.9,7.9s9.9-3.5,9.9-7.5H124V43.6z"/>
	<path class="st3" d="M250,125.6L250,125.6C250,125.6,250,125.5,250,125.6l0.3-42.6l0,0v-0.7l-34.9,4.1l0.1,5.1l0.2,32.7
		c-1.8-1.6-4.5-2.7-7.5-2.7c-5.5,0-9.9,3.5-9.9,7.8s4.5,7.6,9.9,7.6s9.9-2.9,9.9-7.9H218v0.3l0,0l0,0l-0.1-38.1l30-3.7l0.2,32.9
		c-1.8-1.6-4.5-2.7-7.5-2.7c-5.5,0-9.9,3.5-9.9,7.8s4.5,7.9,9.9,7.9s9.9-3.5,9.9-7.5H250V125.6z"/>
</g>
<g>
	<path class="st3" d="M479,474.2C479,474.1,479,474.1,479,474.2C479,474.1,479,474.1,479,474.2L478.4,372h-5.6l0.4,89.8
		c-4.1-3.9-10.1-6.4-16.9-6.4c-12.4,0-22.4,8.4-22.4,18.7c0,10.3,10,18.5,22.4,18.5c12.3,0,22.2-7.6,22.4-18.6h0.2v0.2H479z"/>
	<path class="st3" d="M420,482L420,482L420,482l-0.4-61h-3.5l0.3,53.6c-2.6-2.3-6.3-3.8-10.5-3.8c-7.7,0-13.9,5-13.9,11.1
		c0,6.2,6.2,11.1,13.9,11.1c7.6,0,13.8-5.1,13.9-11.1L420,482L420,482z"/>
	<path class="st3" d="M325,474L325,474L325,474l-0.4-61h-3.5l0.3,53.6c-2.6-2.3-6.3-3.8-10.5-3.8c-7.7,0-13.9,5-13.9,11.1
		c0,6.2,6.2,11.1,13.9,11.1c7.6,0,13.8-5.1,13.9-11.1L325,474L325,474z"/>
	<path class="st3" d="M131,482L131,482L131,482l-0.4-61h-3.5l0.3,53.6c-2.6-2.3-6.3-3.8-10.5-3.8c-7.7,0-13.9,5-13.9,11.1
		c0,6.2,6.2,11.1,13.9,11.1c7.6,0,13.8-5.1,13.9-11.1L131,482L131,482z"/>
	<path class="st3" d="M389.8,390.8c-12.3-7.5-13.8-18.6-13.8-18.7V372h-4.1l0.3,57.4c-2.9-2.5-7.1-4.1-11.7-4.1
		c-8.6,0-15.6,5.3-15.6,11.9s7,11.7,15.6,11.7c8.5,0,15.5-4.9,15.6-11.9h0.9v0.2l0,0l0,0l-0.7-53.5c2,2.9,5.3,6.3,11.7,10.7
		c12.7,8.7,3.5,17.8,3.5,17.8C399.6,408.6,401.6,398.1,389.8,390.8z"/>
	<path class="st3" d="M67.8,416.8C55.5,409.3,54,398.2,54,398.1V398h-4.1l0.3,57.4c-2.9-2.5-7.1-4.1-11.7-4.1
		c-8.6,0-15.6,5.3-15.6,11.9s7,11.7,15.6,11.7c8.5,0,15.5-4.9,15.6-11.9H55v0.2l0,0l0,0l-0.7-53.5c2,2.9,5.3,6.3,11.7,10.7
		c12.7,8.7,3.5,17.8,3.5,17.8C77.6,434.6,79.6,424.1,67.8,416.8z"/>
	<path class="st3" d="M194.8,426.8c-12.3-7.5-13.8-18.6-13.8-18.7V408h-4.1l0.3,57.4c-2.9-2.5-7.1-4.1-11.7-4.1
		c-8.6,0-15.6,5.3-15.6,11.9s7,11.7,15.6,11.7c8.5,0,15.5-4.9,15.6-11.9h0.9v0.2l0,0l0,0l-0.7-53.5c2,2.9,5.3,6.3,11.7,10.7
		c12.7,8.7,3.5,17.8,3.5,17.8C204.6,444.6,206.6,434.1,194.8,426.8z"/>
	<path class="st3" d="M288,413.6L288,413.6C288,413.6,288,413.5,288,413.6l0.3-42.6l0,0v-0.7l-34.9,4.1l0.1,5.1l0.2,32.7
		c-1.8-1.6-4.5-2.7-7.5-2.7c-5.5,0-9.9,3.5-9.9,7.8s4.5,7.6,9.9,7.6s9.9-2.9,9.9-7.9H256v0.3l0,0l0,0l-0.1-38.1l30-3.7l0.2,32.9
		c-1.8-1.6-4.5-2.7-7.5-2.7c-5.5,0-9.9,3.5-9.9,7.8s4.5,7.9,9.9,7.9s9.9-3.5,9.9-7.5H288V413.6z"/>
	<path class="st3" d="M157,413.6L157,413.6C157,413.6,157,413.5,157,413.6l0.3-42.6l0,0v-0.7l-34.9,4.1l0.1,5.1l0.2,32.7
		c-1.8-1.6-4.5-2.7-7.5-2.7c-5.5,0-9.9,3.5-9.9,7.8s4.5,7.6,9.9,7.6s9.9-2.9,9.9-7.9H125v0.3l0,0l0,0l-0.1-38.1l30-3.7l0.2,32.9
		c-1.8-1.6-4.5-2.7-7.5-2.7c-5.5,0-9.9,3.5-9.9,7.8s4.5,7.9,9.9,7.9s9.9-3.5,9.9-7.5H157V413.6z"/>
	<path class="st3" d="M246,481.6L246,481.6C246,481.6,246,481.5,246,481.6l0.3-42.6l0,0v-0.7l-34.9,4.1l0.1,5.1l0.2,32.7
		c-1.8-1.6-4.5-2.7-7.5-2.7c-5.5,0-9.9,3.5-9.9,7.8s4.5,7.6,9.9,7.6s9.9-2.9,9.9-7.9H214v0.3l0,0l0,0l-0.1-38.1l30-3.7l0.2,32.9
		c-1.8-1.6-4.5-2.7-7.5-2.7c-5.5,0-9.9,3.5-9.9,7.8s4.5,7.9,9.9,7.9s9.9-3.5,9.9-7.5H246V481.6z"/>
</g>
<rect y="210" class="st4" width="501" height="88"/>
<text transform="matrix(1 0 0 1 59.5063 284)" class="st5 st6">LIGHT MUSIC</text>
</svg>
