<?xml version="1.0" encoding="utf-8"?>
<!-- Generator: Adobe Illustrator 19.2.0, SVG Export Plug-In . SVG Version: 6.00 Build 0)  -->
<svg version="1.1" id="Layer_1" xmlns="http://www.w3.org/2000/svg" xmlns:xlink="http://www.w3.org/1999/xlink" x="0px" y="0px"
	 viewBox="0 0 500 500" style="enable-background:new 0 0 500 500;" xml:space="preserve">
<style type="text/css">
	.st0{opacity:0.56;fill:url(#SVGID_1_);stroke:#000000;stroke-miterlimit:10;enable-background:new    ;}
	.st1{opacity:0.43;}
	.st2{fill:none;stroke:#FFFFFF;stroke-width:2;stroke-miterlimit:10;}
	.st3{fill:none;}
	.st4{font-family:'Tw Cen MT Condensed';}
	.st5{font-size:12px;}
	.st6{fill:#EF2E53;stroke:#CCCCCC;stroke-width:3;stroke-miterlimit:10;}
	.st7{fill:#F9F9F9;}
	.st8{fill:#FFFFFF;}
	.st9{fill:#E2E2E2;}
	.st10{display:none;}
	.st11{display:inline;fill:#42592D;}
	.st12{display:inline;fill:#EC6B4E;}
	.st13{display:inline;fill:#F1EED9;}
	.st14{fill:#42592D;}
	.st15{fill:#EC6B4E;}
	.st16{fill:#F1EED9;}
	.st17{display:inline;fill:#6A8733;}
	.st18{display:inline;fill:#A8C76D;}
	.st19{fill:#6A8733;}
	.st20{fill:#A8C76D;}
	.st21{fill:#FFAE00;}
	.st22{fill:#FCC44B;}
	.st23{fill:#E6535F;}
	.st24{fill:#F2B1B6;}
	.st25{fill:#D6F2A2;}
	.st26{fill:#41582C;}
	.st27{fill:#F2F2F2;}
	.st28{fill:url(#SVGID_2_);}
	.st29{fill:#F9F9D9;}
	.st30{fill:#E9AD76;}
	.st31{fill:#EEC095;}
	.st32{fill:#F4D6BA;}
	.st33{fill:#FB7745;}
	.st34{fill:#FFD57C;}
	.st35{opacity:0.39;fill:#FFFFFF;enable-background:new    ;}
	.st36{font-size:100px;}
</style>
<linearGradient id="SVGID_1_" gradientUnits="userSpaceOnUse" x1="250" y1="500" x2="250" y2="-1.122498e-008" gradientTransform="matrix(1 0 0 -1 0 500)">
	<stop  offset="0" style="stop-color:#FFFFFF"/>
	<stop  offset="0.7366" style="stop-color:#FF6A6A"/>
</linearGradient>
<rect class="st0" width="500" height="500"/>
<g class="st1">
	<line class="st2" x1="18" y1="0" x2="18" y2="500"/>
	<line class="st2" x1="33" y1="0" x2="33" y2="500"/>
	<line class="st2" x1="47" y1="0" x2="47" y2="500"/>
	<line class="st2" x1="62" y1="0" x2="62" y2="500"/>
	<line class="st2" x1="77" y1="0" x2="77" y2="500"/>
	<line class="st2" x1="92" y1="0" x2="92" y2="500"/>
	<line class="st2" x1="107" y1="0" x2="107" y2="500"/>
	<line class="st2" x1="122" y1="0" x2="122" y2="500"/>
	<line class="st2" x1="137" y1="0" x2="137" y2="500"/>
	<line class="st2" x1="152" y1="0" x2="152" y2="500"/>
	<path id="SVGID_x5F_1_x5F_" class="st3" d="M167,0v500"/>
	<text class="st4 st5"> </text>
	<text transform="matrix(1 0 0 1 167 366.455)" class="st4 st5"> </text>
	<text transform="matrix(1 0 0 1 167 369.789)" class="st4 st5"> </text>
	<text class="st4 st5"> </text>
	<line class="st2" x1="182" y1="0" x2="182" y2="500"/>
	<line class="st2" x1="197" y1="0" x2="197" y2="500"/>
	<line class="st2" x1="212" y1="0" x2="212" y2="500"/>
	<line class="st2" x1="227" y1="0" x2="227" y2="500"/>
	<line class="st2" x1="242" y1="0" x2="242" y2="500"/>
	<line class="st2" x1="257" y1="0" x2="257" y2="500"/>
	<line class="st2" x1="272" y1="0" x2="272" y2="500"/>
	<line class="st2" x1="287" y1="0" x2="287" y2="500"/>
	<line class="st2" x1="302" y1="0" x2="302" y2="500"/>
	<line class="st2" x1="317" y1="0" x2="317" y2="500"/>
	<line class="st2" x1="332" y1="0" x2="332" y2="500"/>
	<line class="st2" x1="347" y1="0" x2="347" y2="500"/>
	<line class="st2" x1="362" y1="0" x2="362" y2="500"/>
	<line class="st2" x1="377" y1="0" x2="377" y2="500"/>
	<line class="st2" x1="392" y1="0" x2="392" y2="500"/>
	<line class="st2" x1="407" y1="0" x2="407" y2="500"/>
	<line class="st2" x1="422" y1="0" x2="422" y2="500"/>
	<line class="st2" x1="437" y1="0" x2="437" y2="500"/>
	<line class="st2" x1="452" y1="0" x2="452" y2="500"/>
	<line class="st2" x1="467" y1="0" x2="467" y2="500"/>
	<line class="st2" x1="482" y1="0" x2="482" y2="500"/>
</g>
<rect x="129.4" y="56.5" transform="matrix(0.7071 -0.7071 0.7071 0.7071 -47.814 218.5257)" class="st6" width="221" height="221"/>
<path class="st7" d="M72.9,64c-1.3,15.3-0.8,43.2-4.3,43.2c-2.8,0-3.1-28.1-3-42.8c0.2-14-3.4-8.2-3.8-4.7
	c-1.2,11.2-7.6,52.1-1.4,62.4c2.7,4.4,9,8.6,10.4,12.2c3,8.1-0.7,66.4-3.3,94.9c-2.6,28.5-8.6,58.9,7.8,58.9s10.4-30.4,7.8-58.9
	s-6.3-86.8-3.3-94.9c1.3-3.6,7.7-7.8,10.4-12.2c6.2-10.3-0.2-51.1-1.4-62.4c-0.4-3.5-4-9.3-3.8,4.7c0.2,14.7-0.2,42.8-3,42.8
	c-3.6,0-3-28-4.4-43.2C76.3,51,74,50.9,72.9,64z"/>
<path class="st8" d="M414.6,281.4c12.9,0,8.2-30.1,6.2-58.3c-2.1-28.2-5-85.9-2.6-93.9c2.3-8,14.4-10.6,17.3-30.4
	c2.9-19.9-6.7-47.4-20.8-47.4c-14.1,0-23.7,27.6-20.8,47.4c2.9,19.9,14.9,22.4,17.3,30.4c2.3,8-0.6,65.7-2.6,93.9
	C406.4,251.3,401.7,281.4,414.6,281.4z"/>
<ellipse class="st7" cx="242.6" cy="156.5" rx="79.4" ry="81"/>
<ellipse class="st9" cx="242.6" cy="156.5" rx="75.2" ry="72.8"/>
<g class="st10">
	<path class="st11" d="M242.3,222.2l-3-1.1l-1.5-0.5l-7.3,7.8l0.5,1.6l1,3.2c0.3,0.9,1.5,0.9,1.7-0.1l1-4.1l3.8,1.4
		c0.4,0.1,0.7,0,0.9-0.2s0.3-0.6,0.2-1l-1.3-4.1l3.9-1.1C243.1,223.8,243.1,222.5,242.3,222.2z"/>
	<path class="st12" d="M237.9,210.5l-14-7.5c-2.4-1.3-5.4-0.8-7.3,1.3c-1.9,2.1-2.4,5.2-1.2,7.9l7,15c1.8,3.8,6.3,4.8,9.3,2.3
		c0.2-0.2,0.4-0.4,0.6-0.6l7.2-7.7c0.2-0.2,0.4-0.4,0.5-0.7C242.4,217.2,241.5,212.3,237.9,210.5z"/>
	<path class="st13" d="M227.8,226.5c-1-1.1-2.1-1.6-2.5-1.1c-0.4,0.4,0.1,1.6,1.1,2.7c1,1.1,2.1,1.6,2.5,1.1
		C229.3,228.8,228.8,227.5,227.8,226.5z"/>
	<path class="st13" d="M225.7,212.2c-0.8-0.8-1.7-1.3-1.9-0.9s0.1,1.3,0.9,2.1c0.8,0.8,1.7,1.3,1.9,0.9
		C226.8,214,226.4,213.1,225.7,212.2z"/>
	<path class="st13" d="M219.4,206.5c-0.6-0.6-1.4-0.8-1.8-0.3s-0.3,1.3,0.3,1.9s1.4,0.8,1.8,0.3S220,207.1,219.4,206.5z"/>
	<path class="st13" d="M229.9,210.6c-0.7-0.7-1.5-1-1.8-0.7s0,1.2,0.7,1.9s1.5,1,1.8,0.7C230.9,212.1,230.6,211.3,229.9,210.6z"/>
	<path class="st13" d="M225.9,218.8c-0.8-0.9-1.8-1.2-2.2-0.7s-0.1,1.5,0.7,2.4s1.8,1.2,2.2,0.7C227,220.8,226.7,219.7,225.9,218.8z
		"/>
	<path class="st13" d="M237.6,213.5c-1-1.1-2.2-1.5-2.7-1s-0.1,1.8,0.9,2.9c1,1.1,2.2,1.5,2.7,1S238.5,214.5,237.6,213.5z"/>
	<path class="st13" d="M232,219.7c-0.9-1-2.1-1.5-2.5-1s0,1.7,0.9,2.7s2.1,1.5,2.5,1S233,220.7,232,219.7z"/>
</g>
<g>
	<path class="st14" d="M293.3,107.9l1.8,2.6l0.9,1.3l10.5-2l0.6-1.6l1.1-3.2c0.3-0.9-0.7-1.6-1.4-1l-3.3,2.7l-2.2-3.3
		c-0.2-0.3-0.6-0.4-0.9-0.4c-0.3,0.1-0.6,0.3-0.8,0.7l-1.4,4l-3.8-1.4C293.6,106.1,292.8,107.1,293.3,107.9z"/>
	<path class="st15" d="M289.9,119.9l6.8,14.3c1.2,2.5,3.9,3.8,6.7,3.3c2.8-0.5,5-2.8,5.6-5.6l3.2-16.2c0.8-4.1-2.2-7.6-6.1-7.3
		c-0.3,0-0.6,0-0.8,0.1l-10.3,2c-0.3,0.1-0.6,0.1-0.8,0.2C290.3,111.8,288.2,116.3,289.9,119.9z"/>
	<path class="st16" d="M307.6,113c0.2,1.4,0.8,2.5,1.4,2.4s0.9-1.4,0.7-2.8c-0.2-1.4-0.8-2.5-1.4-2.4S307.4,111.5,307.6,113z"/>
	<path class="st16" d="M300.8,125.7c0.1,1.1,0.6,2,1,1.9s0.7-1.1,0.5-2.2c-0.1-1.1-0.6-2-1-1.9S300.7,124.6,300.8,125.7z"/>
	<path class="st16" d="M302.5,134.1c0.1,0.8,0.7,1.4,1.3,1.3c0.6-0.1,1-0.9,0.9-1.7s-0.7-1.4-1.3-1.3
		C302.8,132.5,302.4,133.2,302.5,134.1z"/>
	<path class="st16" d="M296.4,124.5c0.1,1,0.6,1.7,1,1.6s0.7-1,0.6-2s-0.6-1.7-1-1.6C296.5,122.7,296.3,123.5,296.4,124.5z"/>
	<path class="st16" d="M304.6,120.3c0.1,1.2,0.8,2,1.4,1.9s1-1.2,0.9-2.3s-0.8-2-1.4-1.9S304.4,119.1,304.6,120.3z"/>
	<path class="st16" d="M292,117.7c0.2,1.4,0.9,2.5,1.6,2.4s1.1-1.4,1-2.8c-0.2-1.4-0.9-2.5-1.6-2.4C292.3,115,291.8,116.2,292,117.7
		z"/>
	<path class="st16" d="M300.1,116c0.2,1.4,0.8,2.4,1.4,2.3s1-1.3,0.8-2.7c-0.2-1.4-0.8-2.4-1.4-2.3S299.9,114.6,300.1,116z"/>
</g>
<g class="st10">
	<path class="st17" d="M180.8,138.1c8.5,3.2,48.8-25.7,32.9-37.4c-0.7-0.5-1.5-0.9-2.4-1.2c0.9-6.4-1.4-12-6.3-13.8
		c-4.9-1.8-11,0.7-15.3,5.8c-0.8-0.3-1.7-0.5-2.6-0.6C166.5,89,172.2,134.9,180.8,138.1z"/>
	<path class="st18" d="M180.8,138.1c5.2,1.9,22.4-8.1,31.2-18.9c-6.2,6.4-19.1,14.1-23,11.6c-4.4-2.9,6-8.9,11.4-13.6s6.8-7,0.2-2.8
		c-6.6,4.3-7.8,3.8-3.9-4.6c3.9-8.5,8.7-24.9,2.6-12.5c-6.1,12.4-9.6,19.1-11.1,13.1s-2.5-11.5-2.2,0.1s-0.4,13.9-5.5,15.8
		c-5,1.9-7.8-4.8-7.3-16.4C172.4,122.3,176.2,136.4,180.8,138.1z"/>
</g>
<g>
	<path class="st19" d="M282.3,219.4c8.9,3.5,50.8-28.2,34.2-41.1c-0.7-0.6-1.6-1-2.4-1.4c1-7-1.4-13.1-6.5-15.1s-11.4,0.7-15.9,6.3
		c-0.9-0.4-1.8-0.6-2.7-0.7C267.4,165.4,273.4,215.9,282.3,219.4z"/>
	<path class="st20" d="M282.3,219.4c5.4,2.1,23.3-9,32.5-20.8c-6.5,7-19.9,15.6-23.9,12.7c-4.5-3.2,6.2-9.8,11.8-15
		c5.6-5.2,7.1-7.7,0.2-3.1c-6.9,4.7-8.1,4.2-4.1-5.1c4.1-9.3,9-27.4,2.7-13.7s-9.9,21-11.5,14.4s-2.6-12.6-2.3,0.2
		c0.3,12.8-0.4,15.3-5.8,17.4c-5.2,2-8.1-5.3-7.6-18C273.6,202.1,277.5,217.5,282.3,219.4z"/>
</g>
<g class="st10">
	<path class="st17" d="M227.7,183.8c8.9,3.5,50.8-28.2,34.2-41.1c-0.7-0.6-1.6-1-2.4-1.4c1-7-1.4-13.1-6.5-15.1
		c-5.1-2-11.4,0.7-15.9,6.3c-0.9-0.4-1.8-0.6-2.7-0.7C212.8,129.8,218.8,180.3,227.7,183.8z"/>
	<path class="st18" d="M227.7,183.8c5.4,2.1,23.3-9,32.5-20.8c-6.5,7-19.9,15.6-23.9,12.7c-4.5-3.2,6.2-9.8,11.8-15s7.1-7.7,0.2-3.1
		c-6.9,4.7-8.1,4.2-4.1-5.1c4.1-9.3,9-27.4,2.7-13.7s-9.9,21-11.5,14.4s-2.6-12.6-2.3,0.2s-0.4,15.3-5.8,17.4c-5.2,2-8.1-5.3-7.6-18
		C219,166.5,222.9,181.9,227.7,183.8z"/>
</g>
<g>
	<path class="st19" d="M216.7,182.9c1.8-9.4-37.1-44.7-46.7-26c-0.4,0.8-0.7,1.7-0.9,2.7c-7,0.3-12.7,3.8-13.7,9.2
		s2.8,11.1,9.1,14.5c-0.2,0.9-0.3,1.9-0.2,2.8C166.4,207.4,215,192.2,216.7,182.9z"/>
	<path class="st20" d="M216.7,182.9c1.1-5.7-13.1-21.2-26.4-28.1c8.1,5.1,18.9,16.7,16.9,21.2c-2.3,5-10.8-4.3-16.9-8.9
		c-6.1-4.6-8.9-5.5-3.1,0.3c5.9,5.9,5.6,7.2-4.3,4.9c-9.9-2.3-28.5-3.8-14-0.1c14.6,3.7,22.5,5.9,16.3,8.7s-11.9,4.9,0.6,2.2
		s15.1-2.4,18.2,2.5c3,4.8-3.7,8.9-16.3,10.8C201.3,194.6,215.8,187.9,216.7,182.9z"/>
</g>
<g>
	<path class="st19" d="M294.5,100.7c1.8-9.4-37.1-44.7-46.7-26c-0.4,0.8-0.7,1.7-0.9,2.7c-7,0.3-12.7,3.8-13.7,9.2
		c-1,5.4,2.8,11.1,9.1,14.5c-0.2,0.9-0.3,1.9-0.2,2.8C244.2,125.2,292.8,110.1,294.5,100.7z"/>
	<path class="st20" d="M294.5,100.7c1.1-5.7-13.1-21.2-26.4-28.1c8.1,5.1,18.9,16.7,16.9,21.2c-2.3,5-10.8-4.3-16.9-8.9
		s-8.9-5.5-3.1,0.3c5.9,5.9,5.6,7.2-4.3,4.9c-9.9-2.3-28.5-3.8-14-0.1c14.6,3.7,22.5,5.9,16.3,8.7c-6.2,2.8-11.9,4.9,0.6,2.2
		c12.5-2.7,15.1-2.4,18.2,2.5c3,4.8-3.7,8.9-16.3,10.8C279.1,112.4,293.6,105.7,294.5,100.7z"/>
</g>
<g>
	<ellipse class="st21" cx="212" cy="123.5" rx="12.4" ry="12.1"/>
	<ellipse class="st22" cx="212" cy="123.5" rx="8.7" ry="8.5"/>
	<ellipse class="st21" cx="212" cy="123.5" rx="5" ry="4.9"/>
</g>
<g>
	<ellipse class="st21" cx="212" cy="190.4" rx="12.4" ry="12.1"/>
	<ellipse class="st22" cx="212" cy="190.4" rx="8.7" ry="8.5"/>
	<ellipse class="st21" cx="212" cy="190.4" rx="5" ry="4.9"/>
</g>
<g>
	<ellipse class="st21" cx="265.5" cy="220.6" rx="12.4" ry="12.1"/>
	<ellipse class="st22" cx="265.5" cy="220.6" rx="8.7" ry="8.5"/>
	<ellipse class="st21" cx="265.5" cy="220.6" rx="5" ry="4.9"/>
</g>
<g>
	<path class="st23" d="M192.5,139.5c11.1,0,20.2,8.7,20.2,19.4s-9,19.4-20.2,19.4l0,0v-4.8l0,0c8.4,0,15.2-6.6,15.2-14.7
		c0-8.1-6.8-14.7-15.2-14.7V139.5z M192.5,139.5L192.5,139.5v4.8l0,0c-8.4,0-15.2,6.6-15.2,14.7c0,8.1,6.8,14.7,15.2,14.7v4.8
		c-11.1,0-20.2-8.7-20.2-19.4C172.3,148.3,181.4,139.5,192.5,139.5z"/>
	<path class="st24" d="M192.5,141c10.3,0,18.7,8.1,18.7,18c0,10-8.4,18-18.7,18v-2.5c8.9,0,16.1-6.9,16.1-15.5s-7.2-15.5-16.1-15.5
		V141z M192.5,177c-10.3,0-18.7-8.1-18.7-18c0-10,8.4-18,18.7-18v2.5c-8.9,0-16.1,6.9-16.1,15.5s7.2,15.5,16.1,15.5l0,0V177z"/>
</g>
<g>
	<path class="st23" d="M289.3,154.7c11.1,0,20.2,8.7,20.2,19.4s-9,19.4-20.2,19.4l0,0v-4.8l0,0c8.4,0,15.2-6.6,15.2-14.7
		c0-8.1-6.8-14.7-15.2-14.7V154.7z M289.3,154.7L289.3,154.7v4.8l0,0c-8.4,0-15.2,6.6-15.2,14.7c0,8.1,6.8,14.7,15.2,14.7v4.8
		c-11.1,0-20.2-8.7-20.2-19.4C269.1,163.4,278.2,154.7,289.3,154.7z"/>
	<path class="st24" d="M289.3,156.2c10.3,0,18.7,8.1,18.7,18c0,10-8.4,18-18.7,18v-2.5c8.9,0,16.1-6.9,16.1-15.5
		s-7.2-15.5-16.1-15.5V156.2z M289.3,192.2c-10.3,0-18.7-8.1-18.7-18c0-10,8.4-18,18.7-18v2.5c-8.9,0-16.1,6.9-16.1,15.5
		s7.2,15.5,16.1,15.5l0,0V192.2z"/>
</g>
<g>
	<path class="st23" d="M239.9,174.2c11.1,0,20.2,8.7,20.2,19.4s-9,19.4-20.2,19.4l0,0v-4.8l0,0c8.4,0,15.2-6.6,15.2-14.7
		c0-8.1-6.8-14.7-15.2-14.7L239.9,174.2L239.9,174.2z M239.9,174.2L239.9,174.2v4.8l0,0c-8.4,0-15.2,6.6-15.2,14.7
		c0,8.1,6.8,14.7,15.2,14.7v4.8c-11.1,0-20.2-8.7-20.2-19.4C219.7,182.9,228.7,174.2,239.9,174.2z"/>
	<path class="st24" d="M239.9,175.6c10.3,0,18.7,8.1,18.7,18c0,10-8.4,18-18.7,18v-2.5c8.9,0,16.1-6.9,16.1-15.5
		s-7.2-15.5-16.1-15.5V175.6z M239.9,211.7c-10.3,0-18.7-8.1-18.7-18c0-10,8.4-18,18.7-18v2.5c-8.9,0-16.1,6.9-16.1,15.5
		s7.2,15.5,16.1,15.5l0,0V211.7z"/>
</g>
<g>
	<path class="st23" d="M246.8,94.8c11.1,0,20.2,8.7,20.2,19.4s-9,19.4-20.2,19.4l0,0v-4.8l0,0c8.4,0,15.2-6.6,15.2-14.7
		s-6.8-14.7-15.2-14.7V94.8z M246.8,94.8L246.8,94.8v4.8l0,0c-8.4,0-15.2,6.6-15.2,14.7s6.8,14.7,15.2,14.7v4.8
		c-11.1,0-20.2-8.7-20.2-19.4C226.6,103.5,235.7,94.8,246.8,94.8z"/>
	<path class="st24" d="M246.8,96.2c10.3,0,18.7,8.1,18.7,18c0,10-8.4,18-18.7,18v-2.5c8.9,0,16.1-6.9,16.1-15.5s-7.2-15.5-16.1-15.5
		L246.8,96.2L246.8,96.2z M246.8,132.3c-10.3,0-18.7-8.1-18.7-18c0-10,8.4-18,18.7-18v2.5c-8.9,0-16.1,6.9-16.1,15.5
		s7.2,15.5,16.1,15.5l0,0V132.3z"/>
</g>
<g>
	<path class="st20" d="M230.4,195.1c-3-7.9,25.2-44.9,36.6-30.1c0.5,0.7,0.9,1.4,1.2,2.2c6.2-0.8,11.6,1.3,13.4,5.9
		c1.8,4.5-0.7,10.1-5.7,14.1c0.3,0.8,0.5,1.6,0.6,2.4C278.1,208.5,233.4,203,230.4,195.1z"/>
	<path class="st25" d="M230.4,195.1c-1.9-4.8,8-20.6,18.6-28.7c-6.2,5.7-13.9,17.6-11.4,21.2c2.8,4,8.7-5.5,13.3-10.4
		s6.9-6.3,2.7-0.2c-4.2,6.1-3.7,7.2,4.5,3.6c8.3-3.6,24.3-7.8,12.2-2.3c-12.1,5.6-18.7,8.7-12.9,10.1c5.8,1.4,11.2,2.4-0.1,2
		c-11.3-0.4-13.6,0.3-15.4,5c-1.8,4.6,4.6,7.2,15.9,6.9C245.7,202.9,232,199.3,230.4,195.1z"/>
</g>
<g>
	<path class="st20" d="M227.6,122.6c-8.5-0.1-32.2-40.2-14.2-45.2c0.8-0.2,1.6-0.3,2.5-0.3c1.6-6.1,5.6-10.3,10.5-10.2
		c4.9,0.1,9.1,4.5,10.9,10.6c0.8,0,1.7,0.1,2.5,0.4C257.9,83.4,236,122.8,227.6,122.6z"/>
	<path class="st25" d="M227.6,122.6c-5.2-0.1-16.1-15.2-19.6-28c3,7.9,11.1,19.5,15.3,18.5c4.8-1.1-1.8-10.1-4.7-16.3
		c-2.9-6.1-3.2-8.7,0.8-2.6c4.1,6.2,5.3,6.2,5.1-2.8s1.8-25.5,2.4-12.1c0.6,13.3,1.1,20.6,4.6,15.7s6.4-9.5,1.8,0.9
		c-4.6,10.4-4.8,12.7-1.1,16.2c3.6,3.4,8.4-1.6,12.3-12.2C240.5,111.4,232.1,122.7,227.6,122.6z"/>
</g>
<g>
	<path class="st20" d="M223.3,229.6c-5.4,6.5-51.5,0.1-44.2-17c0.3-0.8,0.8-1.5,1.3-2.1c-3.8-5-4.6-10.8-1.5-14.6s9.2-4.4,15.1-2
		c0.5-0.7,1.1-1.2,1.8-1.7C211.5,181.4,228.7,223.1,223.3,229.6z"/>
	<path class="st25" d="M223.3,229.6c-3.3,4-21.9,3.1-34.2-2.1c8,2.6,22.1,3.4,24-0.5c2.1-4.4-9-4.9-15.6-6.5s-8.8-2.9-1.5-2.3
		c7.3,0.7,8.1-0.3,1-5.7c-7.2-5.4-18.8-17.3-8-9.5s16.8,12,15.1,6.2c-1.6-5.8-3.4-10.9,1.8-0.9s6.9,11.7,12,11
		c4.9-0.7,4-7.6-1.9-17.2C222.5,212.4,226.2,226.1,223.3,229.6z"/>
</g>
<g>
	<path class="st14" d="M295.3,156.2c-1.6-1.9-3.2-3.7-4.7-5.4c-1.4-1.6-2-3.5-1.8-5.4s1.1-3.7,2.7-5c1.7-1.4,3.6-2.9,5.5-4.5
		c1.4-0.2,2.9-0.3,4.6-0.1c1.3,0.2,2.6,0.5,3.8,0.8l-1.3,2.5l5.5-0.8c1.2,0.6,2.3,1.3,3.4,2l-1.9,2.6l3.6-1.3
		c4.1,3.2,6.7,6.5,6.7,6.5s-3.1,2.8-7.7,5.2l-3.4-1.9l1.4,2.8c-1.2,0.5-2.4,1-3.7,1.4l-5.3-1.7l0.8,2.7c-1.3,0.2-2.6,0.2-3.9,0.2
		C298.1,157,296.6,156.7,295.3,156.2z"/>
</g>
<g>
	<path class="st14" d="M180.1,147.2c1.6-1.2,3.3-2.5,4.8-3.5c1.4-1,2.2-2.5,2.3-4s-0.4-3-1.6-4.3c-1.3-1.3-2.7-2.8-4.1-4.3
		c-1.2-0.4-2.5-0.7-3.9-0.7c-1.1-0.1-2.3,0-3.4,0.1l0.7,2.2l-4.6-1.4c-1.1,0.3-2.2,0.7-3.2,1.1l1.2,2.3l-2.9-1.5
		c-4,1.9-6.6,4.1-6.6,4.1s2.2,2.6,5.8,5.2l3.2-1l-1.6,2c0.9,0.6,1.9,1.1,2.9,1.6l4.8-0.6l-1.1,2c1.1,0.3,2.2,0.6,3.3,0.7
		C177.5,147.4,178.9,147.3,180.1,147.2z"/>
</g>
<g>
	<path class="st14" d="M234.8,220.6c0.3-2.5,0.5-4.9,0.7-7.1c0.2-2.1,1.2-3.9,2.7-5c1.5-1.2,3.4-1.8,5.5-1.5
		c2.2,0.3,4.6,0.6,7.1,0.9c1.1,0.8,2.2,1.9,3.2,3.3c0.8,1.1,1.4,2.2,2,3.3l-2.7,0.8l4.3,3.5c0.4,1.3,0.6,2.6,0.8,3.8l-3.1,0.4
		l3.4,1.8c0.5,5.2-0.1,9.3-0.1,9.3s-4.1-0.3-9.1-2l-1-3.7l-1.1,3c-1.2-0.5-2.4-1-3.5-1.7l-2.4-5l-1.4,2.5c-1-0.8-1.9-1.7-2.8-2.7
		C236.1,223.2,235.3,221.9,234.8,220.6z"/>
</g>
<g>
	<path class="st14" d="M285.4,131.2c-2.1,1.3-4.2,2.5-6.1,3.7c-1.8,1.1-3.8,1.4-5.6,0.9c-1.8-0.5-3.5-1.7-4.5-3.5
		c-1.1-1.9-2.3-4.1-3.5-6.2c0-1.4,0.2-2.9,0.7-4.5c0.4-1.3,0.9-2.4,1.5-3.6l2.3,1.7l0.2-5.6c0.8-1.1,1.7-2.1,2.6-3l2.2,2.3l-0.6-3.8
		c3.8-3.5,7.5-5.5,7.5-5.5s2.2,3.5,3.8,8.4l-2.4,3l3-0.9c0.3,1.2,0.6,2.5,0.8,3.8l-2.6,4.9l2.8-0.3c0,1.3-0.2,2.6-0.5,3.8
		C286.6,128.6,286.1,130,285.4,131.2z"/>
</g>
<g>
	
		<ellipse transform="matrix(0.7071 -0.7071 0.7071 0.7071 -41.6535 192.2251)" class="st15" cx="211.2" cy="146.4" rx="20.2" ry="21.1"/>
	<path class="st26" d="M204.3,133.3l1.3-2c-1.8-0.1-3.6,2.2-3.6,2.2l-0.5-1.6c-1.5,1.5-1.5,3.4-1.5,3.4s-1.9,0-3.4,1.5l1.6,0.5
		c0,0-2.3,1.7-2.2,3.6l2-1.3c0,0-0.3,2.1,1.9,3.1l0.8-3c0,0,0.8,1.3,2.4,1.7c0,0-1.5-2.2-0.4-3.3s3.3,0.4,3.3,0.4
		c-0.3-1.6-1.7-2.4-1.7-2.4l3-0.8C206.4,133,204.3,133.3,204.3,133.3z"/>
</g>
<g>
	
		<ellipse transform="matrix(0.8915 -0.453 0.453 0.8915 -31.2391 144.7589)" class="st15" cx="286.6" cy="137.6" rx="11.6" ry="12.3"/>
	<path class="st26" d="M294.8,136.5l0.9,1.1c0.3-1-0.7-2.5-0.7-2.5l1,0.1c-0.6-1.1-1.6-1.6-1.6-1.6s0.3-1.1-0.3-2.2l-0.5,0.8
		c0,0-0.6-1.7-1.6-2l0.4,1.4c0,0-1.1-0.6-2,0.4l1.5,1.1c0,0-0.9,0.2-1.3,1c0,0,1.4-0.4,1.9,0.5c0.4,0.9-0.7,1.8-0.7,1.8
		c0.9,0.1,1.6-0.4,1.6-0.4v1.9C294.6,137.7,294.8,136.5,294.8,136.5z"/>
</g>
<g>
	<ellipse class="st21" cx="274.2" cy="147.7" rx="12.4" ry="12.1"/>
	<ellipse class="st22" cx="274.2" cy="147.7" rx="8.7" ry="8.5"/>
	<ellipse class="st21" cx="274.2" cy="147.7" rx="5" ry="4.9"/>
</g>
<path class="st27" d="M198.9,102.6c-2.7,9.9-0.8,16.3,2.8,20.8s7.4,12.8,13.7,17.5c7.4,5.5,20.1,6,25.9,4.3
	c6.4-2,11.2-6.8,16.9-11.1c5.7-4.3,14.4-6.3,17.9-11.8c3.7-5.7,4.5-13.1,5.7-19.4s-1.7-12.3-3.2-18.4c-1.4-5.9-2.7-11.4-6.8-16.4
	c-4-5-7.7-10.3-13.3-13.1c-5.8-2.9-12.3-6.5-18.9-6.9c-6.6-0.5-14.5,1.4-21.1,3.5c-6.4,2-11.2,8.2-17,12.5
	c-5.7,4.3-9.8,12.5-10.3,18.9C190.8,89.9,201.8,91.8,198.9,102.6z"/>
<g>
	
		<radialGradient id="SVGID_2_" cx="380.3619" cy="1115.7388" r="28.6723" gradientTransform="matrix(-0.5803 0.4355 -0.4519 -0.5592 961.483 555.4435)" gradientUnits="userSpaceOnUse">
		<stop  offset="0" style="stop-color:#FFDF07"/>
		<stop  offset="0.2607" style="stop-color:#FFDB09"/>
		<stop  offset="0.5103" style="stop-color:#FFD00D"/>
		<stop  offset="0.7551" style="stop-color:#FFBC15"/>
		<stop  offset="0.9961" style="stop-color:#FFA120"/>
		<stop  offset="1" style="stop-color:#FFA120"/>
	</radialGradient>
	<path class="st28" d="M220,109.6c7.2,8.8,20.4,10.4,29.6,3.5s10.8-19.6,3.7-28.5c-7.1-8.8-20.4-10.4-29.6-3.5
		C214.5,88,212.9,100.8,220,109.6z"/>
	<path class="st29" d="M255.9,95.8c-0.2-2.2-1.2-3.7-2.1-3.3c-1.3,0.6-2.3,2-1.8,3.9c1.5,5.2,1,6.3,1,8.2
		C253,105.1,256.3,102.1,255.9,95.8z"/>
</g>
<g>
	<path class="st30" d="M268.4,109.9c-9.9,3-11.7,26.3-8.8,36.3c3,9.9,13.7,16.4,23.6,13.4s15.4-14.2,12.4-24.2
		C292.7,125.5,278.4,106.9,268.4,109.9z"/>
	<path class="st30" d="M312.3,154.5c-8.9,5.3-12.6,17.3-7.3,26.2c5.3,8.9,17.6,11.4,26.5,6.1c8.9-5.3,23.4-23.7,18.1-32.6
		C344.3,145.2,321.2,149.2,312.3,154.5z"/>
	<path class="st31" d="M323.1,117.1c-9.1-5.1-27.1,10-32.1,19c-5.1,9.1-2.2,21.2,6.8,26.3c9.1,5.1,20.9,1.1,26-8
		S332.2,122.1,323.1,117.1z"/>
	<path class="st32" d="M274.8,158.4c-8.9,5.3-12.6,17.3-7.3,26.2c5.3,8.9,17.6,11.4,26.5,6.1c8.9-5.3,23.4-23.7,18.1-32.6
		C306.8,149.1,283.7,153.1,274.8,158.4z"/>
</g>
<g>
	<path class="st33" d="M230.2,229.7c9.5-2.2,19-7.8,26.6-15.7c16.1-16.6,18.3-40.6,5-53.5c-13.3-12.9-37.2-9.8-53.3,6.9
		c-7.5,7.8-13,16.7-15.5,25.3c-2.2,7.5-1.4,12.7,0.2,14.2c0.4,0.4,0.8,0.5,1.3,0.5c0.3-0.3,0.6-1.3,0.8-1.9c0.3-1,0.7-2,1.3-2.9
		c2.5-3.6,5.9-5.8,10-6.3c4.8-0.6,10.1,1.4,14.1,5.2c3.7,3.6,5.8,9.3,5.2,14.5c-0.4,4.1-2.4,7.5-5.5,9.6c-1.1,0.7-2.4,1.2-3.7,1.5
		c-0.8,0.2-2.5,0.7-2.6,1.1c0,0,0,0,0,0.1c0,0.2,0.1,0.4,0.4,0.6C216.2,230.6,222.4,231.5,230.2,229.7z M254.5,206.6
		c0,0-1.7,7-3.6,6.3c-2.6-1,4.7-6.3,1.2-18c-2.4-8.1-11.3-17.9-7.9-15.3C244.3,179.6,256.9,190.3,254.5,206.6z M228,225.1
		c6.1-2.7,4.5-16.7,3.1-24.4c0,0-1.8-4.6-3.5-5.9c-0.1-0.1-0.2-0.2-0.3-0.3c-1.4-1.1-6-2.4-6-2.4c-8-1.1-20.8-1.8-23.1,4.1
		c-0.3,0.7-0.6,2.9-2.2,1.9c-1.7-1,0.4-4.7,7.3-7.3c4.2-1.6,13-1.7,19-0.9l0,0l0,0c1.9,0.3,3.6,0.7,4.7,1.1c1.7-0.6,4.1-1.9,7.2-4.5
		c-0.2-0.1-0.5-0.2-0.7-0.4c-2.2-1.4-7.6-6.3-16.2-6.5c-2.9,0-7-1.1-3.3-2c10.3-2.5,20.9,6.5,21.9,7.4c1.2-1.1,2.6-2.4,4.1-3.9
		c0.9-0.9,1.7-1.8,2.5-2.6c-2.6-1.5-9.2-6.1-14.9-7.6c-11.8-3.1-16.9,4.3-18,1.8c-0.8-1.8,6.2-3.8,6.2-3.8
		c14.9-2.7,25.5,7.4,27.2,9.1c1.6-1.8,3-3.5,4.2-5.1c-1.4-2.4-4.3-6.8-7.6-9.2c-6.2-4.6-8.8-9.1-4.7-5.9c0,0,11.3,7.5,13.1,14
		c4.6-6.5,5.2-10.6,5.1-12.4c-1.6-1.3-3.5-2.6-5.5-4c0,0,7.5,1.5,12.2,5.7c4.6,4.3,8.2,13.2,7.2,13.9c-0.6,0.4-1.6-2.7-5.3-7.4
		c-2,0-6.5,0.9-13.4,6.5c6.8-1.3,16.9,12.8,16.9,12.8c3.3,4-1.3,1.5-6.1-4.5c-3.2-4-9.4-7.3-10.9-8.1v0.1c0,0,0-0.1-0.1-0.2l0,0
		c-1.4,1.2-2.9,2.5-4.6,4.1c0.4,0.5,0.2,0.6-0.3,0.3c-0.9,0.8-1.7,1.7-2.6,2.7c-1.5,1.6-2.8,3-3.8,4.3c0,0.1,0.1,0.2,0,0.3
		c0.3-0.1,0.7,0.1,1.2,0.6c0,0,10.5,10.7,8.2,21.7c-0.8,3.7-1.9-0.3-2.1-3.2c-0.4-8.5-5.6-13.8-7-15.9c-0.7-1-0.9-2.1-0.7-2.6
		c-0.1,0-0.2,0.1-0.3,0.1c-2.7,3.4-4.1,5.9-4.8,7.8c2.8,1.6,4.5,18.7,2.2,25.2c-2.4,7-6,9.2-7.1,7.6
		C225.1,225.8,227.3,225.4,228,225.1z"/>
	<path class="st34" d="M257.7,214.7c16.5-17.1,18.8-41.8,5-55.1c-13.7-13.3-38.4-10.2-54.9,6.9c-17,17.7-19.6,36.9-15.3,41.1
		c0.6,0.6,1.3,0.8,2.1,0.8c0.9,0,1.3-1.1,1.9-2.7c0.3-0.9,0.6-1.9,1.1-2.6c2.3-3.3,5.5-5.3,9.1-5.8c4.5-0.5,9.4,1.3,13.2,4.9
		c3.5,3.4,5.4,8.7,4.9,13.6c-0.4,3.7-2.2,6.8-5,8.7c-1,0.6-2.2,1-3.4,1.4c-2.2,0.7-3.5,1.2-3.5,2.3c0,0.5,0.2,1,0.7,1.4l0,0
		c2.1,2,8.5,3,16.8,1.1C240.2,228.5,249.9,222.8,257.7,214.7z M214,228.2L214,228.2c0.2-0.4,1.8-0.9,2.6-1.2
		c1.3-0.4,2.6-0.8,3.7-1.5c3.1-2.1,5.1-5.5,5.5-9.6c0.6-5.2-1.5-10.9-5.2-14.5c-4-3.8-9.2-5.8-14.1-5.2c-4,0.5-7.4,2.7-10,6.3
		c-0.6,0.9-1,2-1.3,2.9c-0.2,0.6-0.6,1.7-0.8,1.9c-0.5,0-0.9-0.2-1.3-0.5c-1.6-1.6-2.4-6.7-0.2-14.2c2.5-8.5,8-17.5,15.5-25.3
		c16.1-16.6,40-19.7,53.3-6.9c13.3,12.9,11.1,36.8-5,53.5c-7.6,7.9-17.1,13.5-26.6,15.7c-7.8,1.8-14,1-15.8-0.8
		C214.2,228.6,214,228.4,214,228.2z"/>
	<path class="st34" d="M244.3,179.6c-3.4-2.6,5.5,7.3,7.9,15.3c3.5,11.7-3.7,17-1.2,18c1.8,0.7,3.6-6.3,3.6-6.3
		C256.9,190.3,244.3,179.6,244.3,179.6z"/>
	<path class="st34" d="M233.2,219.9c2.3-6.5,0.6-23.6-2.2-25.2c0.6-1.9,2-4.4,4.8-7.8c0.1,0,0.2,0,0.3-0.1c-0.2,0.6,0,1.6,0.7,2.6
		c1.4,2.1,6.6,7.4,7,15.9c0.1,2.9,1.3,6.9,2.1,3.2c2.3-10.9-8.2-21.7-8.2-21.7c-0.5-0.5-0.9-0.6-1.2-0.6c0-0.1,0-0.2,0-0.3
		c1.1-1.3,2.4-2.8,3.8-4.3c0.9-1,1.8-1.9,2.6-2.7c0.5,0.3,0.7,0.2,0.3-0.3c1.6-1.6,3.2-2.9,4.6-4.1l0,0c0.1,0.1,0.1,0.2,0.1,0.2
		v-0.1c1.5,0.8,7.7,4,10.9,8.1c4.8,6,9.4,8.5,6.1,4.5c0,0-10.1-14.1-16.9-12.8c6.9-5.6,11.4-6.5,13.4-6.5c3.7,4.7,4.7,7.8,5.3,7.4
		c1-0.7-2.5-9.7-7.2-13.9c-4.6-4.3-12.2-5.7-12.2-5.7c2.1,1.3,3.9,2.7,5.5,4c0.1,1.8-0.5,5.9-5.1,12.4c-1.9-6.5-13.1-14-13.1-14
		c-4.2-3.1-1.5,1.4,4.7,5.9c3.3,2.5,6.2,6.8,7.6,9.2c-1.2,1.6-2.5,3.2-4.2,5.1c-1.6-1.7-12.3-11.8-27.2-9.1c0,0-7,2-6.2,3.8
		c1.1,2.5,6.2-4.9,18-1.8c5.7,1.5,12.3,6.1,14.9,7.6c-0.8,0.8-1.6,1.7-2.5,2.6c-1.5,1.5-2.8,2.8-4.1,3.9c-1-0.9-11.5-9.9-21.9-7.4
		c-3.7,0.9,0.4,1.9,3.3,2c8.6,0.1,14,5.1,16.2,6.5c0.2,0.2,0.5,0.3,0.7,0.4c-3.1,2.6-5.5,3.9-7.2,4.5c-1.1-0.5-2.8-0.9-4.7-1.1l0,0
		l0,0c-6-0.9-14.8-0.8-19,0.9c-6.9,2.7-9,6.3-7.3,7.3s2-1.2,2.2-1.9c2.3-5.9,15.2-5.1,23.1-4.1c0,0,4.7,1.3,6,2.4
		c0.1,0.1,0.2,0.2,0.3,0.3c1.7,1.3,3.5,5.9,3.5,5.9c1.4,7.8,3,21.8-3.1,24.4c-0.7,0.3-2.9,0.7-1.8,2.3
		C227.2,229.1,230.8,226.9,233.2,219.9z"/>
</g>
<rect y="366" class="st35" width="500" height="83"/>
<text transform="matrix(1 0 0 1 107 438)" class="st4 st36">NON VEG</text>
</svg>
