<?xml version="1.0" encoding="utf-8"?>
<!-- Generator: Adobe Illustrator 19.2.0, SVG Export Plug-In . SVG Version: 6.00 Build 0)  -->
<svg version="1.1" id="Layer_1" xmlns="http://www.w3.org/2000/svg" xmlns:xlink="http://www.w3.org/1999/xlink" x="0px" y="0px"
	 viewBox="0 0 71.1 64" style="enable-background:new 0 0 71.1 64;" xml:space="preserve">
<style type="text/css">
	.st0{fill:#E74C3C;}
	.st1{fill:#3498DB;}
	.st2{fill:#F1C40F;}
	.st3{fill:#2ECC71;}
	.st4{fill:#E67E22;}
	.st5{fill:#95A5A6;}
	.st6{fill:#ECF0F1;}
	.st7{fill:#1ABC9C;}
	.st8{fill:#C0392B;}
</style>
<g id="Layer_1_1_">
	<g>
		<g>
			<g>
				<g>
					<polygon class="st0" points="12.4,0.9 11.3,0.7 10.4,1.3 10.3,0.3 9.4,-0.2 10.4,-0.6 10.7,-1.6 11.4,-0.8 12.6,-0.9 12,0 
											"/>
					<polygon class="st1" points="32.8,57.4 31.7,57.2 30.8,57.8 30.8,56.8 29.8,56.3 30.9,55.9 31.2,54.9 31.9,55.7 33,55.6 
						32.4,56.5 					"/>
					<polygon class="st2" points="14,28.2 13.7,27.1 12.6,26.8 13.6,26.2 13.6,25.1 14.5,25.8 15.7,25.4 15.3,26.5 16,27.4 
						14.8,27.3 					"/>
					<polygon class="st3" points="60.3,1.4 59.9,0.4 58.8,0 59.8,-0.6 59.8,-1.7 60.8,-1 61.9,-1.3 61.5,-0.3 62.2,0.6 61,0.6 					
						"/>
					<ellipse class="st4" cx="61.2" cy="15.6" rx="1.7" ry="1.5"/>
					<path class="st5" d="M-1.2,44.5c0.5-0.4,1.2-0.4,1.7,0s0.5,1.1,0,1.5s-1.2,0.4-1.7,0S-1.6,45-1.2,44.5z"/>
					<polygon class="st6" points="33.1,11.4 34.8,10 36.4,11.6 34.7,13 					"/>
					<polygon class="st7" points="65,60 66.7,58.6 68.3,60.1 66.6,61.6 					"/>
					<polygon class="st8" points="46.8,35.4 48.5,33.9 50.1,35.5 48.4,36.9 					"/>
				</g>
			</g>
		</g>
	</g>
</g>
</svg>
