<?xml version="1.0" encoding="utf-8"?>
<!-- Generator: Adobe Illustrator 19.2.0, SVG Export Plug-In . SVG Version: 6.00 Build 0)  -->
<svg version="1.1" id="Layer_1" xmlns="http://www.w3.org/2000/svg" xmlns:xlink="http://www.w3.org/1999/xlink" x="0px" y="0px"
	 viewBox="0 0 222 224" style="enable-background:new 0 0 222 224;" xml:space="preserve">
<style type="text/css">
	.st0{fill:#E74C3C;}
	.st1{fill:#3498DB;}
	.st2{fill:#F1C40F;}
	.st3{fill:#2ECC71;}
	.st4{fill:#E67E22;}
	.st5{fill:#95A5A6;}
	.st6{fill:#ECF0F1;}
	.st7{fill:#1ABC9C;}
	.st8{fill:#C0392B;}
</style>
<g id="Layer_1_1_">
	<g>
		<g>
			
				<image style="overflow:visible;opacity:0.44;" width="228" height="230" xlink:href="CECB1469.png"  transform="matrix(1 0 0 1 -3 -3)">
			</image>
			<g>
				<g>
					<polygon class="st0" points="44.4,10.5 41,9.6 38.3,11.9 38.1,8.4 35.1,6.6 38.4,5.3 39.3,1.9 41.5,4.6 45,4.3 43.1,7.3 					
						"/>
					<polygon class="st1" points="107.4,204.4 104,203.5 101.3,205.8 101.2,202.3 98.1,200.4 101.4,199.2 102.3,195.7 104.5,198.5 
						108,198.2 106.1,201.1 					"/>
					<polygon class="st2" points="49.5,104 48.5,100.4 45,99.2 48.1,97.2 48.1,93.5 51,95.8 54.6,94.6 53.3,98.1 55.5,101.2 
						51.7,101 					"/>
					<polygon class="st3" points="192,12.2 190.9,8.6 187.4,7.4 190.5,5.3 190.5,1.6 193.5,3.9 197,2.8 195.7,6.3 197.9,9.3 
						194.2,9.2 					"/>
					<circle class="st4" cx="194.8" cy="60.8" r="5.3"/>
					
						<ellipse transform="matrix(0.7071 -0.7071 0.7071 0.7071 -113.5502 51.4567)" class="st5" cx="5.3" cy="162.8" rx="3.7" ry="3.7"/>
					
						<rect x="109.6" y="43.1" transform="matrix(0.7359 -0.6771 0.6771 0.7359 -1.7529 89.0405)" class="st6" width="7.3" height="7.3"/>
					
						<rect x="207.9" y="209.8" transform="matrix(0.7359 -0.6771 0.6771 0.7359 -88.6426 199.6192)" class="st7" width="7.3" height="7.3"/>
					
						<rect x="151.9" y="125.3" transform="matrix(0.7359 -0.6771 0.6771 0.7359 -46.2154 139.3834)" class="st8" width="7.3" height="7.3"/>
				</g>
			</g>
		</g>
	</g>
</g>
</svg>
