<?xml version="1.0" encoding="utf-8"?>
<!-- Generator: Adobe Illustrator 19.2.0, SVG Export Plug-In . SVG Version: 6.00 Build 0)  -->
<svg version="1.1" id="Layer_1" xmlns="http://www.w3.org/2000/svg" xmlns:xlink="http://www.w3.org/1999/xlink" x="0px" y="0px"
	 viewBox="0 0 54.9 59.8" style="enable-background:new 0 0 54.9 59.8;" xml:space="preserve">
<style type="text/css">
	.st0{fill:#E74C3C;}
	.st1{fill:#3498DB;}
	.st2{fill:#F1C40F;}
	.st3{fill:#2ECC71;}
	.st4{fill:#E67E22;}
	.st5{fill:#95A5A6;}
	.st6{fill:#ECF0F1;}
	.st7{fill:#1ABC9C;}
	.st8{fill:#C0392B;}
</style>
<g id="Layer_1_1_">
	<g>
		<g>
			<g>
				<g>
					<path class="st0" d="M5.3,2.4l0.3,0c0.4,0.1,0.8,0,1-0.2l0.2-0.1v0c0,0.4,0.3,0.8,0.7,1l0.1,0l-0.2,0C7,3.4,6.7,3.7,6.6,4
						l0,0.1L6.4,3.9c-0.3-0.3-0.7-0.4-1-0.4H5.1v0C5.4,3.3,5.5,2.8,5.3,2.4L5.3,2.4z"/>
					<polygon class="st1" points="22.4,59.3 21.3,59.1 20.5,59.8 20.4,58.7 19.5,58.1 20.5,57.7 20.8,56.6 21.5,57.5 22.5,57.4 
						21.9,58.3 					"/>
					<polygon class="st2" points="6.4,44.9 6.2,44.1 5.1,43.8 6,43.4 6,42.6 6.9,43.1 7.9,42.8 7.5,43.6 8.2,44.3 7.1,44.2 					"/>
					<polygon class="st3" points="53.8,21.4 54,22.3 54.9,22.6 54.1,23.1 54.1,24 53.4,23.5 52.5,23.7 52.8,22.9 52.3,22.1 
						53.2,22.1 					"/>
					<ellipse class="st4" cx="18.4" cy="17.5" rx="1.1" ry="0.9"/>
					<path class="st5" d="M29,32.2c-0.5-0.5-1.2-0.5-1.7,0c-0.5,0.5-0.5,1.3,0,1.8c0.5,0.5,1.2,0.5,1.7,0
						C29.5,33.5,29.5,32.7,29,32.2z"/>
					<polygon class="st6" points="47.5,46.1 48.1,44.9 48.8,46.2 48.1,47.3 					"/>
					<polygon class="st7" points="29.4,10 30.9,8.9 32.2,10.1 30.7,11.2 					"/>
					<polygon class="st8" points="1.9,20.7 3.4,19.4 4.8,20.8 3.3,22.1 					"/>
				</g>
			</g>
		</g>
	</g>
</g>
</svg>
