<?xml version="1.0" encoding="utf-8"?>
<!-- Generator: Adobe Illustrator 19.2.0, SVG Export Plug-In . SVG Version: 6.00 Build 0)  -->
<svg version="1.1" id="Layer_1" xmlns="http://www.w3.org/2000/svg" xmlns:xlink="http://www.w3.org/1999/xlink" x="0px" y="0px"
	 viewBox="0 0 500 500" style="enable-background:new 0 0 500 500;" xml:space="preserve">
<style type="text/css">
	.st0{opacity:0.48;fill:url(#SVGID_1_);}
	.st1{fill:#FFCA83;}
	.st2{fill:#F9E1B7;}
	.st3{fill:#FFBA00;}
	.st4{fill:#25AF1B;}
	.st5{fill:#AF509F;}
	.st6{fill:#00B4B6;}
	.st7{fill:#F05A28;}
	.st8{fill:#29ABE2;}
	.st9{clip-path:url(#SVGID_3_);}
	.st10{fill:#FFFFFF;}
	.st11{fill:none;stroke:#29ABE2;stroke-width:4;stroke-miterlimit:10;}
	.st12{fill:#1689A8;}
	.st13{fill:#F7931E;}
	.st14{clip-path:url(#SVGID_5_);}
	.st15{fill:none;stroke:#F7931E;stroke-width:4;stroke-miterlimit:10;}
	.st16{fill:#F15A24;}
	.st17{fill:#39B54A;}
	.st18{clip-path:url(#SVGID_7_);}
	.st19{fill:none;stroke:#009245;stroke-width:4;stroke-miterlimit:10;}
	.st20{fill:#006837;}
	.st21{clip-path:url(#SVGID_9_);}
	.st22{clip-path:url(#SVGID_11_);}
	.st23{clip-path:url(#SVGID_13_);}
	.st24{font-family:'MyriadPro-Regular';}
	.st25{font-size:72px;}
</style>
<linearGradient id="SVGID_1_" gradientUnits="userSpaceOnUse" x1="250" y1="-1.122407e-008" x2="250" y2="500">
	<stop  offset="0" style="stop-color:#FFFFFF"/>
	<stop  offset="1" style="stop-color:#FCFF51"/>
</linearGradient>
<rect class="st0" width="500" height="500"/>
<g>
	<g>
		<g>
			<g>
				<path class="st1" d="M266.2,306.5c-6.8,0-3.4-7.4-8.6-7.4c-5.2,0,0.8,14.8-7.4,14.8c-8.2,0-1.2-14.8-7.2-14.8
					c-6,0-1.8,9.9-8.2,9.9c-6.4,0-1.8-9.9-8.6-9.9c-6.8,0-2.9,12.1-9.5,12.1c-4.4,0-5.8-3.5-5.8-5.7V331c0,7.9,7,14,15.3,14h33.4
					c8.3,0,15.3-6,15.3-14v-31.7c0-0.2-0.1-0.5-0.1-0.7c-0.8-0.4-1.6-0.7-2.3-0.7C269.4,298,272.9,306.5,266.2,306.5z"/>
			</g>
		</g>
		<g>
			<path class="st2" d="M259.7,285h-33.4c-8.3,0-15.3,6.4-15.3,14.3v4.3v1.9c0,2.2,1.3,5.7,5.8,5.7c6.6,0,2.7-12.1,9.4-12.1
				c6.8,0,2.2,9.9,8.6,9.9c6.4,0,2.2-9.9,8.2-9.9c6,0-1,14.8,7.2,14.8c8.2,0,2.2-14.8,7.4-14.8c5.2,0,1.8,7.4,8.6,7.4
				c6.8,0,3.2-8.5,6.4-8.5c0.7,0,1.4,0.3,2.2,0.7C274.4,291,267.8,285,259.7,285z"/>
		</g>
	</g>
	<g>
		<g>
			<path class="st1" d="M296.3,342.3c-10.6,0,2.8,15.2-8,15.2c-10.8,0,1-15.4-9.6-15.4c-10.6,0,0.8,27.9-12,27.9
				c-12.8,0,2.6-28.9-6.6-28.9c-9.2,0-6.8,20.8-14.2,20.8c-7.4,0-0.8-20.8-9.8-20.8c-9,0-4,27.3-11,27.3c-7,0-8-4-8-16.7
				c0-12.7-5.8-10.4-11.8-10.4c-6,0-3,23.7-9.2,23.7c-6.2,0-2-19.3-6-23.1c-4-3.8-3.5,13.1-8.5,13.1c-3.1,0-3.9-4.6-3.9-8.2v90.9
				c0,7.9,6.2,14.5,14.6,14.5h100.9c8.3,0,14.5-6.6,14.5-14.5V366c0,0-1.5,0-2.7,0C298.7,366,306.9,342.3,296.3,342.3z"/>
		</g>
		<g>
			<path class="st2" d="M293.5,327H192.6c-8.3,0-14.6,6.7-14.6,14.6v1.1v3.9c0,3.5,0.8,8.2,3.9,8.2c5,0,4.7-16.9,8.6-13.1
				c4,3.8-0.3,23.1,5.9,23.1c6.2,0,3.2-23.7,9.1-23.7c6,0,11.7-2.3,11.7,10.4c0,12.7,1,16.7,8,16.7c7,0,2-27.3,11-27.3
				c9,0,2.4,20.8,9.8,20.8c7.4,0,5-20.8,14.2-20.8c9.2,0-6.2,29,6.6,29c12.8,0,1.4-27.9,12-27.9c10.6,0-1.2,15.5,9.6,15.5
				c10.8,0-2.6-15.4,8-15.4c10.6,0,2.4,23.7,9,23.7c1.2,0,2.7,0,2.7,0v-24.4C308,333.7,301.8,327,293.5,327z"/>
		</g>
	</g>
	<g>
		<g>
			<path class="st1" d="M341.9,426.3c-4.9,7.7,7,21.1-1.4,31.2c-9.7,11.6-20.1,0.4-16.4-13.2c2-7.2,3.5-18.4-3.5-22.2
				c-6.9-3.7-7.6,3.3-9,17.4c-1.4,14.1,0.2,25.5-7.9,25.5s4.9-44.8,6.2-51.6c1.4-6.8-11.3-10.5-9,6.6c2.3,17.1,0,20.4-4.9,20.4
				c-4.9,0-3.5-8.6-2.5-13.8c0.9-5.3,2.5-13.2-4.6-14.7c-7.2-1.5-7.9,6.8-3.5,22.7c4.4,15.9-1.4,27.6-24.5,24.5
				c-23.1-3.1,2.3-47.3-15.4-47.3c-17.7,0-2.2,17.5-18.4,17.5c-16.2,0-3.2-19.1-17.3-19.1c-14.1,0,8.3,44.4-17.3,44.4
				s-9-43.3-17.8-43.3c-8.8,0-5.1,26.6-16.4,26.6c-11.3,0-3.9-26.6-11.1-26.6c-7.2,0-8.4,4.4-8.4,20.4c0,16-8.8,14.1-8.8,14.1V500
				h226v-74.3C353.5,420.4,346.8,418.6,341.9,426.3z"/>
		</g>
		<g>
			<path class="st2" d="M340.7,389H145.3c-8.3,0-15.3,5.9-15.3,13.8v17v25.9c0,0,8.8,2,8.8-14.1c0-16,1.2-20.4,8.4-20.4
				c7.2,0-0.2,26.6,11.1,26.6c11.3,0,7.6-26.6,16.4-26.6c8.8,0-7.9,43.3,17.8,43.3s3.2-44.4,17.3-44.4c14.1,0,1.2,19.1,17.3,19.1
				c16.2,0,0.7-17.5,18.4-17.5c17.7,0-7.7,44.3,15.4,47.3c23.1,3.1,28.9-8.6,24.5-24.5c-4.4-15.9-3.7-24.3,3.5-22.7
				c7.2,1.5,5.5,9.4,4.6,14.7c-0.9,5.3-2.3,13.8,2.5,13.8c4.9,0,7.2-3.3,4.9-20.4c-2.3-17.1,10.4-13.4,9-6.6
				c-1.4,6.8-14.3,51.6-6.2,51.6s6.5-11.4,7.9-25.5c1.4-14.1,2.1-21.1,9-17.4c6.9,3.7,5.4,14.9,3.5,22.2
				c-3.7,13.7,6.7,24.9,16.4,13.2c8.4-10.1-3.4-23.5,1.5-31.2c4.9-7.7,11.6-5.9,14.1-0.7v-22.9C356,394.9,349.1,389,340.7,389z"/>
		</g>
	</g>
	<g>
		<g>
			<path class="st3" d="M231.9,257.1c1.1,0,1.3-3.4,0.4-5.7c-0.1,1.3-0.8,2.6-1,3.6C231.1,255.8,231,257.1,231.9,257.1z"/>
			<polygon class="st4" points="229.3,284.8 234.1,284.8 233,261.4 230.5,261.4 			"/>
		</g>
		<g>
			<path class="st3" d="M241,257.1c-1.1,0-1.3-3.4-0.4-5.7c0.1,1.3,0.8,2.6,1,3.6C241.8,255.8,241.8,257.1,241,257.1z"/>
			<polygon class="st5" points="243.5,284.8 238.8,284.8 239.9,261.4 242.4,261.4 			"/>
		</g>
		<g>
			<path class="st3" d="M250.3,257.1c1.1,0,1.3-3.4,0.4-5.7c-0.1,1.3-0.8,2.6-1,3.6C249.4,255.8,249.4,257.1,250.3,257.1z"/>
			<polygon class="st6" points="247.7,284.8 252.4,284.8 251.4,261.4 248.9,261.4 			"/>
		</g>
		<g>
			<path class="st3" d="M259.1,257.1c-1.1,0-1.3-3.4-0.4-5.7c0.1,1.3,0.8,2.6,1,3.6C259.9,255.8,259.9,257.1,259.1,257.1z"/>
			<polygon class="st7" points="261.7,284.8 256.9,284.8 258,261.4 260.5,261.4 			"/>
		</g>
	</g>
</g>
<g>
	<rect x="395.3" y="428.4" class="st8" width="62.1" height="75.6"/>
	<g>
		<g>
			<g>
				<g>
					<g>
						<g>
							<g>
								<g>
									<g>
										<g>
											<g>
												<g>
													<defs>
														<rect id="SVGID_2_" x="395.3" y="428.4" width="62.1" height="75.6"/>
													</defs>
													<clipPath id="SVGID_3_">
														<use xlink:href="#SVGID_2_"  style="overflow:visible;"/>
													</clipPath>
													<g class="st9">
														<polygon class="st10" points="424.2,388.8 359.1,466 358.4,465.1 423.5,388 														"/>
														<polygon class="st10" points="428.1,393.5 363.1,470.7 362.4,469.8 427.4,392.6 														"/>
														<polygon class="st10" points="432.1,398.2 367,475.4 366.3,474.5 431.4,397.3 														"/>
														<polygon class="st10" points="436,402.9 371,480 370.2,479.2 435.3,402 														"/>
														<polygon class="st10" points="440,407.5 374.9,484.7 374.2,483.9 439.3,406.7 														"/>
														<polygon class="st10" points="443.9,412.2 378.9,489.4 378.1,488.6 443.2,411.4 														"/>
														<polygon class="st10" points="447.9,416.9 382.8,494.1 382.1,493.2 447.2,416.1 														"/>
														<polygon class="st10" points="451.8,421.6 386.8,498.8 386,497.9 451.1,420.7 														"/>
														<polygon class="st10" points="455.8,426.3 390.7,503.5 390,502.6 455.1,425.4 														"/>
														<polygon class="st10" points="459.7,431 394.7,508.1 393.9,507.3 459,430.1 														"/>
														<polygon class="st10" points="463.7,435.6 398.6,512.8 397.9,512 463,434.8 														"/>
														<polygon class="st10" points="467.6,440.3 402.5,517.5 401.8,516.7 466.9,439.5 														"/>
														<polygon class="st10" points="471.6,445 406.5,522.2 405.8,521.3 470.9,444.2 														"/>
														<polygon class="st10" points="475.5,449.7 410.4,526.9 409.7,526 474.8,448.8 														"/>
														<polygon class="st10" points="479.5,454.4 414.4,531.6 413.7,530.7 478.7,453.5 														"/>
														<polygon class="st10" points="483.4,459.1 418.3,536.2 417.6,535.4 482.7,458.2 														"/>
														<polygon class="st10" points="487.4,463.7 422.3,540.9 421.6,540.1 486.6,462.9 														"/>
													</g>
												</g>
											</g>
										</g>
									</g>
								</g>
							</g>
						</g>
					</g>
				</g>
			</g>
		</g>
	</g>
	<path class="st11" d="M425.5,419.3c0.5,0.6,1.7,0.1,7.3-3.5c7.4-4.8,8.9-6.1,9.6-8.5c0.2-0.6,0.9-3.1,0-5.2c-1.4-3-5.8-3.8-8.8-2.2
		c-2.6,1.3-3.9,5-6.5,12.2C425.6,416,424.7,418.5,425.5,419.3z"/>
	<path class="st11" d="M427.4,425.2c0.7-0.3-14.5-14.8-15.5-17.2c-1.6-4.1,5.7-6.9,8.1-2.2C421.7,409,426.2,425.7,427.4,425.2z"/>
	<path class="st12" d="M458.9,430.6h-65.7v-11.1c11.7,0,23.3,0,35,0c10.2,0,20.4,0,30.7,0C458.9,423.2,458.9,426.9,458.9,430.6z"/>
</g>
<g>
	<rect x="491.4" y="442.1" class="st13" width="71.7" height="61"/>
	<g>
		<g>
			<g>
				<g>
					<g>
						<g>
							<g>
								<g>
									<g>
										<g>
											<g>
												<g>
													<defs>
														<rect id="SVGID_4_" x="491.4" y="442.1" width="71.7" height="61"/>
													</defs>
													<clipPath id="SVGID_5_">
														<use xlink:href="#SVGID_4_"  style="overflow:visible;"/>
													</clipPath>
													<g class="st14">
														<polygon class="st10" points="524.8,410.2 449.6,472.4 448.8,471.7 523.9,409.5 														"/>
														<polygon class="st10" points="529.3,413.9 454.2,476.1 453.4,475.5 528.5,413.2 														"/>
														<polygon class="st10" points="533.9,417.7 458.8,479.9 457.9,479.2 533.1,417 														"/>
														<polygon class="st10" points="538.4,421.5 463.3,483.7 462.5,483 537.6,420.8 														"/>
														<polygon class="st10" points="543,425.3 467.9,487.5 467,486.8 542.2,424.6 														"/>
														<polygon class="st10" points="547.6,429 472.4,491.2 471.6,490.6 546.7,428.3 														"/>
														<polygon class="st10" points="552.1,432.8 477,495 476.2,494.3 551.3,432.1 														"/>
														<polygon class="st10" points="556.7,436.6 481.5,498.8 480.7,498.1 555.9,435.9 														"/>
														<polygon class="st10" points="561.2,440.4 486.1,502.6 485.3,501.9 560.4,439.7 														"/>
														<polygon class="st10" points="565.8,444.1 490.7,506.3 489.8,505.7 565,443.4 														"/>
														<polygon class="st10" points="570.4,447.9 495.2,510.1 494.4,509.4 569.5,447.2 														"/>
														<polygon class="st10" points="574.9,451.7 499.8,513.9 499,513.2 574.1,451 														"/>
														<polygon class="st10" points="579.5,455.5 504.3,517.7 503.5,517 578.6,454.8 														"/>
														<polygon class="st10" points="584,459.2 508.9,521.4 508.1,520.8 583.2,458.5 														"/>
														<polygon class="st10" points="588.6,463 513.5,525.2 512.6,524.5 587.8,462.3 														"/>
														<polygon class="st10" points="593.1,466.8 518,529 517.2,528.3 592.3,466.1 														"/>
														<polygon class="st10" points="597.7,470.6 522.6,532.8 521.7,532.1 596.9,469.9 														"/>
													</g>
												</g>
											</g>
										</g>
									</g>
								</g>
							</g>
						</g>
					</g>
				</g>
			</g>
		</g>
	</g>
	<path class="st15" d="M526.3,434.7c0.6,0.5,2,0.1,8.4-2.8c8.5-3.8,10.2-4.9,11.1-6.9c0.2-0.5,1.1-2.5,0-4.2
		c-1.6-2.4-6.7-3-10.2-1.8c-3,1.1-4.5,4-7.6,9.9C526.4,432.1,525.4,434.1,526.3,434.7z"/>
	<path class="st15" d="M528.5,439.5c0.8-0.2-16.8-12-17.9-13.9c-1.8-3.3,6.6-5.5,9.3-1.8C521.9,426.5,527,439.9,528.5,439.5z"/>
	<path class="st16" d="M564.8,443.9H489v-9c13.5,0,27,0,40.4,0c11.8,0,23.6,0,35.4,0C564.8,437.9,564.8,440.9,564.8,443.9z"/>
</g>
<g>
	<rect x="451.5" y="463.2" class="st17" width="44.3" height="41.7"/>
	<g>
		<g>
			<g>
				<g>
					<g>
						<g>
							<g>
								<g>
									<g>
										<g>
											<g>
												<g>
													<defs>
														<rect id="SVGID_6_" x="451.5" y="463.2" width="44.3" height="41.7"/>
													</defs>
													<clipPath id="SVGID_7_">
														<use xlink:href="#SVGID_6_"  style="overflow:visible;"/>
													</clipPath>
													<g class="st18">
														<polygon class="st10" points="472.1,441.4 425.7,484 425.2,483.5 471.6,440.9 														"/>
														<polygon class="st10" points="474.9,444 428.5,486.6 428,486.1 474.4,443.5 														"/>
														<polygon class="st10" points="477.7,446.6 431.3,489.1 430.8,488.7 477.2,446.1 														"/>
														<polygon class="st10" points="480.6,449.1 434.1,491.7 433.6,491.3 480.1,448.7 														"/>
														<polygon class="st10" points="483.4,451.7 436.9,494.3 436.4,493.8 482.9,451.3 														"/>
														<polygon class="st10" points="486.2,454.3 439.8,496.9 439.2,496.4 485.7,453.8 														"/>
														<polygon class="st10" points="489,456.9 442.6,499.5 442.1,499 488.5,456.4 														"/>
														<polygon class="st10" points="491.8,459.5 445.4,502.1 444.9,501.6 491.3,459 														"/>
														<polygon class="st10" points="494.7,462.1 448.2,504.7 447.7,504.2 494.1,461.6 														"/>
														<polygon class="st10" points="497.5,464.6 451,507.2 450.5,506.8 497,464.2 														"/>
														<polygon class="st10" points="500.3,467.2 453.8,509.8 453.3,509.4 499.8,466.8 														"/>
														<polygon class="st10" points="503.1,469.8 456.7,512.4 456.2,511.9 502.6,469.3 														"/>
														<polygon class="st10" points="505.9,472.4 459.5,515 459,514.5 505.4,471.9 														"/>
														<polygon class="st10" points="508.7,475 462.3,517.6 461.8,517.1 508.2,474.5 														"/>
														<polygon class="st10" points="511.6,477.6 465.1,520.2 464.6,519.7 511.1,477.1 														"/>
														<polygon class="st10" points="514.4,480.1 467.9,522.7 467.4,522.3 513.9,479.7 														"/>
														<polygon class="st10" points="517.2,482.7 470.8,525.3 470.2,524.9 516.7,482.3 														"/>
													</g>
												</g>
											</g>
										</g>
									</g>
								</g>
							</g>
						</g>
					</g>
				</g>
			</g>
		</g>
	</g>
	<path class="st19" d="M473,458.2c0.4,0.3,1.2,0.1,5.2-1.9c5.3-2.6,6.3-3.4,6.8-4.7c0.1-0.4,0.7-1.7,0-2.9c-1-1.7-4.2-2.1-6.3-1.2
		c-1.9,0.7-2.8,2.7-4.7,6.8C473.1,456.4,472.5,457.7,473,458.2z"/>
	<path class="st19" d="M474.4,461.5c0.5-0.1-10.4-8.2-11-9.5c-1.1-2.2,4.1-3.8,5.8-1.2C470.3,452.5,473.5,461.8,474.4,461.5z"/>
	<path class="st20" d="M496.9,464.5H450v-6.1c8.3,0,16.7,0,25,0c7.3,0,14.6,0,21.9,0C496.9,460.4,496.9,462.4,496.9,464.5z"/>
</g>
<g>
	<rect x="-56.6" y="423.4" class="st8" width="62.1" height="75.6"/>
	<g>
		<g>
			<g>
				<g>
					<g>
						<g>
							<g>
								<g>
									<g>
										<g>
											<g>
												<g>
													<defs>
														<rect id="SVGID_8_" x="-56.6" y="423.4" width="62.1" height="75.6"/>
													</defs>
													<clipPath id="SVGID_9_">
														<use xlink:href="#SVGID_8_"  style="overflow:visible;"/>
													</clipPath>
													<g class="st21">
														<polygon class="st10" points="-27.7,383.8 -92.8,461 -93.5,460.1 -28.4,383 														"/>
														<polygon class="st10" points="-23.8,388.5 -88.8,465.7 -89.5,464.8 -24.5,387.6 														"/>
														<polygon class="st10" points="-19.8,393.2 -84.9,470.4 -85.6,469.5 -20.5,392.3 														"/>
														<polygon class="st10" points="-15.9,397.9 -80.9,475 -81.7,474.2 -16.6,397 														"/>
														<polygon class="st10" points="-11.9,402.5 -77,479.7 -77.7,478.9 -12.6,401.7 														"/>
														<polygon class="st10" points="-8,407.2 -73,484.4 -73.8,483.6 -8.7,406.4 														"/>
														<polygon class="st10" points="-4,411.9 -69.1,489.1 -69.8,488.2 -4.7,411.1 														"/>
														<polygon class="st10" points="-0.1,416.6 -65.1,493.8 -65.9,492.9 -0.8,415.7 														"/>
														<polygon class="st10" points="3.9,421.3 -61.2,498.5 -61.9,497.6 3.2,420.4 														"/>
														<polygon class="st10" points="7.8,426 -57.2,503.1 -58,502.3 7.1,425.1 														"/>
														<polygon class="st10" points="11.8,430.6 -53.3,507.8 -54,507 11.1,429.8 														"/>
														<polygon class="st10" points="15.7,435.3 -49.4,512.5 -50.1,511.7 15,434.5 														"/>
														<polygon class="st10" points="19.7,440 -45.4,517.2 -46.1,516.3 19,439.2 														"/>
														<polygon class="st10" points="23.6,444.7 -41.5,521.9 -42.2,521 22.9,443.8 														"/>
														<polygon class="st10" points="27.6,449.4 -37.5,526.6 -38.2,525.7 26.8,448.5 														"/>
														<polygon class="st10" points="31.5,454.1 -33.6,531.2 -34.3,530.4 30.8,453.2 														"/>
														<polygon class="st10" points="35.5,458.7 -29.6,535.9 -30.3,535.1 34.7,457.9 														"/>
													</g>
												</g>
											</g>
										</g>
									</g>
								</g>
							</g>
						</g>
					</g>
				</g>
			</g>
		</g>
	</g>
	<path class="st11" d="M-26.4,414.3c0.5,0.6,1.7,0.1,7.3-3.5c7.4-4.8,8.9-6.1,9.6-8.5c0.2-0.6,0.9-3.1,0-5.2c-1.4-3-5.8-3.8-8.8-2.2
		c-2.6,1.3-3.9,5-6.5,12.2C-26.3,411-27.2,413.5-26.4,414.3z"/>
	<path class="st11" d="M-24.5,420.2c0.7-0.3-14.5-14.8-15.5-17.2c-1.6-4.1,5.7-6.9,8.1-2.2C-30.2,404-25.7,420.7-24.5,420.2z"/>
	<path class="st12" d="M7,425.6h-65.7v-11.1c11.7,0,23.3,0,35,0c10.2,0,20.4,0,30.7,0C7,418.2,7,421.9,7,425.6z"/>
</g>
<g>
	<rect x="39.5" y="437.1" class="st13" width="71.7" height="61"/>
	<g>
		<g>
			<g>
				<g>
					<g>
						<g>
							<g>
								<g>
									<g>
										<g>
											<g>
												<g>
													<defs>
														<rect id="SVGID_10_" x="39.5" y="437.1" width="71.7" height="61"/>
													</defs>
													<clipPath id="SVGID_11_">
														<use xlink:href="#SVGID_10_"  style="overflow:visible;"/>
													</clipPath>
													<g class="st22">
														<polygon class="st10" points="72.9,405.2 -2.3,467.4 -3.1,466.7 72,404.5 														"/>
														<polygon class="st10" points="77.4,408.9 2.3,471.1 1.5,470.5 76.6,408.2 														"/>
														<polygon class="st10" points="82,412.7 6.9,474.9 6,474.2 81.2,412 														"/>
														<polygon class="st10" points="86.5,416.5 11.4,478.7 10.6,478 85.7,415.8 														"/>
														<polygon class="st10" points="91.1,420.3 16,482.5 15.1,481.8 90.3,419.6 														"/>
														<polygon class="st10" points="95.7,424 20.5,486.2 19.7,485.6 94.8,423.3 														"/>
														<polygon class="st10" points="100.2,427.8 25.1,490 24.3,489.3 99.4,427.1 														"/>
														<polygon class="st10" points="104.8,431.6 29.6,493.8 28.8,493.1 104,430.9 														"/>
														<polygon class="st10" points="109.3,435.4 34.2,497.6 33.4,496.9 108.5,434.7 														"/>
														<polygon class="st10" points="113.9,439.1 38.8,501.3 37.9,500.7 113.1,438.4 														"/>
														<polygon class="st10" points="118.5,442.9 43.3,505.1 42.5,504.4 117.6,442.2 														"/>
														<polygon class="st10" points="123,446.7 47.9,508.9 47.1,508.2 122.2,446 														"/>
														<polygon class="st10" points="127.6,450.5 52.4,512.7 51.6,512 126.7,449.8 														"/>
														<polygon class="st10" points="132.1,454.2 57,516.4 56.2,515.8 131.3,453.5 														"/>
														<polygon class="st10" points="136.7,458 61.6,520.2 60.7,519.5 135.9,457.3 														"/>
														<polygon class="st10" points="141.2,461.8 66.1,524 65.3,523.3 140.4,461.1 														"/>
														<polygon class="st10" points="145.8,465.6 70.7,527.8 69.8,527.1 145,464.9 														"/>
													</g>
												</g>
											</g>
										</g>
									</g>
								</g>
							</g>
						</g>
					</g>
				</g>
			</g>
		</g>
	</g>
	<path class="st15" d="M74.4,429.7c0.6,0.5,2,0.1,8.4-2.8c8.5-3.8,10.2-4.9,11.1-6.9c0.2-0.5,1.1-2.5,0-4.2c-1.6-2.4-6.7-3-10.2-1.8
		c-3,1.1-4.5,4-7.6,9.9C74.5,427.1,73.5,429.1,74.4,429.7z"/>
	<path class="st15" d="M76.6,434.5c0.8-0.2-16.8-12-17.9-13.9c-1.8-3.3,6.6-5.5,9.3-1.8C70,421.5,75.1,434.9,76.6,434.5z"/>
	<path class="st16" d="M112.9,438.9H37.1v-9c13.5,0,27,0,40.4,0c11.8,0,23.6,0,35.4,0C112.9,432.9,112.9,435.9,112.9,438.9z"/>
</g>
<g>
	<rect x="-0.4" y="458.2" class="st17" width="44.3" height="41.7"/>
	<g>
		<g>
			<g>
				<g>
					<g>
						<g>
							<g>
								<g>
									<g>
										<g>
											<g>
												<g>
													<defs>
														<rect id="SVGID_12_" x="-0.4" y="458.2" width="44.3" height="41.7"/>
													</defs>
													<clipPath id="SVGID_13_">
														<use xlink:href="#SVGID_12_"  style="overflow:visible;"/>
													</clipPath>
													<g class="st23">
														<polygon class="st10" points="20.2,436.4 -26.2,479 -26.7,478.5 19.7,435.9 														"/>
														<polygon class="st10" points="23,439 -23.4,481.6 -23.9,481.1 22.5,438.5 														"/>
														<polygon class="st10" points="25.8,441.6 -20.6,484.1 -21.1,483.7 25.3,441.1 														"/>
														<polygon class="st10" points="28.7,444.1 -17.8,486.7 -18.3,486.3 28.2,443.7 														"/>
														<polygon class="st10" points="31.5,446.7 -15,489.3 -15.5,488.8 31,446.3 														"/>
														<polygon class="st10" points="34.3,449.3 -12.1,491.9 -12.7,491.4 33.8,448.8 														"/>
														<polygon class="st10" points="37.1,451.9 -9.3,494.5 -9.8,494 36.6,451.4 														"/>
														<polygon class="st10" points="39.9,454.5 -6.5,497.1 -7,496.6 39.4,454 														"/>
														<polygon class="st10" points="42.8,457.1 -3.7,499.7 -4.2,499.2 42.2,456.6 														"/>
														<polygon class="st10" points="45.6,459.6 -0.9,502.2 -1.4,501.8 45.1,459.2 														"/>
														<polygon class="st10" points="48.4,462.2 1.9,504.8 1.4,504.4 47.9,461.8 														"/>
														<polygon class="st10" points="51.2,464.8 4.8,507.4 4.3,506.9 50.7,464.3 														"/>
														<polygon class="st10" points="54,467.4 7.6,510 7.1,509.5 53.5,466.9 														"/>
														<polygon class="st10" points="56.8,470 10.4,512.6 9.9,512.1 56.3,469.5 														"/>
														<polygon class="st10" points="59.7,472.6 13.2,515.2 12.7,514.7 59.2,472.1 														"/>
														<polygon class="st10" points="62.5,475.1 16,517.7 15.5,517.3 62,474.7 														"/>
														<polygon class="st10" points="65.3,477.7 18.9,520.3 18.3,519.9 64.8,477.3 														"/>
													</g>
												</g>
											</g>
										</g>
									</g>
								</g>
							</g>
						</g>
					</g>
				</g>
			</g>
		</g>
	</g>
	<path class="st19" d="M21.1,453.2c0.4,0.3,1.2,0.1,5.2-1.9c5.3-2.6,6.3-3.4,6.8-4.7c0.1-0.4,0.7-1.7,0-2.9c-1-1.7-4.2-2.1-6.3-1.2
		c-1.9,0.7-2.8,2.7-4.7,6.8C21.2,451.4,20.6,452.7,21.1,453.2z"/>
	<path class="st19" d="M22.5,456.5c0.5-0.1-10.4-8.2-11-9.5c-1.1-2.2,4.1-3.8,5.8-1.2C18.4,447.5,21.6,456.8,22.5,456.5z"/>
	<path class="st20" d="M45,459.5H-1.9v-6.1c8.3,0,16.7,0,25,0c7.3,0,14.6,0,21.9,0C45,455.4,45,457.4,45,459.5z"/>
</g>
<rect x="-1.9" y="113" class="st2" width="521.3" height="94"/>
<text transform="matrix(1 0 0 1 76.6206 183)" class="st24 st25">PINEAPPLE</text>
</svg>
