<?xml version="1.0" encoding="utf-8"?>
<!-- Generator: Adobe Illustrator 19.2.0, SVG Export Plug-In . SVG Version: 6.00 Build 0)  -->
<svg version="1.1" id="Layer_1" xmlns="http://www.w3.org/2000/svg" xmlns:xlink="http://www.w3.org/1999/xlink" x="0px" y="0px"
	 viewBox="0 0 405 438" style="enable-background:new 0 0 405 438;" xml:space="preserve">
<style type="text/css">
	.st0{fill:#FFFFFF;}
</style>
<path class="st0" d="M336.7,57.7c1.4-0.2,2.2-2.9,3.3-9.8c1.4-8.4,2-12.6,1.5-16c-0.5-3.6-1.1-7.1-3.8-10.3
	c-4.1-4.8-10.3-5.6-15.3-6.3c-5.1-0.6-9.4-0.2-13.3,0.5c-9.9,1.7-17,4.7-23.8,7.5c-30.1,12.5-29.4,12-36.3,15.2
	c-2.3,1.1-9.4,4.5-21,10.8c-3.3,1.8-25,13.5-44.3,25.8c-45.9,29.2-79.2,61.2-79.2,61.2c-16.9,16.2-40,38.6-62,74.1
	c0,0-9.4,12.7-19,35.3c-0.8,1.8-3.7,9-4.5,18.8c-0.4,5.6-0.7,9.9,1.8,14.5c3.5,6.5,9.8,8.9,11.5,9.5c4.5,1.6,8.4,1.4,12.3,1
	c15.6-1.7,27.5-6,27.5-6c4.3-1.6,12.4-4.7,30.3-13.5c9.2-4.6,18.1-9,30-15.8c13.5-7.7,34.4-19.1,33.5-21c-0.3-0.7-6.9,1.2-20,5
	c-11.9,3.5-14.1,4.4-20.5,5.8c-3.4,0.7-9.7,2-17.8,2.5c-7.9,0.5-12,0.7-16-1.3c-0.9-0.4-7.3-3.7-9.5-10.8
	c-1.8-5.7,0.1-10.9,1.5-14.3c8.8-22.1,16.7-32.2,16.7-32.2c22.7-29,34-43.5,35.8-45.3c17-17.7,30.9-28.2,54-45.5
	c7.6-5.7,26.1-19.3,49.5-33c0,0,16.5-9.6,39-17.5c2.5-0.9,6.9-2.3,12.8-3.3c5.2-0.8,12.6-1.9,21.6,0.4c4.2,1,18.5,10,21.6,12.8
	C335.7,57.4,336.1,57.8,336.7,57.7z"/>
<path class="st0" d="M201.5,211.2c-0.8-1.5,22.7-16.4,42.3-27.7c0,0,19.7-11.3,47-23.7c0,0,9.5-4.3,25.3-9
	c7.3-2.2,15.6-4.3,25.3-2.7c4.6,0.8,7,1.9,8.9,3.3c5.8,4,7.5,10.5,8.3,13.3c0.3,1.1,1.4,5.3,0.5,14c-0.3,3.5-1.3,11-5,21.3
	c-3.3,9.2-7,15.6-10.3,21.3c-5,8.7-9.8,15.3-13.5,20c-15.2,19.6-32.3,35.7-39,41.8c-20.4,18.6-37.5,30.7-51,40.3
	c-17.9,12.6-32.2,21.3-45,29c-7.2,4.3-22.4,13.4-49.3,27.8c-34.2,18.3-78.2,40.4-79,38.9c-0.4-0.8,13.6-8.4,40-25.3
	c7.2-4.6,31.3-20.1,59-40c26.8-19.3,43.4-32.9,64-49.8c0,0,28.2-23.2,46.3-48.5c3.8-5.4,7-11.2,7-11.2c2.6-4.9,5.7-10.7,7.8-18.8
	c1.7-6.6,3-11.8,1.3-18.3c-0.6-2.3-3.1-8.7-8.5-12.5c-4.4-3.1-18.6-3.6-24-2c-3.9,1.1-6.4,1.1-13,3.3c-16.6,5.3-12.1,3.5-20,6.3
	C208.5,208.3,202,212,201.5,211.2z"/>
<path class="st0" d="M362,78c2.8,0.5,11.2,2.3,19.5,8.8c4.3,3.3,8.1,6.3,9.8,11.8c2.3,7.6-1.3,14.2-2,15.5c-3.6,6.7-9.7,9.4-15.5,12
	c-2.2,1-11.4,4.9-24.3,4.2c-5.6-0.3-14.7-0.7-23.8-6.7c-4.4-3-11.5-7.7-12.5-15.8c-1-8.4,5.2-15.1,8-18c5.4-5.8,11.5-7.9,16.3-9.5
	C341.4,78.8,350.4,75.8,362,78z"/>
</svg>
